G04*
G04 #@! TF.GenerationSoftware,Altium Limited,Altium Designer,25.8.1 (18)*
G04*
G04 Layer_Color=16711935*
%FSLAX44Y44*%
%MOMM*%
G71*
G04*
G04 #@! TF.SameCoordinates,615BD6FC-8C97-45DB-998E-DFA11581AE0A*
G04*
G04*
G04 #@! TF.FilePolarity,Positive*
G04*
G01*
G75*
%ADD10C,0.2000*%
%ADD72C,0.0500*%
D10*
X943902Y802390D02*
Y866390D01*
X916902Y802390D02*
X943902D01*
X916902D02*
Y866390D01*
X943902D01*
X879476Y18182D02*
X908176D01*
Y100182D01*
X879476D02*
X908176D01*
X879476Y18182D02*
Y100182D01*
X950850Y18182D02*
X979550D01*
Y100182D01*
X950850D02*
X979550D01*
X950850Y18182D02*
Y100182D01*
X1017652Y18182D02*
X1046352D01*
Y100182D01*
X1017652D02*
X1046352D01*
X1017652Y18182D02*
Y100182D01*
X1083438Y18182D02*
X1112138D01*
Y100182D01*
X1083438D02*
X1112138D01*
X1083438Y18182D02*
Y100182D01*
X1189698Y374900D02*
X1216698D01*
X1189698Y310900D02*
Y374900D01*
Y310900D02*
X1216698D01*
Y374900D01*
X1281688Y355054D02*
Y382054D01*
Y355054D02*
X1345688D01*
Y382054D01*
X1281688D02*
X1345688D01*
X1367244Y426608D02*
X1394244D01*
X1367244Y362608D02*
Y426608D01*
Y362608D02*
X1394244D01*
Y426608D01*
X1414784Y844258D02*
Y871258D01*
Y844258D02*
X1478784D01*
Y871258D01*
X1414784D02*
X1478784D01*
X1388614Y527520D02*
Y554520D01*
X1324614D02*
X1388614D01*
X1324614Y527520D02*
Y554520D01*
Y527520D02*
X1388614D01*
X1088516Y138070D02*
Y194670D01*
X1059816Y138070D02*
X1088516D01*
X1059816D02*
Y194670D01*
X1088516D01*
X1033652Y138070D02*
Y194670D01*
X1004952Y138070D02*
X1033652D01*
X1004952D02*
Y194670D01*
X1033652D01*
X923924Y138070D02*
Y194670D01*
X895224Y138070D02*
X923924D01*
X895224D02*
Y194670D01*
X923924D01*
X978788Y138070D02*
Y194670D01*
X950088Y138070D02*
X978788D01*
X950088D02*
Y194670D01*
X978788D01*
X1144232Y260862D02*
X1171232D01*
Y324862D01*
X1144232D02*
X1171232D01*
X1144232Y260862D02*
Y324862D01*
D72*
X1276800Y945134D02*
X1276691Y947670D01*
X1276364Y950187D01*
X1275822Y952667D01*
X1275069Y955091D01*
X1274110Y957441D01*
X1272953Y959700D01*
X1271606Y961852D01*
X1270079Y963879D01*
X1268383Y965768D01*
X1266531Y967504D01*
X1264537Y969074D01*
X1262415Y970468D01*
X1260181Y971673D01*
X1257852Y972682D01*
X1255445Y973487D01*
X1252977Y974082D01*
X1250468Y974463D01*
X1247935Y974627D01*
X1245397Y974573D01*
X1242873Y974300D01*
X1240383Y973811D01*
X1237943Y973111D01*
X1235573Y972203D01*
X1233289Y971094D01*
X1231109Y969794D01*
X1229049Y968311D01*
X1227124Y966656D01*
X1225349Y964842D01*
X1223736Y962882D01*
X1222298Y960791D01*
X1221044Y958583D01*
X1219985Y956276D01*
X1219128Y953887D01*
X1218480Y951433D01*
X1218046Y948932D01*
X1217827Y946403D01*
Y943865D01*
X1218046Y941336D01*
X1218480Y938835D01*
X1219128Y936381D01*
X1219985Y933992D01*
X1221044Y931685D01*
X1222298Y929477D01*
X1223736Y927386D01*
X1225349Y925426D01*
X1227124Y923612D01*
X1229049Y921957D01*
X1231109Y920474D01*
X1233289Y919174D01*
X1235572Y918065D01*
X1237943Y917157D01*
X1240382Y916457D01*
X1242873Y915968D01*
X1245397Y915695D01*
X1247935Y915641D01*
X1250468Y915805D01*
X1252977Y916186D01*
X1255445Y916781D01*
X1257852Y917586D01*
X1260181Y918595D01*
X1262415Y919800D01*
X1264537Y921194D01*
X1266531Y922764D01*
X1268383Y924500D01*
X1270079Y926389D01*
X1271606Y928416D01*
X1272953Y930568D01*
X1274110Y932827D01*
X1275069Y935177D01*
X1275822Y937601D01*
X1276364Y940081D01*
X1276691Y942598D01*
X1276800Y945134D01*
X1242300D02*
X1252300D01*
X1247300Y940134D02*
Y950134D01*
M02*
