G04*
G04 #@! TF.GenerationSoftware,Altium Limited,Altium Designer,25.8.1 (18)*
G04*
G04 Layer_Physical_Order=2*
G04 Layer_Color=16711680*
%FSLAX44Y44*%
%MOMM*%
G71*
G04*
G04 #@! TF.SameCoordinates,615BD6FC-8C97-45DB-998E-DFA11581AE0A*
G04*
G04*
G04 #@! TF.FilePolarity,Positive*
G04*
G01*
G75*
%ADD18C,0.8000*%
%ADD20R,1.6000X1.6000*%
%ADD21C,2.0000*%
%ADD22R,2.0000X2.0000*%
%ADD25R,2.0000X2.0000*%
%ADD31C,2.5000*%
%ADD37R,2.5000X2.5000*%
%ADD43C,1.2700*%
%ADD45C,1.0000*%
%ADD46C,1.2000*%
%ADD47C,0.7620*%
%ADD48C,1.7000*%
%ADD49C,1.5000*%
%ADD50C,2.4000*%
%ADD51O,2.2000X3.0000*%
%ADD52O,2.0000X2.0000*%
%ADD53C,1.9000*%
%ADD54R,1.5000X1.5000*%
G04:AMPARAMS|DCode=55|XSize=1.3mm|YSize=1.3mm|CornerRadius=0.325mm|HoleSize=0mm|Usage=FLASHONLY|Rotation=0.000|XOffset=0mm|YOffset=0mm|HoleType=Round|Shape=RoundedRectangle|*
%AMROUNDEDRECTD55*
21,1,1.3000,0.6500,0,0,0.0*
21,1,0.6500,1.3000,0,0,0.0*
1,1,0.6500,0.3250,-0.3250*
1,1,0.6500,-0.3250,-0.3250*
1,1,0.6500,-0.3250,0.3250*
1,1,0.6500,0.3250,0.3250*
%
%ADD55ROUNDEDRECTD55*%
%ADD56C,1.3000*%
%ADD57R,2.2800X2.2800*%
%ADD58R,2.4000X2.4000*%
%ADD59C,2.2800*%
%ADD60O,3.0000X2.2000*%
%ADD61C,1.2700*%
%ADD62C,3.2000*%
G04:AMPARAMS|DCode=63|XSize=1.97mm|YSize=0.59mm|CornerRadius=0.0738mm|HoleSize=0mm|Usage=FLASHONLY|Rotation=180.000|XOffset=0mm|YOffset=0mm|HoleType=Round|Shape=RoundedRectangle|*
%AMROUNDEDRECTD63*
21,1,1.9700,0.4425,0,0,180.0*
21,1,1.8225,0.5900,0,0,180.0*
1,1,0.1475,-0.9113,0.2213*
1,1,0.1475,0.9113,0.2213*
1,1,0.1475,0.9113,-0.2213*
1,1,0.1475,-0.9113,-0.2213*
%
%ADD63ROUNDEDRECTD63*%
G04:AMPARAMS|DCode=64|XSize=1.97mm|YSize=0.59mm|CornerRadius=0.0738mm|HoleSize=0mm|Usage=FLASHONLY|Rotation=270.000|XOffset=0mm|YOffset=0mm|HoleType=Round|Shape=RoundedRectangle|*
%AMROUNDEDRECTD64*
21,1,1.9700,0.4425,0,0,270.0*
21,1,1.8225,0.5900,0,0,270.0*
1,1,0.1475,-0.2213,-0.9113*
1,1,0.1475,-0.2213,0.9113*
1,1,0.1475,0.2213,0.9113*
1,1,0.1475,0.2213,-0.9113*
%
%ADD64ROUNDEDRECTD64*%
G04:AMPARAMS|DCode=65|XSize=1.31mm|YSize=0.93mm|CornerRadius=0.0698mm|HoleSize=0mm|Usage=FLASHONLY|Rotation=90.000|XOffset=0mm|YOffset=0mm|HoleType=Round|Shape=RoundedRectangle|*
%AMROUNDEDRECTD65*
21,1,1.3100,0.7905,0,0,90.0*
21,1,1.1705,0.9300,0,0,90.0*
1,1,0.1395,0.3953,0.5853*
1,1,0.1395,0.3953,-0.5853*
1,1,0.1395,-0.3953,-0.5853*
1,1,0.1395,-0.3953,0.5853*
%
%ADD65ROUNDEDRECTD65*%
G04:AMPARAMS|DCode=66|XSize=1.31mm|YSize=3.24mm|CornerRadius=0.0983mm|HoleSize=0mm|Usage=FLASHONLY|Rotation=90.000|XOffset=0mm|YOffset=0mm|HoleType=Round|Shape=RoundedRectangle|*
%AMROUNDEDRECTD66*
21,1,1.3100,3.0435,0,0,90.0*
21,1,1.1135,3.2400,0,0,90.0*
1,1,0.1965,1.5218,0.5568*
1,1,0.1965,1.5218,-0.5568*
1,1,0.1965,-1.5218,-0.5568*
1,1,0.1965,-1.5218,0.5568*
%
%ADD66ROUNDEDRECTD66*%
%ADD67C,0.7000*%
G36*
X1178410Y187901D02*
X1179470Y187701D01*
X1179470Y187701D01*
X1327150Y187706D01*
X1328110D01*
X1329884Y186971D01*
X1331241Y185614D01*
X1331976Y183840D01*
Y182880D01*
Y112776D01*
X1316736Y97536D01*
X1316736Y70358D01*
X1316736Y69591D01*
X1312422Y65278D01*
X1311656Y65278D01*
X881456D01*
X877384Y66616D01*
X876046Y70688D01*
Y155606D01*
X881721Y161280D01*
X881793Y161290D01*
X1165860Y161290D01*
X1165958Y163583D01*
X1166078Y168173D01*
X1166096Y172764D01*
X1166014Y177354D01*
X1165935Y179648D01*
X1165935Y179648D01*
X1166266Y180674D01*
X1167285Y182575D01*
X1168629Y184262D01*
X1170254Y185680D01*
X1172107Y186783D01*
X1174129Y187535D01*
X1176253Y187912D01*
X1178410Y187901D01*
D02*
G37*
G36*
X1435100Y235204D02*
Y212598D01*
X1428496Y205994D01*
X1398778D01*
X1372362Y179578D01*
Y67818D01*
X1370076Y65532D01*
X1340612D01*
Y193040D01*
X1387094Y239522D01*
X1430782D01*
X1435100Y235204D01*
D02*
G37*
G36*
X1322069Y314959D02*
X1477106Y314960D01*
X1483105Y314959D01*
X1488057Y312428D01*
X1488058Y312427D01*
X1488947Y310279D01*
X1488947Y309117D01*
X1488948Y91984D01*
X1488947Y91983D01*
X1488947Y89680D01*
X1488049Y85161D01*
X1486286Y80904D01*
X1483726Y77074D01*
X1482097Y75445D01*
X1467030Y60377D01*
Y60377D01*
X1467019Y60366D01*
X1416817Y10165D01*
X1415487Y8835D01*
X1412360Y6745D01*
X1408884Y5306D01*
X1405195Y4572D01*
X1403314Y4572D01*
X868228D01*
X866454Y5307D01*
X865097Y6664D01*
X864362Y8438D01*
Y43434D01*
X864361Y44596D01*
X865251Y46744D01*
X866894Y48387D01*
X869042Y49276D01*
X870204Y49276D01*
X1386332Y49276D01*
X1388075Y49361D01*
X1391493Y50041D01*
X1391494Y50041D01*
X1391939Y50226D01*
X1394714Y51375D01*
X1397612Y53311D01*
X1400077Y55776D01*
X1402013Y58674D01*
X1403347Y61894D01*
X1404026Y65313D01*
X1404112Y67056D01*
X1404112Y116586D01*
X1448693Y161167D01*
X1449692Y162269D01*
X1451344Y164740D01*
X1452482Y167487D01*
X1453061Y170403D01*
X1453134Y171889D01*
X1453134Y291847D01*
X1453134Y291847D01*
X1453134Y291848D01*
X1453070Y293004D01*
X1452563Y295263D01*
X1452563Y295264D01*
X1451573Y297357D01*
X1450150Y299183D01*
X1449296Y299968D01*
X1345200Y299672D01*
X1345200Y299672D01*
X1344396Y299410D01*
X1342929Y298576D01*
X1341736Y297383D01*
X1340902Y295916D01*
X1340640Y295112D01*
X1340640Y295112D01*
X1340310Y294471D01*
X1339771Y293134D01*
X1339400Y291741D01*
X1339203Y290313D01*
X1339171Y289592D01*
X1339170Y289592D01*
X1339159Y288774D01*
X1338517Y287267D01*
X1337351Y286117D01*
X1335836Y285496D01*
X1322069D01*
X1320806Y285496D01*
X1318472Y286462D01*
X1316685Y288249D01*
X1315719Y290583D01*
X1315719Y291847D01*
Y311150D01*
X1318012Y313330D01*
X1321123Y315196D01*
X1322069Y314959D01*
D02*
G37*
D18*
X1259840Y649478D02*
X1320283D01*
X1235456Y673862D02*
X1259840Y649478D01*
X1327508Y650339D02*
X1329230Y652061D01*
X1320283Y649478D02*
X1321144Y650339D01*
X1327508D01*
X1203706Y804672D02*
Y861569D01*
X1204976Y862839D01*
Y918464D01*
X1173734Y949706D02*
X1204976Y918464D01*
X1152525Y847725D02*
X1187831D01*
X1188212Y847344D01*
X1152144Y848106D02*
X1152525Y847725D01*
X934098Y863086D02*
Y955673D01*
X1381614Y475634D02*
X1388735Y468513D01*
X1398006D02*
X1400302Y466217D01*
X1388735Y468513D02*
X1398006D01*
X1332745Y963923D02*
X1333246D01*
X1325755Y970913D02*
X1332745Y963923D01*
X1381614Y475634D02*
Y541020D01*
X949338Y970913D02*
X1325755D01*
X934098Y955673D02*
X949338Y970913D01*
X930402Y859390D02*
X934098Y863086D01*
X1347089Y673176D02*
X1368171Y652094D01*
X1304138Y709981D02*
Y782574D01*
X1267333Y673176D02*
X1304138Y709981D01*
X1267333Y673176D02*
X1347089D01*
X1422908Y448310D02*
X1447546Y472948D01*
X1422908Y433070D02*
Y448310D01*
X1380217Y369081D02*
X1380744Y369608D01*
X1339215Y369081D02*
X1380217D01*
X1338688Y368554D02*
X1339215Y369081D01*
X1152144Y949706D02*
X1173734D01*
X1040638Y336550D02*
Y756158D01*
X909574Y205486D02*
X1040638Y336550D01*
X909574Y179070D02*
Y205486D01*
X999998Y771797D02*
X1024998D01*
X1040638Y756158D01*
X999998Y797197D02*
X1038969D01*
X1058418Y314960D02*
Y777748D01*
X1038969Y797197D02*
X1058418Y777748D01*
X1077976Y302725D02*
Y780796D01*
X1036174Y822598D02*
X1077976Y780796D01*
X999998Y822598D02*
X1036174D01*
X1098804Y288290D02*
Y788670D01*
X999998Y847998D02*
X1039476D01*
X1098804Y788670D01*
X1065181Y254667D02*
X1098804Y288290D01*
X1019302Y244051D02*
X1077976Y302725D01*
X964438Y220980D02*
X1058418Y314960D01*
X1389888Y745490D02*
X1450848Y806450D01*
X1421276Y858266D02*
X1421784Y857758D01*
X1383538Y858774D02*
X1384046Y858266D01*
X1421276D01*
X1450848Y806450D02*
Y834390D01*
X1389888Y638810D02*
Y745490D01*
X1378204Y627126D02*
X1389888Y638810D01*
X1329230Y652061D02*
X1354165Y627126D01*
X1378204D01*
X1152144Y594106D02*
X1223772D01*
X1262380Y440690D02*
Y555498D01*
X1223772Y594106D02*
X1262380Y555498D01*
X1380744Y419608D02*
X1399718D01*
X1283462D02*
X1380744D01*
X1262380Y440690D02*
X1283462Y419608D01*
X1399718D02*
X1434084Y385242D01*
X1465199D01*
X483616Y83962D02*
Y130556D01*
X702564Y54610D02*
X718498Y70544D01*
X483616Y83962D02*
X512968Y54610D01*
X702564D01*
X718498Y70544D02*
Y525712D01*
X761384Y568597D02*
X999998D01*
X718498Y525712D02*
X761384Y568597D01*
X740410Y515366D02*
X768242Y543198D01*
X999998D01*
X716702Y35052D02*
X740410Y58760D01*
Y515366D01*
X432816Y74422D02*
X472186Y35052D01*
X432816Y74422D02*
Y130556D01*
X472186Y35052D02*
X716702D01*
X964438Y179070D02*
Y220980D01*
X1065181Y188055D02*
Y254667D01*
X1400302Y498348D02*
X1447546D01*
X1300302Y466852D02*
Y498983D01*
X1305277Y893699D02*
X1335376Y923798D01*
X1403604D01*
X1336294Y827278D02*
Y860247D01*
X1302842Y893699D02*
X1336294Y860247D01*
Y827278D02*
X1355598Y807974D01*
X1383538D01*
X1368298Y893064D02*
X1402842D01*
X1356360Y839978D02*
Y881126D01*
X1368298Y893064D01*
X1362964Y833374D02*
X1383538D01*
X1356360Y839978D02*
X1362964Y833374D01*
X1302842Y893699D02*
X1305277D01*
X1303376Y858012D02*
X1304138Y858774D01*
X1285748Y858012D02*
X1303376D01*
X1267079Y876681D02*
X1285748Y858012D01*
X1267079Y876681D02*
Y902894D01*
X1301308Y922137D02*
X1303604Y924433D01*
X1286322Y922137D02*
X1301308D01*
X1267079Y902894D02*
X1286322Y922137D01*
X1278382Y833374D02*
X1304138D01*
X1268166Y823158D02*
X1278382Y833374D01*
X1268166Y804616D02*
Y823158D01*
X1266444Y802894D02*
X1268166Y804616D01*
X1236091Y802894D02*
X1266444D01*
X1257300Y945134D02*
X1259586Y942848D01*
X1377064D01*
X1381750Y947534D01*
Y961126D01*
X1384046Y963422D01*
X1288786Y805678D02*
X1301841D01*
X1284224Y801116D02*
X1288786Y805678D01*
X1284224Y789432D02*
Y801116D01*
X1301841Y805678D02*
X1304138Y807974D01*
X1267968Y773176D02*
X1284224Y789432D01*
X1236726Y902894D02*
X1237013Y903181D01*
Y944847D01*
X1237300Y945134D01*
X1267625Y773519D02*
X1267968Y773176D01*
X1236434Y773519D02*
X1267625D01*
X1236091Y773862D02*
X1236434Y773519D01*
X1368790Y752077D02*
X1368806Y752094D01*
X1329882Y752077D02*
X1368790D01*
X1329865Y752061D02*
X1329882Y752077D01*
X1368806Y752094D02*
X1371102Y754390D01*
Y766891D01*
X1383538Y779327D01*
Y782574D01*
X682498Y551942D02*
X749954Y619398D01*
X700498Y85818D02*
Y544034D01*
X682498Y109474D02*
Y551942D01*
X509016Y461772D02*
X717441Y670198D01*
X732173Y644798D02*
X999998D01*
X717441Y670198D02*
X999998D01*
X750462Y593997D02*
X999998D01*
X509016Y155956D02*
Y461772D01*
X534416Y155956D02*
Y447040D01*
X732173Y644798D01*
X749954Y619398D02*
X999998D01*
X700498Y544034D02*
X750462Y593997D01*
X526542Y73660D02*
X688340D01*
X700498Y85818D01*
X509016Y91186D02*
X526542Y73660D01*
X664210Y91186D02*
X682498Y109474D01*
X542290Y91186D02*
X664210D01*
X534416Y99060D02*
X542290Y91186D01*
X1019302Y179070D02*
Y244051D01*
X1065181Y188055D02*
X1074166Y179070D01*
X509016Y91186D02*
Y130556D01*
X534416Y99060D02*
Y130556D01*
X887730Y859140D02*
Y884728D01*
X908558Y905556D01*
Y935736D01*
X857758Y931736D02*
Y935736D01*
Y931736D02*
X875030Y914464D01*
Y859140D02*
Y914464D01*
D20*
X930402Y859390D02*
D03*
D21*
Y809390D02*
D03*
X1400302Y466217D02*
D03*
X1471784Y857758D02*
D03*
X1358646Y963422D02*
D03*
X1304138Y782574D02*
D03*
X1331614Y541020D02*
D03*
X1433449Y285242D02*
D03*
X1380744Y369608D02*
D03*
X1338688Y368554D02*
D03*
X1300226Y295402D02*
D03*
X1203198Y317900D02*
D03*
X1157732Y317862D02*
D03*
X1074166Y153670D02*
D03*
X1019302D02*
D03*
X964438D02*
D03*
X909574D02*
D03*
X1383538Y858774D02*
D03*
X1274826Y295402D02*
D03*
X1465199Y385242D02*
D03*
X1434084D02*
D03*
X1267079Y902894D02*
D03*
X1303604Y924433D02*
D03*
X1236091Y802894D02*
D03*
X1304138Y833374D02*
D03*
X1383538D02*
D03*
Y807974D02*
D03*
Y782574D02*
D03*
X1304138Y807974D02*
D03*
X1329865Y752061D02*
D03*
X1368806Y752094D02*
D03*
X1402842Y893064D02*
D03*
X1325626Y295402D02*
D03*
X1464564Y285242D02*
D03*
X1236091Y773862D02*
D03*
X1400302Y498348D02*
D03*
X1300302Y498983D02*
D03*
Y466852D02*
D03*
X1267968Y773176D02*
D03*
X1384046Y963422D02*
D03*
X1409446D02*
D03*
D22*
X1381614Y541020D02*
D03*
X1333246Y963422D02*
D03*
X1421784Y857758D02*
D03*
X1288688Y368554D02*
D03*
X1304138Y858774D02*
D03*
D25*
X1157732Y267862D02*
D03*
X1203198Y367900D02*
D03*
X1380744Y419608D02*
D03*
X909574Y179070D02*
D03*
X1074166D02*
D03*
X1019302D02*
D03*
X964438D02*
D03*
D31*
X1097788Y84582D02*
D03*
X1032002D02*
D03*
X965200D02*
D03*
X893826D02*
D03*
D37*
X1097788Y33782D02*
D03*
X1032002D02*
D03*
X965200D02*
D03*
X893826D02*
D03*
D43*
X1414145Y265938D02*
X1433449Y285242D01*
X1354328Y265938D02*
X1414145D01*
X1319530Y231140D02*
X1354328Y265938D01*
X1300226Y266446D02*
Y295402D01*
Y330092D01*
X1338688Y368554D01*
X1288288Y254508D02*
X1300226Y266446D01*
X1319530Y177090D02*
X1320344Y176276D01*
X1319530Y177090D02*
Y231140D01*
X1320344Y176276D02*
Y179334D01*
X1300226Y199452D02*
Y266446D01*
X1218184Y254508D02*
X1288288D01*
X1300226Y199452D02*
X1320344Y179334D01*
X954169Y492397D02*
X999998D01*
X944118Y482346D02*
X954169Y492397D01*
X944118Y467106D02*
Y482346D01*
X1203179Y317881D02*
X1203198Y317900D01*
X1157751Y317881D02*
X1203179D01*
X1203198Y269494D02*
Y317900D01*
X1157732Y317862D02*
X1157751Y317881D01*
X1203198Y269494D02*
X1218184Y254508D01*
D45*
X900680Y859390D02*
X930402D01*
X1157840Y244296D02*
Y273558D01*
X900430Y859140D02*
X900680Y859390D01*
X1156290Y242746D02*
X1157840Y244296D01*
X1149858Y242746D02*
X1156290D01*
X1149858Y175846D02*
Y242746D01*
X1449265Y607119D02*
X1462516D01*
X1448308Y608076D02*
X1449265Y607119D01*
X1468374Y484124D02*
Y601261D01*
X1462516Y607119D02*
X1468374Y601261D01*
X1458155Y473905D02*
X1468374Y484124D01*
X1448503Y473905D02*
X1458155D01*
X1447546Y472948D02*
X1448503Y473905D01*
X1152144Y924306D02*
Y949706D01*
D46*
X422554Y858926D02*
X662970D01*
X791850Y987806D02*
X1350436D01*
X662970Y858926D02*
X791850Y987806D01*
X662970Y858926D02*
X780644D01*
X1439157Y890385D02*
Y977145D01*
X1432547Y983755D02*
X1439157Y977145D01*
Y890385D02*
X1471784Y857758D01*
X1428496Y987806D02*
X1432547Y983755D01*
X1350436Y987806D02*
X1428496D01*
X1357876Y964192D02*
Y980367D01*
X1350436Y987806D02*
X1357876Y980367D01*
Y964192D02*
X1358646Y963422D01*
X790194Y858926D02*
X858930D01*
X780644D02*
X790194D01*
X780644D02*
X875284Y764286D01*
X280416Y716788D02*
X422554Y858926D01*
X928116Y764215D02*
Y764286D01*
X875284D02*
X928116D01*
X928095Y764194D02*
X928116Y764215D01*
X280416Y155956D02*
Y175187D01*
Y716788D01*
X214195Y182626D02*
X272976D01*
X206756Y175187D02*
X214195Y182626D01*
X272976D02*
X280416Y175187D01*
X206756Y53848D02*
Y175187D01*
X797560Y84582D02*
X893826D01*
X206756Y53848D02*
X244348Y16256D01*
X729234D02*
X797560Y84582D01*
X244348Y16256D02*
X729234D01*
X1395730Y398526D02*
X1407160Y387096D01*
X1288688Y368554D02*
X1318660Y398526D01*
X1395730D01*
X1407160Y362630D02*
Y387096D01*
X1203198Y368554D02*
X1282845D01*
X1146556D02*
X1203198D01*
X1488440Y362630D02*
Y464058D01*
X1481411Y355600D02*
X1488440Y362630D01*
X1407160D02*
X1414189Y355600D01*
X1481411D01*
X1450848Y834390D02*
X1461897Y823341D01*
X1450792Y834446D02*
X1450848Y834390D01*
X1461897Y823341D02*
X1484035Y801202D01*
X1446520Y838718D02*
X1450792Y834446D01*
X1484884Y800354D02*
X1488440Y796798D01*
X1448950Y632834D02*
X1474858D01*
X1448308Y633476D02*
X1448950Y632834D01*
X1421784Y857758D02*
X1425784Y853758D01*
X1431480D02*
X1446520Y838718D01*
X1425784Y853758D02*
X1431480D01*
X1488440Y464058D02*
Y619252D01*
Y795598D01*
X1474858Y632834D02*
X1488440Y619252D01*
X1471676Y447294D02*
X1488440Y464058D01*
X1447800Y447294D02*
X1471676D01*
X1447546Y447548D02*
X1447800Y447294D01*
X934358Y517798D02*
X999998D01*
X912876Y496316D02*
X934358Y517798D01*
X912876Y395732D02*
Y496316D01*
X941324Y367284D02*
X988822D01*
X1284688Y364554D02*
X1285240Y365106D01*
Y366950D01*
X1120648Y342646D02*
X1146556Y368554D01*
X1282845Y364554D02*
X1284688D01*
X1275588Y295402D02*
Y357298D01*
X1282845Y364554D01*
X1120648Y182156D02*
Y342646D01*
Y182156D02*
X1125608Y177196D01*
X912876Y395732D02*
X941324Y367284D01*
X1126158Y175846D02*
X1126958D01*
X1125608Y176396D02*
Y177196D01*
Y176396D02*
X1126158Y175846D01*
D47*
X900430Y814820D02*
X901290Y815680D01*
X900430Y809640D02*
Y814820D01*
X901290Y815680D02*
X906470D01*
X918784Y827994D01*
X950930D01*
X961644Y838708D01*
Y912876D01*
X972965Y924197D01*
X999998D01*
X968139Y949852D02*
X999998D01*
X947166Y928878D02*
X968139Y949852D01*
X947166Y848252D02*
Y928878D01*
X887730Y809640D02*
Y819007D01*
X912511Y843788D01*
X942702D01*
X947166Y848252D01*
X875030Y809640D02*
X875890Y808780D01*
Y794160D02*
Y808780D01*
Y794160D02*
X884174Y785876D01*
X948436D01*
X976884Y814324D01*
Y894334D01*
X981348Y898798D01*
X999998D01*
X1223645Y569087D02*
X1223772Y568960D01*
X1152525Y569087D02*
X1223645D01*
X1152144Y568706D02*
X1152525Y569087D01*
X1446896Y581264D02*
X1448308Y582676D01*
X1429983Y581264D02*
X1446896D01*
X1420727Y572008D02*
X1429983Y581264D01*
X1419352Y572008D02*
X1420727D01*
D48*
X1368171Y652094D02*
D03*
X1267333Y673176D02*
D03*
X1329230Y652061D02*
D03*
X1235456Y673862D02*
D03*
X1266444Y802894D02*
D03*
X1236726Y902894D02*
D03*
X1403604Y923798D02*
D03*
X1302842Y893699D02*
D03*
D49*
X1448308Y608076D02*
D03*
X1447546Y472948D02*
D03*
X1448308Y557276D02*
D03*
Y582676D02*
D03*
X1447546Y498348D02*
D03*
Y523748D02*
D03*
D50*
X1320344Y176276D02*
D03*
D51*
X1304544Y80804D02*
D03*
X908558Y935736D02*
D03*
X857758D02*
D03*
X1355344Y80804D02*
D03*
D52*
X1152144Y949706D02*
D03*
Y924306D02*
D03*
X999998Y492397D02*
D03*
Y543198D02*
D03*
Y466997D02*
D03*
Y568597D02*
D03*
Y593997D02*
D03*
X1152144Y848106D02*
D03*
Y873506D02*
D03*
Y898906D02*
D03*
Y822706D02*
D03*
Y797306D02*
D03*
Y746506D02*
D03*
Y721106D02*
D03*
Y695706D02*
D03*
Y771906D02*
D03*
Y670306D02*
D03*
Y619506D02*
D03*
Y467106D02*
D03*
Y492506D02*
D03*
Y517906D02*
D03*
Y543306D02*
D03*
Y644906D02*
D03*
Y568706D02*
D03*
Y594106D02*
D03*
X999998Y873398D02*
D03*
Y924197D02*
D03*
Y695598D02*
D03*
Y619398D02*
D03*
Y644798D02*
D03*
Y670198D02*
D03*
Y720997D02*
D03*
Y746397D02*
D03*
Y949852D02*
D03*
Y898798D02*
D03*
Y847998D02*
D03*
Y797197D02*
D03*
Y771797D02*
D03*
Y822598D02*
D03*
Y517798D02*
D03*
D53*
X280416Y155956D02*
D03*
X483616Y130556D02*
D03*
X432816D02*
D03*
X509016D02*
D03*
X534416D02*
D03*
X756374Y912152D02*
D03*
X89624Y912660D02*
D03*
X229616Y155956D02*
D03*
Y130556D02*
D03*
X255016Y155956D02*
D03*
Y130556D02*
D03*
X280416D02*
D03*
X305816Y155956D02*
D03*
Y130556D02*
D03*
X331216Y155956D02*
D03*
Y130556D02*
D03*
X356616Y155956D02*
D03*
Y130556D02*
D03*
X382016Y155956D02*
D03*
Y130556D02*
D03*
X407416Y155956D02*
D03*
Y130556D02*
D03*
X432816Y155956D02*
D03*
X458216D02*
D03*
Y130556D02*
D03*
X483616Y155956D02*
D03*
X509016D02*
D03*
X534416D02*
D03*
X559816D02*
D03*
Y130556D02*
D03*
X585216Y155956D02*
D03*
Y130556D02*
D03*
X144526Y621284D02*
D03*
X119126D02*
D03*
X144526Y595884D02*
D03*
X119126D02*
D03*
X144526Y570484D02*
D03*
X119126D02*
D03*
X144526Y545084D02*
D03*
X119126D02*
D03*
X144526Y519684D02*
D03*
X119126D02*
D03*
X144526Y494284D02*
D03*
X119126D02*
D03*
X144526Y468884D02*
D03*
X119126D02*
D03*
X144526Y443484D02*
D03*
X119126D02*
D03*
X144526Y418084D02*
D03*
X119126D02*
D03*
X144526Y392684D02*
D03*
X119126D02*
D03*
X144526Y367284D02*
D03*
X119126D02*
D03*
X144526Y341884D02*
D03*
X119126D02*
D03*
X144526Y316484D02*
D03*
X119126D02*
D03*
X144526Y291084D02*
D03*
X119126D02*
D03*
X144526Y265684D02*
D03*
X119126D02*
D03*
D54*
X1448308Y633476D02*
D03*
X1447546Y447548D02*
D03*
D55*
X1257300Y945134D02*
D03*
D56*
X1237300D02*
D03*
D57*
X1419352Y72136D02*
D03*
D58*
X1355344Y176276D02*
D03*
D59*
X1419352Y225806D02*
D03*
D60*
X1438910Y739394D02*
D03*
Y688594D02*
D03*
D61*
X1203706Y804672D02*
D03*
X1188212Y847344D02*
D03*
X1422908Y433070D02*
D03*
X944118Y467106D02*
D03*
X928095Y764194D02*
D03*
X988822Y367284D02*
D03*
X1223772Y568960D02*
D03*
X1419352Y572008D02*
D03*
D62*
X30000Y970000D02*
D03*
X1470000D02*
D03*
Y30000D02*
D03*
X30000D02*
D03*
D63*
X1381364Y571754D02*
D03*
Y609854D02*
D03*
X1331864D02*
D03*
Y597154D02*
D03*
Y584454D02*
D03*
Y571754D02*
D03*
X1381364Y584454D02*
D03*
Y597154D02*
D03*
D64*
X900430Y859140D02*
D03*
X862330D02*
D03*
X900430Y809640D02*
D03*
X887730D02*
D03*
X875030D02*
D03*
Y859140D02*
D03*
X887730D02*
D03*
X862330Y809640D02*
D03*
D65*
X1149858Y175846D02*
D03*
X1172758D02*
D03*
X1126958D02*
D03*
D66*
X1149858Y242746D02*
D03*
D67*
X1381364Y541270D02*
Y571754D01*
X1367396Y609854D02*
X1381364D01*
X1362710Y605168D02*
X1367396Y609854D01*
X1362710Y572116D02*
Y605168D01*
X1331614Y541020D02*
X1362710Y572116D01*
X1179576Y662432D02*
X1270254Y571754D01*
X1179576Y662432D02*
Y689118D01*
X1270254Y571754D02*
X1331864D01*
X1405890Y609092D02*
Y728472D01*
X1393952Y597154D02*
X1405890Y609092D01*
X1381364Y597154D02*
X1393952D01*
X1421638Y601726D02*
Y671322D01*
X1381364Y584454D02*
X1404366D01*
X1421638Y601726D01*
X1255014Y625348D02*
X1341026D01*
X1210564Y669798D02*
Y765318D01*
Y669798D02*
X1255014Y625348D01*
X1196594Y665734D02*
X1265428Y596900D01*
X1196594Y665734D02*
Y711962D01*
X1265428Y596900D02*
X1331610D01*
X1154631Y693219D02*
X1175475D01*
X1179576Y689118D01*
X1152144Y695706D02*
X1154631Y693219D01*
X1152144Y721106D02*
X1187450D01*
X1196594Y711962D01*
X1154631Y769419D02*
X1206463D01*
X1210564Y765318D01*
X1340866Y587656D02*
X1343994D01*
X1348262Y591924D01*
Y618112D01*
X1341026Y625348D02*
X1348262Y618112D01*
X1338214Y585004D02*
X1340866Y587656D01*
X1152144Y771906D02*
X1154631Y769419D01*
X1421638Y671322D02*
X1432231Y681915D01*
Y682127D01*
X1438698Y688594D01*
X1438910D01*
X1438656Y739648D02*
X1438910Y739394D01*
X1417066Y739648D02*
X1438656D01*
X1405890Y728472D02*
X1417066Y739648D01*
X1331610Y596900D02*
X1331864Y597154D01*
M02*
