G04*
G04 #@! TF.GenerationSoftware,Altium Limited,Altium Designer,25.8.1 (18)*
G04*
G04 Layer_Color=32896*
%FSLAX44Y44*%
%MOMM*%
G71*
G04*
G04 #@! TF.SameCoordinates,615BD6FC-8C97-45DB-998E-DFA11581AE0A*
G04*
G04*
G04 #@! TF.FilePolarity,Positive*
G04*
G01*
G75*
%ADD10C,0.2000*%
D10*
X942902Y814390D02*
Y854390D01*
X917902Y814390D02*
X942902D01*
X917902D02*
Y854390D01*
X942902D01*
X880476Y19182D02*
X907176D01*
Y99182D01*
X880476D02*
X907176D01*
X880476Y19182D02*
Y99182D01*
X951850Y19182D02*
X978550D01*
Y99182D01*
X951850D02*
X978550D01*
X951850Y19182D02*
Y99182D01*
X1018652Y19182D02*
X1045352D01*
Y99182D01*
X1018652D02*
X1045352D01*
X1018652Y19182D02*
Y99182D01*
X1084438Y19182D02*
X1111138D01*
Y99182D01*
X1084438D02*
X1111138D01*
X1084438Y19182D02*
Y99182D01*
X1190698Y362900D02*
X1215698D01*
X1190698Y322900D02*
Y362900D01*
Y322900D02*
X1215698D01*
Y362900D01*
X1293688Y356054D02*
Y381054D01*
Y356054D02*
X1333688D01*
Y381054D01*
X1293688D02*
X1333688D01*
X1368244Y414608D02*
X1393244D01*
X1368244Y374608D02*
Y414608D01*
Y374608D02*
X1393244D01*
Y414608D01*
X1426784Y845258D02*
Y870258D01*
Y845258D02*
X1466784D01*
Y870258D01*
X1426784D02*
X1466784D01*
X1376614Y528520D02*
Y553520D01*
X1336614D02*
X1376614D01*
X1336614Y528520D02*
Y553520D01*
Y528520D02*
X1376614D01*
X1087516Y139070D02*
Y193670D01*
X1060816Y139070D02*
X1087516D01*
X1060816D02*
Y193670D01*
X1087516D01*
X1032652Y139070D02*
Y193670D01*
X1005952Y139070D02*
X1032652D01*
X1005952D02*
Y193670D01*
X1032652D01*
X922924Y139070D02*
Y193670D01*
X896224Y139070D02*
X922924D01*
X896224D02*
Y193670D01*
X922924D01*
X977788Y139070D02*
Y193670D01*
X951088Y139070D02*
X977788D01*
X951088D02*
Y193670D01*
X977788D01*
X1145232Y272862D02*
X1170232D01*
Y312862D01*
X1145232D02*
X1170232D01*
X1145232Y272862D02*
Y312862D01*
M02*
