G04*
G04 #@! TF.GenerationSoftware,Altium Limited,Altium Designer,25.8.1 (18)*
G04*
G04 Layer_Color=8388736*
%FSLAX44Y44*%
%MOMM*%
G71*
G04*
G04 #@! TF.SameCoordinates,615BD6FC-8C97-45DB-998E-DFA11581AE0A*
G04*
G04*
G04 #@! TF.FilePolarity,Positive*
G04*
G01*
G75*
%ADD10C,0.2000*%
G36*
X933924Y834381D02*
X934017D01*
X934109Y834372D01*
X934230Y834362D01*
X934350Y834344D01*
X934618Y834298D01*
X934914Y834233D01*
X935210Y834140D01*
X935496Y834011D01*
X935505Y834002D01*
X935533Y833992D01*
X935570Y833974D01*
X935616Y833937D01*
X935681Y833900D01*
X935755Y833854D01*
X935921Y833734D01*
X936106Y833577D01*
X936291Y833392D01*
X936476Y833179D01*
X936633Y832929D01*
X936643Y832920D01*
X936652Y832892D01*
X936670Y832855D01*
X936698Y832809D01*
X936726Y832735D01*
X936754Y832661D01*
X936791Y832569D01*
X936828Y832467D01*
X936864Y832356D01*
X936901Y832236D01*
X936957Y831977D01*
X937003Y831681D01*
X937022Y831376D01*
Y831284D01*
X937012Y831219D01*
X937003Y831136D01*
X936994Y831034D01*
X936985Y830932D01*
X936957Y830812D01*
X936901Y830562D01*
X936818Y830285D01*
X936763Y830146D01*
X936698Y830017D01*
X936615Y829887D01*
X936532Y829758D01*
X936523Y829749D01*
X936513Y829730D01*
X936486Y829693D01*
X936439Y829647D01*
X936393Y829601D01*
X936328Y829536D01*
X936254Y829471D01*
X936180Y829398D01*
X936088Y829324D01*
X935977Y829249D01*
X935866Y829166D01*
X935746Y829092D01*
X935607Y829028D01*
X935469Y828954D01*
X935321Y828898D01*
X935154Y828843D01*
X934960Y829675D01*
X934969D01*
X934988Y829684D01*
X935025Y829703D01*
X935071Y829721D01*
X935126Y829740D01*
X935200Y829767D01*
X935348Y829841D01*
X935515Y829934D01*
X935681Y830045D01*
X935838Y830183D01*
X935977Y830331D01*
X935995Y830350D01*
X936032Y830405D01*
X936079Y830498D01*
X936143Y830618D01*
X936199Y830775D01*
X936254Y830951D01*
X936291Y831163D01*
X936301Y831395D01*
Y831469D01*
X936291Y831515D01*
Y831579D01*
X936282Y831653D01*
X936254Y831829D01*
X936217Y832023D01*
X936153Y832227D01*
X936060Y832439D01*
X935940Y832633D01*
Y832643D01*
X935921Y832652D01*
X935875Y832717D01*
X935801Y832800D01*
X935690Y832902D01*
X935552Y833022D01*
X935395Y833133D01*
X935200Y833234D01*
X934988Y833327D01*
X934978D01*
X934960Y833336D01*
X934932Y833345D01*
X934886Y833355D01*
X934830Y833373D01*
X934766Y833392D01*
X934609Y833419D01*
X934424Y833456D01*
X934220Y833493D01*
X933998Y833512D01*
X933758Y833521D01*
X933749D01*
X933721D01*
X933675D01*
X933619D01*
X933555Y833512D01*
X933471D01*
X933379Y833503D01*
X933277Y833493D01*
X933055Y833465D01*
X932815Y833419D01*
X932575Y833364D01*
X932334Y833290D01*
X932325D01*
X932307Y833281D01*
X932279Y833262D01*
X932233Y833244D01*
X932122Y833188D01*
X931992Y833105D01*
X931844Y833003D01*
X931687Y832874D01*
X931548Y832726D01*
X931419Y832550D01*
Y832541D01*
X931410Y832523D01*
X931391Y832495D01*
X931373Y832458D01*
X931354Y832411D01*
X931326Y832356D01*
X931271Y832227D01*
X931216Y832060D01*
X931169Y831875D01*
X931132Y831672D01*
X931123Y831459D01*
Y831395D01*
X931132Y831339D01*
Y831274D01*
X931142Y831210D01*
X931179Y831043D01*
X931225Y830849D01*
X931299Y830655D01*
X931400Y830452D01*
X931456Y830350D01*
X931530Y830257D01*
X931539Y830248D01*
X931548Y830239D01*
X931576Y830211D01*
X931604Y830174D01*
X931650Y830137D01*
X931705Y830091D01*
X931761Y830035D01*
X931835Y829989D01*
X931918Y829934D01*
X932011Y829869D01*
X932103Y829814D01*
X932214Y829758D01*
X932334Y829712D01*
X932464Y829666D01*
X932602Y829619D01*
X932750Y829582D01*
X932538Y828732D01*
X932528D01*
X932491Y828741D01*
X932436Y828760D01*
X932362Y828787D01*
X932279Y828815D01*
X932177Y828852D01*
X932066Y828898D01*
X931946Y828954D01*
X931687Y829083D01*
X931428Y829249D01*
X931299Y829351D01*
X931169Y829453D01*
X931058Y829564D01*
X930947Y829693D01*
X930938Y829703D01*
X930920Y829721D01*
X930901Y829767D01*
X930864Y829814D01*
X930818Y829887D01*
X930772Y829961D01*
X930725Y830063D01*
X930679Y830165D01*
X930624Y830285D01*
X930577Y830415D01*
X930531Y830553D01*
X930485Y830701D01*
X930448Y830858D01*
X930430Y831025D01*
X930411Y831200D01*
X930402Y831385D01*
Y831487D01*
X930411Y831561D01*
Y831644D01*
X930420Y831746D01*
X930439Y831857D01*
X930457Y831986D01*
X930504Y832254D01*
X930577Y832532D01*
X930679Y832809D01*
X930744Y832939D01*
X930818Y833068D01*
X930827Y833077D01*
X930836Y833096D01*
X930864Y833133D01*
X930901Y833170D01*
X930938Y833225D01*
X930994Y833290D01*
X931058Y833364D01*
X931132Y833438D01*
X931216Y833512D01*
X931299Y833595D01*
X931511Y833761D01*
X931761Y833919D01*
X932038Y834057D01*
X932048D01*
X932075Y834076D01*
X932122Y834085D01*
X932177Y834113D01*
X932251Y834131D01*
X932343Y834159D01*
X932445Y834196D01*
X932556Y834224D01*
X932676Y834251D01*
X932815Y834288D01*
X933102Y834335D01*
X933425Y834372D01*
X933758Y834390D01*
X933767D01*
X933804D01*
X933860D01*
X933924Y834381D01*
D02*
G37*
G36*
X936911Y825348D02*
Y824710D01*
X932769D01*
Y823841D01*
X932048D01*
Y824710D01*
X930513D01*
Y825496D01*
X932048D01*
Y828279D01*
X932769D01*
X936911Y825348D01*
D02*
G37*
G36*
X890849Y72912D02*
X890960D01*
X891080Y72902D01*
X891210Y72893D01*
X891505Y72865D01*
X891811Y72819D01*
X892106Y72764D01*
X892245Y72727D01*
X892384Y72680D01*
X892393D01*
X892411Y72671D01*
X892449Y72653D01*
X892495Y72634D01*
X892559Y72616D01*
X892624Y72579D01*
X892781Y72505D01*
X892948Y72412D01*
X893133Y72292D01*
X893299Y72153D01*
X893456Y71987D01*
Y71978D01*
X893475Y71968D01*
X893493Y71941D01*
X893512Y71904D01*
X893540Y71858D01*
X893576Y71811D01*
X893641Y71673D01*
X893706Y71506D01*
X893771Y71312D01*
X893808Y71081D01*
X893826Y70831D01*
Y70739D01*
X893817Y70674D01*
X893808Y70600D01*
X893789Y70508D01*
X893771Y70406D01*
X893743Y70295D01*
X893706Y70184D01*
X893669Y70064D01*
X893613Y69944D01*
X893549Y69824D01*
X893475Y69703D01*
X893382Y69583D01*
X893281Y69472D01*
X893170Y69370D01*
X893160Y69361D01*
X893133Y69343D01*
X893086Y69315D01*
X893012Y69269D01*
X892929Y69223D01*
X892818Y69176D01*
X892689Y69112D01*
X892541Y69056D01*
X892374Y69001D01*
X892180Y68945D01*
X891968Y68890D01*
X891727Y68843D01*
X891468Y68797D01*
X891191Y68770D01*
X890886Y68751D01*
X890562Y68742D01*
X890553D01*
X890516D01*
X890451D01*
X890378D01*
X890276Y68751D01*
X890165D01*
X890045Y68760D01*
X889906Y68770D01*
X889619Y68797D01*
X889314Y68843D01*
X889009Y68899D01*
X888870Y68936D01*
X888732Y68973D01*
X888723D01*
X888704Y68982D01*
X888667Y69001D01*
X888621Y69019D01*
X888556Y69038D01*
X888491Y69075D01*
X888334Y69149D01*
X888168Y69241D01*
X887992Y69361D01*
X887816Y69500D01*
X887669Y69666D01*
Y69676D01*
X887650Y69685D01*
X887632Y69713D01*
X887613Y69750D01*
X887576Y69796D01*
X887548Y69851D01*
X887474Y69990D01*
X887410Y70156D01*
X887345Y70351D01*
X887308Y70582D01*
X887289Y70831D01*
Y70915D01*
X887299Y71016D01*
X887317Y71136D01*
X887345Y71275D01*
X887382Y71423D01*
X887428Y71580D01*
X887502Y71728D01*
Y71737D01*
X887511Y71747D01*
X887539Y71793D01*
X887585Y71867D01*
X887650Y71959D01*
X887742Y72061D01*
X887844Y72172D01*
X887964Y72274D01*
X888103Y72375D01*
X888121Y72385D01*
X888168Y72422D01*
X888251Y72459D01*
X888371Y72523D01*
X888510Y72579D01*
X888667Y72653D01*
X888852Y72717D01*
X889055Y72773D01*
X889065D01*
X889083Y72782D01*
X889111Y72791D01*
X889157Y72801D01*
X889212Y72810D01*
X889277Y72819D01*
X889361Y72838D01*
X889453Y72847D01*
X889555Y72865D01*
X889666Y72875D01*
X889795Y72884D01*
X889924Y72902D01*
X890072Y72912D01*
X890220D01*
X890387Y72921D01*
X890562D01*
X890572D01*
X890609D01*
X890673D01*
X890747D01*
X890849Y72912D01*
D02*
G37*
G36*
X893715Y65940D02*
X888713D01*
X888723Y65931D01*
X888760Y65885D01*
X888815Y65830D01*
X888880Y65737D01*
X888963Y65635D01*
X889055Y65506D01*
X889157Y65358D01*
X889259Y65191D01*
Y65182D01*
X889268Y65173D01*
X889305Y65118D01*
X889351Y65025D01*
X889407Y64914D01*
X889471Y64785D01*
X889536Y64646D01*
X889601Y64507D01*
X889656Y64369D01*
X888898D01*
Y64378D01*
X888880Y64396D01*
X888870Y64433D01*
X888843Y64480D01*
X888815Y64535D01*
X888778Y64600D01*
X888686Y64757D01*
X888584Y64942D01*
X888454Y65127D01*
X888307Y65321D01*
X888149Y65515D01*
X888140Y65524D01*
X888131Y65534D01*
X888103Y65561D01*
X888075Y65598D01*
X887983Y65682D01*
X887872Y65792D01*
X887742Y65903D01*
X887595Y66024D01*
X887447Y66125D01*
X887289Y66218D01*
Y66726D01*
X893715D01*
Y65940D01*
D02*
G37*
G36*
X891885Y62695D02*
X891958D01*
X892134Y62677D01*
X892337Y62658D01*
X892550Y62621D01*
X892744Y62566D01*
X892929Y62501D01*
X892939D01*
X892948Y62492D01*
X893003Y62464D01*
X893077Y62418D01*
X893179Y62353D01*
X893281Y62261D01*
X893391Y62159D01*
X893503Y62030D01*
X893595Y61882D01*
X893604Y61863D01*
X893632Y61808D01*
X893669Y61724D01*
X893706Y61604D01*
X893752Y61456D01*
X893789Y61290D01*
X893817Y61105D01*
X893826Y60902D01*
Y60818D01*
X893817Y60763D01*
X893808Y60689D01*
X893798Y60615D01*
X893761Y60421D01*
X893706Y60217D01*
X893623Y60005D01*
X893567Y59894D01*
X893503Y59792D01*
X893428Y59700D01*
X893345Y59607D01*
X893336Y59598D01*
X893327Y59589D01*
X893290Y59570D01*
X893253Y59542D01*
X893207Y59506D01*
X893142Y59468D01*
X893068Y59432D01*
X892985Y59385D01*
X892892Y59348D01*
X892781Y59311D01*
X892670Y59274D01*
X892541Y59237D01*
X892402Y59219D01*
X892245Y59191D01*
X892088Y59182D01*
X891912D01*
X891801Y59949D01*
X891811D01*
X891829D01*
X891866D01*
X891921Y59959D01*
X891977Y59968D01*
X892042D01*
X892199Y59995D01*
X892365Y60023D01*
X892532Y60079D01*
X892680Y60134D01*
X892744Y60171D01*
X892800Y60217D01*
X892809Y60227D01*
X892837Y60264D01*
X892883Y60319D01*
X892929Y60393D01*
X892985Y60495D01*
X893022Y60606D01*
X893059Y60744D01*
X893068Y60892D01*
Y60948D01*
X893059Y61003D01*
X893049Y61087D01*
X893031Y61170D01*
X893012Y61262D01*
X892975Y61355D01*
X892929Y61447D01*
X892920Y61456D01*
X892902Y61484D01*
X892865Y61521D01*
X892828Y61576D01*
X892763Y61623D01*
X892698Y61678D01*
X892624Y61724D01*
X892532Y61761D01*
X892522D01*
X892486Y61780D01*
X892421Y61789D01*
X892337Y61808D01*
X892227Y61826D01*
X892088Y61835D01*
X891921Y61854D01*
X891727D01*
X887317D01*
Y62704D01*
X891681D01*
X891690D01*
X891718D01*
X891755D01*
X891811D01*
X891885Y62695D01*
D02*
G37*
G36*
X962066Y67965D02*
X962186D01*
X962325Y67956D01*
X962463Y67937D01*
X962778Y67910D01*
X963111Y67863D01*
X963425Y67799D01*
X963582Y67752D01*
X963721Y67706D01*
X963730D01*
X963748Y67697D01*
X963785Y67679D01*
X963841Y67660D01*
X963896Y67632D01*
X963970Y67595D01*
X964128Y67503D01*
X964303Y67392D01*
X964488Y67263D01*
X964664Y67096D01*
X964821Y66911D01*
Y66902D01*
X964839Y66884D01*
X964858Y66856D01*
X964876Y66819D01*
X964904Y66763D01*
X964941Y66708D01*
X964978Y66634D01*
X965006Y66560D01*
X965080Y66384D01*
X965145Y66171D01*
X965182Y65940D01*
X965200Y65682D01*
Y65608D01*
X965191Y65561D01*
Y65497D01*
X965182Y65423D01*
X965145Y65247D01*
X965098Y65053D01*
X965024Y64849D01*
X964923Y64646D01*
X964858Y64544D01*
X964784Y64452D01*
X964775Y64443D01*
X964765Y64433D01*
X964738Y64406D01*
X964710Y64378D01*
X964664Y64341D01*
X964608Y64295D01*
X964479Y64202D01*
X964313Y64110D01*
X964109Y64017D01*
X963878Y63943D01*
X963610Y63888D01*
X963545Y64646D01*
X963554D01*
X963573Y64655D01*
X963591D01*
X963628Y64665D01*
X963730Y64692D01*
X963841Y64729D01*
X963970Y64776D01*
X964100Y64840D01*
X964220Y64914D01*
X964322Y65007D01*
X964331Y65016D01*
X964359Y65053D01*
X964396Y65118D01*
X964433Y65191D01*
X964479Y65293D01*
X964516Y65413D01*
X964544Y65552D01*
X964553Y65700D01*
Y65765D01*
X964544Y65830D01*
X964534Y65913D01*
X964516Y66014D01*
X964488Y66116D01*
X964451Y66227D01*
X964396Y66329D01*
X964387Y66338D01*
X964368Y66375D01*
X964331Y66430D01*
X964276Y66486D01*
X964211Y66560D01*
X964137Y66634D01*
X964054Y66708D01*
X963952Y66782D01*
X963943Y66791D01*
X963896Y66810D01*
X963832Y66846D01*
X963748Y66884D01*
X963638Y66930D01*
X963508Y66976D01*
X963360Y67022D01*
X963194Y67068D01*
X963185D01*
X963175Y67078D01*
X963148D01*
X963111Y67087D01*
X963018Y67105D01*
X962898Y67133D01*
X962750Y67152D01*
X962593Y67170D01*
X962417Y67179D01*
X962232Y67189D01*
X962223D01*
X962195D01*
X962149D01*
X962075D01*
X962094Y67179D01*
X962140Y67142D01*
X962205Y67087D01*
X962297Y67022D01*
X962389Y66930D01*
X962491Y66819D01*
X962593Y66689D01*
X962685Y66541D01*
X962694Y66523D01*
X962722Y66467D01*
X962759Y66384D01*
X962796Y66283D01*
X962842Y66144D01*
X962879Y65996D01*
X962907Y65830D01*
X962916Y65654D01*
Y65580D01*
X962907Y65524D01*
X962898Y65450D01*
X962889Y65376D01*
X962870Y65284D01*
X962842Y65191D01*
X962778Y64979D01*
X962731Y64868D01*
X962676Y64757D01*
X962611Y64637D01*
X962528Y64526D01*
X962445Y64415D01*
X962343Y64313D01*
X962334Y64304D01*
X962315Y64285D01*
X962288Y64267D01*
X962242Y64230D01*
X962177Y64184D01*
X962112Y64138D01*
X962029Y64091D01*
X961936Y64045D01*
X961835Y63990D01*
X961724Y63943D01*
X961594Y63897D01*
X961465Y63851D01*
X961317Y63814D01*
X961160Y63795D01*
X961003Y63777D01*
X960827Y63768D01*
X960818D01*
X960781D01*
X960734D01*
X960670Y63777D01*
X960586Y63786D01*
X960485Y63795D01*
X960383Y63814D01*
X960263Y63842D01*
X960023Y63906D01*
X959893Y63953D01*
X959754Y64008D01*
X959625Y64073D01*
X959505Y64156D01*
X959375Y64239D01*
X959264Y64341D01*
X959255Y64350D01*
X959237Y64369D01*
X959209Y64396D01*
X959172Y64443D01*
X959126Y64498D01*
X959070Y64572D01*
X959024Y64646D01*
X958959Y64738D01*
X958904Y64831D01*
X958858Y64942D01*
X958756Y65191D01*
X958719Y65321D01*
X958691Y65469D01*
X958673Y65617D01*
X958663Y65774D01*
Y65839D01*
X958673Y65885D01*
Y65931D01*
X958682Y65996D01*
X958710Y66153D01*
X958747Y66329D01*
X958811Y66523D01*
X958895Y66717D01*
X959006Y66911D01*
Y66920D01*
X959024Y66930D01*
X959043Y66957D01*
X959070Y66994D01*
X959144Y67087D01*
X959246Y67207D01*
X959385Y67327D01*
X959551Y67466D01*
X959745Y67586D01*
X959967Y67697D01*
X959976D01*
X959995Y67706D01*
X960032Y67725D01*
X960078Y67743D01*
X960143Y67762D01*
X960226Y67790D01*
X960318Y67808D01*
X960420Y67836D01*
X960540Y67863D01*
X960679Y67891D01*
X960827Y67910D01*
X960984Y67928D01*
X961160Y67947D01*
X961345Y67965D01*
X961548Y67974D01*
X961761D01*
X961770D01*
X961816D01*
X961881D01*
X961964D01*
X962066Y67965D01*
D02*
G37*
G36*
X963259Y62695D02*
X963333D01*
X963508Y62677D01*
X963711Y62658D01*
X963924Y62621D01*
X964118Y62566D01*
X964303Y62501D01*
X964313D01*
X964322Y62492D01*
X964377Y62464D01*
X964451Y62418D01*
X964553Y62353D01*
X964655Y62261D01*
X964765Y62159D01*
X964876Y62030D01*
X964969Y61882D01*
X964978Y61863D01*
X965006Y61808D01*
X965043Y61724D01*
X965080Y61604D01*
X965126Y61456D01*
X965163Y61290D01*
X965191Y61105D01*
X965200Y60902D01*
Y60818D01*
X965191Y60763D01*
X965182Y60689D01*
X965172Y60615D01*
X965135Y60421D01*
X965080Y60217D01*
X964997Y60005D01*
X964941Y59894D01*
X964876Y59792D01*
X964802Y59700D01*
X964719Y59607D01*
X964710Y59598D01*
X964701Y59589D01*
X964664Y59570D01*
X964627Y59542D01*
X964581Y59506D01*
X964516Y59468D01*
X964442Y59432D01*
X964359Y59385D01*
X964266Y59348D01*
X964155Y59311D01*
X964044Y59274D01*
X963915Y59237D01*
X963776Y59219D01*
X963619Y59191D01*
X963462Y59182D01*
X963286D01*
X963175Y59949D01*
X963185D01*
X963203D01*
X963240D01*
X963296Y59959D01*
X963351Y59968D01*
X963416D01*
X963573Y59995D01*
X963739Y60023D01*
X963906Y60079D01*
X964054Y60134D01*
X964118Y60171D01*
X964174Y60217D01*
X964183Y60227D01*
X964211Y60264D01*
X964257Y60319D01*
X964303Y60393D01*
X964359Y60495D01*
X964396Y60606D01*
X964433Y60744D01*
X964442Y60892D01*
Y60948D01*
X964433Y61003D01*
X964423Y61087D01*
X964405Y61170D01*
X964387Y61262D01*
X964350Y61355D01*
X964303Y61447D01*
X964294Y61456D01*
X964276Y61484D01*
X964239Y61521D01*
X964202Y61576D01*
X964137Y61623D01*
X964072Y61678D01*
X963998Y61724D01*
X963906Y61761D01*
X963896D01*
X963859Y61780D01*
X963795Y61789D01*
X963711Y61808D01*
X963601Y61826D01*
X963462Y61835D01*
X963296Y61854D01*
X963101D01*
X958691D01*
Y62704D01*
X963055D01*
X963064D01*
X963092D01*
X963129D01*
X963185D01*
X963259Y62695D01*
D02*
G37*
G36*
X1030208Y67965D02*
X1030273Y67956D01*
X1030356Y67947D01*
X1030449Y67928D01*
X1030551Y67901D01*
X1030763Y67836D01*
X1030883Y67790D01*
X1030994Y67725D01*
X1031115Y67660D01*
X1031225Y67586D01*
X1031336Y67494D01*
X1031447Y67392D01*
X1031457Y67383D01*
X1031475Y67364D01*
X1031503Y67337D01*
X1031531Y67290D01*
X1031577Y67225D01*
X1031623Y67161D01*
X1031669Y67078D01*
X1031725Y66985D01*
X1031780Y66884D01*
X1031826Y66763D01*
X1031873Y66634D01*
X1031919Y66504D01*
X1031947Y66357D01*
X1031974Y66199D01*
X1031993Y66042D01*
X1032002Y65866D01*
Y65774D01*
X1031993Y65709D01*
X1031984Y65626D01*
X1031974Y65534D01*
X1031956Y65432D01*
X1031928Y65321D01*
X1031863Y65071D01*
X1031817Y64942D01*
X1031771Y64822D01*
X1031706Y64692D01*
X1031632Y64563D01*
X1031549Y64443D01*
X1031447Y64332D01*
X1031438Y64322D01*
X1031420Y64304D01*
X1031392Y64276D01*
X1031346Y64239D01*
X1031290Y64202D01*
X1031225Y64147D01*
X1031152Y64100D01*
X1031059Y64045D01*
X1030967Y63990D01*
X1030856Y63943D01*
X1030624Y63851D01*
X1030486Y63814D01*
X1030347Y63786D01*
X1030199Y63768D01*
X1030051Y63758D01*
X1030042D01*
X1030023D01*
X1029986D01*
X1029950Y63768D01*
X1029894D01*
X1029829Y63777D01*
X1029681Y63795D01*
X1029515Y63832D01*
X1029349Y63888D01*
X1029173Y63971D01*
X1029007Y64073D01*
X1028997D01*
X1028988Y64091D01*
X1028942Y64128D01*
X1028868Y64202D01*
X1028775Y64304D01*
X1028683Y64433D01*
X1028581Y64591D01*
X1028498Y64766D01*
X1028433Y64979D01*
Y64970D01*
X1028424Y64960D01*
X1028415Y64933D01*
X1028396Y64896D01*
X1028359Y64812D01*
X1028304Y64701D01*
X1028230Y64581D01*
X1028137Y64461D01*
X1028036Y64350D01*
X1027925Y64248D01*
X1027906Y64239D01*
X1027869Y64212D01*
X1027795Y64174D01*
X1027703Y64138D01*
X1027583Y64091D01*
X1027444Y64054D01*
X1027287Y64027D01*
X1027120Y64017D01*
X1027111D01*
X1027093D01*
X1027056D01*
X1027000Y64027D01*
X1026945Y64036D01*
X1026871Y64045D01*
X1026714Y64082D01*
X1026529Y64138D01*
X1026335Y64230D01*
X1026233Y64285D01*
X1026131Y64350D01*
X1026039Y64433D01*
X1025946Y64517D01*
X1025937Y64526D01*
X1025928Y64544D01*
X1025900Y64572D01*
X1025872Y64609D01*
X1025835Y64655D01*
X1025798Y64720D01*
X1025752Y64794D01*
X1025706Y64868D01*
X1025660Y64960D01*
X1025613Y65062D01*
X1025576Y65173D01*
X1025539Y65293D01*
X1025484Y65552D01*
X1025475Y65700D01*
X1025465Y65848D01*
Y65931D01*
X1025475Y65987D01*
X1025484Y66061D01*
X1025493Y66144D01*
X1025502Y66236D01*
X1025530Y66329D01*
X1025586Y66551D01*
X1025669Y66772D01*
X1025724Y66884D01*
X1025789Y66994D01*
X1025872Y67096D01*
X1025956Y67198D01*
X1025965Y67207D01*
X1025974Y67216D01*
X1026002Y67244D01*
X1026039Y67281D01*
X1026094Y67318D01*
X1026150Y67364D01*
X1026288Y67457D01*
X1026464Y67549D01*
X1026667Y67632D01*
X1026898Y67697D01*
X1027019Y67706D01*
X1027148Y67716D01*
X1027157D01*
X1027167D01*
X1027222D01*
X1027305Y67706D01*
X1027407Y67688D01*
X1027536Y67660D01*
X1027666Y67614D01*
X1027795Y67558D01*
X1027925Y67475D01*
X1027943Y67466D01*
X1027980Y67429D01*
X1028036Y67373D01*
X1028110Y67299D01*
X1028193Y67198D01*
X1028276Y67078D01*
X1028359Y66939D01*
X1028433Y66772D01*
Y66782D01*
X1028443Y66800D01*
X1028452Y66828D01*
X1028470Y66865D01*
X1028516Y66976D01*
X1028581Y67105D01*
X1028674Y67244D01*
X1028775Y67392D01*
X1028905Y67531D01*
X1029053Y67660D01*
X1029062D01*
X1029071Y67669D01*
X1029127Y67706D01*
X1029219Y67762D01*
X1029339Y67817D01*
X1029487Y67873D01*
X1029663Y67928D01*
X1029857Y67965D01*
X1030070Y67974D01*
X1030079D01*
X1030107D01*
X1030153D01*
X1030208Y67965D01*
D02*
G37*
G36*
X1030061Y62695D02*
X1030135D01*
X1030310Y62677D01*
X1030514Y62658D01*
X1030726Y62621D01*
X1030920Y62566D01*
X1031105Y62501D01*
X1031115D01*
X1031124Y62492D01*
X1031179Y62464D01*
X1031253Y62418D01*
X1031355Y62353D01*
X1031457Y62261D01*
X1031568Y62159D01*
X1031678Y62030D01*
X1031771Y61882D01*
X1031780Y61863D01*
X1031808Y61808D01*
X1031845Y61724D01*
X1031882Y61604D01*
X1031928Y61456D01*
X1031965Y61290D01*
X1031993Y61105D01*
X1032002Y60902D01*
Y60818D01*
X1031993Y60763D01*
X1031984Y60689D01*
X1031974Y60615D01*
X1031937Y60421D01*
X1031882Y60217D01*
X1031799Y60005D01*
X1031743Y59894D01*
X1031678Y59792D01*
X1031605Y59700D01*
X1031521Y59607D01*
X1031512Y59598D01*
X1031503Y59589D01*
X1031466Y59570D01*
X1031429Y59542D01*
X1031383Y59506D01*
X1031318Y59468D01*
X1031244Y59432D01*
X1031161Y59385D01*
X1031068Y59348D01*
X1030957Y59311D01*
X1030846Y59274D01*
X1030717Y59237D01*
X1030578Y59219D01*
X1030421Y59191D01*
X1030264Y59182D01*
X1030088D01*
X1029977Y59949D01*
X1029986D01*
X1030005D01*
X1030042D01*
X1030098Y59959D01*
X1030153Y59968D01*
X1030218D01*
X1030375Y59995D01*
X1030541Y60023D01*
X1030708Y60079D01*
X1030856Y60134D01*
X1030920Y60171D01*
X1030976Y60217D01*
X1030985Y60227D01*
X1031013Y60264D01*
X1031059Y60319D01*
X1031105Y60393D01*
X1031161Y60495D01*
X1031198Y60606D01*
X1031235Y60744D01*
X1031244Y60892D01*
Y60948D01*
X1031235Y61003D01*
X1031225Y61087D01*
X1031207Y61170D01*
X1031189Y61262D01*
X1031152Y61355D01*
X1031105Y61447D01*
X1031096Y61456D01*
X1031077Y61484D01*
X1031040Y61521D01*
X1031004Y61576D01*
X1030939Y61623D01*
X1030874Y61678D01*
X1030800Y61724D01*
X1030708Y61761D01*
X1030698D01*
X1030661Y61780D01*
X1030597Y61789D01*
X1030514Y61808D01*
X1030403Y61826D01*
X1030264Y61835D01*
X1030098Y61854D01*
X1029903D01*
X1025493D01*
Y62704D01*
X1029857D01*
X1029866D01*
X1029894D01*
X1029931D01*
X1029986D01*
X1030061Y62695D01*
D02*
G37*
G36*
X1091991Y67956D02*
X1092010Y67937D01*
X1092047Y67901D01*
X1092102Y67863D01*
X1092167Y67808D01*
X1092241Y67734D01*
X1092333Y67660D01*
X1092444Y67577D01*
X1092555Y67494D01*
X1092684Y67392D01*
X1092832Y67290D01*
X1092980Y67189D01*
X1093147Y67078D01*
X1093323Y66967D01*
X1093517Y66856D01*
X1093711Y66745D01*
X1093720Y66736D01*
X1093757Y66717D01*
X1093812Y66689D01*
X1093896Y66643D01*
X1093997Y66597D01*
X1094108Y66541D01*
X1094238Y66477D01*
X1094386Y66412D01*
X1094552Y66338D01*
X1094718Y66255D01*
X1094903Y66181D01*
X1095098Y66107D01*
X1095495Y65959D01*
X1095920Y65820D01*
X1095930D01*
X1095957Y65811D01*
X1096004Y65802D01*
X1096059Y65783D01*
X1096133Y65765D01*
X1096226Y65746D01*
X1096327Y65718D01*
X1096438Y65700D01*
X1096568Y65672D01*
X1096706Y65644D01*
X1097002Y65598D01*
X1097326Y65552D01*
X1097677Y65524D01*
Y64720D01*
X1097668D01*
X1097640D01*
X1097603D01*
X1097548Y64729D01*
X1097474D01*
X1097381Y64738D01*
X1097280Y64748D01*
X1097169Y64757D01*
X1097039Y64776D01*
X1096910Y64794D01*
X1096753Y64822D01*
X1096595Y64849D01*
X1096429Y64877D01*
X1096244Y64914D01*
X1095865Y65007D01*
X1095856D01*
X1095819Y65016D01*
X1095763Y65034D01*
X1095680Y65062D01*
X1095588Y65090D01*
X1095477Y65127D01*
X1095347Y65164D01*
X1095209Y65219D01*
X1095051Y65275D01*
X1094894Y65330D01*
X1094543Y65469D01*
X1094173Y65635D01*
X1093803Y65820D01*
X1093794Y65830D01*
X1093757Y65848D01*
X1093711Y65876D01*
X1093637Y65913D01*
X1093554Y65959D01*
X1093452Y66024D01*
X1093341Y66088D01*
X1093221Y66162D01*
X1092953Y66338D01*
X1092675Y66523D01*
X1092389Y66736D01*
X1092121Y66957D01*
Y63823D01*
X1091362D01*
Y67965D01*
X1091982D01*
X1091991Y67956D01*
D02*
G37*
G36*
X1095846Y62695D02*
X1095920D01*
X1096096Y62677D01*
X1096300Y62658D01*
X1096512Y62621D01*
X1096706Y62566D01*
X1096891Y62501D01*
X1096900D01*
X1096910Y62492D01*
X1096965Y62464D01*
X1097039Y62418D01*
X1097141Y62353D01*
X1097243Y62261D01*
X1097354Y62159D01*
X1097465Y62030D01*
X1097557Y61882D01*
X1097566Y61863D01*
X1097594Y61808D01*
X1097631Y61724D01*
X1097668Y61604D01*
X1097714Y61456D01*
X1097751Y61290D01*
X1097779Y61105D01*
X1097788Y60902D01*
Y60818D01*
X1097779Y60763D01*
X1097770Y60689D01*
X1097760Y60615D01*
X1097723Y60421D01*
X1097668Y60217D01*
X1097585Y60005D01*
X1097529Y59894D01*
X1097465Y59792D01*
X1097391Y59700D01*
X1097307Y59607D01*
X1097298Y59598D01*
X1097289Y59589D01*
X1097252Y59570D01*
X1097215Y59542D01*
X1097169Y59506D01*
X1097104Y59468D01*
X1097030Y59432D01*
X1096947Y59385D01*
X1096854Y59348D01*
X1096743Y59311D01*
X1096632Y59274D01*
X1096503Y59237D01*
X1096364Y59219D01*
X1096207Y59191D01*
X1096050Y59182D01*
X1095874D01*
X1095763Y59949D01*
X1095772D01*
X1095791D01*
X1095828D01*
X1095883Y59959D01*
X1095939Y59968D01*
X1096004D01*
X1096161Y59995D01*
X1096327Y60023D01*
X1096494Y60079D01*
X1096642Y60134D01*
X1096706Y60171D01*
X1096762Y60217D01*
X1096771Y60227D01*
X1096799Y60264D01*
X1096845Y60319D01*
X1096891Y60393D01*
X1096947Y60495D01*
X1096984Y60606D01*
X1097021Y60744D01*
X1097030Y60892D01*
Y60948D01*
X1097021Y61003D01*
X1097011Y61087D01*
X1096993Y61170D01*
X1096974Y61262D01*
X1096937Y61355D01*
X1096891Y61447D01*
X1096882Y61456D01*
X1096863Y61484D01*
X1096826Y61521D01*
X1096790Y61576D01*
X1096725Y61623D01*
X1096660Y61678D01*
X1096586Y61724D01*
X1096494Y61761D01*
X1096484D01*
X1096448Y61780D01*
X1096383Y61789D01*
X1096300Y61808D01*
X1096189Y61826D01*
X1096050Y61835D01*
X1095883Y61854D01*
X1095689D01*
X1091279D01*
Y62704D01*
X1095643D01*
X1095652D01*
X1095680D01*
X1095717D01*
X1095772D01*
X1095846Y62695D01*
D02*
G37*
G36*
X1206720Y342891D02*
X1206813D01*
X1206905Y342882D01*
X1207026Y342872D01*
X1207146Y342854D01*
X1207414Y342808D01*
X1207710Y342743D01*
X1208006Y342650D01*
X1208292Y342521D01*
X1208301Y342512D01*
X1208329Y342503D01*
X1208366Y342484D01*
X1208412Y342447D01*
X1208477Y342410D01*
X1208551Y342364D01*
X1208717Y342244D01*
X1208902Y342086D01*
X1209087Y341902D01*
X1209272Y341689D01*
X1209429Y341439D01*
X1209439Y341430D01*
X1209448Y341402D01*
X1209466Y341365D01*
X1209494Y341319D01*
X1209522Y341245D01*
X1209550Y341171D01*
X1209587Y341079D01*
X1209624Y340977D01*
X1209660Y340866D01*
X1209697Y340746D01*
X1209753Y340487D01*
X1209799Y340191D01*
X1209818Y339886D01*
Y339794D01*
X1209809Y339729D01*
X1209799Y339646D01*
X1209790Y339544D01*
X1209781Y339442D01*
X1209753Y339322D01*
X1209697Y339072D01*
X1209614Y338795D01*
X1209559Y338656D01*
X1209494Y338527D01*
X1209411Y338397D01*
X1209328Y338268D01*
X1209318Y338259D01*
X1209309Y338240D01*
X1209281Y338203D01*
X1209235Y338157D01*
X1209189Y338111D01*
X1209124Y338046D01*
X1209050Y337981D01*
X1208976Y337907D01*
X1208884Y337834D01*
X1208773Y337760D01*
X1208662Y337676D01*
X1208542Y337602D01*
X1208403Y337538D01*
X1208264Y337464D01*
X1208117Y337408D01*
X1207950Y337353D01*
X1207756Y338185D01*
X1207765D01*
X1207784Y338194D01*
X1207821Y338213D01*
X1207867Y338231D01*
X1207922Y338250D01*
X1207996Y338277D01*
X1208144Y338351D01*
X1208311Y338444D01*
X1208477Y338555D01*
X1208634Y338693D01*
X1208773Y338841D01*
X1208792Y338860D01*
X1208828Y338915D01*
X1208875Y339008D01*
X1208939Y339128D01*
X1208995Y339285D01*
X1209050Y339461D01*
X1209087Y339673D01*
X1209097Y339905D01*
Y339978D01*
X1209087Y340025D01*
Y340089D01*
X1209078Y340163D01*
X1209050Y340339D01*
X1209013Y340533D01*
X1208949Y340737D01*
X1208856Y340949D01*
X1208736Y341143D01*
Y341153D01*
X1208717Y341162D01*
X1208671Y341227D01*
X1208597Y341310D01*
X1208486Y341412D01*
X1208348Y341532D01*
X1208191Y341643D01*
X1207996Y341744D01*
X1207784Y341837D01*
X1207774D01*
X1207756Y341846D01*
X1207728Y341855D01*
X1207682Y341865D01*
X1207626Y341883D01*
X1207562Y341902D01*
X1207405Y341929D01*
X1207220Y341966D01*
X1207016Y342003D01*
X1206794Y342022D01*
X1206554Y342031D01*
X1206545D01*
X1206517D01*
X1206471D01*
X1206415D01*
X1206351Y342022D01*
X1206267D01*
X1206175Y342012D01*
X1206073Y342003D01*
X1205851Y341976D01*
X1205611Y341929D01*
X1205371Y341874D01*
X1205130Y341800D01*
X1205121D01*
X1205102Y341791D01*
X1205075Y341772D01*
X1205029Y341754D01*
X1204918Y341698D01*
X1204788Y341615D01*
X1204640Y341513D01*
X1204483Y341384D01*
X1204344Y341236D01*
X1204215Y341060D01*
Y341051D01*
X1204206Y341032D01*
X1204187Y341005D01*
X1204169Y340968D01*
X1204150Y340922D01*
X1204122Y340866D01*
X1204067Y340737D01*
X1204012Y340570D01*
X1203965Y340385D01*
X1203928Y340182D01*
X1203919Y339969D01*
Y339905D01*
X1203928Y339849D01*
Y339784D01*
X1203938Y339720D01*
X1203975Y339553D01*
X1204021Y339359D01*
X1204095Y339165D01*
X1204196Y338961D01*
X1204252Y338860D01*
X1204326Y338767D01*
X1204335Y338758D01*
X1204344Y338749D01*
X1204372Y338721D01*
X1204400Y338684D01*
X1204446Y338647D01*
X1204501Y338601D01*
X1204557Y338545D01*
X1204631Y338499D01*
X1204714Y338444D01*
X1204807Y338379D01*
X1204899Y338324D01*
X1205010Y338268D01*
X1205130Y338222D01*
X1205260Y338176D01*
X1205398Y338129D01*
X1205546Y338092D01*
X1205334Y337242D01*
X1205324D01*
X1205287Y337251D01*
X1205232Y337270D01*
X1205158Y337297D01*
X1205075Y337325D01*
X1204973Y337362D01*
X1204862Y337408D01*
X1204742Y337464D01*
X1204483Y337593D01*
X1204224Y337760D01*
X1204095Y337861D01*
X1203965Y337963D01*
X1203854Y338074D01*
X1203743Y338203D01*
X1203734Y338213D01*
X1203716Y338231D01*
X1203697Y338277D01*
X1203660Y338324D01*
X1203614Y338397D01*
X1203568Y338471D01*
X1203521Y338573D01*
X1203475Y338675D01*
X1203420Y338795D01*
X1203373Y338924D01*
X1203327Y339063D01*
X1203281Y339211D01*
X1203244Y339368D01*
X1203226Y339535D01*
X1203207Y339710D01*
X1203198Y339895D01*
Y339997D01*
X1203207Y340071D01*
Y340154D01*
X1203216Y340256D01*
X1203235Y340367D01*
X1203253Y340496D01*
X1203300Y340764D01*
X1203373Y341042D01*
X1203475Y341319D01*
X1203540Y341449D01*
X1203614Y341578D01*
X1203623Y341587D01*
X1203632Y341606D01*
X1203660Y341643D01*
X1203697Y341680D01*
X1203734Y341735D01*
X1203790Y341800D01*
X1203854Y341874D01*
X1203928Y341948D01*
X1204012Y342022D01*
X1204095Y342105D01*
X1204307Y342271D01*
X1204557Y342429D01*
X1204834Y342567D01*
X1204844D01*
X1204871Y342586D01*
X1204918Y342595D01*
X1204973Y342623D01*
X1205047Y342641D01*
X1205139Y342669D01*
X1205241Y342706D01*
X1205352Y342734D01*
X1205472Y342761D01*
X1205611Y342798D01*
X1205898Y342845D01*
X1206221Y342882D01*
X1206554Y342900D01*
X1206563D01*
X1206600D01*
X1206656D01*
X1206720Y342891D01*
D02*
G37*
G36*
X1205102Y335726D02*
X1205093D01*
X1205075Y335716D01*
X1205038Y335707D01*
X1204992Y335698D01*
X1204936Y335689D01*
X1204871Y335670D01*
X1204733Y335624D01*
X1204566Y335559D01*
X1204409Y335476D01*
X1204261Y335383D01*
X1204132Y335272D01*
X1204122Y335254D01*
X1204085Y335217D01*
X1204039Y335143D01*
X1203993Y335051D01*
X1203938Y334940D01*
X1203891Y334801D01*
X1203854Y334644D01*
X1203845Y334477D01*
Y334422D01*
X1203854Y334385D01*
X1203864Y334283D01*
X1203891Y334154D01*
X1203938Y334006D01*
X1204002Y333849D01*
X1204095Y333691D01*
X1204224Y333544D01*
X1204243Y333525D01*
X1204298Y333479D01*
X1204381Y333423D01*
X1204492Y333349D01*
X1204631Y333275D01*
X1204788Y333220D01*
X1204973Y333174D01*
X1205176Y333155D01*
X1205186D01*
X1205204D01*
X1205232D01*
X1205269Y333164D01*
X1205371Y333174D01*
X1205491Y333201D01*
X1205639Y333238D01*
X1205787Y333303D01*
X1205935Y333396D01*
X1206073Y333516D01*
X1206092Y333534D01*
X1206129Y333581D01*
X1206184Y333655D01*
X1206249Y333756D01*
X1206314Y333886D01*
X1206369Y334043D01*
X1206406Y334218D01*
X1206425Y334413D01*
Y334496D01*
X1206415Y334561D01*
X1206406Y334644D01*
X1206388Y334736D01*
X1206369Y334847D01*
X1206341Y334967D01*
X1207035Y334875D01*
Y334829D01*
X1207026Y334792D01*
Y334672D01*
X1207044Y334570D01*
X1207063Y334450D01*
X1207090Y334311D01*
X1207137Y334154D01*
X1207201Y334006D01*
X1207284Y333849D01*
Y333839D01*
X1207294Y333830D01*
X1207331Y333784D01*
X1207395Y333719D01*
X1207479Y333645D01*
X1207599Y333571D01*
X1207738Y333507D01*
X1207895Y333460D01*
X1207987Y333442D01*
X1208089D01*
X1208098D01*
X1208107D01*
X1208163D01*
X1208237Y333460D01*
X1208338Y333479D01*
X1208449Y333516D01*
X1208570Y333562D01*
X1208690Y333636D01*
X1208801Y333738D01*
X1208810Y333747D01*
X1208847Y333793D01*
X1208893Y333858D01*
X1208949Y333941D01*
X1208995Y334052D01*
X1209041Y334182D01*
X1209078Y334329D01*
X1209087Y334496D01*
Y334570D01*
X1209069Y334653D01*
X1209050Y334764D01*
X1209013Y334884D01*
X1208967Y335004D01*
X1208893Y335134D01*
X1208801Y335254D01*
X1208792Y335263D01*
X1208745Y335300D01*
X1208680Y335356D01*
X1208588Y335420D01*
X1208468Y335485D01*
X1208320Y335550D01*
X1208144Y335605D01*
X1207941Y335642D01*
X1208080Y336428D01*
X1208089D01*
X1208117Y336419D01*
X1208154Y336410D01*
X1208209Y336400D01*
X1208274Y336382D01*
X1208348Y336354D01*
X1208523Y336299D01*
X1208727Y336206D01*
X1208930Y336095D01*
X1209124Y335957D01*
X1209300Y335781D01*
X1209309Y335772D01*
X1209318Y335753D01*
X1209337Y335726D01*
X1209365Y335689D01*
X1209402Y335642D01*
X1209439Y335578D01*
X1209476Y335513D01*
X1209522Y335430D01*
X1209596Y335245D01*
X1209670Y335032D01*
X1209716Y334782D01*
X1209734Y334653D01*
Y334422D01*
X1209725Y334320D01*
X1209707Y334200D01*
X1209679Y334052D01*
X1209633Y333886D01*
X1209577Y333719D01*
X1209503Y333553D01*
Y333544D01*
X1209494Y333534D01*
X1209466Y333479D01*
X1209411Y333396D01*
X1209346Y333303D01*
X1209254Y333192D01*
X1209152Y333081D01*
X1209032Y332970D01*
X1208893Y332878D01*
X1208875Y332869D01*
X1208828Y332841D01*
X1208745Y332804D01*
X1208643Y332758D01*
X1208523Y332711D01*
X1208385Y332674D01*
X1208227Y332647D01*
X1208070Y332637D01*
X1208052D01*
X1207996D01*
X1207922Y332647D01*
X1207821Y332665D01*
X1207701Y332693D01*
X1207571Y332739D01*
X1207442Y332795D01*
X1207312Y332869D01*
X1207294Y332878D01*
X1207257Y332906D01*
X1207192Y332961D01*
X1207118Y333035D01*
X1207035Y333128D01*
X1206942Y333238D01*
X1206859Y333368D01*
X1206776Y333525D01*
Y333516D01*
X1206767Y333497D01*
X1206757Y333470D01*
X1206748Y333433D01*
X1206711Y333331D01*
X1206656Y333201D01*
X1206582Y333054D01*
X1206489Y332906D01*
X1206369Y332767D01*
X1206230Y332637D01*
X1206212Y332628D01*
X1206156Y332591D01*
X1206064Y332536D01*
X1205944Y332480D01*
X1205796Y332425D01*
X1205620Y332369D01*
X1205417Y332332D01*
X1205195Y332323D01*
X1205186D01*
X1205158D01*
X1205112D01*
X1205056Y332332D01*
X1204982Y332342D01*
X1204899Y332360D01*
X1204807Y332379D01*
X1204705Y332397D01*
X1204483Y332471D01*
X1204363Y332527D01*
X1204252Y332582D01*
X1204132Y332656D01*
X1204012Y332739D01*
X1203891Y332832D01*
X1203780Y332943D01*
X1203771Y332952D01*
X1203753Y332970D01*
X1203725Y333007D01*
X1203688Y333054D01*
X1203642Y333109D01*
X1203595Y333183D01*
X1203540Y333266D01*
X1203494Y333368D01*
X1203438Y333470D01*
X1203383Y333590D01*
X1203337Y333710D01*
X1203290Y333849D01*
X1203253Y333997D01*
X1203226Y334154D01*
X1203207Y334311D01*
X1203198Y334487D01*
Y334570D01*
X1203207Y334625D01*
X1203216Y334699D01*
X1203226Y334782D01*
X1203244Y334875D01*
X1203263Y334977D01*
X1203318Y335199D01*
X1203410Y335430D01*
X1203466Y335550D01*
X1203531Y335661D01*
X1203614Y335772D01*
X1203697Y335883D01*
X1203706Y335892D01*
X1203725Y335910D01*
X1203753Y335938D01*
X1203790Y335966D01*
X1203836Y336012D01*
X1203901Y336058D01*
X1203965Y336114D01*
X1204048Y336169D01*
X1204141Y336225D01*
X1204233Y336280D01*
X1204455Y336382D01*
X1204714Y336465D01*
X1204853Y336493D01*
X1205001Y336511D01*
X1205102Y335726D01*
D02*
G37*
G36*
X1316859Y375164D02*
X1316942Y375155D01*
X1317044Y375146D01*
X1317146Y375137D01*
X1317266Y375109D01*
X1317516Y375053D01*
X1317793Y374970D01*
X1317932Y374915D01*
X1318061Y374850D01*
X1318190Y374767D01*
X1318320Y374684D01*
X1318329Y374674D01*
X1318348Y374665D01*
X1318385Y374637D01*
X1318431Y374591D01*
X1318477Y374545D01*
X1318542Y374480D01*
X1318607Y374406D01*
X1318681Y374332D01*
X1318754Y374240D01*
X1318828Y374129D01*
X1318912Y374018D01*
X1318986Y373898D01*
X1319050Y373759D01*
X1319124Y373620D01*
X1319180Y373473D01*
X1319235Y373306D01*
X1318403Y373112D01*
Y373121D01*
X1318394Y373140D01*
X1318375Y373177D01*
X1318357Y373223D01*
X1318338Y373278D01*
X1318311Y373352D01*
X1318237Y373500D01*
X1318144Y373667D01*
X1318033Y373833D01*
X1317895Y373990D01*
X1317747Y374129D01*
X1317728Y374147D01*
X1317673Y374184D01*
X1317580Y374231D01*
X1317460Y374295D01*
X1317303Y374351D01*
X1317127Y374406D01*
X1316915Y374443D01*
X1316683Y374453D01*
X1316609D01*
X1316563Y374443D01*
X1316499D01*
X1316425Y374434D01*
X1316249Y374406D01*
X1316055Y374369D01*
X1315851Y374305D01*
X1315639Y374212D01*
X1315444Y374092D01*
X1315435D01*
X1315426Y374073D01*
X1315361Y374027D01*
X1315278Y373953D01*
X1315176Y373842D01*
X1315056Y373704D01*
X1314945Y373546D01*
X1314844Y373352D01*
X1314751Y373140D01*
Y373130D01*
X1314742Y373112D01*
X1314733Y373084D01*
X1314723Y373038D01*
X1314705Y372982D01*
X1314686Y372918D01*
X1314659Y372761D01*
X1314622Y372576D01*
X1314585Y372372D01*
X1314566Y372150D01*
X1314557Y371910D01*
Y371901D01*
Y371873D01*
Y371827D01*
Y371771D01*
X1314566Y371707D01*
Y371623D01*
X1314576Y371531D01*
X1314585Y371429D01*
X1314612Y371207D01*
X1314659Y370967D01*
X1314714Y370727D01*
X1314788Y370486D01*
Y370477D01*
X1314797Y370458D01*
X1314816Y370431D01*
X1314834Y370384D01*
X1314890Y370274D01*
X1314973Y370144D01*
X1315075Y369996D01*
X1315204Y369839D01*
X1315352Y369700D01*
X1315528Y369571D01*
X1315537D01*
X1315556Y369562D01*
X1315583Y369543D01*
X1315620Y369525D01*
X1315666Y369506D01*
X1315722Y369478D01*
X1315851Y369423D01*
X1316018Y369367D01*
X1316203Y369321D01*
X1316406Y369284D01*
X1316619Y369275D01*
X1316683D01*
X1316739Y369284D01*
X1316804D01*
X1316868Y369294D01*
X1317035Y369330D01*
X1317229Y369377D01*
X1317423Y369451D01*
X1317626Y369552D01*
X1317728Y369608D01*
X1317821Y369682D01*
X1317830Y369691D01*
X1317839Y369700D01*
X1317867Y369728D01*
X1317904Y369756D01*
X1317941Y369802D01*
X1317987Y369857D01*
X1318043Y369913D01*
X1318089Y369987D01*
X1318144Y370070D01*
X1318209Y370163D01*
X1318264Y370255D01*
X1318320Y370366D01*
X1318366Y370486D01*
X1318412Y370616D01*
X1318459Y370754D01*
X1318496Y370902D01*
X1319346Y370690D01*
Y370680D01*
X1319337Y370643D01*
X1319318Y370588D01*
X1319291Y370514D01*
X1319263Y370431D01*
X1319226Y370329D01*
X1319180Y370218D01*
X1319124Y370098D01*
X1318995Y369839D01*
X1318828Y369580D01*
X1318727Y369451D01*
X1318625Y369321D01*
X1318514Y369210D01*
X1318385Y369099D01*
X1318375Y369090D01*
X1318357Y369072D01*
X1318311Y369053D01*
X1318264Y369016D01*
X1318190Y368970D01*
X1318116Y368924D01*
X1318015Y368877D01*
X1317913Y368831D01*
X1317793Y368776D01*
X1317664Y368730D01*
X1317525Y368683D01*
X1317377Y368637D01*
X1317220Y368600D01*
X1317053Y368582D01*
X1316878Y368563D01*
X1316693Y368554D01*
X1316591D01*
X1316517Y368563D01*
X1316434D01*
X1316332Y368572D01*
X1316221Y368591D01*
X1316092Y368609D01*
X1315824Y368656D01*
X1315546Y368730D01*
X1315269Y368831D01*
X1315139Y368896D01*
X1315010Y368970D01*
X1315001Y368979D01*
X1314982Y368988D01*
X1314945Y369016D01*
X1314908Y369053D01*
X1314853Y369090D01*
X1314788Y369146D01*
X1314714Y369210D01*
X1314640Y369284D01*
X1314566Y369367D01*
X1314483Y369451D01*
X1314317Y369663D01*
X1314159Y369913D01*
X1314021Y370190D01*
Y370200D01*
X1314002Y370227D01*
X1313993Y370274D01*
X1313965Y370329D01*
X1313947Y370403D01*
X1313919Y370495D01*
X1313882Y370597D01*
X1313854Y370708D01*
X1313827Y370828D01*
X1313790Y370967D01*
X1313743Y371254D01*
X1313706Y371577D01*
X1313688Y371910D01*
Y371919D01*
Y371956D01*
Y372012D01*
X1313697Y372076D01*
Y372169D01*
X1313706Y372261D01*
X1313716Y372382D01*
X1313734Y372502D01*
X1313780Y372770D01*
X1313845Y373066D01*
X1313938Y373362D01*
X1314067Y373648D01*
X1314076Y373657D01*
X1314085Y373685D01*
X1314104Y373722D01*
X1314141Y373768D01*
X1314178Y373833D01*
X1314224Y373907D01*
X1314344Y374073D01*
X1314501Y374258D01*
X1314686Y374443D01*
X1314899Y374628D01*
X1315149Y374785D01*
X1315158Y374795D01*
X1315186Y374804D01*
X1315223Y374822D01*
X1315269Y374850D01*
X1315343Y374878D01*
X1315417Y374906D01*
X1315509Y374943D01*
X1315611Y374980D01*
X1315722Y375017D01*
X1315842Y375053D01*
X1316101Y375109D01*
X1316397Y375155D01*
X1316702Y375174D01*
X1316794D01*
X1316859Y375164D01*
D02*
G37*
G36*
X1323026Y368665D02*
X1322240D01*
Y373667D01*
X1322231Y373657D01*
X1322185Y373620D01*
X1322129Y373565D01*
X1322037Y373500D01*
X1321935Y373417D01*
X1321806Y373325D01*
X1321658Y373223D01*
X1321491Y373121D01*
X1321482D01*
X1321473Y373112D01*
X1321417Y373075D01*
X1321325Y373029D01*
X1321214Y372973D01*
X1321084Y372909D01*
X1320946Y372844D01*
X1320807Y372779D01*
X1320668Y372724D01*
Y373482D01*
X1320677D01*
X1320696Y373500D01*
X1320733Y373509D01*
X1320779Y373537D01*
X1320835Y373565D01*
X1320899Y373602D01*
X1321057Y373694D01*
X1321241Y373796D01*
X1321426Y373926D01*
X1321621Y374073D01*
X1321815Y374231D01*
X1321824Y374240D01*
X1321833Y374249D01*
X1321861Y374277D01*
X1321898Y374305D01*
X1321981Y374397D01*
X1322092Y374508D01*
X1322203Y374637D01*
X1322323Y374785D01*
X1322425Y374933D01*
X1322517Y375090D01*
X1323026D01*
Y368665D01*
D02*
G37*
G36*
X1384266Y394599D02*
X1384359D01*
X1384451Y394590D01*
X1384572Y394580D01*
X1384692Y394562D01*
X1384960Y394516D01*
X1385256Y394451D01*
X1385552Y394358D01*
X1385838Y394229D01*
X1385847Y394220D01*
X1385875Y394211D01*
X1385912Y394192D01*
X1385958Y394155D01*
X1386023Y394118D01*
X1386097Y394072D01*
X1386263Y393952D01*
X1386448Y393795D01*
X1386633Y393610D01*
X1386818Y393397D01*
X1386975Y393147D01*
X1386985Y393138D01*
X1386994Y393110D01*
X1387012Y393073D01*
X1387040Y393027D01*
X1387068Y392953D01*
X1387096Y392879D01*
X1387133Y392787D01*
X1387170Y392685D01*
X1387207Y392574D01*
X1387243Y392454D01*
X1387299Y392195D01*
X1387345Y391899D01*
X1387364Y391594D01*
Y391502D01*
X1387354Y391437D01*
X1387345Y391354D01*
X1387336Y391252D01*
X1387327Y391150D01*
X1387299Y391030D01*
X1387243Y390780D01*
X1387160Y390503D01*
X1387105Y390364D01*
X1387040Y390235D01*
X1386957Y390106D01*
X1386874Y389976D01*
X1386864Y389967D01*
X1386855Y389948D01*
X1386828Y389911D01*
X1386781Y389865D01*
X1386735Y389819D01*
X1386670Y389754D01*
X1386596Y389689D01*
X1386522Y389616D01*
X1386430Y389542D01*
X1386319Y389468D01*
X1386208Y389384D01*
X1386088Y389310D01*
X1385949Y389246D01*
X1385811Y389172D01*
X1385663Y389116D01*
X1385496Y389061D01*
X1385302Y389893D01*
X1385311D01*
X1385330Y389902D01*
X1385367Y389921D01*
X1385413Y389939D01*
X1385468Y389958D01*
X1385542Y389985D01*
X1385690Y390059D01*
X1385857Y390152D01*
X1386023Y390263D01*
X1386180Y390401D01*
X1386319Y390549D01*
X1386337Y390568D01*
X1386374Y390623D01*
X1386421Y390716D01*
X1386485Y390836D01*
X1386541Y390993D01*
X1386596Y391169D01*
X1386633Y391381D01*
X1386643Y391613D01*
Y391687D01*
X1386633Y391733D01*
Y391797D01*
X1386624Y391871D01*
X1386596Y392047D01*
X1386559Y392241D01*
X1386495Y392445D01*
X1386402Y392657D01*
X1386282Y392851D01*
Y392861D01*
X1386263Y392870D01*
X1386217Y392935D01*
X1386143Y393018D01*
X1386032Y393120D01*
X1385894Y393240D01*
X1385737Y393351D01*
X1385542Y393452D01*
X1385330Y393545D01*
X1385320D01*
X1385302Y393554D01*
X1385274Y393563D01*
X1385228Y393573D01*
X1385172Y393591D01*
X1385108Y393610D01*
X1384951Y393637D01*
X1384766Y393674D01*
X1384562Y393711D01*
X1384340Y393730D01*
X1384100Y393739D01*
X1384091D01*
X1384063D01*
X1384017D01*
X1383961D01*
X1383897Y393730D01*
X1383813D01*
X1383721Y393721D01*
X1383619Y393711D01*
X1383397Y393684D01*
X1383157Y393637D01*
X1382917Y393582D01*
X1382676Y393508D01*
X1382667D01*
X1382648Y393499D01*
X1382621Y393480D01*
X1382574Y393462D01*
X1382464Y393406D01*
X1382334Y393323D01*
X1382186Y393221D01*
X1382029Y393092D01*
X1381890Y392944D01*
X1381761Y392768D01*
Y392759D01*
X1381752Y392741D01*
X1381733Y392713D01*
X1381715Y392676D01*
X1381696Y392630D01*
X1381668Y392574D01*
X1381613Y392445D01*
X1381557Y392278D01*
X1381511Y392093D01*
X1381474Y391890D01*
X1381465Y391677D01*
Y391613D01*
X1381474Y391557D01*
Y391492D01*
X1381483Y391428D01*
X1381521Y391261D01*
X1381567Y391067D01*
X1381641Y390873D01*
X1381742Y390669D01*
X1381798Y390568D01*
X1381872Y390475D01*
X1381881Y390466D01*
X1381890Y390457D01*
X1381918Y390429D01*
X1381946Y390392D01*
X1381992Y390355D01*
X1382047Y390309D01*
X1382103Y390253D01*
X1382177Y390207D01*
X1382260Y390152D01*
X1382353Y390087D01*
X1382445Y390032D01*
X1382556Y389976D01*
X1382676Y389930D01*
X1382806Y389884D01*
X1382944Y389837D01*
X1383092Y389800D01*
X1382880Y388950D01*
X1382870D01*
X1382833Y388959D01*
X1382778Y388978D01*
X1382704Y389005D01*
X1382621Y389033D01*
X1382519Y389070D01*
X1382408Y389116D01*
X1382288Y389172D01*
X1382029Y389301D01*
X1381770Y389468D01*
X1381641Y389569D01*
X1381511Y389671D01*
X1381400Y389782D01*
X1381289Y389911D01*
X1381280Y389921D01*
X1381262Y389939D01*
X1381243Y389985D01*
X1381206Y390032D01*
X1381160Y390106D01*
X1381114Y390179D01*
X1381068Y390281D01*
X1381021Y390383D01*
X1380966Y390503D01*
X1380919Y390633D01*
X1380873Y390771D01*
X1380827Y390919D01*
X1380790Y391076D01*
X1380772Y391243D01*
X1380753Y391418D01*
X1380744Y391603D01*
Y391705D01*
X1380753Y391779D01*
Y391862D01*
X1380762Y391964D01*
X1380781Y392075D01*
X1380799Y392204D01*
X1380846Y392472D01*
X1380919Y392750D01*
X1381021Y393027D01*
X1381086Y393157D01*
X1381160Y393286D01*
X1381169Y393295D01*
X1381178Y393314D01*
X1381206Y393351D01*
X1381243Y393388D01*
X1381280Y393443D01*
X1381336Y393508D01*
X1381400Y393582D01*
X1381474Y393656D01*
X1381557Y393730D01*
X1381641Y393813D01*
X1381853Y393979D01*
X1382103Y394137D01*
X1382380Y394275D01*
X1382390D01*
X1382417Y394294D01*
X1382464Y394303D01*
X1382519Y394331D01*
X1382593Y394349D01*
X1382685Y394377D01*
X1382787Y394414D01*
X1382898Y394442D01*
X1383018Y394469D01*
X1383157Y394506D01*
X1383444Y394553D01*
X1383767Y394590D01*
X1384100Y394608D01*
X1384109D01*
X1384146D01*
X1384202D01*
X1384266Y394599D01*
D02*
G37*
G36*
X1382593Y387406D02*
X1382584D01*
X1382565D01*
X1382538Y387397D01*
X1382491Y387387D01*
X1382390Y387360D01*
X1382251Y387323D01*
X1382112Y387267D01*
X1381955Y387193D01*
X1381816Y387101D01*
X1381687Y386990D01*
X1381678Y386971D01*
X1381641Y386934D01*
X1381595Y386860D01*
X1381539Y386759D01*
X1381483Y386648D01*
X1381437Y386509D01*
X1381400Y386352D01*
X1381391Y386176D01*
Y386121D01*
X1381400Y386084D01*
X1381410Y385973D01*
X1381447Y385843D01*
X1381493Y385686D01*
X1381567Y385529D01*
X1381678Y385363D01*
X1381742Y385289D01*
X1381816Y385215D01*
X1381826Y385205D01*
X1381835Y385196D01*
X1381863Y385178D01*
X1381890Y385150D01*
X1381992Y385085D01*
X1382121Y385011D01*
X1382279Y384946D01*
X1382473Y384882D01*
X1382704Y384836D01*
X1382824Y384817D01*
X1382954D01*
X1382963D01*
X1382981D01*
X1383018D01*
X1383065Y384826D01*
X1383120D01*
X1383185Y384836D01*
X1383333Y384863D01*
X1383508Y384909D01*
X1383684Y384974D01*
X1383850Y385067D01*
X1384008Y385196D01*
X1384017D01*
X1384026Y385215D01*
X1384072Y385261D01*
X1384137Y385344D01*
X1384211Y385455D01*
X1384276Y385603D01*
X1384340Y385769D01*
X1384387Y385963D01*
X1384405Y386074D01*
Y386250D01*
X1384396Y386324D01*
X1384387Y386417D01*
X1384359Y386527D01*
X1384331Y386638D01*
X1384285Y386759D01*
X1384229Y386879D01*
X1384220Y386888D01*
X1384202Y386925D01*
X1384155Y386981D01*
X1384109Y387054D01*
X1384045Y387128D01*
X1383961Y387202D01*
X1383878Y387286D01*
X1383776Y387350D01*
X1383878Y388090D01*
X1387170Y387471D01*
Y384290D01*
X1386421D01*
Y386851D01*
X1384692Y387193D01*
X1384701Y387184D01*
X1384710Y387165D01*
X1384729Y387138D01*
X1384756Y387091D01*
X1384784Y387036D01*
X1384821Y386971D01*
X1384895Y386823D01*
X1384969Y386638D01*
X1385034Y386435D01*
X1385080Y386213D01*
X1385099Y386102D01*
Y385899D01*
X1385089Y385843D01*
X1385080Y385769D01*
X1385071Y385686D01*
X1385052Y385594D01*
X1385025Y385492D01*
X1384960Y385270D01*
X1384914Y385150D01*
X1384849Y385030D01*
X1384784Y384909D01*
X1384710Y384789D01*
X1384618Y384678D01*
X1384516Y384567D01*
X1384507Y384558D01*
X1384488Y384540D01*
X1384461Y384512D01*
X1384414Y384475D01*
X1384350Y384429D01*
X1384285Y384382D01*
X1384202Y384327D01*
X1384109Y384272D01*
X1384008Y384225D01*
X1383897Y384170D01*
X1383767Y384124D01*
X1383638Y384077D01*
X1383499Y384040D01*
X1383342Y384013D01*
X1383185Y383994D01*
X1383018Y383985D01*
X1383009D01*
X1382981D01*
X1382935D01*
X1382870Y383994D01*
X1382796Y384003D01*
X1382713Y384013D01*
X1382612Y384031D01*
X1382510Y384050D01*
X1382269Y384105D01*
X1382020Y384198D01*
X1381890Y384253D01*
X1381770Y384327D01*
X1381641Y384401D01*
X1381521Y384493D01*
X1381511Y384503D01*
X1381483Y384521D01*
X1381447Y384558D01*
X1381400Y384604D01*
X1381345Y384669D01*
X1381271Y384743D01*
X1381206Y384836D01*
X1381132Y384937D01*
X1381058Y385048D01*
X1380993Y385178D01*
X1380929Y385316D01*
X1380864Y385464D01*
X1380818Y385621D01*
X1380781Y385797D01*
X1380753Y385982D01*
X1380744Y386176D01*
Y386259D01*
X1380753Y386324D01*
X1380762Y386398D01*
X1380772Y386481D01*
X1380781Y386583D01*
X1380809Y386685D01*
X1380864Y386916D01*
X1380947Y387147D01*
X1381003Y387267D01*
X1381068Y387387D01*
X1381141Y387498D01*
X1381225Y387609D01*
X1381234Y387618D01*
X1381243Y387637D01*
X1381280Y387655D01*
X1381317Y387692D01*
X1381363Y387739D01*
X1381419Y387785D01*
X1381493Y387840D01*
X1381576Y387887D01*
X1381659Y387942D01*
X1381761Y387998D01*
X1381983Y388099D01*
X1382242Y388182D01*
X1382380Y388210D01*
X1382528Y388229D01*
X1382593Y387406D01*
D02*
G37*
G36*
X1449955Y864369D02*
X1450038Y864359D01*
X1450140Y864350D01*
X1450242Y864341D01*
X1450362Y864313D01*
X1450612Y864258D01*
X1450889Y864174D01*
X1451028Y864119D01*
X1451157Y864054D01*
X1451286Y863971D01*
X1451416Y863888D01*
X1451425Y863878D01*
X1451444Y863869D01*
X1451481Y863841D01*
X1451527Y863795D01*
X1451573Y863749D01*
X1451638Y863684D01*
X1451703Y863610D01*
X1451776Y863536D01*
X1451850Y863444D01*
X1451924Y863333D01*
X1452008Y863222D01*
X1452082Y863102D01*
X1452146Y862963D01*
X1452220Y862824D01*
X1452276Y862676D01*
X1452331Y862510D01*
X1451499Y862316D01*
Y862325D01*
X1451490Y862344D01*
X1451471Y862381D01*
X1451453Y862427D01*
X1451434Y862482D01*
X1451407Y862556D01*
X1451333Y862704D01*
X1451240Y862871D01*
X1451129Y863037D01*
X1450991Y863194D01*
X1450843Y863333D01*
X1450824Y863352D01*
X1450769Y863388D01*
X1450676Y863435D01*
X1450556Y863499D01*
X1450399Y863555D01*
X1450223Y863610D01*
X1450011Y863647D01*
X1449779Y863657D01*
X1449706D01*
X1449659Y863647D01*
X1449595D01*
X1449521Y863638D01*
X1449345Y863610D01*
X1449151Y863573D01*
X1448947Y863509D01*
X1448735Y863416D01*
X1448540Y863296D01*
X1448531D01*
X1448522Y863278D01*
X1448457Y863231D01*
X1448374Y863157D01*
X1448272Y863046D01*
X1448152Y862908D01*
X1448041Y862750D01*
X1447940Y862556D01*
X1447847Y862344D01*
Y862334D01*
X1447838Y862316D01*
X1447829Y862288D01*
X1447819Y862242D01*
X1447801Y862187D01*
X1447782Y862122D01*
X1447755Y861965D01*
X1447718Y861780D01*
X1447681Y861576D01*
X1447662Y861354D01*
X1447653Y861114D01*
Y861105D01*
Y861077D01*
Y861031D01*
Y860975D01*
X1447662Y860911D01*
Y860827D01*
X1447672Y860735D01*
X1447681Y860633D01*
X1447708Y860411D01*
X1447755Y860171D01*
X1447810Y859931D01*
X1447884Y859690D01*
Y859681D01*
X1447893Y859662D01*
X1447912Y859635D01*
X1447930Y859588D01*
X1447986Y859478D01*
X1448069Y859348D01*
X1448171Y859200D01*
X1448300Y859043D01*
X1448448Y858904D01*
X1448624Y858775D01*
X1448633D01*
X1448651Y858766D01*
X1448679Y858747D01*
X1448716Y858729D01*
X1448762Y858710D01*
X1448818Y858682D01*
X1448947Y858627D01*
X1449114Y858571D01*
X1449299Y858525D01*
X1449502Y858488D01*
X1449715Y858479D01*
X1449779D01*
X1449835Y858488D01*
X1449900D01*
X1449964Y858497D01*
X1450131Y858534D01*
X1450325Y858581D01*
X1450519Y858655D01*
X1450723Y858756D01*
X1450824Y858812D01*
X1450917Y858886D01*
X1450926Y858895D01*
X1450935Y858904D01*
X1450963Y858932D01*
X1451000Y858960D01*
X1451037Y859006D01*
X1451083Y859062D01*
X1451139Y859117D01*
X1451185Y859191D01*
X1451240Y859274D01*
X1451305Y859367D01*
X1451360Y859459D01*
X1451416Y859570D01*
X1451462Y859690D01*
X1451508Y859820D01*
X1451555Y859958D01*
X1451592Y860106D01*
X1452442Y859894D01*
Y859884D01*
X1452433Y859847D01*
X1452414Y859792D01*
X1452387Y859718D01*
X1452359Y859635D01*
X1452322Y859533D01*
X1452276Y859422D01*
X1452220Y859302D01*
X1452091Y859043D01*
X1451924Y858784D01*
X1451823Y858655D01*
X1451721Y858525D01*
X1451610Y858414D01*
X1451481Y858303D01*
X1451471Y858294D01*
X1451453Y858276D01*
X1451407Y858257D01*
X1451360Y858220D01*
X1451286Y858174D01*
X1451212Y858128D01*
X1451111Y858082D01*
X1451009Y858035D01*
X1450889Y857980D01*
X1450759Y857934D01*
X1450621Y857887D01*
X1450473Y857841D01*
X1450316Y857804D01*
X1450149Y857786D01*
X1449974Y857767D01*
X1449789Y857758D01*
X1449687D01*
X1449613Y857767D01*
X1449530D01*
X1449428Y857776D01*
X1449317Y857795D01*
X1449188Y857813D01*
X1448920Y857860D01*
X1448642Y857934D01*
X1448365Y858035D01*
X1448235Y858100D01*
X1448106Y858174D01*
X1448097Y858183D01*
X1448078Y858192D01*
X1448041Y858220D01*
X1448004Y858257D01*
X1447949Y858294D01*
X1447884Y858350D01*
X1447810Y858414D01*
X1447736Y858488D01*
X1447662Y858571D01*
X1447579Y858655D01*
X1447413Y858867D01*
X1447255Y859117D01*
X1447117Y859394D01*
Y859404D01*
X1447098Y859431D01*
X1447089Y859478D01*
X1447061Y859533D01*
X1447043Y859607D01*
X1447015Y859699D01*
X1446978Y859801D01*
X1446950Y859912D01*
X1446923Y860032D01*
X1446886Y860171D01*
X1446839Y860458D01*
X1446802Y860781D01*
X1446784Y861114D01*
Y861123D01*
Y861160D01*
Y861216D01*
X1446793Y861280D01*
Y861373D01*
X1446802Y861465D01*
X1446812Y861586D01*
X1446830Y861706D01*
X1446876Y861974D01*
X1446941Y862270D01*
X1447034Y862566D01*
X1447163Y862852D01*
X1447172Y862861D01*
X1447181Y862889D01*
X1447200Y862926D01*
X1447237Y862972D01*
X1447274Y863037D01*
X1447320Y863111D01*
X1447440Y863278D01*
X1447598Y863462D01*
X1447782Y863647D01*
X1447995Y863832D01*
X1448245Y863989D01*
X1448254Y863999D01*
X1448282Y864008D01*
X1448319Y864026D01*
X1448365Y864054D01*
X1448439Y864082D01*
X1448513Y864110D01*
X1448605Y864147D01*
X1448707Y864184D01*
X1448818Y864221D01*
X1448938Y864258D01*
X1449197Y864313D01*
X1449493Y864359D01*
X1449798Y864378D01*
X1449890D01*
X1449955Y864369D01*
D02*
G37*
G36*
X1455382Y864285D02*
X1455456Y864276D01*
X1455540Y864267D01*
X1455632Y864258D01*
X1455724Y864230D01*
X1455946Y864174D01*
X1456168Y864091D01*
X1456279Y864036D01*
X1456390Y863971D01*
X1456492Y863888D01*
X1456593Y863804D01*
X1456603Y863795D01*
X1456612Y863786D01*
X1456640Y863758D01*
X1456677Y863721D01*
X1456714Y863666D01*
X1456760Y863610D01*
X1456852Y863472D01*
X1456945Y863296D01*
X1457028Y863093D01*
X1457093Y862861D01*
X1457102Y862741D01*
X1457111Y862612D01*
Y862603D01*
Y862593D01*
Y862538D01*
X1457102Y862455D01*
X1457083Y862353D01*
X1457056Y862224D01*
X1457009Y862094D01*
X1456954Y861965D01*
X1456871Y861835D01*
X1456862Y861817D01*
X1456825Y861780D01*
X1456769Y861724D01*
X1456695Y861650D01*
X1456593Y861567D01*
X1456473Y861484D01*
X1456335Y861401D01*
X1456168Y861327D01*
X1456177D01*
X1456196Y861317D01*
X1456224Y861308D01*
X1456261Y861290D01*
X1456372Y861244D01*
X1456501Y861179D01*
X1456640Y861086D01*
X1456788Y860985D01*
X1456926Y860855D01*
X1457056Y860707D01*
Y860698D01*
X1457065Y860689D01*
X1457102Y860633D01*
X1457157Y860541D01*
X1457213Y860421D01*
X1457268Y860273D01*
X1457324Y860097D01*
X1457361Y859903D01*
X1457370Y859690D01*
Y859681D01*
Y859653D01*
Y859607D01*
X1457361Y859551D01*
X1457352Y859487D01*
X1457342Y859404D01*
X1457324Y859311D01*
X1457296Y859209D01*
X1457231Y858997D01*
X1457185Y858877D01*
X1457121Y858766D01*
X1457056Y858645D01*
X1456982Y858534D01*
X1456889Y858424D01*
X1456788Y858313D01*
X1456778Y858303D01*
X1456760Y858285D01*
X1456732Y858257D01*
X1456686Y858229D01*
X1456621Y858183D01*
X1456557Y858137D01*
X1456473Y858091D01*
X1456381Y858035D01*
X1456279Y857980D01*
X1456159Y857934D01*
X1456030Y857887D01*
X1455900Y857841D01*
X1455752Y857813D01*
X1455595Y857786D01*
X1455438Y857767D01*
X1455262Y857758D01*
X1455170D01*
X1455105Y857767D01*
X1455022Y857776D01*
X1454929Y857786D01*
X1454828Y857804D01*
X1454717Y857832D01*
X1454467Y857897D01*
X1454337Y857943D01*
X1454217Y857989D01*
X1454088Y858054D01*
X1453958Y858128D01*
X1453838Y858211D01*
X1453727Y858313D01*
X1453718Y858322D01*
X1453700Y858340D01*
X1453672Y858368D01*
X1453635Y858414D01*
X1453598Y858470D01*
X1453542Y858534D01*
X1453496Y858608D01*
X1453441Y858701D01*
X1453385Y858793D01*
X1453339Y858904D01*
X1453246Y859136D01*
X1453210Y859274D01*
X1453182Y859413D01*
X1453163Y859561D01*
X1453154Y859709D01*
Y859718D01*
Y859736D01*
Y859773D01*
X1453163Y859810D01*
Y859866D01*
X1453173Y859931D01*
X1453191Y860079D01*
X1453228Y860245D01*
X1453284Y860411D01*
X1453367Y860587D01*
X1453468Y860753D01*
Y860763D01*
X1453487Y860772D01*
X1453524Y860818D01*
X1453598Y860892D01*
X1453700Y860985D01*
X1453829Y861077D01*
X1453986Y861179D01*
X1454162Y861262D01*
X1454375Y861327D01*
X1454365D01*
X1454356Y861336D01*
X1454328Y861345D01*
X1454291Y861364D01*
X1454208Y861401D01*
X1454097Y861456D01*
X1453977Y861530D01*
X1453857Y861622D01*
X1453746Y861724D01*
X1453644Y861835D01*
X1453635Y861854D01*
X1453607Y861891D01*
X1453570Y861965D01*
X1453533Y862057D01*
X1453487Y862177D01*
X1453450Y862316D01*
X1453422Y862473D01*
X1453413Y862639D01*
Y862649D01*
Y862667D01*
Y862704D01*
X1453422Y862760D01*
X1453432Y862815D01*
X1453441Y862889D01*
X1453478Y863046D01*
X1453533Y863231D01*
X1453626Y863425D01*
X1453681Y863527D01*
X1453746Y863629D01*
X1453829Y863721D01*
X1453912Y863814D01*
X1453922Y863823D01*
X1453940Y863832D01*
X1453968Y863860D01*
X1454005Y863888D01*
X1454051Y863925D01*
X1454116Y863962D01*
X1454190Y864008D01*
X1454264Y864054D01*
X1454356Y864100D01*
X1454458Y864147D01*
X1454569Y864184D01*
X1454689Y864221D01*
X1454948Y864276D01*
X1455096Y864285D01*
X1455244Y864295D01*
X1455327D01*
X1455382Y864285D01*
D02*
G37*
G36*
X1348145Y541011D02*
X1348219D01*
X1348302Y541002D01*
X1348395Y540983D01*
X1348506Y540955D01*
X1348617Y540928D01*
X1348746Y540891D01*
X1348875Y540844D01*
X1349005Y540789D01*
X1349144Y540715D01*
X1349273Y540632D01*
X1349402Y540539D01*
X1349532Y540428D01*
X1349652Y540299D01*
X1349661Y540290D01*
X1349680Y540262D01*
X1349708Y540225D01*
X1349745Y540160D01*
X1349800Y540077D01*
X1349846Y539985D01*
X1349902Y539864D01*
X1349957Y539735D01*
X1350022Y539578D01*
X1350077Y539402D01*
X1350124Y539208D01*
X1350170Y538995D01*
X1350216Y538755D01*
X1350244Y538496D01*
X1350262Y538219D01*
X1350272Y537923D01*
Y537914D01*
Y537904D01*
Y537877D01*
Y537840D01*
X1350262Y537747D01*
Y537618D01*
X1350253Y537470D01*
X1350235Y537294D01*
X1350216Y537100D01*
X1350188Y536887D01*
X1350151Y536675D01*
X1350105Y536443D01*
X1350050Y536222D01*
X1349985Y536000D01*
X1349902Y535787D01*
X1349809Y535584D01*
X1349708Y535390D01*
X1349587Y535223D01*
X1349578Y535214D01*
X1349560Y535195D01*
X1349523Y535158D01*
X1349476Y535103D01*
X1349421Y535047D01*
X1349347Y534992D01*
X1349255Y534918D01*
X1349162Y534853D01*
X1349051Y534789D01*
X1348931Y534715D01*
X1348792Y534659D01*
X1348654Y534594D01*
X1348496Y534548D01*
X1348330Y534511D01*
X1348154Y534493D01*
X1347969Y534483D01*
X1347896D01*
X1347840Y534493D01*
X1347775D01*
X1347701Y534502D01*
X1347526Y534539D01*
X1347332Y534585D01*
X1347128Y534659D01*
X1346925Y534770D01*
X1346823Y534835D01*
X1346730Y534909D01*
X1346721Y534918D01*
X1346712Y534927D01*
X1346684Y534955D01*
X1346657Y534983D01*
X1346610Y535029D01*
X1346573Y535084D01*
X1346472Y535214D01*
X1346370Y535380D01*
X1346277Y535584D01*
X1346194Y535815D01*
X1346139Y536074D01*
X1346925Y536138D01*
Y536129D01*
X1346934Y536120D01*
X1346943Y536064D01*
X1346971Y535981D01*
X1347008Y535880D01*
X1347045Y535769D01*
X1347100Y535658D01*
X1347165Y535556D01*
X1347230Y535473D01*
X1347248Y535454D01*
X1347285Y535417D01*
X1347350Y535362D01*
X1347442Y535297D01*
X1347563Y535242D01*
X1347692Y535186D01*
X1347849Y535149D01*
X1348016Y535131D01*
X1348080D01*
X1348154Y535140D01*
X1348238Y535158D01*
X1348349Y535186D01*
X1348459Y535223D01*
X1348570Y535269D01*
X1348681Y535343D01*
X1348700Y535353D01*
X1348746Y535390D01*
X1348811Y535454D01*
X1348894Y535547D01*
X1348987Y535658D01*
X1349088Y535787D01*
X1349181Y535953D01*
X1349273Y536138D01*
Y536148D01*
X1349282Y536166D01*
X1349292Y536194D01*
X1349310Y536231D01*
X1349319Y536286D01*
X1349338Y536351D01*
X1349356Y536425D01*
X1349375Y536517D01*
X1349402Y536619D01*
X1349421Y536730D01*
X1349440Y536850D01*
X1349449Y536980D01*
X1349467Y537128D01*
X1349476Y537276D01*
X1349486Y537442D01*
Y537608D01*
X1349476Y537599D01*
X1349440Y537544D01*
X1349375Y537470D01*
X1349292Y537377D01*
X1349199Y537266D01*
X1349079Y537165D01*
X1348949Y537063D01*
X1348802Y536970D01*
X1348792D01*
X1348783Y536961D01*
X1348728Y536934D01*
X1348644Y536906D01*
X1348533Y536860D01*
X1348404Y536823D01*
X1348256Y536795D01*
X1348099Y536767D01*
X1347932Y536758D01*
X1347858D01*
X1347803Y536767D01*
X1347729Y536776D01*
X1347655Y536786D01*
X1347563Y536804D01*
X1347470Y536832D01*
X1347258Y536897D01*
X1347147Y536943D01*
X1347036Y537007D01*
X1346925Y537072D01*
X1346805Y537146D01*
X1346694Y537239D01*
X1346592Y537340D01*
X1346583Y537350D01*
X1346564Y537368D01*
X1346536Y537396D01*
X1346509Y537442D01*
X1346462Y537507D01*
X1346416Y537571D01*
X1346370Y537655D01*
X1346315Y537747D01*
X1346259Y537849D01*
X1346213Y537960D01*
X1346167Y538089D01*
X1346120Y538219D01*
X1346093Y538357D01*
X1346065Y538515D01*
X1346046Y538672D01*
X1346037Y538838D01*
Y538847D01*
Y538866D01*
Y538894D01*
Y538940D01*
X1346046Y538995D01*
Y539051D01*
X1346074Y539199D01*
X1346102Y539374D01*
X1346148Y539559D01*
X1346213Y539763D01*
X1346305Y539957D01*
Y539966D01*
X1346315Y539975D01*
X1346333Y540003D01*
X1346351Y540040D01*
X1346407Y540132D01*
X1346490Y540253D01*
X1346592Y540382D01*
X1346712Y540512D01*
X1346860Y540641D01*
X1347017Y540752D01*
X1347026D01*
X1347036Y540761D01*
X1347063Y540780D01*
X1347100Y540789D01*
X1347193Y540835D01*
X1347313Y540881D01*
X1347470Y540937D01*
X1347646Y540974D01*
X1347840Y541011D01*
X1348053Y541020D01*
X1348099D01*
X1348145Y541011D01*
D02*
G37*
G36*
X1353785D02*
X1353868D01*
X1353970Y541002D01*
X1354081Y540983D01*
X1354210Y540965D01*
X1354478Y540918D01*
X1354756Y540844D01*
X1355033Y540743D01*
X1355163Y540678D01*
X1355292Y540604D01*
X1355301Y540595D01*
X1355320Y540586D01*
X1355357Y540558D01*
X1355394Y540521D01*
X1355449Y540484D01*
X1355514Y540428D01*
X1355588Y540364D01*
X1355662Y540290D01*
X1355736Y540206D01*
X1355819Y540123D01*
X1355985Y539911D01*
X1356143Y539661D01*
X1356281Y539384D01*
Y539374D01*
X1356300Y539347D01*
X1356309Y539300D01*
X1356337Y539245D01*
X1356355Y539171D01*
X1356383Y539078D01*
X1356420Y538977D01*
X1356448Y538866D01*
X1356475Y538746D01*
X1356512Y538607D01*
X1356559Y538320D01*
X1356596Y537997D01*
X1356614Y537664D01*
Y537655D01*
Y537618D01*
Y537562D01*
X1356605Y537497D01*
Y537405D01*
X1356596Y537313D01*
X1356586Y537192D01*
X1356568Y537072D01*
X1356522Y536804D01*
X1356457Y536508D01*
X1356364Y536212D01*
X1356235Y535926D01*
X1356226Y535916D01*
X1356216Y535889D01*
X1356198Y535852D01*
X1356161Y535806D01*
X1356124Y535741D01*
X1356078Y535667D01*
X1355958Y535500D01*
X1355800Y535316D01*
X1355616Y535131D01*
X1355403Y534946D01*
X1355153Y534789D01*
X1355144Y534779D01*
X1355116Y534770D01*
X1355079Y534752D01*
X1355033Y534724D01*
X1354959Y534696D01*
X1354885Y534668D01*
X1354793Y534631D01*
X1354691Y534594D01*
X1354580Y534557D01*
X1354460Y534520D01*
X1354201Y534465D01*
X1353905Y534419D01*
X1353600Y534400D01*
X1353508D01*
X1353443Y534409D01*
X1353360Y534419D01*
X1353258Y534428D01*
X1353156Y534437D01*
X1353036Y534465D01*
X1352786Y534520D01*
X1352509Y534604D01*
X1352370Y534659D01*
X1352241Y534724D01*
X1352112Y534807D01*
X1351982Y534890D01*
X1351973Y534899D01*
X1351954Y534909D01*
X1351917Y534936D01*
X1351871Y534983D01*
X1351825Y535029D01*
X1351760Y535094D01*
X1351695Y535168D01*
X1351622Y535242D01*
X1351548Y535334D01*
X1351474Y535445D01*
X1351390Y535556D01*
X1351316Y535676D01*
X1351252Y535815D01*
X1351178Y535953D01*
X1351122Y536101D01*
X1351067Y536268D01*
X1351899Y536462D01*
Y536453D01*
X1351908Y536434D01*
X1351927Y536397D01*
X1351945Y536351D01*
X1351964Y536296D01*
X1351991Y536222D01*
X1352065Y536074D01*
X1352158Y535907D01*
X1352269Y535741D01*
X1352407Y535584D01*
X1352555Y535445D01*
X1352574Y535426D01*
X1352629Y535390D01*
X1352722Y535343D01*
X1352842Y535279D01*
X1352999Y535223D01*
X1353175Y535168D01*
X1353387Y535131D01*
X1353618Y535121D01*
X1353692D01*
X1353739Y535131D01*
X1353803D01*
X1353877Y535140D01*
X1354053Y535168D01*
X1354247Y535205D01*
X1354451Y535269D01*
X1354663Y535362D01*
X1354857Y535482D01*
X1354867D01*
X1354876Y535500D01*
X1354941Y535547D01*
X1355024Y535621D01*
X1355125Y535732D01*
X1355246Y535870D01*
X1355357Y536027D01*
X1355458Y536222D01*
X1355551Y536434D01*
Y536443D01*
X1355560Y536462D01*
X1355569Y536490D01*
X1355579Y536536D01*
X1355597Y536591D01*
X1355616Y536656D01*
X1355643Y536813D01*
X1355680Y536998D01*
X1355717Y537202D01*
X1355736Y537424D01*
X1355745Y537664D01*
Y537673D01*
Y537701D01*
Y537747D01*
Y537803D01*
X1355736Y537867D01*
Y537951D01*
X1355726Y538043D01*
X1355717Y538145D01*
X1355690Y538367D01*
X1355643Y538607D01*
X1355588Y538847D01*
X1355514Y539088D01*
Y539097D01*
X1355505Y539115D01*
X1355486Y539143D01*
X1355468Y539189D01*
X1355412Y539300D01*
X1355329Y539430D01*
X1355227Y539578D01*
X1355098Y539735D01*
X1354950Y539874D01*
X1354774Y540003D01*
X1354765D01*
X1354747Y540012D01*
X1354719Y540031D01*
X1354682Y540049D01*
X1354635Y540068D01*
X1354580Y540095D01*
X1354451Y540151D01*
X1354284Y540206D01*
X1354099Y540253D01*
X1353896Y540290D01*
X1353683Y540299D01*
X1353618D01*
X1353563Y540290D01*
X1353498D01*
X1353434Y540280D01*
X1353267Y540243D01*
X1353073Y540197D01*
X1352879Y540123D01*
X1352675Y540022D01*
X1352574Y539966D01*
X1352481Y539892D01*
X1352472Y539883D01*
X1352463Y539874D01*
X1352435Y539846D01*
X1352398Y539818D01*
X1352361Y539772D01*
X1352315Y539716D01*
X1352259Y539661D01*
X1352213Y539587D01*
X1352158Y539504D01*
X1352093Y539411D01*
X1352038Y539319D01*
X1351982Y539208D01*
X1351936Y539088D01*
X1351890Y538958D01*
X1351843Y538820D01*
X1351806Y538672D01*
X1350956Y538884D01*
Y538894D01*
X1350965Y538931D01*
X1350983Y538986D01*
X1351011Y539060D01*
X1351039Y539143D01*
X1351076Y539245D01*
X1351122Y539356D01*
X1351178Y539476D01*
X1351307Y539735D01*
X1351474Y539994D01*
X1351575Y540123D01*
X1351677Y540253D01*
X1351788Y540364D01*
X1351917Y540475D01*
X1351927Y540484D01*
X1351945Y540502D01*
X1351991Y540521D01*
X1352038Y540558D01*
X1352112Y540604D01*
X1352185Y540650D01*
X1352287Y540696D01*
X1352389Y540743D01*
X1352509Y540798D01*
X1352639Y540844D01*
X1352777Y540891D01*
X1352925Y540937D01*
X1353082Y540974D01*
X1353249Y540992D01*
X1353424Y541011D01*
X1353609Y541020D01*
X1353711D01*
X1353785Y541011D01*
D02*
G37*
G36*
X1076191Y165603D02*
X1076181D01*
X1076163D01*
X1076126D01*
X1076070Y165593D01*
X1076015Y165584D01*
X1075950D01*
X1075793Y165557D01*
X1075627Y165529D01*
X1075460Y165473D01*
X1075312Y165418D01*
X1075248Y165381D01*
X1075192Y165335D01*
X1075183Y165325D01*
X1075155Y165288D01*
X1075109Y165233D01*
X1075063Y165159D01*
X1075007Y165057D01*
X1074970Y164946D01*
X1074933Y164808D01*
X1074924Y164660D01*
Y164604D01*
X1074933Y164549D01*
X1074942Y164466D01*
X1074961Y164382D01*
X1074979Y164290D01*
X1075016Y164197D01*
X1075063Y164105D01*
X1075072Y164096D01*
X1075090Y164068D01*
X1075127Y164031D01*
X1075164Y163976D01*
X1075229Y163929D01*
X1075294Y163874D01*
X1075368Y163827D01*
X1075460Y163791D01*
X1075470D01*
X1075507Y163772D01*
X1075571Y163763D01*
X1075654Y163744D01*
X1075765Y163726D01*
X1075904Y163717D01*
X1076070Y163698D01*
X1076265D01*
X1080675D01*
Y162847D01*
X1076311D01*
X1076302D01*
X1076274D01*
X1076237D01*
X1076181D01*
X1076107Y162857D01*
X1076033D01*
X1075858Y162875D01*
X1075654Y162894D01*
X1075442Y162931D01*
X1075248Y162986D01*
X1075063Y163051D01*
X1075053D01*
X1075044Y163060D01*
X1074989Y163088D01*
X1074915Y163134D01*
X1074813Y163199D01*
X1074711Y163291D01*
X1074600Y163393D01*
X1074490Y163522D01*
X1074397Y163670D01*
X1074388Y163689D01*
X1074360Y163744D01*
X1074323Y163827D01*
X1074286Y163948D01*
X1074240Y164096D01*
X1074203Y164262D01*
X1074175Y164447D01*
X1074166Y164650D01*
Y164734D01*
X1074175Y164789D01*
X1074184Y164863D01*
X1074194Y164937D01*
X1074231Y165131D01*
X1074286Y165335D01*
X1074369Y165547D01*
X1074425Y165658D01*
X1074490Y165760D01*
X1074563Y165852D01*
X1074647Y165945D01*
X1074656Y165954D01*
X1074665Y165963D01*
X1074702Y165982D01*
X1074739Y166010D01*
X1074785Y166047D01*
X1074850Y166084D01*
X1074924Y166120D01*
X1075007Y166167D01*
X1075100Y166204D01*
X1075211Y166241D01*
X1075322Y166278D01*
X1075451Y166315D01*
X1075590Y166333D01*
X1075747Y166361D01*
X1075904Y166370D01*
X1076080D01*
X1076191Y165603D01*
D02*
G37*
G36*
X1076070Y160989D02*
X1076061D01*
X1076043Y160980D01*
X1076006Y160971D01*
X1075959Y160961D01*
X1075904Y160952D01*
X1075839Y160934D01*
X1075701Y160887D01*
X1075534Y160823D01*
X1075377Y160739D01*
X1075229Y160647D01*
X1075100Y160536D01*
X1075090Y160518D01*
X1075053Y160481D01*
X1075007Y160407D01*
X1074961Y160314D01*
X1074905Y160203D01*
X1074859Y160065D01*
X1074822Y159907D01*
X1074813Y159741D01*
Y159685D01*
X1074822Y159649D01*
X1074832Y159547D01*
X1074859Y159417D01*
X1074905Y159270D01*
X1074970Y159112D01*
X1075063Y158955D01*
X1075192Y158807D01*
X1075211Y158789D01*
X1075266Y158743D01*
X1075349Y158687D01*
X1075460Y158613D01*
X1075599Y158539D01*
X1075756Y158484D01*
X1075941Y158437D01*
X1076144Y158419D01*
X1076154D01*
X1076172D01*
X1076200D01*
X1076237Y158428D01*
X1076339Y158437D01*
X1076459Y158465D01*
X1076607Y158502D01*
X1076755Y158567D01*
X1076903Y158659D01*
X1077041Y158779D01*
X1077060Y158798D01*
X1077097Y158844D01*
X1077152Y158918D01*
X1077217Y159020D01*
X1077282Y159149D01*
X1077337Y159306D01*
X1077374Y159482D01*
X1077393Y159676D01*
Y159760D01*
X1077383Y159824D01*
X1077374Y159907D01*
X1077356Y160000D01*
X1077337Y160111D01*
X1077309Y160231D01*
X1078003Y160138D01*
Y160092D01*
X1077994Y160055D01*
Y159935D01*
X1078012Y159833D01*
X1078030Y159713D01*
X1078058Y159575D01*
X1078104Y159417D01*
X1078169Y159270D01*
X1078252Y159112D01*
Y159103D01*
X1078262Y159094D01*
X1078299Y159048D01*
X1078363Y158983D01*
X1078447Y158909D01*
X1078567Y158835D01*
X1078706Y158770D01*
X1078863Y158724D01*
X1078955Y158706D01*
X1079057D01*
X1079066D01*
X1079075D01*
X1079131D01*
X1079205Y158724D01*
X1079306Y158743D01*
X1079417Y158779D01*
X1079538Y158826D01*
X1079658Y158900D01*
X1079769Y159001D01*
X1079778Y159011D01*
X1079815Y159057D01*
X1079861Y159122D01*
X1079917Y159205D01*
X1079963Y159316D01*
X1080009Y159445D01*
X1080046Y159593D01*
X1080055Y159760D01*
Y159833D01*
X1080037Y159917D01*
X1080018Y160028D01*
X1079981Y160148D01*
X1079935Y160268D01*
X1079861Y160397D01*
X1079769Y160518D01*
X1079760Y160527D01*
X1079713Y160564D01*
X1079649Y160619D01*
X1079556Y160684D01*
X1079436Y160749D01*
X1079288Y160814D01*
X1079112Y160869D01*
X1078909Y160906D01*
X1079047Y161692D01*
X1079057D01*
X1079084Y161683D01*
X1079121Y161673D01*
X1079177Y161664D01*
X1079242Y161646D01*
X1079316Y161618D01*
X1079491Y161562D01*
X1079695Y161470D01*
X1079898Y161359D01*
X1080092Y161220D01*
X1080268Y161045D01*
X1080277Y161035D01*
X1080286Y161017D01*
X1080305Y160989D01*
X1080333Y160952D01*
X1080370Y160906D01*
X1080407Y160841D01*
X1080444Y160777D01*
X1080490Y160693D01*
X1080564Y160508D01*
X1080638Y160296D01*
X1080684Y160046D01*
X1080703Y159917D01*
Y159685D01*
X1080693Y159584D01*
X1080675Y159464D01*
X1080647Y159316D01*
X1080601Y159149D01*
X1080545Y158983D01*
X1080471Y158816D01*
Y158807D01*
X1080462Y158798D01*
X1080434Y158743D01*
X1080379Y158659D01*
X1080314Y158567D01*
X1080222Y158456D01*
X1080120Y158345D01*
X1080000Y158234D01*
X1079861Y158141D01*
X1079843Y158132D01*
X1079796Y158104D01*
X1079713Y158068D01*
X1079612Y158021D01*
X1079491Y157975D01*
X1079353Y157938D01*
X1079195Y157910D01*
X1079038Y157901D01*
X1079020D01*
X1078964D01*
X1078890Y157910D01*
X1078789Y157929D01*
X1078669Y157957D01*
X1078539Y158003D01*
X1078410Y158058D01*
X1078280Y158132D01*
X1078262Y158141D01*
X1078225Y158169D01*
X1078160Y158225D01*
X1078086Y158299D01*
X1078003Y158391D01*
X1077910Y158502D01*
X1077827Y158631D01*
X1077744Y158789D01*
Y158779D01*
X1077735Y158761D01*
X1077725Y158733D01*
X1077716Y158696D01*
X1077679Y158595D01*
X1077624Y158465D01*
X1077550Y158317D01*
X1077457Y158169D01*
X1077337Y158031D01*
X1077198Y157901D01*
X1077180Y157892D01*
X1077124Y157855D01*
X1077032Y157799D01*
X1076912Y157744D01*
X1076764Y157689D01*
X1076588Y157633D01*
X1076385Y157596D01*
X1076163Y157587D01*
X1076154D01*
X1076126D01*
X1076080D01*
X1076024Y157596D01*
X1075950Y157605D01*
X1075867Y157624D01*
X1075775Y157642D01*
X1075673Y157661D01*
X1075451Y157735D01*
X1075331Y157790D01*
X1075220Y157846D01*
X1075100Y157920D01*
X1074979Y158003D01*
X1074859Y158095D01*
X1074748Y158206D01*
X1074739Y158216D01*
X1074721Y158234D01*
X1074693Y158271D01*
X1074656Y158317D01*
X1074610Y158373D01*
X1074563Y158447D01*
X1074508Y158530D01*
X1074462Y158631D01*
X1074406Y158733D01*
X1074351Y158853D01*
X1074305Y158974D01*
X1074258Y159112D01*
X1074221Y159260D01*
X1074194Y159417D01*
X1074175Y159575D01*
X1074166Y159750D01*
Y159833D01*
X1074175Y159889D01*
X1074184Y159963D01*
X1074194Y160046D01*
X1074212Y160138D01*
X1074231Y160240D01*
X1074286Y160462D01*
X1074379Y160693D01*
X1074434Y160814D01*
X1074499Y160924D01*
X1074582Y161035D01*
X1074665Y161146D01*
X1074674Y161156D01*
X1074693Y161174D01*
X1074721Y161202D01*
X1074758Y161229D01*
X1074804Y161276D01*
X1074868Y161322D01*
X1074933Y161378D01*
X1075016Y161433D01*
X1075109Y161488D01*
X1075201Y161544D01*
X1075423Y161646D01*
X1075682Y161729D01*
X1075821Y161756D01*
X1075969Y161775D01*
X1076070Y160989D01*
D02*
G37*
G36*
X1021327Y165603D02*
X1021317D01*
X1021299D01*
X1021262D01*
X1021207Y165593D01*
X1021151Y165584D01*
X1021086D01*
X1020929Y165557D01*
X1020763Y165529D01*
X1020596Y165473D01*
X1020448Y165418D01*
X1020384Y165381D01*
X1020328Y165335D01*
X1020319Y165325D01*
X1020291Y165288D01*
X1020245Y165233D01*
X1020199Y165159D01*
X1020143Y165057D01*
X1020106Y164946D01*
X1020069Y164808D01*
X1020060Y164660D01*
Y164604D01*
X1020069Y164549D01*
X1020079Y164466D01*
X1020097Y164382D01*
X1020116Y164290D01*
X1020153Y164197D01*
X1020199Y164105D01*
X1020208Y164096D01*
X1020226Y164068D01*
X1020263Y164031D01*
X1020300Y163976D01*
X1020365Y163929D01*
X1020430Y163874D01*
X1020504Y163827D01*
X1020596Y163791D01*
X1020605D01*
X1020642Y163772D01*
X1020707Y163763D01*
X1020790Y163744D01*
X1020901Y163726D01*
X1021040Y163717D01*
X1021207Y163698D01*
X1021401D01*
X1025811D01*
Y162847D01*
X1021447D01*
X1021438D01*
X1021410D01*
X1021373D01*
X1021317D01*
X1021243Y162857D01*
X1021170D01*
X1020994Y162875D01*
X1020790Y162894D01*
X1020578Y162931D01*
X1020384Y162986D01*
X1020199Y163051D01*
X1020190D01*
X1020180Y163060D01*
X1020125Y163088D01*
X1020051Y163134D01*
X1019949Y163199D01*
X1019847Y163291D01*
X1019736Y163393D01*
X1019625Y163522D01*
X1019533Y163670D01*
X1019524Y163689D01*
X1019496Y163744D01*
X1019459Y163827D01*
X1019422Y163948D01*
X1019376Y164096D01*
X1019339Y164262D01*
X1019311Y164447D01*
X1019302Y164650D01*
Y164734D01*
X1019311Y164789D01*
X1019320Y164863D01*
X1019330Y164937D01*
X1019367Y165131D01*
X1019422Y165335D01*
X1019505Y165547D01*
X1019561Y165658D01*
X1019625Y165760D01*
X1019699Y165852D01*
X1019783Y165945D01*
X1019792Y165954D01*
X1019801Y165963D01*
X1019838Y165982D01*
X1019875Y166010D01*
X1019921Y166047D01*
X1019986Y166084D01*
X1020060Y166120D01*
X1020143Y166167D01*
X1020236Y166204D01*
X1020347Y166241D01*
X1020458Y166278D01*
X1020587Y166315D01*
X1020726Y166333D01*
X1020883Y166361D01*
X1021040Y166370D01*
X1021216D01*
X1021327Y165603D01*
D02*
G37*
G36*
X1025811Y159122D02*
Y158484D01*
X1021669D01*
Y157614D01*
X1020948D01*
Y158484D01*
X1019413D01*
Y159270D01*
X1020948D01*
Y162052D01*
X1021669D01*
X1025811Y159122D01*
D02*
G37*
G36*
X911599Y165603D02*
X911589D01*
X911571D01*
X911534D01*
X911479Y165593D01*
X911423Y165584D01*
X911358D01*
X911201Y165557D01*
X911035Y165529D01*
X910868Y165473D01*
X910720Y165418D01*
X910656Y165381D01*
X910600Y165335D01*
X910591Y165325D01*
X910563Y165288D01*
X910517Y165233D01*
X910471Y165159D01*
X910415Y165057D01*
X910378Y164946D01*
X910341Y164808D01*
X910332Y164660D01*
Y164604D01*
X910341Y164549D01*
X910350Y164466D01*
X910369Y164382D01*
X910387Y164290D01*
X910424Y164197D01*
X910471Y164105D01*
X910480Y164096D01*
X910498Y164068D01*
X910535Y164031D01*
X910572Y163976D01*
X910637Y163929D01*
X910702Y163874D01*
X910776Y163827D01*
X910868Y163791D01*
X910878D01*
X910915Y163772D01*
X910979Y163763D01*
X911062Y163744D01*
X911173Y163726D01*
X911312Y163717D01*
X911479Y163698D01*
X911673D01*
X916083D01*
Y162847D01*
X911719D01*
X911710D01*
X911682D01*
X911645D01*
X911589D01*
X911515Y162857D01*
X911441D01*
X911266Y162875D01*
X911062Y162894D01*
X910850Y162931D01*
X910656Y162986D01*
X910471Y163051D01*
X910462D01*
X910452Y163060D01*
X910397Y163088D01*
X910323Y163134D01*
X910221Y163199D01*
X910119Y163291D01*
X910008Y163393D01*
X909898Y163522D01*
X909805Y163670D01*
X909796Y163689D01*
X909768Y163744D01*
X909731Y163827D01*
X909694Y163948D01*
X909648Y164096D01*
X909611Y164262D01*
X909583Y164447D01*
X909574Y164650D01*
Y164734D01*
X909583Y164789D01*
X909592Y164863D01*
X909602Y164937D01*
X909639Y165131D01*
X909694Y165335D01*
X909777Y165547D01*
X909833Y165658D01*
X909898Y165760D01*
X909971Y165852D01*
X910055Y165945D01*
X910064Y165954D01*
X910073Y165963D01*
X910110Y165982D01*
X910147Y166010D01*
X910193Y166047D01*
X910258Y166084D01*
X910332Y166120D01*
X910415Y166167D01*
X910508Y166204D01*
X910619Y166241D01*
X910730Y166278D01*
X910859Y166315D01*
X910998Y166333D01*
X911155Y166361D01*
X911312Y166370D01*
X911488D01*
X911599Y165603D01*
D02*
G37*
G36*
X912847Y161812D02*
X912976D01*
X913124Y161803D01*
X913300Y161784D01*
X913494Y161766D01*
X913707Y161738D01*
X913919Y161701D01*
X914150Y161655D01*
X914372Y161599D01*
X914594Y161535D01*
X914807Y161451D01*
X915010Y161359D01*
X915204Y161257D01*
X915371Y161137D01*
X915380Y161128D01*
X915399Y161109D01*
X915436Y161072D01*
X915491Y161026D01*
X915546Y160971D01*
X915602Y160897D01*
X915676Y160804D01*
X915741Y160712D01*
X915805Y160601D01*
X915879Y160481D01*
X915935Y160342D01*
X916000Y160203D01*
X916046Y160046D01*
X916083Y159880D01*
X916101Y159704D01*
X916111Y159519D01*
Y159445D01*
X916101Y159390D01*
Y159325D01*
X916092Y159251D01*
X916055Y159075D01*
X916009Y158881D01*
X915935Y158678D01*
X915824Y158474D01*
X915759Y158373D01*
X915685Y158280D01*
X915676Y158271D01*
X915667Y158262D01*
X915639Y158234D01*
X915611Y158206D01*
X915565Y158160D01*
X915509Y158123D01*
X915380Y158021D01*
X915214Y157920D01*
X915010Y157827D01*
X914779Y157744D01*
X914520Y157689D01*
X914455Y158474D01*
X914465D01*
X914474Y158484D01*
X914529Y158493D01*
X914613Y158521D01*
X914714Y158558D01*
X914825Y158595D01*
X914936Y158650D01*
X915038Y158715D01*
X915121Y158779D01*
X915140Y158798D01*
X915177Y158835D01*
X915232Y158900D01*
X915297Y158992D01*
X915352Y159112D01*
X915408Y159242D01*
X915445Y159399D01*
X915463Y159565D01*
Y159630D01*
X915454Y159704D01*
X915436Y159787D01*
X915408Y159898D01*
X915371Y160009D01*
X915325Y160120D01*
X915251Y160231D01*
X915241Y160250D01*
X915204Y160296D01*
X915140Y160360D01*
X915047Y160444D01*
X914936Y160536D01*
X914807Y160638D01*
X914641Y160730D01*
X914455Y160823D01*
X914446D01*
X914428Y160832D01*
X914400Y160841D01*
X914363Y160860D01*
X914308Y160869D01*
X914243Y160887D01*
X914169Y160906D01*
X914077Y160924D01*
X913975Y160952D01*
X913864Y160971D01*
X913744Y160989D01*
X913614Y160998D01*
X913466Y161017D01*
X913318Y161026D01*
X913152Y161035D01*
X912986D01*
X912995Y161026D01*
X913050Y160989D01*
X913124Y160924D01*
X913217Y160841D01*
X913328Y160749D01*
X913429Y160629D01*
X913531Y160499D01*
X913623Y160351D01*
Y160342D01*
X913633Y160333D01*
X913660Y160277D01*
X913688Y160194D01*
X913734Y160083D01*
X913771Y159954D01*
X913799Y159806D01*
X913827Y159649D01*
X913836Y159482D01*
Y159408D01*
X913827Y159353D01*
X913818Y159279D01*
X913808Y159205D01*
X913790Y159112D01*
X913762Y159020D01*
X913697Y158807D01*
X913651Y158696D01*
X913587Y158585D01*
X913522Y158474D01*
X913448Y158354D01*
X913355Y158243D01*
X913254Y158141D01*
X913244Y158132D01*
X913226Y158114D01*
X913198Y158086D01*
X913152Y158058D01*
X913087Y158012D01*
X913023Y157966D01*
X912939Y157920D01*
X912847Y157864D01*
X912745Y157809D01*
X912634Y157762D01*
X912505Y157716D01*
X912375Y157670D01*
X912237Y157642D01*
X912079Y157614D01*
X911922Y157596D01*
X911756Y157587D01*
X911747D01*
X911728D01*
X911700D01*
X911654D01*
X911599Y157596D01*
X911543D01*
X911395Y157624D01*
X911220Y157652D01*
X911035Y157698D01*
X910831Y157762D01*
X910637Y157855D01*
X910628D01*
X910619Y157864D01*
X910591Y157883D01*
X910554Y157901D01*
X910462Y157957D01*
X910341Y158040D01*
X910212Y158141D01*
X910082Y158262D01*
X909953Y158410D01*
X909842Y158567D01*
Y158576D01*
X909833Y158585D01*
X909814Y158613D01*
X909805Y158650D01*
X909759Y158743D01*
X909713Y158863D01*
X909657Y159020D01*
X909620Y159195D01*
X909583Y159390D01*
X909574Y159602D01*
Y159649D01*
X909583Y159695D01*
Y159769D01*
X909592Y159852D01*
X909611Y159944D01*
X909639Y160055D01*
X909666Y160166D01*
X909703Y160296D01*
X909750Y160425D01*
X909805Y160555D01*
X909879Y160693D01*
X909962Y160823D01*
X910055Y160952D01*
X910166Y161082D01*
X910295Y161202D01*
X910304Y161211D01*
X910332Y161229D01*
X910369Y161257D01*
X910434Y161294D01*
X910517Y161350D01*
X910609Y161396D01*
X910730Y161451D01*
X910859Y161507D01*
X911016Y161572D01*
X911192Y161627D01*
X911386Y161673D01*
X911599Y161719D01*
X911839Y161766D01*
X912098Y161793D01*
X912375Y161812D01*
X912671Y161821D01*
X912680D01*
X912690D01*
X912717D01*
X912754D01*
X912847Y161812D01*
D02*
G37*
G36*
X966463Y165603D02*
X966453D01*
X966435D01*
X966398D01*
X966342Y165593D01*
X966287Y165584D01*
X966222D01*
X966065Y165557D01*
X965899Y165529D01*
X965732Y165473D01*
X965584Y165418D01*
X965520Y165381D01*
X965464Y165335D01*
X965455Y165325D01*
X965427Y165288D01*
X965381Y165233D01*
X965335Y165159D01*
X965279Y165057D01*
X965242Y164946D01*
X965205Y164808D01*
X965196Y164660D01*
Y164604D01*
X965205Y164549D01*
X965214Y164466D01*
X965233Y164382D01*
X965251Y164290D01*
X965288Y164197D01*
X965335Y164105D01*
X965344Y164096D01*
X965362Y164068D01*
X965399Y164031D01*
X965436Y163976D01*
X965501Y163929D01*
X965566Y163874D01*
X965640Y163827D01*
X965732Y163791D01*
X965742D01*
X965779Y163772D01*
X965843Y163763D01*
X965926Y163744D01*
X966037Y163726D01*
X966176Y163717D01*
X966342Y163698D01*
X966537D01*
X970947D01*
Y162847D01*
X966583D01*
X966574D01*
X966546D01*
X966509D01*
X966453D01*
X966379Y162857D01*
X966305D01*
X966130Y162875D01*
X965926Y162894D01*
X965714Y162931D01*
X965520Y162986D01*
X965335Y163051D01*
X965325D01*
X965316Y163060D01*
X965261Y163088D01*
X965187Y163134D01*
X965085Y163199D01*
X964983Y163291D01*
X964872Y163393D01*
X964762Y163522D01*
X964669Y163670D01*
X964660Y163689D01*
X964632Y163744D01*
X964595Y163827D01*
X964558Y163948D01*
X964512Y164096D01*
X964475Y164262D01*
X964447Y164447D01*
X964438Y164650D01*
Y164734D01*
X964447Y164789D01*
X964456Y164863D01*
X964466Y164937D01*
X964503Y165131D01*
X964558Y165335D01*
X964641Y165547D01*
X964697Y165658D01*
X964762Y165760D01*
X964835Y165852D01*
X964919Y165945D01*
X964928Y165954D01*
X964937Y165963D01*
X964974Y165982D01*
X965011Y166010D01*
X965057Y166047D01*
X965122Y166084D01*
X965196Y166120D01*
X965279Y166167D01*
X965372Y166204D01*
X965483Y166241D01*
X965594Y166278D01*
X965723Y166315D01*
X965862Y166333D01*
X966019Y166361D01*
X966176Y166370D01*
X966352D01*
X966463Y165603D01*
D02*
G37*
G36*
X966287Y160961D02*
X966278D01*
X966259D01*
X966232Y160952D01*
X966185Y160943D01*
X966084Y160915D01*
X965945Y160878D01*
X965806Y160823D01*
X965649Y160749D01*
X965510Y160656D01*
X965381Y160545D01*
X965372Y160527D01*
X965335Y160490D01*
X965288Y160416D01*
X965233Y160314D01*
X965178Y160203D01*
X965131Y160065D01*
X965094Y159907D01*
X965085Y159732D01*
Y159676D01*
X965094Y159639D01*
X965104Y159528D01*
X965141Y159399D01*
X965187Y159242D01*
X965261Y159085D01*
X965372Y158918D01*
X965436Y158844D01*
X965510Y158770D01*
X965520Y158761D01*
X965529Y158752D01*
X965557Y158733D01*
X965584Y158706D01*
X965686Y158641D01*
X965816Y158567D01*
X965973Y158502D01*
X966167Y158437D01*
X966398Y158391D01*
X966518Y158373D01*
X966648D01*
X966657D01*
X966675D01*
X966712D01*
X966758Y158382D01*
X966814D01*
X966879Y158391D01*
X967027Y158419D01*
X967202Y158465D01*
X967378Y158530D01*
X967544Y158622D01*
X967702Y158752D01*
X967711D01*
X967720Y158770D01*
X967766Y158816D01*
X967831Y158900D01*
X967905Y159011D01*
X967970Y159158D01*
X968034Y159325D01*
X968081Y159519D01*
X968099Y159630D01*
Y159806D01*
X968090Y159880D01*
X968081Y159972D01*
X968053Y160083D01*
X968025Y160194D01*
X967979Y160314D01*
X967924Y160434D01*
X967914Y160444D01*
X967896Y160481D01*
X967850Y160536D01*
X967803Y160610D01*
X967739Y160684D01*
X967655Y160758D01*
X967572Y160841D01*
X967470Y160906D01*
X967572Y161646D01*
X970864Y161026D01*
Y157846D01*
X970115D01*
Y160407D01*
X968386Y160749D01*
X968395Y160739D01*
X968404Y160721D01*
X968423Y160693D01*
X968450Y160647D01*
X968478Y160592D01*
X968515Y160527D01*
X968589Y160379D01*
X968663Y160194D01*
X968728Y159991D01*
X968774Y159769D01*
X968793Y159658D01*
Y159454D01*
X968783Y159399D01*
X968774Y159325D01*
X968765Y159242D01*
X968746Y159149D01*
X968719Y159048D01*
X968654Y158826D01*
X968608Y158706D01*
X968543Y158585D01*
X968478Y158465D01*
X968404Y158345D01*
X968312Y158234D01*
X968210Y158123D01*
X968201Y158114D01*
X968182Y158095D01*
X968155Y158068D01*
X968108Y158031D01*
X968044Y157984D01*
X967979Y157938D01*
X967896Y157883D01*
X967803Y157827D01*
X967702Y157781D01*
X967591Y157725D01*
X967461Y157679D01*
X967332Y157633D01*
X967193Y157596D01*
X967036Y157568D01*
X966879Y157550D01*
X966712Y157541D01*
X966703D01*
X966675D01*
X966629D01*
X966564Y157550D01*
X966490Y157559D01*
X966407Y157568D01*
X966305Y157587D01*
X966204Y157605D01*
X965963Y157661D01*
X965714Y157753D01*
X965584Y157809D01*
X965464Y157883D01*
X965335Y157957D01*
X965214Y158049D01*
X965205Y158058D01*
X965178Y158077D01*
X965141Y158114D01*
X965094Y158160D01*
X965039Y158225D01*
X964965Y158299D01*
X964900Y158391D01*
X964826Y158493D01*
X964752Y158604D01*
X964688Y158733D01*
X964623Y158872D01*
X964558Y159020D01*
X964512Y159177D01*
X964475Y159353D01*
X964447Y159538D01*
X964438Y159732D01*
Y159815D01*
X964447Y159880D01*
X964456Y159954D01*
X964466Y160037D01*
X964475Y160138D01*
X964503Y160240D01*
X964558Y160471D01*
X964641Y160702D01*
X964697Y160823D01*
X964762Y160943D01*
X964835Y161054D01*
X964919Y161165D01*
X964928Y161174D01*
X964937Y161192D01*
X964974Y161211D01*
X965011Y161248D01*
X965057Y161294D01*
X965113Y161341D01*
X965187Y161396D01*
X965270Y161442D01*
X965353Y161498D01*
X965455Y161553D01*
X965677Y161655D01*
X965936Y161738D01*
X966074Y161766D01*
X966222Y161784D01*
X966287Y160961D01*
D02*
G37*
G36*
X1157621Y299130D02*
X1157612D01*
X1157575D01*
X1157519D01*
X1157446Y299140D01*
X1157362Y299149D01*
X1157270Y299167D01*
X1157177Y299186D01*
X1157076Y299223D01*
X1157066D01*
X1157057Y299232D01*
X1157002Y299251D01*
X1156918Y299288D01*
X1156807Y299343D01*
X1156678Y299417D01*
X1156530Y299510D01*
X1156382Y299611D01*
X1156225Y299741D01*
X1156216D01*
X1156207Y299759D01*
X1156151Y299805D01*
X1156068Y299888D01*
X1155948Y300009D01*
X1155809Y300147D01*
X1155643Y300323D01*
X1155458Y300536D01*
X1155264Y300767D01*
X1155254Y300776D01*
X1155227Y300813D01*
X1155180Y300869D01*
X1155125Y300933D01*
X1155051Y301017D01*
X1154968Y301118D01*
X1154875Y301220D01*
X1154773Y301340D01*
X1154552Y301571D01*
X1154330Y301802D01*
X1154219Y301913D01*
X1154108Y302015D01*
X1154006Y302108D01*
X1153904Y302181D01*
X1153895D01*
X1153886Y302200D01*
X1153858Y302218D01*
X1153821Y302237D01*
X1153719Y302302D01*
X1153599Y302376D01*
X1153451Y302440D01*
X1153294Y302505D01*
X1153119Y302542D01*
X1152952Y302561D01*
X1152943D01*
X1152934D01*
X1152878Y302551D01*
X1152786Y302542D01*
X1152684Y302514D01*
X1152554Y302477D01*
X1152425Y302413D01*
X1152296Y302329D01*
X1152166Y302218D01*
X1152148Y302200D01*
X1152111Y302154D01*
X1152065Y302089D01*
X1152000Y301987D01*
X1151944Y301858D01*
X1151889Y301710D01*
X1151852Y301534D01*
X1151843Y301340D01*
Y301285D01*
X1151852Y301248D01*
X1151861Y301137D01*
X1151889Y301007D01*
X1151926Y300869D01*
X1151991Y300711D01*
X1152074Y300564D01*
X1152185Y300425D01*
X1152203Y300406D01*
X1152249Y300369D01*
X1152323Y300314D01*
X1152434Y300258D01*
X1152564Y300194D01*
X1152730Y300138D01*
X1152915Y300101D01*
X1153128Y300083D01*
X1153045Y299278D01*
X1153035D01*
X1153008Y299288D01*
X1152961D01*
X1152897Y299297D01*
X1152823Y299315D01*
X1152739Y299334D01*
X1152638Y299361D01*
X1152536Y299389D01*
X1152314Y299463D01*
X1152092Y299574D01*
X1151981Y299639D01*
X1151870Y299722D01*
X1151769Y299805D01*
X1151676Y299898D01*
X1151667Y299907D01*
X1151658Y299925D01*
X1151630Y299953D01*
X1151602Y300000D01*
X1151565Y300055D01*
X1151528Y300120D01*
X1151482Y300194D01*
X1151436Y300286D01*
X1151390Y300388D01*
X1151343Y300499D01*
X1151306Y300619D01*
X1151269Y300748D01*
X1151242Y300887D01*
X1151214Y301035D01*
X1151205Y301192D01*
X1151195Y301359D01*
Y301451D01*
X1151205Y301516D01*
X1151214Y301590D01*
X1151223Y301682D01*
X1151242Y301784D01*
X1151260Y301886D01*
X1151325Y302126D01*
X1151417Y302366D01*
X1151473Y302486D01*
X1151537Y302607D01*
X1151621Y302718D01*
X1151713Y302819D01*
X1151722Y302829D01*
X1151732Y302847D01*
X1151769Y302866D01*
X1151806Y302903D01*
X1151852Y302949D01*
X1151917Y302995D01*
X1151981Y303041D01*
X1152065Y303097D01*
X1152240Y303189D01*
X1152462Y303282D01*
X1152573Y303319D01*
X1152702Y303337D01*
X1152832Y303356D01*
X1152971Y303365D01*
X1152989D01*
X1153035D01*
X1153109Y303356D01*
X1153211Y303346D01*
X1153322Y303328D01*
X1153451Y303291D01*
X1153590Y303254D01*
X1153729Y303199D01*
X1153747Y303189D01*
X1153793Y303171D01*
X1153867Y303134D01*
X1153969Y303078D01*
X1154080Y303004D01*
X1154219Y302912D01*
X1154357Y302801D01*
X1154515Y302672D01*
X1154533Y302653D01*
X1154589Y302607D01*
X1154635Y302561D01*
X1154681Y302514D01*
X1154736Y302459D01*
X1154810Y302385D01*
X1154884Y302311D01*
X1154968Y302218D01*
X1155060Y302126D01*
X1155162Y302015D01*
X1155264Y301895D01*
X1155384Y301765D01*
X1155504Y301618D01*
X1155633Y301469D01*
X1155643Y301460D01*
X1155661Y301442D01*
X1155689Y301405D01*
X1155726Y301359D01*
X1155781Y301303D01*
X1155837Y301238D01*
X1155957Y301091D01*
X1156096Y300933D01*
X1156234Y300785D01*
X1156355Y300656D01*
X1156401Y300600D01*
X1156447Y300554D01*
X1156456Y300545D01*
X1156484Y300517D01*
X1156521Y300480D01*
X1156576Y300434D01*
X1156641Y300388D01*
X1156706Y300332D01*
X1156863Y300221D01*
Y303374D01*
X1157621D01*
Y299130D01*
D02*
G37*
G36*
X1155643Y298511D02*
X1155698Y298492D01*
X1155772Y298465D01*
X1155855Y298437D01*
X1155957Y298400D01*
X1156068Y298354D01*
X1156188Y298298D01*
X1156447Y298169D01*
X1156706Y298002D01*
X1156835Y297901D01*
X1156965Y297799D01*
X1157076Y297688D01*
X1157187Y297559D01*
X1157196Y297549D01*
X1157214Y297531D01*
X1157233Y297485D01*
X1157270Y297438D01*
X1157316Y297365D01*
X1157362Y297290D01*
X1157409Y297189D01*
X1157455Y297087D01*
X1157510Y296967D01*
X1157556Y296838D01*
X1157603Y296699D01*
X1157649Y296551D01*
X1157686Y296394D01*
X1157704Y296227D01*
X1157723Y296052D01*
X1157732Y295867D01*
Y295765D01*
X1157723Y295691D01*
Y295608D01*
X1157714Y295506D01*
X1157695Y295395D01*
X1157677Y295266D01*
X1157630Y294998D01*
X1157556Y294720D01*
X1157455Y294443D01*
X1157390Y294313D01*
X1157316Y294184D01*
X1157307Y294175D01*
X1157298Y294156D01*
X1157270Y294119D01*
X1157233Y294082D01*
X1157196Y294027D01*
X1157140Y293962D01*
X1157076Y293888D01*
X1157002Y293814D01*
X1156918Y293740D01*
X1156835Y293657D01*
X1156623Y293491D01*
X1156373Y293333D01*
X1156096Y293195D01*
X1156086D01*
X1156059Y293176D01*
X1156012Y293167D01*
X1155957Y293139D01*
X1155883Y293121D01*
X1155790Y293093D01*
X1155689Y293056D01*
X1155578Y293028D01*
X1155458Y293001D01*
X1155319Y292964D01*
X1155032Y292917D01*
X1154709Y292880D01*
X1154376Y292862D01*
X1154367D01*
X1154330D01*
X1154274D01*
X1154210Y292871D01*
X1154117D01*
X1154025Y292880D01*
X1153904Y292890D01*
X1153784Y292908D01*
X1153516Y292954D01*
X1153220Y293019D01*
X1152924Y293111D01*
X1152638Y293241D01*
X1152628Y293250D01*
X1152601Y293259D01*
X1152564Y293278D01*
X1152518Y293315D01*
X1152453Y293352D01*
X1152379Y293398D01*
X1152213Y293518D01*
X1152028Y293675D01*
X1151843Y293860D01*
X1151658Y294073D01*
X1151500Y294323D01*
X1151491Y294332D01*
X1151482Y294360D01*
X1151464Y294397D01*
X1151436Y294443D01*
X1151408Y294517D01*
X1151380Y294591D01*
X1151343Y294683D01*
X1151306Y294785D01*
X1151269Y294896D01*
X1151232Y295016D01*
X1151177Y295275D01*
X1151131Y295571D01*
X1151112Y295876D01*
Y295968D01*
X1151122Y296033D01*
X1151131Y296116D01*
X1151140Y296218D01*
X1151149Y296320D01*
X1151177Y296440D01*
X1151232Y296690D01*
X1151316Y296967D01*
X1151371Y297106D01*
X1151436Y297235D01*
X1151519Y297365D01*
X1151602Y297494D01*
X1151611Y297503D01*
X1151621Y297522D01*
X1151648Y297559D01*
X1151695Y297605D01*
X1151741Y297651D01*
X1151806Y297716D01*
X1151880Y297780D01*
X1151954Y297854D01*
X1152046Y297929D01*
X1152157Y298002D01*
X1152268Y298086D01*
X1152388Y298160D01*
X1152527Y298224D01*
X1152665Y298298D01*
X1152813Y298354D01*
X1152980Y298409D01*
X1153174Y297577D01*
X1153165D01*
X1153146Y297568D01*
X1153109Y297549D01*
X1153063Y297531D01*
X1153008Y297512D01*
X1152934Y297485D01*
X1152786Y297411D01*
X1152619Y297318D01*
X1152453Y297207D01*
X1152296Y297069D01*
X1152157Y296921D01*
X1152139Y296902D01*
X1152102Y296847D01*
X1152055Y296754D01*
X1151991Y296634D01*
X1151935Y296477D01*
X1151880Y296301D01*
X1151843Y296089D01*
X1151833Y295857D01*
Y295784D01*
X1151843Y295737D01*
Y295672D01*
X1151852Y295599D01*
X1151880Y295423D01*
X1151917Y295229D01*
X1151981Y295025D01*
X1152074Y294813D01*
X1152194Y294618D01*
Y294609D01*
X1152213Y294600D01*
X1152259Y294535D01*
X1152333Y294452D01*
X1152444Y294350D01*
X1152582Y294230D01*
X1152739Y294119D01*
X1152934Y294018D01*
X1153146Y293925D01*
X1153156D01*
X1153174Y293916D01*
X1153202Y293907D01*
X1153248Y293897D01*
X1153303Y293879D01*
X1153368Y293860D01*
X1153525Y293833D01*
X1153710Y293796D01*
X1153914Y293759D01*
X1154136Y293740D01*
X1154376Y293731D01*
X1154385D01*
X1154413D01*
X1154459D01*
X1154515D01*
X1154579Y293740D01*
X1154662D01*
X1154755Y293750D01*
X1154857Y293759D01*
X1155079Y293786D01*
X1155319Y293833D01*
X1155559Y293888D01*
X1155800Y293962D01*
X1155809D01*
X1155827Y293971D01*
X1155855Y293990D01*
X1155901Y294008D01*
X1156012Y294064D01*
X1156142Y294147D01*
X1156290Y294249D01*
X1156447Y294378D01*
X1156586Y294526D01*
X1156715Y294702D01*
Y294711D01*
X1156724Y294729D01*
X1156743Y294757D01*
X1156761Y294794D01*
X1156780Y294840D01*
X1156807Y294896D01*
X1156863Y295025D01*
X1156918Y295192D01*
X1156965Y295377D01*
X1157002Y295580D01*
X1157011Y295793D01*
Y295857D01*
X1157002Y295913D01*
Y295978D01*
X1156992Y296042D01*
X1156955Y296209D01*
X1156909Y296403D01*
X1156835Y296597D01*
X1156734Y296800D01*
X1156678Y296902D01*
X1156604Y296995D01*
X1156595Y297004D01*
X1156586Y297013D01*
X1156558Y297041D01*
X1156530Y297078D01*
X1156484Y297115D01*
X1156428Y297161D01*
X1156373Y297217D01*
X1156299Y297263D01*
X1156216Y297318D01*
X1156123Y297383D01*
X1156031Y297438D01*
X1155920Y297494D01*
X1155800Y297540D01*
X1155670Y297586D01*
X1155532Y297633D01*
X1155384Y297670D01*
X1155596Y298520D01*
X1155606D01*
X1155643Y298511D01*
D02*
G37*
%LPC*%
G36*
X932769Y827511D02*
Y825496D01*
X935635D01*
X932769Y827511D01*
D02*
G37*
G36*
X890849Y72116D02*
X890562D01*
X890553D01*
X890544D01*
X890498D01*
X890414D01*
X890303Y72107D01*
X890183D01*
X890035Y72098D01*
X889878Y72089D01*
X889703Y72070D01*
X889351Y72024D01*
X889175Y71996D01*
X889009Y71959D01*
X888852Y71922D01*
X888704Y71867D01*
X888575Y71811D01*
X888464Y71747D01*
X888454D01*
X888445Y71728D01*
X888417Y71710D01*
X888380Y71682D01*
X888297Y71599D01*
X888195Y71497D01*
X888103Y71358D01*
X888020Y71201D01*
X887983Y71118D01*
X887955Y71026D01*
X887946Y70924D01*
X887937Y70822D01*
Y70767D01*
X887946Y70730D01*
X887964Y70628D01*
X887992Y70508D01*
X888048Y70369D01*
X888131Y70221D01*
X888186Y70147D01*
X888242Y70073D01*
X888316Y70009D01*
X888399Y69944D01*
X888408D01*
X888427Y69925D01*
X888464Y69907D01*
X888510Y69879D01*
X888584Y69851D01*
X888667Y69814D01*
X888769Y69787D01*
X888889Y69750D01*
X889028Y69713D01*
X889185Y69676D01*
X889361Y69639D01*
X889555Y69611D01*
X889777Y69583D01*
X890017Y69565D01*
X890276Y69555D01*
X890562Y69546D01*
X890581D01*
X890627D01*
X890710D01*
X890821Y69555D01*
X890941D01*
X891089Y69565D01*
X891247Y69574D01*
X891413Y69592D01*
X891774Y69639D01*
X891949Y69666D01*
X892116Y69703D01*
X892273Y69740D01*
X892421Y69796D01*
X892550Y69851D01*
X892661Y69916D01*
X892670D01*
X892680Y69935D01*
X892744Y69981D01*
X892828Y70064D01*
X892920Y70166D01*
X893012Y70304D01*
X893096Y70462D01*
X893160Y70637D01*
X893170Y70730D01*
X893179Y70831D01*
Y70887D01*
X893170Y70924D01*
X893151Y71016D01*
X893114Y71146D01*
X893049Y71284D01*
X892957Y71441D01*
X892902Y71515D01*
X892828Y71589D01*
X892754Y71663D01*
X892661Y71737D01*
X892652D01*
X892633Y71756D01*
X892606Y71774D01*
X892559Y71793D01*
X892495Y71830D01*
X892411Y71858D01*
X892319Y71895D01*
X892208Y71932D01*
X892069Y71959D01*
X891921Y71996D01*
X891746Y72033D01*
X891561Y72061D01*
X891339Y72080D01*
X891108Y72098D01*
X890849Y72116D01*
D02*
G37*
G36*
X960790Y67105D02*
X960781D01*
X960762D01*
X960725D01*
X960679Y67096D01*
X960614D01*
X960549Y67087D01*
X960402Y67059D01*
X960226Y67022D01*
X960041Y66957D01*
X959865Y66865D01*
X959708Y66745D01*
X959699D01*
X959690Y66726D01*
X959643Y66680D01*
X959579Y66606D01*
X959505Y66504D01*
X959440Y66375D01*
X959375Y66227D01*
X959329Y66061D01*
X959311Y65968D01*
Y65820D01*
X959320Y65783D01*
X959329Y65682D01*
X959366Y65561D01*
X959412Y65413D01*
X959495Y65256D01*
X959597Y65099D01*
X959671Y65025D01*
X959745Y64951D01*
X959754D01*
X959764Y64933D01*
X959791Y64914D01*
X959819Y64896D01*
X959912Y64831D01*
X960041Y64766D01*
X960198Y64692D01*
X960392Y64627D01*
X960614Y64591D01*
X960855Y64572D01*
X960864D01*
X960882D01*
X960910D01*
X960956Y64581D01*
X961012D01*
X961067Y64591D01*
X961206Y64618D01*
X961363Y64665D01*
X961530Y64720D01*
X961696Y64812D01*
X961844Y64933D01*
X961862Y64951D01*
X961899Y64997D01*
X961964Y65081D01*
X962029Y65182D01*
X962103Y65321D01*
X962168Y65478D01*
X962205Y65654D01*
X962223Y65848D01*
Y65903D01*
X962214Y65940D01*
X962205Y66042D01*
X962177Y66162D01*
X962131Y66310D01*
X962066Y66458D01*
X961973Y66606D01*
X961844Y66745D01*
X961825Y66763D01*
X961770Y66800D01*
X961687Y66856D01*
X961567Y66930D01*
X961419Y66994D01*
X961243Y67050D01*
X961030Y67087D01*
X960790Y67105D01*
D02*
G37*
G36*
X1027139Y66911D02*
X1027130D01*
X1027120D01*
X1027065D01*
X1026982Y66893D01*
X1026880Y66874D01*
X1026769Y66837D01*
X1026649Y66782D01*
X1026529Y66708D01*
X1026408Y66606D01*
X1026399Y66597D01*
X1026362Y66551D01*
X1026316Y66486D01*
X1026261Y66403D01*
X1026205Y66292D01*
X1026159Y66171D01*
X1026122Y66024D01*
X1026113Y65866D01*
Y65792D01*
X1026131Y65709D01*
X1026150Y65598D01*
X1026187Y65478D01*
X1026233Y65349D01*
X1026307Y65229D01*
X1026408Y65108D01*
X1026418Y65099D01*
X1026455Y65062D01*
X1026519Y65016D01*
X1026603Y64970D01*
X1026704Y64914D01*
X1026824Y64868D01*
X1026954Y64831D01*
X1027102Y64822D01*
X1027111D01*
X1027120D01*
X1027176Y64831D01*
X1027259Y64840D01*
X1027361Y64859D01*
X1027481Y64896D01*
X1027601Y64942D01*
X1027731Y65016D01*
X1027842Y65108D01*
X1027851Y65118D01*
X1027888Y65164D01*
X1027934Y65229D01*
X1027980Y65312D01*
X1028036Y65423D01*
X1028082Y65552D01*
X1028119Y65700D01*
X1028128Y65866D01*
Y65885D01*
X1028119Y65940D01*
X1028110Y66024D01*
X1028091Y66135D01*
X1028054Y66255D01*
X1028008Y66375D01*
X1027934Y66504D01*
X1027842Y66615D01*
X1027832Y66625D01*
X1027786Y66662D01*
X1027731Y66708D01*
X1027647Y66763D01*
X1027546Y66819D01*
X1027426Y66865D01*
X1027287Y66902D01*
X1027139Y66911D01*
D02*
G37*
G36*
X1030079Y67170D02*
X1030070D01*
X1030051D01*
X1030023D01*
X1029986Y67161D01*
X1029885Y67152D01*
X1029746Y67124D01*
X1029607Y67078D01*
X1029450Y67013D01*
X1029293Y66920D01*
X1029145Y66791D01*
X1029127Y66772D01*
X1029090Y66726D01*
X1029025Y66643D01*
X1028951Y66532D01*
X1028886Y66393D01*
X1028822Y66227D01*
X1028785Y66042D01*
X1028766Y65839D01*
Y65783D01*
X1028775Y65746D01*
X1028785Y65644D01*
X1028812Y65515D01*
X1028859Y65367D01*
X1028923Y65219D01*
X1029016Y65062D01*
X1029136Y64923D01*
X1029154Y64905D01*
X1029201Y64868D01*
X1029284Y64812D01*
X1029386Y64748D01*
X1029524Y64674D01*
X1029681Y64618D01*
X1029857Y64581D01*
X1030051Y64563D01*
X1030070D01*
X1030107D01*
X1030171Y64572D01*
X1030255Y64581D01*
X1030356Y64600D01*
X1030467Y64627D01*
X1030578Y64665D01*
X1030698Y64711D01*
X1030708Y64720D01*
X1030754Y64738D01*
X1030809Y64776D01*
X1030874Y64831D01*
X1030957Y64896D01*
X1031040Y64979D01*
X1031115Y65071D01*
X1031189Y65182D01*
X1031198Y65201D01*
X1031216Y65238D01*
X1031244Y65303D01*
X1031272Y65386D01*
X1031299Y65487D01*
X1031327Y65608D01*
X1031346Y65737D01*
X1031355Y65866D01*
Y65922D01*
X1031346Y65959D01*
X1031336Y66070D01*
X1031309Y66199D01*
X1031262Y66347D01*
X1031207Y66504D01*
X1031115Y66652D01*
X1030994Y66800D01*
X1030976Y66819D01*
X1030930Y66856D01*
X1030846Y66920D01*
X1030745Y66985D01*
X1030615Y67050D01*
X1030458Y67115D01*
X1030273Y67152D01*
X1030079Y67170D01*
D02*
G37*
G36*
X1455262Y863647D02*
X1455188D01*
X1455105Y863629D01*
X1454994Y863610D01*
X1454874Y863573D01*
X1454744Y863527D01*
X1454624Y863453D01*
X1454504Y863352D01*
X1454495Y863342D01*
X1454458Y863305D01*
X1454411Y863241D01*
X1454365Y863157D01*
X1454310Y863056D01*
X1454264Y862935D01*
X1454227Y862806D01*
X1454217Y862658D01*
Y862649D01*
Y862639D01*
X1454227Y862584D01*
X1454236Y862501D01*
X1454254Y862399D01*
X1454291Y862279D01*
X1454337Y862159D01*
X1454411Y862029D01*
X1454504Y861918D01*
X1454513Y861909D01*
X1454559Y861872D01*
X1454624Y861826D01*
X1454707Y861780D01*
X1454818Y861724D01*
X1454948Y861678D01*
X1455096Y861641D01*
X1455262Y861632D01*
X1455281D01*
X1455336Y861641D01*
X1455419Y861650D01*
X1455530Y861669D01*
X1455650Y861706D01*
X1455771Y861752D01*
X1455900Y861826D01*
X1456011Y861918D01*
X1456020Y861928D01*
X1456057Y861974D01*
X1456103Y862029D01*
X1456159Y862113D01*
X1456214Y862214D01*
X1456261Y862334D01*
X1456298Y862473D01*
X1456307Y862621D01*
Y862630D01*
Y862639D01*
Y862695D01*
X1456288Y862778D01*
X1456270Y862880D01*
X1456233Y862991D01*
X1456177Y863111D01*
X1456103Y863231D01*
X1456002Y863352D01*
X1455992Y863361D01*
X1455946Y863398D01*
X1455882Y863444D01*
X1455798Y863499D01*
X1455687Y863555D01*
X1455567Y863601D01*
X1455419Y863638D01*
X1455262Y863647D01*
D02*
G37*
G36*
X1455234Y860994D02*
X1455179D01*
X1455142Y860985D01*
X1455040Y860975D01*
X1454911Y860948D01*
X1454763Y860901D01*
X1454615Y860837D01*
X1454458Y860744D01*
X1454319Y860624D01*
X1454301Y860605D01*
X1454264Y860559D01*
X1454208Y860476D01*
X1454143Y860374D01*
X1454069Y860236D01*
X1454014Y860079D01*
X1453977Y859903D01*
X1453958Y859709D01*
Y859690D01*
Y859653D01*
X1453968Y859588D01*
X1453977Y859505D01*
X1453995Y859404D01*
X1454023Y859293D01*
X1454060Y859182D01*
X1454106Y859062D01*
X1454116Y859052D01*
X1454134Y859006D01*
X1454171Y858951D01*
X1454227Y858886D01*
X1454291Y858803D01*
X1454375Y858719D01*
X1454467Y858645D01*
X1454578Y858571D01*
X1454596Y858562D01*
X1454633Y858544D01*
X1454698Y858516D01*
X1454781Y858488D01*
X1454883Y858460D01*
X1455003Y858433D01*
X1455133Y858414D01*
X1455262Y858405D01*
X1455318D01*
X1455354Y858414D01*
X1455466Y858424D01*
X1455595Y858451D01*
X1455743Y858497D01*
X1455900Y858553D01*
X1456048Y858645D01*
X1456196Y858766D01*
X1456214Y858784D01*
X1456251Y858830D01*
X1456316Y858914D01*
X1456381Y859015D01*
X1456445Y859145D01*
X1456510Y859302D01*
X1456547Y859487D01*
X1456566Y859681D01*
Y859690D01*
Y859709D01*
Y859736D01*
X1456557Y859773D01*
X1456547Y859875D01*
X1456519Y860014D01*
X1456473Y860153D01*
X1456409Y860310D01*
X1456316Y860467D01*
X1456187Y860615D01*
X1456168Y860633D01*
X1456122Y860670D01*
X1456039Y860735D01*
X1455928Y860809D01*
X1455789Y860874D01*
X1455623Y860938D01*
X1455438Y860975D01*
X1455234Y860994D01*
D02*
G37*
G36*
X1348062Y540373D02*
X1348016D01*
X1347979Y540364D01*
X1347886Y540354D01*
X1347766Y540327D01*
X1347637Y540271D01*
X1347489Y540206D01*
X1347341Y540105D01*
X1347267Y540049D01*
X1347202Y539975D01*
Y539966D01*
X1347184Y539957D01*
X1347147Y539901D01*
X1347091Y539809D01*
X1347017Y539689D01*
X1346952Y539532D01*
X1346897Y539347D01*
X1346860Y539134D01*
X1346841Y538884D01*
Y538875D01*
Y538857D01*
Y538820D01*
X1346851Y538773D01*
Y538718D01*
X1346860Y538653D01*
X1346888Y538505D01*
X1346925Y538339D01*
X1346989Y538163D01*
X1347082Y537997D01*
X1347202Y537840D01*
X1347220Y537821D01*
X1347267Y537775D01*
X1347341Y537719D01*
X1347442Y537645D01*
X1347572Y537571D01*
X1347720Y537516D01*
X1347896Y537470D01*
X1348090Y537451D01*
X1348145D01*
X1348182Y537461D01*
X1348275Y537470D01*
X1348404Y537497D01*
X1348543Y537544D01*
X1348700Y537618D01*
X1348848Y537710D01*
X1348996Y537840D01*
X1349014Y537858D01*
X1349051Y537904D01*
X1349116Y537988D01*
X1349181Y538108D01*
X1349245Y538246D01*
X1349310Y538422D01*
X1349347Y538616D01*
X1349366Y538838D01*
Y538857D01*
Y538903D01*
X1349356Y538986D01*
X1349347Y539088D01*
X1349328Y539208D01*
X1349292Y539337D01*
X1349255Y539476D01*
X1349199Y539615D01*
X1349190Y539633D01*
X1349162Y539679D01*
X1349125Y539744D01*
X1349070Y539827D01*
X1349005Y539911D01*
X1348922Y540012D01*
X1348829Y540095D01*
X1348718Y540179D01*
X1348700Y540188D01*
X1348663Y540206D01*
X1348598Y540243D01*
X1348515Y540271D01*
X1348423Y540308D01*
X1348311Y540345D01*
X1348191Y540364D01*
X1348062Y540373D01*
D02*
G37*
G36*
X1021669Y161285D02*
Y159270D01*
X1024535D01*
X1021669Y161285D01*
D02*
G37*
G36*
X911756Y160915D02*
X911737D01*
X911691D01*
X911608Y160906D01*
X911506Y160897D01*
X911386Y160878D01*
X911257Y160841D01*
X911118Y160804D01*
X910979Y160749D01*
X910961Y160739D01*
X910915Y160712D01*
X910850Y160675D01*
X910767Y160619D01*
X910683Y160555D01*
X910582Y160471D01*
X910498Y160379D01*
X910415Y160268D01*
X910406Y160250D01*
X910387Y160212D01*
X910350Y160148D01*
X910323Y160065D01*
X910286Y159972D01*
X910249Y159861D01*
X910230Y159741D01*
X910221Y159612D01*
Y159565D01*
X910230Y159528D01*
X910240Y159436D01*
X910267Y159316D01*
X910323Y159186D01*
X910387Y159038D01*
X910489Y158890D01*
X910545Y158816D01*
X910619Y158752D01*
X910628D01*
X910637Y158733D01*
X910693Y158696D01*
X910785Y158641D01*
X910905Y158567D01*
X911062Y158502D01*
X911247Y158447D01*
X911460Y158410D01*
X911710Y158391D01*
X911719D01*
X911737D01*
X911774D01*
X911821Y158400D01*
X911876D01*
X911941Y158410D01*
X912089Y158437D01*
X912255Y158474D01*
X912431Y158539D01*
X912597Y158631D01*
X912754Y158752D01*
X912773Y158770D01*
X912819Y158816D01*
X912875Y158890D01*
X912949Y158992D01*
X913023Y159122D01*
X913078Y159270D01*
X913124Y159445D01*
X913143Y159639D01*
Y159695D01*
X913133Y159732D01*
X913124Y159824D01*
X913096Y159954D01*
X913050Y160092D01*
X912976Y160250D01*
X912884Y160397D01*
X912754Y160545D01*
X912736Y160564D01*
X912690Y160601D01*
X912606Y160665D01*
X912486Y160730D01*
X912348Y160795D01*
X912172Y160860D01*
X911978Y160897D01*
X911756Y160915D01*
D02*
G37*
%LPD*%
D10*
X943902Y802390D02*
Y866390D01*
X916902Y802390D02*
X943902D01*
X916902D02*
Y866390D01*
X943902D01*
X879476Y18182D02*
X908176D01*
Y100182D01*
X879476D02*
X908176D01*
X879476Y18182D02*
Y100182D01*
X950850Y18182D02*
X979550D01*
Y100182D01*
X950850D02*
X979550D01*
X950850Y18182D02*
Y100182D01*
X1017652Y18182D02*
X1046352D01*
Y100182D01*
X1017652D02*
X1046352D01*
X1017652Y18182D02*
Y100182D01*
X1083438Y18182D02*
X1112138D01*
Y100182D01*
X1083438D02*
X1112138D01*
X1083438Y18182D02*
Y100182D01*
X1189698Y374900D02*
X1216698D01*
X1189698Y310900D02*
Y374900D01*
Y310900D02*
X1216698D01*
Y374900D01*
X1281688Y355054D02*
Y382054D01*
Y355054D02*
X1345688D01*
Y382054D01*
X1281688D02*
X1345688D01*
X1367244Y426608D02*
X1394244D01*
X1367244Y362608D02*
Y426608D01*
Y362608D02*
X1394244D01*
Y426608D01*
X1414784Y844258D02*
Y871258D01*
Y844258D02*
X1478784D01*
Y871258D01*
X1414784D02*
X1478784D01*
X1388614Y527520D02*
Y554520D01*
X1324614D02*
X1388614D01*
X1324614Y527520D02*
Y554520D01*
Y527520D02*
X1388614D01*
X1088516Y138070D02*
Y194670D01*
X1059816Y138070D02*
X1088516D01*
X1059816D02*
Y194670D01*
X1088516D01*
X1033652Y138070D02*
Y194670D01*
X1004952Y138070D02*
X1033652D01*
X1004952D02*
Y194670D01*
X1033652D01*
X923924Y138070D02*
Y194670D01*
X895224Y138070D02*
X923924D01*
X895224D02*
Y194670D01*
X923924D01*
X978788Y138070D02*
Y194670D01*
X950088Y138070D02*
X978788D01*
X950088D02*
Y194670D01*
X978788D01*
X1144232Y260862D02*
X1171232D01*
Y324862D01*
X1144232D02*
X1171232D01*
X1144232Y260862D02*
Y324862D01*
M02*
