M48
;Layer_Color=9474304
;FILE_FORMAT=4:4
METRIC,LZ
;TYPE=PLATED
T01F00S00C0.7000
T02F00S00C0.7112
T03F00S00C0.8000
T04F00S00C0.9000
T05F00S00C1.0000
T06F00S00C1.0200
T07F00S00C1.2000
T08F00S00C1.5200
T09F00S00C2.0000
T10F00S00C3.0000
T11F00S00C3.2000
;TYPE=NON_PLATED
T12F00S00C0.7000
%
T01
X00930402Y0080939
Y0085939
T02
X01188212Y00847344
T03
X012373Y00945134
X012573
T04
X01447546Y00447548
Y00472948
Y00498348
Y00523748
X01448308Y00557276
Y00582676
Y00608076
Y00633476
T05
X00229616Y00130556
Y00155956
X00255016
X00280416
Y00130556
X00255016
X00305816
Y00155956
X00331216
Y00130556
X00356616
Y00155956
X00382016
Y00130556
X00407416
X00432816
Y00155956
X00407416
X00458216
Y00130556
X00483616
X00509016
X00534416
Y00155956
X00509016
X00483616
X00559816
Y00130556
X00585216
Y00155956
X00144526Y00265684
Y00291084
Y00316484
Y00341884
Y00367284
Y00392684
Y00418084
Y00443484
Y00468884
Y00494284
Y00519684
Y00545084
Y00570484
Y00595884
Y00621284
X00119126
Y00595884
Y00570484
Y00545084
Y00519684
Y00494284
Y00468884
Y00443484
Y00418084
Y00392684
Y00367284
Y00341884
Y00316484
Y00291084
Y00265684
X00988822Y00367284
X00999998Y00466997
Y00492397
Y00517798
Y00543198
Y00568597
Y00593997
Y00619398
X00944118Y00467106
X01152144
Y00492506
Y00517906
Y00543306
Y00568706
Y00594106
Y00619506
X01223772Y0056896
X01331614Y0054102
X01381614
X01380744Y00419608
Y00369608
X01338688Y00368554
X01288688
X01300226Y00295402
X01274826
X01325626
X01203198Y003179
X01157732Y00317862
Y00267862
X01203198Y003679
X01422908Y0043307
X01419352Y00572008
X01421784Y00857758
X01471784
X01383538Y00858774
Y00833374
Y00807974
Y00782574
X01304138
Y00807974
Y00833374
Y00858774
X01333246Y00963422
X01358646
X01384046
X01409446
X01152144Y00949706
Y00924306
Y00898906
Y00873506
Y00848106
Y00822706
Y00797306
Y00771906
Y00746506
Y00721106
Y00695706
Y00670306
Y00644906
X01203706Y00804672
X00999998Y00797197
Y00771797
Y00746397
Y00720997
Y00695598
Y00670198
Y00644798
Y00822598
Y00847998
Y00873398
Y00898798
Y00924197
Y00949852
X00928095Y00764194
T06
X01019302Y0015367
Y0017907
X01074166
Y0015367
X00964438
Y0017907
X00909574
Y0015367
T07
X01304544Y00080804
X01355344
Y00176276
X01320344
X0143891Y00688594
Y00739394
X00908558Y00935736
X00857758
T08
X01419352Y00072136
Y00225806
T09
X01032002Y00033782
Y00084582
X01097788
Y00033782
X009652
Y00084582
X00893826
Y00033782
T10
X00756374Y00912152
X00089624Y0091266
T11
X0147Y0003
X0003
X0147Y0097
X0003
T12
X01300302Y00466852
Y00498983
X01400302Y00498348
Y00466217
X01434084Y00385242
X01465199
X01464564Y00285242
X01433449
X01368171Y00652094
X0132923Y00652061
X01267333Y00673176
X01235456Y00673862
X01236091Y00773862
Y00802894
X01266444
X01267968Y00773176
X01329865Y00752061
X01368806Y00752094
X01402842Y00893064
X01403604Y00923798
X01303604Y00924433
X01302842Y00893699
X01267079Y00902894
X01236726
M30
