G04*
G04 #@! TF.GenerationSoftware,Altium Limited,Altium Designer,25.8.1 (18)*
G04*
G04 Layer_Color=0*
%FSLAX44Y44*%
%MOMM*%
G71*
G04*
G04 #@! TF.SameCoordinates,615BD6FC-8C97-45DB-998E-DFA11581AE0A*
G04*
G04*
G04 #@! TF.FilePolarity,Positive*
G04*
G01*
G75*
%ADD73C,0.1000*%
D73*
X930402Y829390D02*
Y839390D01*
X925402Y834390D02*
X935402D01*
X888826Y59182D02*
X898826D01*
X893826Y54182D02*
Y64182D01*
X960200Y59182D02*
X970200D01*
X965200Y54182D02*
Y64182D01*
X1027002Y59182D02*
X1037002D01*
X1032002Y54182D02*
Y64182D01*
X1092788Y59182D02*
X1102788D01*
X1097788Y54182D02*
Y64182D01*
X1198198Y342900D02*
X1208198D01*
X1203198Y337900D02*
Y347900D01*
X1313688Y363554D02*
Y373554D01*
X1308688Y368554D02*
X1318688D01*
X1375744Y394608D02*
X1385744D01*
X1380744Y389608D02*
Y399608D01*
X1446784Y852758D02*
Y862758D01*
X1441784Y857758D02*
X1451784D01*
X1356614Y536020D02*
Y546020D01*
X1351614Y541020D02*
X1361614D01*
X1074166Y161370D02*
Y171370D01*
X1069166Y166370D02*
X1079166D01*
X1019302Y161370D02*
Y171370D01*
X1014302Y166370D02*
X1024302D01*
X909574Y161370D02*
Y171370D01*
X904574Y166370D02*
X914574D01*
X964438Y161370D02*
Y171370D01*
X959438Y166370D02*
X969438D01*
X1152732Y292862D02*
X1162732D01*
X1157732Y287862D02*
Y297862D01*
M02*
