G04*
G04 #@! TF.GenerationSoftware,Altium Limited,Altium Designer,25.8.1 (18)*
G04*
G04 Layer_Color=8388736*
%FSLAX44Y44*%
%MOMM*%
G71*
G04*
G04 #@! TF.SameCoordinates,615BD6FC-8C97-45DB-998E-DFA11581AE0A*
G04*
G04*
G04 #@! TF.FilePolarity,Negative*
G04*
G01*
G75*
%ADD20R,1.6000X1.6000*%
%ADD21C,2.0000*%
%ADD22R,2.0000X2.0000*%
%ADD23R,2.2032X2.2032*%
%ADD24C,2.2032*%
%ADD25R,2.0000X2.0000*%
%ADD26C,1.9032*%
%ADD27C,1.7032*%
%ADD28C,2.6032*%
%ADD29O,2.4032X3.2032*%
%ADD30O,2.2032X2.2032*%
%ADD31C,2.5000*%
%ADD32C,2.1032*%
%ADD33R,1.7032X1.7032*%
G04:AMPARAMS|DCode=34|XSize=1.5032mm|YSize=1.5032mm|CornerRadius=0.4266mm|HoleSize=0mm|Usage=FLASHONLY|Rotation=0.000|XOffset=0mm|YOffset=0mm|HoleType=Round|Shape=RoundedRectangle|*
%AMROUNDEDRECTD34*
21,1,1.5032,0.6500,0,0,0.0*
21,1,0.6500,1.5032,0,0,0.0*
1,1,0.8532,0.3250,-0.3250*
1,1,0.8532,-0.3250,-0.3250*
1,1,0.8532,-0.3250,0.3250*
1,1,0.8532,0.3250,0.3250*
%
%ADD34ROUNDEDRECTD34*%
%ADD35C,1.5032*%
%ADD36R,2.4832X2.4832*%
%ADD37R,2.5000X2.5000*%
%ADD38R,2.6032X2.6032*%
%ADD39C,2.4832*%
%ADD40O,3.2032X2.4032*%
%ADD41C,1.4732*%
%ADD42C,3.4032*%
D20*
X930402Y859390D02*
D03*
D21*
Y809390D02*
D03*
X1471784Y857758D02*
D03*
X1331614Y541020D02*
D03*
X1380744Y369608D02*
D03*
X1338688Y368554D02*
D03*
X1300226Y295402D02*
D03*
X1203198Y317900D02*
D03*
X1157732Y317862D02*
D03*
X1074166Y153670D02*
D03*
X1019302D02*
D03*
X964438D02*
D03*
X909574D02*
D03*
X1274826Y295402D02*
D03*
X1325626D02*
D03*
D22*
X1381614Y541020D02*
D03*
X1421784Y857758D02*
D03*
X1288688Y368554D02*
D03*
D23*
X1333246Y963422D02*
D03*
X1304138Y858774D02*
D03*
D24*
X1400302Y466217D02*
D03*
X1358646Y963422D02*
D03*
X1304138Y782574D02*
D03*
X1433449Y285242D02*
D03*
X1383538Y858774D02*
D03*
X1465199Y385242D02*
D03*
X1434084D02*
D03*
X1267079Y902894D02*
D03*
X1303604Y924433D02*
D03*
X1236091Y802894D02*
D03*
X1304138Y833374D02*
D03*
X1383538D02*
D03*
Y807974D02*
D03*
Y782574D02*
D03*
X1304138Y807974D02*
D03*
X1329865Y752061D02*
D03*
X1368806Y752094D02*
D03*
X1402842Y893064D02*
D03*
X1464564Y285242D02*
D03*
X1236091Y773862D02*
D03*
X1400302Y498348D02*
D03*
X1300302Y498983D02*
D03*
Y466852D02*
D03*
X1267968Y773176D02*
D03*
X1384046Y963422D02*
D03*
X1409446D02*
D03*
D25*
X1157732Y267862D02*
D03*
X1203198Y367900D02*
D03*
X1380744Y419608D02*
D03*
X909574Y179070D02*
D03*
X1074166D02*
D03*
X1019302D02*
D03*
X964438D02*
D03*
D26*
X1368171Y652094D02*
D03*
X1267333Y673176D02*
D03*
X1329230Y652061D02*
D03*
X1235456Y673862D02*
D03*
X1266444Y802894D02*
D03*
X1236726Y902894D02*
D03*
X1403604Y923798D02*
D03*
X1302842Y893699D02*
D03*
D27*
X1448308Y608076D02*
D03*
X1447546Y472948D02*
D03*
X1448308Y557276D02*
D03*
Y582676D02*
D03*
X1447546Y498348D02*
D03*
Y523748D02*
D03*
D28*
X1320344Y176276D02*
D03*
D29*
X1304544Y80804D02*
D03*
X908558Y935736D02*
D03*
X857758D02*
D03*
X1355344Y80804D02*
D03*
D30*
X1152144Y949706D02*
D03*
Y924306D02*
D03*
X999998Y492397D02*
D03*
Y543198D02*
D03*
Y466997D02*
D03*
Y568597D02*
D03*
Y593997D02*
D03*
X1152144Y848106D02*
D03*
Y873506D02*
D03*
Y898906D02*
D03*
Y822706D02*
D03*
Y797306D02*
D03*
Y746506D02*
D03*
Y721106D02*
D03*
Y695706D02*
D03*
Y771906D02*
D03*
Y670306D02*
D03*
Y619506D02*
D03*
Y467106D02*
D03*
Y492506D02*
D03*
Y517906D02*
D03*
Y543306D02*
D03*
Y644906D02*
D03*
Y568706D02*
D03*
Y594106D02*
D03*
X999998Y873398D02*
D03*
Y924197D02*
D03*
Y695598D02*
D03*
Y619398D02*
D03*
Y644798D02*
D03*
Y670198D02*
D03*
Y720997D02*
D03*
Y746397D02*
D03*
Y949852D02*
D03*
Y898798D02*
D03*
Y847998D02*
D03*
Y797197D02*
D03*
Y771797D02*
D03*
Y822598D02*
D03*
Y517798D02*
D03*
D31*
X1097788Y84582D02*
D03*
X1032002D02*
D03*
X965200D02*
D03*
X893826D02*
D03*
D32*
X280416Y155956D02*
D03*
X483616Y130556D02*
D03*
X432816D02*
D03*
X509016D02*
D03*
X534416D02*
D03*
X756374Y912152D02*
D03*
X89624Y912660D02*
D03*
X229616Y155956D02*
D03*
Y130556D02*
D03*
X255016Y155956D02*
D03*
Y130556D02*
D03*
X280416D02*
D03*
X305816Y155956D02*
D03*
Y130556D02*
D03*
X331216Y155956D02*
D03*
Y130556D02*
D03*
X356616Y155956D02*
D03*
Y130556D02*
D03*
X382016Y155956D02*
D03*
Y130556D02*
D03*
X407416Y155956D02*
D03*
Y130556D02*
D03*
X432816Y155956D02*
D03*
X458216D02*
D03*
Y130556D02*
D03*
X483616Y155956D02*
D03*
X509016D02*
D03*
X534416D02*
D03*
X559816D02*
D03*
Y130556D02*
D03*
X585216Y155956D02*
D03*
Y130556D02*
D03*
X144526Y621284D02*
D03*
X119126D02*
D03*
X144526Y595884D02*
D03*
X119126D02*
D03*
X144526Y570484D02*
D03*
X119126D02*
D03*
X144526Y545084D02*
D03*
X119126D02*
D03*
X144526Y519684D02*
D03*
X119126D02*
D03*
X144526Y494284D02*
D03*
X119126D02*
D03*
X144526Y468884D02*
D03*
X119126D02*
D03*
X144526Y443484D02*
D03*
X119126D02*
D03*
X144526Y418084D02*
D03*
X119126D02*
D03*
X144526Y392684D02*
D03*
X119126D02*
D03*
X144526Y367284D02*
D03*
X119126D02*
D03*
X144526Y341884D02*
D03*
X119126D02*
D03*
X144526Y316484D02*
D03*
X119126D02*
D03*
X144526Y291084D02*
D03*
X119126D02*
D03*
X144526Y265684D02*
D03*
X119126D02*
D03*
D33*
X1448308Y633476D02*
D03*
X1447546Y447548D02*
D03*
D34*
X1257300Y945134D02*
D03*
D35*
X1237300D02*
D03*
D36*
X1419352Y72136D02*
D03*
D37*
X1097788Y33782D02*
D03*
X1032002D02*
D03*
X965200D02*
D03*
X893826D02*
D03*
D38*
X1355344Y176276D02*
D03*
D39*
X1419352Y225806D02*
D03*
D40*
X1438910Y739394D02*
D03*
Y688594D02*
D03*
D41*
X1203706Y804672D02*
D03*
X1188212Y847344D02*
D03*
X1422908Y433070D02*
D03*
X944118Y467106D02*
D03*
X928095Y764194D02*
D03*
X988822Y367284D02*
D03*
X1223772Y568960D02*
D03*
X1419352Y572008D02*
D03*
D42*
X30000Y970000D02*
D03*
X1470000D02*
D03*
Y30000D02*
D03*
X30000D02*
D03*
M02*
