G04*
G04 #@! TF.GenerationSoftware,Altium Limited,Altium Designer,24.5.2 (23)*
G04*
G04 Layer_Color=32768*
%FSLAX44Y44*%
%MOMM*%
G71*
G04*
G04 #@! TF.SameCoordinates,0473F374-8EFB-4349-BF45-46FBFAAC11BD*
G04*
G04*
G04 #@! TF.FilePolarity,Positive*
G04*
G01*
G75*
G36*
X681671Y224311D02*
X683514D01*
Y223368D01*
X681671D01*
Y220027D01*
X680806D01*
X675833Y223545D01*
Y224311D01*
X680806D01*
Y225355D01*
X681671D01*
Y224311D01*
D02*
G37*
G36*
X684113Y219217D02*
Y219205D01*
X684102Y219183D01*
X684080Y219139D01*
X684058Y219072D01*
X684025Y218995D01*
X683980Y218906D01*
X683936Y218806D01*
X683880Y218695D01*
X683747Y218451D01*
X683592Y218173D01*
X683392Y217873D01*
X683170Y217563D01*
Y217552D01*
X683192Y217529D01*
X683214Y217474D01*
X683248Y217418D01*
X683281Y217330D01*
X683325Y217241D01*
X683359Y217130D01*
X683403Y217008D01*
X683447Y216875D01*
X683492Y216730D01*
X683569Y216408D01*
X683625Y216053D01*
X683636Y215865D01*
X683647Y215676D01*
Y215576D01*
X683636Y215498D01*
Y215409D01*
X683625Y215298D01*
X683603Y215176D01*
X683581Y215043D01*
X683525Y214755D01*
X683436Y214433D01*
X683314Y214100D01*
X683236Y213944D01*
X683148Y213778D01*
X683137Y213767D01*
X683126Y213744D01*
X683092Y213700D01*
X683059Y213645D01*
X683003Y213567D01*
X682937Y213489D01*
X682781Y213300D01*
X682582Y213090D01*
X682337Y212879D01*
X682060Y212668D01*
X681738Y212479D01*
X681727D01*
X681694Y212457D01*
X681649Y212435D01*
X681583Y212412D01*
X681494Y212379D01*
X681394Y212335D01*
X681272Y212290D01*
X681139Y212257D01*
X680994Y212213D01*
X680839Y212168D01*
X680673Y212135D01*
X680484Y212090D01*
X680095Y212046D01*
X679685Y212024D01*
X679673D01*
X679629D01*
X679574D01*
X679496Y212035D01*
X679396D01*
X679274Y212046D01*
X679141Y212057D01*
X678996Y212079D01*
X678674Y212135D01*
X678330Y212213D01*
X677964Y212324D01*
X677609Y212479D01*
X677598Y212490D01*
X677564Y212501D01*
X677520Y212523D01*
X677454Y212568D01*
X677376Y212612D01*
X677287Y212668D01*
X677076Y212823D01*
X676854Y213001D01*
X676621Y213234D01*
X676388Y213489D01*
X676188Y213789D01*
X676177Y213800D01*
X676166Y213833D01*
X676144Y213878D01*
X676110Y213944D01*
X676077Y214022D01*
X676033Y214111D01*
X675988Y214222D01*
X675944Y214344D01*
X675900Y214488D01*
X675855Y214632D01*
X675777Y214954D01*
X675722Y215310D01*
X675700Y215498D01*
Y215798D01*
X675711Y215876D01*
Y215975D01*
X675722Y216075D01*
X675744Y216209D01*
X675766Y216342D01*
X675822Y216630D01*
X675911Y216963D01*
X676044Y217285D01*
X676122Y217452D01*
X676210Y217618D01*
X676221Y217629D01*
X676233Y217652D01*
X676266Y217696D01*
X676299Y217763D01*
X676355Y217829D01*
X676421Y217918D01*
X676577Y218107D01*
X676776Y218306D01*
X677021Y218528D01*
X677309Y218739D01*
X677631Y218917D01*
X677642D01*
X677675Y218939D01*
X677720Y218961D01*
X677786Y218983D01*
X677875Y219028D01*
X677975Y219061D01*
X678097Y219106D01*
X678231Y219150D01*
X678375Y219183D01*
X678530Y219228D01*
X678697Y219272D01*
X678874Y219305D01*
X679263Y219350D01*
X679673Y219372D01*
X679685D01*
X679718D01*
X679762D01*
X679829D01*
X679918Y219361D01*
X680018D01*
X680129Y219350D01*
X680240Y219339D01*
X680506Y219305D01*
X680795Y219250D01*
X681094Y219183D01*
X681383Y219083D01*
X681394D01*
X681416Y219072D01*
X681460Y219050D01*
X681505Y219028D01*
X681572Y218995D01*
X681649Y218961D01*
X681827Y218873D01*
X682038Y218750D01*
X682260Y218595D01*
X682482Y218417D01*
X682704Y218218D01*
Y218229D01*
X682726Y218251D01*
X682748Y218284D01*
X682781Y218340D01*
X682826Y218395D01*
X682870Y218473D01*
X682970Y218639D01*
X683092Y218839D01*
X683214Y219061D01*
X683314Y219294D01*
X683414Y219516D01*
X684113Y219217D01*
D02*
G37*
G36*
X621781Y29047D02*
X621792Y29058D01*
X621847Y29102D01*
X621914Y29169D01*
X622025Y29247D01*
X622147Y29347D01*
X622302Y29458D01*
X622480Y29580D01*
X622680Y29702D01*
X622691D01*
X622702Y29713D01*
X622769Y29757D01*
X622880Y29813D01*
X623013Y29880D01*
X623168Y29957D01*
X623335Y30035D01*
X623501Y30113D01*
X623668Y30179D01*
Y29269D01*
X623657D01*
X623634Y29247D01*
X623590Y29236D01*
X623535Y29202D01*
X623468Y29169D01*
X623390Y29125D01*
X623201Y29014D01*
X622980Y28892D01*
X622757Y28736D01*
X622524Y28559D01*
X622291Y28370D01*
X622280Y28359D01*
X622269Y28348D01*
X622236Y28314D01*
X622191Y28281D01*
X622091Y28170D01*
X621958Y28037D01*
X621825Y27882D01*
X621681Y27704D01*
X621559Y27526D01*
X621448Y27338D01*
X620837D01*
Y35052D01*
X621781D01*
Y29047D01*
D02*
G37*
G36*
X625555Y35640D02*
X625599Y35618D01*
X625666Y35596D01*
X625743Y35563D01*
X625832Y35518D01*
X625932Y35474D01*
X626043Y35418D01*
X626287Y35285D01*
X626565Y35130D01*
X626864Y34930D01*
X627175Y34708D01*
X627186D01*
X627209Y34730D01*
X627264Y34752D01*
X627319Y34786D01*
X627408Y34819D01*
X627497Y34863D01*
X627608Y34897D01*
X627730Y34941D01*
X627863Y34985D01*
X628008Y35030D01*
X628330Y35108D01*
X628685Y35163D01*
X628873Y35174D01*
X629062Y35185D01*
X629162D01*
X629240Y35174D01*
X629329D01*
X629440Y35163D01*
X629562Y35141D01*
X629695Y35119D01*
X629983Y35063D01*
X630305Y34974D01*
X630638Y34852D01*
X630794Y34774D01*
X630960Y34686D01*
X630971Y34675D01*
X630993Y34664D01*
X631038Y34630D01*
X631093Y34597D01*
X631171Y34541D01*
X631249Y34475D01*
X631437Y34319D01*
X631648Y34120D01*
X631859Y33875D01*
X632070Y33598D01*
X632259Y33276D01*
Y33265D01*
X632281Y33232D01*
X632303Y33187D01*
X632326Y33121D01*
X632359Y33032D01*
X632403Y32932D01*
X632448Y32810D01*
X632481Y32677D01*
X632525Y32532D01*
X632570Y32377D01*
X632603Y32211D01*
X632647Y32022D01*
X632692Y31633D01*
X632714Y31223D01*
Y31212D01*
Y31167D01*
Y31112D01*
X632703Y31034D01*
Y30934D01*
X632692Y30812D01*
X632681Y30679D01*
X632659Y30534D01*
X632603Y30213D01*
X632525Y29868D01*
X632414Y29502D01*
X632259Y29147D01*
X632248Y29136D01*
X632237Y29102D01*
X632215Y29058D01*
X632170Y28991D01*
X632126Y28914D01*
X632070Y28825D01*
X631915Y28614D01*
X631737Y28392D01*
X631504Y28159D01*
X631249Y27926D01*
X630949Y27726D01*
X630938Y27715D01*
X630905Y27704D01*
X630860Y27682D01*
X630794Y27648D01*
X630716Y27615D01*
X630627Y27571D01*
X630516Y27526D01*
X630394Y27482D01*
X630250Y27438D01*
X630106Y27393D01*
X629784Y27315D01*
X629428Y27260D01*
X629240Y27238D01*
X628940D01*
X628862Y27249D01*
X628763D01*
X628663Y27260D01*
X628529Y27282D01*
X628396Y27304D01*
X628108Y27360D01*
X627775Y27449D01*
X627453Y27582D01*
X627286Y27659D01*
X627120Y27748D01*
X627109Y27759D01*
X627086Y27771D01*
X627042Y27804D01*
X626975Y27837D01*
X626909Y27893D01*
X626820Y27959D01*
X626631Y28115D01*
X626432Y28314D01*
X626209Y28559D01*
X625999Y28847D01*
X625821Y29169D01*
Y29180D01*
X625799Y29214D01*
X625777Y29258D01*
X625754Y29325D01*
X625710Y29413D01*
X625677Y29513D01*
X625632Y29635D01*
X625588Y29769D01*
X625555Y29913D01*
X625510Y30068D01*
X625466Y30235D01*
X625433Y30412D01*
X625388Y30801D01*
X625366Y31212D01*
Y31223D01*
Y31256D01*
Y31300D01*
Y31367D01*
X625377Y31456D01*
Y31556D01*
X625388Y31667D01*
X625399Y31778D01*
X625433Y32044D01*
X625488Y32332D01*
X625555Y32632D01*
X625654Y32921D01*
Y32932D01*
X625666Y32954D01*
X625688Y32998D01*
X625710Y33043D01*
X625743Y33110D01*
X625777Y33187D01*
X625865Y33365D01*
X625988Y33576D01*
X626143Y33798D01*
X626320Y34020D01*
X626520Y34242D01*
X626509D01*
X626487Y34264D01*
X626454Y34286D01*
X626398Y34319D01*
X626343Y34364D01*
X626265Y34408D01*
X626099Y34508D01*
X625899Y34630D01*
X625677Y34752D01*
X625444Y34852D01*
X625222Y34952D01*
X625521Y35651D01*
X625532D01*
X625555Y35640D01*
D02*
G37*
G36*
X916298Y225432D02*
X916387Y225421D01*
X916487Y225410D01*
X916609Y225388D01*
X916731Y225366D01*
X917020Y225299D01*
X917319Y225188D01*
X917475Y225122D01*
X917619Y225033D01*
X917775Y224944D01*
X917919Y224833D01*
X917930Y224822D01*
X917963Y224800D01*
X918008Y224755D01*
X918063Y224700D01*
X918130Y224622D01*
X918219Y224533D01*
X918296Y224422D01*
X918385Y224300D01*
X918474Y224167D01*
X918551Y224012D01*
X918629Y223845D01*
X918707Y223668D01*
X918762Y223479D01*
X918807Y223268D01*
X918840Y223046D01*
X918851Y222813D01*
Y222713D01*
X918840Y222635D01*
X918829Y222547D01*
X918818Y222447D01*
X918807Y222325D01*
X918773Y222202D01*
X918707Y221925D01*
X918607Y221647D01*
X918540Y221503D01*
X918463Y221359D01*
X918374Y221226D01*
X918274Y221092D01*
X918263Y221081D01*
X918252Y221059D01*
X918207Y221037D01*
X918163Y220993D01*
X918108Y220937D01*
X918041Y220882D01*
X917952Y220815D01*
X917852Y220760D01*
X917752Y220693D01*
X917630Y220626D01*
X917364Y220504D01*
X917053Y220404D01*
X916887Y220371D01*
X916709Y220349D01*
X916631Y221337D01*
X916642D01*
X916665D01*
X916698Y221348D01*
X916753Y221359D01*
X916875Y221392D01*
X917042Y221437D01*
X917208Y221503D01*
X917397Y221592D01*
X917564Y221703D01*
X917719Y221836D01*
X917730Y221858D01*
X917775Y221903D01*
X917830Y221992D01*
X917897Y222114D01*
X917963Y222247D01*
X918019Y222413D01*
X918063Y222602D01*
X918074Y222813D01*
Y222880D01*
X918063Y222924D01*
X918052Y223057D01*
X918008Y223213D01*
X917952Y223401D01*
X917863Y223590D01*
X917730Y223790D01*
X917652Y223878D01*
X917564Y223967D01*
X917552Y223978D01*
X917541Y223990D01*
X917508Y224012D01*
X917475Y224045D01*
X917353Y224123D01*
X917197Y224212D01*
X917009Y224289D01*
X916776Y224367D01*
X916498Y224422D01*
X916354Y224445D01*
X916198D01*
X916187D01*
X916165D01*
X916121D01*
X916065Y224433D01*
X915999D01*
X915921Y224422D01*
X915743Y224389D01*
X915532Y224334D01*
X915322Y224256D01*
X915122Y224145D01*
X914933Y223990D01*
X914922D01*
X914911Y223967D01*
X914855Y223912D01*
X914778Y223812D01*
X914689Y223679D01*
X914611Y223501D01*
X914533Y223301D01*
X914478Y223068D01*
X914456Y222935D01*
Y222724D01*
X914467Y222635D01*
X914478Y222524D01*
X914511Y222391D01*
X914545Y222258D01*
X914600Y222114D01*
X914667Y221969D01*
X914678Y221958D01*
X914700Y221914D01*
X914755Y221847D01*
X914811Y221758D01*
X914889Y221670D01*
X914988Y221581D01*
X915088Y221481D01*
X915210Y221403D01*
X915088Y220515D01*
X911137Y221259D01*
Y225077D01*
X912036D01*
Y222003D01*
X914112Y221592D01*
X914100Y221603D01*
X914089Y221625D01*
X914067Y221659D01*
X914034Y221714D01*
X914001Y221781D01*
X913956Y221858D01*
X913867Y222036D01*
X913779Y222258D01*
X913701Y222502D01*
X913645Y222768D01*
X913623Y222902D01*
Y223146D01*
X913634Y223213D01*
X913645Y223301D01*
X913656Y223401D01*
X913679Y223512D01*
X913712Y223634D01*
X913790Y223901D01*
X913845Y224045D01*
X913923Y224189D01*
X914001Y224334D01*
X914089Y224478D01*
X914200Y224611D01*
X914323Y224744D01*
X914334Y224755D01*
X914356Y224778D01*
X914389Y224811D01*
X914445Y224855D01*
X914522Y224911D01*
X914600Y224966D01*
X914700Y225033D01*
X914811Y225100D01*
X914933Y225155D01*
X915066Y225222D01*
X915222Y225277D01*
X915377Y225333D01*
X915544Y225377D01*
X915732Y225410D01*
X915921Y225432D01*
X916121Y225444D01*
X916132D01*
X916165D01*
X916220D01*
X916298Y225432D01*
D02*
G37*
G36*
X919317Y219217D02*
Y219205D01*
X919306Y219183D01*
X919284Y219139D01*
X919262Y219072D01*
X919229Y218995D01*
X919184Y218906D01*
X919140Y218806D01*
X919084Y218695D01*
X918951Y218451D01*
X918796Y218173D01*
X918596Y217873D01*
X918374Y217563D01*
Y217552D01*
X918396Y217529D01*
X918418Y217474D01*
X918452Y217418D01*
X918485Y217330D01*
X918529Y217241D01*
X918563Y217130D01*
X918607Y217008D01*
X918651Y216875D01*
X918696Y216730D01*
X918773Y216408D01*
X918829Y216053D01*
X918840Y215865D01*
X918851Y215676D01*
Y215576D01*
X918840Y215498D01*
Y215409D01*
X918829Y215298D01*
X918807Y215176D01*
X918785Y215043D01*
X918729Y214755D01*
X918640Y214433D01*
X918518Y214100D01*
X918440Y213944D01*
X918352Y213778D01*
X918341Y213767D01*
X918329Y213744D01*
X918296Y213700D01*
X918263Y213645D01*
X918207Y213567D01*
X918141Y213489D01*
X917985Y213300D01*
X917786Y213090D01*
X917541Y212879D01*
X917264Y212668D01*
X916942Y212479D01*
X916931D01*
X916898Y212457D01*
X916853Y212435D01*
X916787Y212412D01*
X916698Y212379D01*
X916598Y212335D01*
X916476Y212290D01*
X916343Y212257D01*
X916198Y212213D01*
X916043Y212168D01*
X915876Y212135D01*
X915688Y212090D01*
X915299Y212046D01*
X914889Y212024D01*
X914877D01*
X914833D01*
X914778D01*
X914700Y212035D01*
X914600D01*
X914478Y212046D01*
X914345Y212057D01*
X914200Y212079D01*
X913878Y212135D01*
X913534Y212213D01*
X913168Y212324D01*
X912813Y212479D01*
X912802Y212490D01*
X912768Y212501D01*
X912724Y212523D01*
X912657Y212568D01*
X912580Y212612D01*
X912491Y212668D01*
X912280Y212823D01*
X912058Y213001D01*
X911825Y213234D01*
X911592Y213489D01*
X911392Y213789D01*
X911381Y213800D01*
X911370Y213833D01*
X911348Y213878D01*
X911314Y213944D01*
X911281Y214022D01*
X911237Y214111D01*
X911192Y214222D01*
X911148Y214344D01*
X911104Y214488D01*
X911059Y214632D01*
X910981Y214954D01*
X910926Y215310D01*
X910904Y215498D01*
Y215798D01*
X910915Y215876D01*
Y215975D01*
X910926Y216075D01*
X910948Y216209D01*
X910970Y216342D01*
X911026Y216630D01*
X911115Y216963D01*
X911248Y217285D01*
X911326Y217452D01*
X911414Y217618D01*
X911425Y217629D01*
X911436Y217652D01*
X911470Y217696D01*
X911503Y217763D01*
X911559Y217829D01*
X911625Y217918D01*
X911781Y218107D01*
X911980Y218306D01*
X912225Y218528D01*
X912513Y218739D01*
X912835Y218917D01*
X912846D01*
X912879Y218939D01*
X912924Y218961D01*
X912990Y218983D01*
X913079Y219028D01*
X913179Y219061D01*
X913301Y219106D01*
X913435Y219150D01*
X913579Y219183D01*
X913734Y219228D01*
X913901Y219272D01*
X914078Y219305D01*
X914467Y219350D01*
X914877Y219372D01*
X914889D01*
X914922D01*
X914966D01*
X915033D01*
X915122Y219361D01*
X915222D01*
X915333Y219350D01*
X915444Y219339D01*
X915710Y219305D01*
X915999Y219250D01*
X916298Y219183D01*
X916587Y219083D01*
X916598D01*
X916620Y219072D01*
X916665Y219050D01*
X916709Y219028D01*
X916776Y218995D01*
X916853Y218961D01*
X917031Y218873D01*
X917242Y218750D01*
X917464Y218595D01*
X917686Y218417D01*
X917908Y218218D01*
Y218229D01*
X917930Y218251D01*
X917952Y218284D01*
X917985Y218340D01*
X918030Y218395D01*
X918074Y218473D01*
X918174Y218639D01*
X918296Y218839D01*
X918418Y219061D01*
X918518Y219294D01*
X918618Y219516D01*
X919317Y219217D01*
D02*
G37*
G36*
X1130542Y224173D02*
X1130609D01*
X1130787Y224140D01*
X1130997Y224107D01*
X1131219Y224051D01*
X1131464Y223973D01*
X1131697Y223862D01*
X1131708D01*
X1131719Y223851D01*
X1131752Y223829D01*
X1131797Y223807D01*
X1131908Y223740D01*
X1132052Y223640D01*
X1132207Y223518D01*
X1132363Y223374D01*
X1132518Y223196D01*
X1132651Y223008D01*
Y222997D01*
X1132662Y222985D01*
X1132685Y222952D01*
X1132696Y222908D01*
X1132751Y222797D01*
X1132807Y222652D01*
X1132873Y222464D01*
X1132918Y222253D01*
X1132962Y222020D01*
X1132973Y221764D01*
Y221709D01*
X1132962Y221653D01*
Y221565D01*
X1132951Y221465D01*
X1132929Y221354D01*
X1132896Y221220D01*
X1132862Y221087D01*
X1132818Y220932D01*
X1132762Y220777D01*
X1132696Y220621D01*
X1132607Y220455D01*
X1132507Y220299D01*
X1132396Y220144D01*
X1132263Y219988D01*
X1132107Y219844D01*
X1132096Y219833D01*
X1132063Y219811D01*
X1132019Y219778D01*
X1131941Y219733D01*
X1131841Y219667D01*
X1131730Y219611D01*
X1131586Y219544D01*
X1131430Y219478D01*
X1131242Y219400D01*
X1131031Y219333D01*
X1130798Y219278D01*
X1130542Y219223D01*
X1130254Y219167D01*
X1129943Y219134D01*
X1129610Y219112D01*
X1129255Y219100D01*
X1129244D01*
X1129233D01*
X1129199D01*
X1129155D01*
X1129044Y219112D01*
X1128888D01*
X1128711Y219123D01*
X1128500Y219145D01*
X1128267Y219167D01*
X1128012Y219200D01*
X1127756Y219245D01*
X1127479Y219300D01*
X1127212Y219367D01*
X1126946Y219445D01*
X1126691Y219544D01*
X1126447Y219655D01*
X1126213Y219778D01*
X1126014Y219922D01*
X1126003Y219933D01*
X1125980Y219955D01*
X1125936Y220000D01*
X1125869Y220055D01*
X1125803Y220122D01*
X1125736Y220210D01*
X1125647Y220321D01*
X1125570Y220432D01*
X1125492Y220566D01*
X1125403Y220710D01*
X1125337Y220876D01*
X1125259Y221043D01*
X1125203Y221232D01*
X1125159Y221431D01*
X1125137Y221642D01*
X1125126Y221864D01*
Y221953D01*
X1125137Y222020D01*
Y222097D01*
X1125148Y222186D01*
X1125192Y222397D01*
X1125248Y222630D01*
X1125337Y222874D01*
X1125470Y223119D01*
X1125547Y223241D01*
X1125636Y223352D01*
X1125647Y223363D01*
X1125658Y223374D01*
X1125692Y223407D01*
X1125725Y223440D01*
X1125780Y223496D01*
X1125847Y223540D01*
X1126003Y223662D01*
X1126202Y223785D01*
X1126447Y223896D01*
X1126724Y223995D01*
X1127035Y224062D01*
X1127113Y223119D01*
X1127101D01*
X1127090Y223107D01*
X1127024Y223096D01*
X1126924Y223063D01*
X1126802Y223019D01*
X1126668Y222974D01*
X1126535Y222908D01*
X1126413Y222830D01*
X1126313Y222752D01*
X1126291Y222730D01*
X1126247Y222686D01*
X1126180Y222608D01*
X1126102Y222497D01*
X1126036Y222353D01*
X1125969Y222197D01*
X1125925Y222009D01*
X1125903Y221809D01*
Y221731D01*
X1125914Y221642D01*
X1125936Y221542D01*
X1125969Y221409D01*
X1126014Y221276D01*
X1126069Y221143D01*
X1126158Y221010D01*
X1126169Y220987D01*
X1126213Y220932D01*
X1126291Y220854D01*
X1126402Y220754D01*
X1126535Y220643D01*
X1126691Y220521D01*
X1126890Y220410D01*
X1127113Y220299D01*
X1127124D01*
X1127146Y220288D01*
X1127179Y220277D01*
X1127224Y220255D01*
X1127290Y220244D01*
X1127368Y220222D01*
X1127457Y220199D01*
X1127568Y220177D01*
X1127690Y220144D01*
X1127823Y220122D01*
X1127967Y220099D01*
X1128123Y220088D01*
X1128300Y220066D01*
X1128478Y220055D01*
X1128678Y220044D01*
X1128877D01*
X1128866Y220055D01*
X1128800Y220099D01*
X1128711Y220177D01*
X1128600Y220277D01*
X1128467Y220388D01*
X1128345Y220532D01*
X1128223Y220688D01*
X1128111Y220865D01*
Y220876D01*
X1128100Y220888D01*
X1128067Y220954D01*
X1128034Y221054D01*
X1127978Y221187D01*
X1127934Y221343D01*
X1127901Y221520D01*
X1127867Y221709D01*
X1127856Y221909D01*
Y221998D01*
X1127867Y222064D01*
X1127878Y222153D01*
X1127889Y222242D01*
X1127912Y222353D01*
X1127945Y222464D01*
X1128023Y222719D01*
X1128078Y222852D01*
X1128156Y222985D01*
X1128234Y223119D01*
X1128322Y223263D01*
X1128433Y223396D01*
X1128556Y223518D01*
X1128567Y223529D01*
X1128589Y223552D01*
X1128622Y223585D01*
X1128678Y223618D01*
X1128755Y223674D01*
X1128833Y223729D01*
X1128933Y223785D01*
X1129044Y223851D01*
X1129166Y223918D01*
X1129299Y223973D01*
X1129455Y224029D01*
X1129610Y224084D01*
X1129777Y224118D01*
X1129965Y224151D01*
X1130154Y224173D01*
X1130354Y224184D01*
X1130365D01*
X1130387D01*
X1130420D01*
X1130476D01*
X1130542Y224173D01*
D02*
G37*
G36*
X1133439Y218013D02*
Y218002D01*
X1133428Y217979D01*
X1133406Y217935D01*
X1133384Y217868D01*
X1133351Y217791D01*
X1133306Y217702D01*
X1133262Y217602D01*
X1133206Y217491D01*
X1133073Y217247D01*
X1132918Y216969D01*
X1132718Y216670D01*
X1132496Y216359D01*
Y216348D01*
X1132518Y216325D01*
X1132540Y216270D01*
X1132574Y216215D01*
X1132607Y216126D01*
X1132651Y216037D01*
X1132685Y215926D01*
X1132729Y215804D01*
X1132773Y215671D01*
X1132818Y215526D01*
X1132896Y215204D01*
X1132951Y214849D01*
X1132962Y214660D01*
X1132973Y214472D01*
Y214372D01*
X1132962Y214294D01*
Y214205D01*
X1132951Y214094D01*
X1132929Y213972D01*
X1132907Y213839D01*
X1132851Y213551D01*
X1132762Y213229D01*
X1132640Y212896D01*
X1132562Y212740D01*
X1132474Y212574D01*
X1132463Y212563D01*
X1132451Y212540D01*
X1132418Y212496D01*
X1132385Y212441D01*
X1132329Y212363D01*
X1132263Y212285D01*
X1132107Y212097D01*
X1131908Y211886D01*
X1131663Y211675D01*
X1131386Y211464D01*
X1131064Y211275D01*
X1131053D01*
X1131020Y211253D01*
X1130975Y211231D01*
X1130909Y211208D01*
X1130820Y211175D01*
X1130720Y211131D01*
X1130598Y211086D01*
X1130465Y211053D01*
X1130320Y211009D01*
X1130165Y210964D01*
X1129998Y210931D01*
X1129810Y210887D01*
X1129421Y210842D01*
X1129011Y210820D01*
X1128999D01*
X1128955D01*
X1128900D01*
X1128822Y210831D01*
X1128722D01*
X1128600Y210842D01*
X1128467Y210853D01*
X1128322Y210875D01*
X1128000Y210931D01*
X1127656Y211009D01*
X1127290Y211120D01*
X1126935Y211275D01*
X1126924Y211286D01*
X1126890Y211297D01*
X1126846Y211320D01*
X1126779Y211364D01*
X1126702Y211408D01*
X1126613Y211464D01*
X1126402Y211619D01*
X1126180Y211797D01*
X1125947Y212030D01*
X1125714Y212285D01*
X1125514Y212585D01*
X1125503Y212596D01*
X1125492Y212629D01*
X1125470Y212674D01*
X1125436Y212740D01*
X1125403Y212818D01*
X1125359Y212907D01*
X1125314Y213018D01*
X1125270Y213140D01*
X1125226Y213284D01*
X1125181Y213428D01*
X1125103Y213750D01*
X1125048Y214105D01*
X1125026Y214294D01*
Y214594D01*
X1125037Y214672D01*
Y214771D01*
X1125048Y214871D01*
X1125070Y215005D01*
X1125092Y215138D01*
X1125148Y215426D01*
X1125237Y215759D01*
X1125370Y216081D01*
X1125447Y216248D01*
X1125536Y216414D01*
X1125547Y216425D01*
X1125558Y216448D01*
X1125592Y216492D01*
X1125625Y216559D01*
X1125681Y216625D01*
X1125747Y216714D01*
X1125903Y216903D01*
X1126102Y217103D01*
X1126347Y217325D01*
X1126635Y217535D01*
X1126957Y217713D01*
X1126968D01*
X1127001Y217735D01*
X1127046Y217757D01*
X1127113Y217780D01*
X1127201Y217824D01*
X1127301Y217857D01*
X1127423Y217902D01*
X1127557Y217946D01*
X1127701Y217979D01*
X1127856Y218024D01*
X1128023Y218068D01*
X1128200Y218102D01*
X1128589Y218146D01*
X1128999Y218168D01*
X1129011D01*
X1129044D01*
X1129088D01*
X1129155D01*
X1129244Y218157D01*
X1129344D01*
X1129455Y218146D01*
X1129566Y218135D01*
X1129832Y218102D01*
X1130120Y218046D01*
X1130420Y217979D01*
X1130709Y217880D01*
X1130720D01*
X1130742Y217868D01*
X1130787Y217846D01*
X1130831Y217824D01*
X1130898Y217791D01*
X1130975Y217757D01*
X1131153Y217669D01*
X1131364Y217547D01*
X1131586Y217391D01*
X1131808Y217213D01*
X1132030Y217014D01*
Y217025D01*
X1132052Y217047D01*
X1132074Y217080D01*
X1132107Y217136D01*
X1132152Y217191D01*
X1132196Y217269D01*
X1132296Y217435D01*
X1132418Y217635D01*
X1132540Y217857D01*
X1132640Y218090D01*
X1132740Y218312D01*
X1133439Y218013D01*
D02*
G37*
G36*
X867854Y35041D02*
Y34997D01*
Y34930D01*
X867843Y34841D01*
X867832Y34741D01*
X867810Y34630D01*
X867788Y34519D01*
X867743Y34397D01*
Y34386D01*
X867732Y34375D01*
X867710Y34308D01*
X867666Y34208D01*
X867599Y34075D01*
X867510Y33920D01*
X867399Y33742D01*
X867277Y33565D01*
X867122Y33376D01*
Y33365D01*
X867100Y33354D01*
X867044Y33287D01*
X866944Y33187D01*
X866800Y33043D01*
X866633Y32876D01*
X866423Y32677D01*
X866167Y32455D01*
X865890Y32222D01*
X865879Y32211D01*
X865834Y32177D01*
X865768Y32122D01*
X865690Y32055D01*
X865590Y31966D01*
X865468Y31866D01*
X865346Y31755D01*
X865201Y31633D01*
X864924Y31367D01*
X864647Y31100D01*
X864513Y30967D01*
X864391Y30834D01*
X864280Y30712D01*
X864191Y30590D01*
Y30579D01*
X864169Y30568D01*
X864147Y30534D01*
X864125Y30490D01*
X864047Y30368D01*
X863958Y30224D01*
X863881Y30046D01*
X863803Y29857D01*
X863758Y29646D01*
X863736Y29447D01*
Y29436D01*
Y29424D01*
X863747Y29358D01*
X863758Y29247D01*
X863792Y29125D01*
X863836Y28969D01*
X863914Y28814D01*
X864014Y28658D01*
X864147Y28503D01*
X864169Y28481D01*
X864225Y28437D01*
X864302Y28381D01*
X864425Y28303D01*
X864580Y28237D01*
X864758Y28170D01*
X864968Y28126D01*
X865201Y28115D01*
X865268D01*
X865312Y28126D01*
X865446Y28137D01*
X865601Y28170D01*
X865768Y28214D01*
X865956Y28292D01*
X866134Y28392D01*
X866300Y28525D01*
X866323Y28547D01*
X866367Y28603D01*
X866434Y28692D01*
X866500Y28825D01*
X866578Y28980D01*
X866645Y29180D01*
X866689Y29402D01*
X866711Y29657D01*
X867677Y29558D01*
Y29546D01*
X867666Y29513D01*
Y29458D01*
X867655Y29380D01*
X867632Y29291D01*
X867610Y29191D01*
X867577Y29069D01*
X867544Y28947D01*
X867455Y28681D01*
X867322Y28414D01*
X867244Y28281D01*
X867144Y28148D01*
X867044Y28026D01*
X866933Y27915D01*
X866922Y27904D01*
X866900Y27893D01*
X866867Y27859D01*
X866811Y27826D01*
X866744Y27782D01*
X866667Y27737D01*
X866578Y27682D01*
X866467Y27626D01*
X866345Y27571D01*
X866212Y27515D01*
X866067Y27471D01*
X865912Y27426D01*
X865745Y27393D01*
X865568Y27360D01*
X865379Y27349D01*
X865179Y27338D01*
X865068D01*
X864991Y27349D01*
X864902Y27360D01*
X864791Y27371D01*
X864669Y27393D01*
X864547Y27415D01*
X864258Y27493D01*
X863969Y27604D01*
X863825Y27671D01*
X863681Y27748D01*
X863548Y27848D01*
X863426Y27959D01*
X863414Y27970D01*
X863392Y27981D01*
X863370Y28026D01*
X863326Y28070D01*
X863270Y28126D01*
X863215Y28203D01*
X863159Y28281D01*
X863092Y28381D01*
X862981Y28592D01*
X862870Y28858D01*
X862826Y28991D01*
X862804Y29147D01*
X862782Y29302D01*
X862771Y29469D01*
Y29491D01*
Y29546D01*
X862782Y29635D01*
X862793Y29757D01*
X862815Y29891D01*
X862859Y30046D01*
X862904Y30213D01*
X862970Y30379D01*
X862981Y30401D01*
X863004Y30457D01*
X863048Y30545D01*
X863115Y30668D01*
X863204Y30801D01*
X863315Y30967D01*
X863448Y31134D01*
X863603Y31323D01*
X863625Y31345D01*
X863681Y31411D01*
X863736Y31467D01*
X863792Y31522D01*
X863858Y31589D01*
X863947Y31678D01*
X864036Y31767D01*
X864147Y31866D01*
X864258Y31977D01*
X864391Y32099D01*
X864536Y32222D01*
X864691Y32366D01*
X864868Y32510D01*
X865046Y32666D01*
X865057Y32677D01*
X865079Y32699D01*
X865124Y32732D01*
X865179Y32777D01*
X865246Y32843D01*
X865324Y32910D01*
X865501Y33054D01*
X865690Y33221D01*
X865867Y33387D01*
X866023Y33531D01*
X866089Y33587D01*
X866145Y33642D01*
X866156Y33653D01*
X866189Y33687D01*
X866234Y33731D01*
X866289Y33798D01*
X866345Y33875D01*
X866411Y33953D01*
X866545Y34142D01*
X862759D01*
Y35052D01*
X867854D01*
Y35041D01*
D02*
G37*
G36*
X868887Y35640D02*
X868931Y35618D01*
X868998Y35596D01*
X869075Y35563D01*
X869164Y35518D01*
X869264Y35474D01*
X869375Y35418D01*
X869619Y35285D01*
X869897Y35130D01*
X870196Y34930D01*
X870507Y34708D01*
X870518D01*
X870540Y34730D01*
X870596Y34752D01*
X870651Y34786D01*
X870740Y34819D01*
X870829Y34863D01*
X870940Y34897D01*
X871062Y34941D01*
X871195Y34985D01*
X871340Y35030D01*
X871662Y35108D01*
X872017Y35163D01*
X872206Y35174D01*
X872394Y35185D01*
X872494D01*
X872572Y35174D01*
X872661D01*
X872772Y35163D01*
X872894Y35141D01*
X873027Y35119D01*
X873315Y35063D01*
X873637Y34974D01*
X873970Y34852D01*
X874126Y34774D01*
X874292Y34686D01*
X874303Y34675D01*
X874325Y34664D01*
X874370Y34630D01*
X874425Y34597D01*
X874503Y34541D01*
X874581Y34475D01*
X874770Y34319D01*
X874980Y34120D01*
X875191Y33875D01*
X875402Y33598D01*
X875591Y33276D01*
Y33265D01*
X875613Y33232D01*
X875635Y33187D01*
X875658Y33121D01*
X875691Y33032D01*
X875735Y32932D01*
X875780Y32810D01*
X875813Y32677D01*
X875857Y32532D01*
X875902Y32377D01*
X875935Y32211D01*
X875979Y32022D01*
X876024Y31633D01*
X876046Y31223D01*
Y31212D01*
Y31167D01*
Y31112D01*
X876035Y31034D01*
Y30934D01*
X876024Y30812D01*
X876013Y30679D01*
X875991Y30534D01*
X875935Y30213D01*
X875857Y29868D01*
X875746Y29502D01*
X875591Y29147D01*
X875580Y29136D01*
X875569Y29102D01*
X875546Y29058D01*
X875502Y28991D01*
X875458Y28914D01*
X875402Y28825D01*
X875247Y28614D01*
X875069Y28392D01*
X874836Y28159D01*
X874581Y27926D01*
X874281Y27726D01*
X874270Y27715D01*
X874237Y27704D01*
X874192Y27682D01*
X874126Y27648D01*
X874048Y27615D01*
X873959Y27571D01*
X873848Y27526D01*
X873726Y27482D01*
X873582Y27438D01*
X873438Y27393D01*
X873116Y27315D01*
X872760Y27260D01*
X872572Y27238D01*
X872272D01*
X872194Y27249D01*
X872094D01*
X871995Y27260D01*
X871861Y27282D01*
X871728Y27304D01*
X871440Y27360D01*
X871107Y27449D01*
X870785Y27582D01*
X870618Y27659D01*
X870452Y27748D01*
X870441Y27759D01*
X870418Y27771D01*
X870374Y27804D01*
X870307Y27837D01*
X870241Y27893D01*
X870152Y27959D01*
X869963Y28115D01*
X869763Y28314D01*
X869541Y28559D01*
X869331Y28847D01*
X869153Y29169D01*
Y29180D01*
X869131Y29214D01*
X869109Y29258D01*
X869086Y29325D01*
X869042Y29413D01*
X869009Y29513D01*
X868964Y29635D01*
X868920Y29769D01*
X868887Y29913D01*
X868842Y30068D01*
X868798Y30235D01*
X868764Y30412D01*
X868720Y30801D01*
X868698Y31212D01*
Y31223D01*
Y31256D01*
Y31300D01*
Y31367D01*
X868709Y31456D01*
Y31556D01*
X868720Y31667D01*
X868731Y31778D01*
X868764Y32044D01*
X868820Y32332D01*
X868887Y32632D01*
X868987Y32921D01*
Y32932D01*
X868998Y32954D01*
X869020Y32998D01*
X869042Y33043D01*
X869075Y33110D01*
X869109Y33187D01*
X869197Y33365D01*
X869320Y33576D01*
X869475Y33798D01*
X869652Y34020D01*
X869852Y34242D01*
X869841D01*
X869819Y34264D01*
X869786Y34286D01*
X869730Y34319D01*
X869675Y34364D01*
X869597Y34408D01*
X869430Y34508D01*
X869231Y34630D01*
X869009Y34752D01*
X868776Y34852D01*
X868554Y34952D01*
X868853Y35651D01*
X868864D01*
X868887Y35640D01*
D02*
G37*
G36*
X1129860Y38222D02*
X1129949Y38211D01*
X1130048Y38200D01*
X1130159Y38178D01*
X1130282Y38156D01*
X1130548Y38089D01*
X1130825Y37978D01*
X1130970Y37911D01*
X1131103Y37834D01*
X1131236Y37734D01*
X1131369Y37634D01*
X1131380Y37623D01*
X1131403Y37601D01*
X1131436Y37567D01*
X1131469Y37523D01*
X1131525Y37467D01*
X1131580Y37390D01*
X1131647Y37312D01*
X1131713Y37212D01*
X1131780Y37101D01*
X1131847Y36990D01*
X1131969Y36724D01*
X1132069Y36413D01*
X1132102Y36246D01*
X1132124Y36069D01*
X1131181Y35947D01*
Y35958D01*
X1131170Y35980D01*
X1131158Y36024D01*
X1131147Y36080D01*
X1131136Y36146D01*
X1131114Y36224D01*
X1131059Y36391D01*
X1130981Y36590D01*
X1130881Y36779D01*
X1130770Y36957D01*
X1130637Y37112D01*
X1130614Y37123D01*
X1130570Y37168D01*
X1130481Y37223D01*
X1130370Y37279D01*
X1130237Y37345D01*
X1130071Y37401D01*
X1129882Y37445D01*
X1129682Y37456D01*
X1129615D01*
X1129571Y37445D01*
X1129449Y37434D01*
X1129294Y37401D01*
X1129116Y37345D01*
X1128927Y37267D01*
X1128739Y37157D01*
X1128561Y37001D01*
X1128539Y36979D01*
X1128483Y36912D01*
X1128417Y36812D01*
X1128328Y36679D01*
X1128239Y36513D01*
X1128173Y36324D01*
X1128117Y36102D01*
X1128095Y35858D01*
Y35847D01*
Y35824D01*
Y35791D01*
X1128106Y35747D01*
X1128117Y35625D01*
X1128150Y35480D01*
X1128195Y35303D01*
X1128272Y35125D01*
X1128383Y34948D01*
X1128528Y34781D01*
X1128550Y34759D01*
X1128605Y34715D01*
X1128694Y34648D01*
X1128816Y34570D01*
X1128972Y34493D01*
X1129160Y34426D01*
X1129371Y34382D01*
X1129604Y34359D01*
X1129704D01*
X1129782Y34371D01*
X1129882Y34382D01*
X1129993Y34404D01*
X1130126Y34426D01*
X1130270Y34459D01*
X1130159Y33627D01*
X1130104D01*
X1130060Y33638D01*
X1129915D01*
X1129793Y33616D01*
X1129649Y33593D01*
X1129482Y33560D01*
X1129294Y33505D01*
X1129116Y33427D01*
X1128927Y33327D01*
X1128916D01*
X1128905Y33316D01*
X1128850Y33272D01*
X1128772Y33194D01*
X1128683Y33094D01*
X1128594Y32950D01*
X1128517Y32783D01*
X1128461Y32594D01*
X1128439Y32483D01*
Y32361D01*
Y32350D01*
Y32339D01*
Y32273D01*
X1128461Y32184D01*
X1128483Y32062D01*
X1128528Y31929D01*
X1128583Y31784D01*
X1128672Y31640D01*
X1128794Y31507D01*
X1128805Y31496D01*
X1128861Y31451D01*
X1128938Y31396D01*
X1129038Y31329D01*
X1129172Y31274D01*
X1129327Y31218D01*
X1129504Y31174D01*
X1129704Y31163D01*
X1129793D01*
X1129893Y31185D01*
X1130026Y31207D01*
X1130171Y31251D01*
X1130315Y31307D01*
X1130470Y31396D01*
X1130614Y31507D01*
X1130626Y31518D01*
X1130670Y31573D01*
X1130737Y31651D01*
X1130814Y31762D01*
X1130892Y31906D01*
X1130970Y32084D01*
X1131036Y32295D01*
X1131081Y32539D01*
X1132024Y32373D01*
Y32361D01*
X1132013Y32328D01*
X1132002Y32284D01*
X1131991Y32217D01*
X1131969Y32139D01*
X1131935Y32051D01*
X1131869Y31840D01*
X1131758Y31595D01*
X1131625Y31351D01*
X1131458Y31118D01*
X1131247Y30907D01*
X1131236Y30896D01*
X1131214Y30885D01*
X1131181Y30863D01*
X1131136Y30830D01*
X1131081Y30785D01*
X1131003Y30741D01*
X1130925Y30696D01*
X1130825Y30641D01*
X1130603Y30552D01*
X1130348Y30463D01*
X1130048Y30408D01*
X1129893Y30386D01*
X1129615D01*
X1129493Y30397D01*
X1129349Y30419D01*
X1129172Y30452D01*
X1128972Y30508D01*
X1128772Y30574D01*
X1128572Y30663D01*
X1128561D01*
X1128550Y30674D01*
X1128483Y30707D01*
X1128383Y30774D01*
X1128272Y30852D01*
X1128139Y30963D01*
X1128006Y31085D01*
X1127873Y31229D01*
X1127762Y31396D01*
X1127751Y31418D01*
X1127717Y31473D01*
X1127673Y31573D01*
X1127617Y31695D01*
X1127562Y31840D01*
X1127518Y32006D01*
X1127484Y32195D01*
X1127473Y32384D01*
Y32406D01*
Y32472D01*
X1127484Y32561D01*
X1127506Y32683D01*
X1127540Y32828D01*
X1127595Y32983D01*
X1127662Y33138D01*
X1127751Y33294D01*
X1127762Y33316D01*
X1127795Y33360D01*
X1127862Y33438D01*
X1127951Y33527D01*
X1128062Y33627D01*
X1128195Y33738D01*
X1128350Y33838D01*
X1128539Y33938D01*
X1128528D01*
X1128505Y33949D01*
X1128472Y33960D01*
X1128428Y33971D01*
X1128306Y34015D01*
X1128150Y34082D01*
X1127973Y34171D01*
X1127795Y34282D01*
X1127629Y34426D01*
X1127473Y34592D01*
X1127462Y34615D01*
X1127418Y34681D01*
X1127351Y34792D01*
X1127284Y34937D01*
X1127218Y35114D01*
X1127151Y35325D01*
X1127107Y35569D01*
X1127096Y35836D01*
Y35847D01*
Y35880D01*
Y35935D01*
X1127107Y36002D01*
X1127118Y36091D01*
X1127140Y36191D01*
X1127162Y36302D01*
X1127185Y36424D01*
X1127273Y36690D01*
X1127340Y36835D01*
X1127407Y36968D01*
X1127495Y37112D01*
X1127595Y37256D01*
X1127706Y37401D01*
X1127840Y37534D01*
X1127851Y37545D01*
X1127873Y37567D01*
X1127917Y37601D01*
X1127973Y37645D01*
X1128039Y37700D01*
X1128128Y37756D01*
X1128228Y37822D01*
X1128350Y37878D01*
X1128472Y37945D01*
X1128616Y38011D01*
X1128761Y38067D01*
X1128927Y38122D01*
X1129105Y38167D01*
X1129294Y38200D01*
X1129482Y38222D01*
X1129693Y38233D01*
X1129793D01*
X1129860Y38222D01*
D02*
G37*
G36*
X1133301Y38688D02*
X1133345Y38666D01*
X1133412Y38644D01*
X1133489Y38611D01*
X1133578Y38566D01*
X1133678Y38522D01*
X1133789Y38466D01*
X1134033Y38333D01*
X1134311Y38178D01*
X1134610Y37978D01*
X1134921Y37756D01*
X1134932D01*
X1134955Y37778D01*
X1135010Y37800D01*
X1135066Y37834D01*
X1135154Y37867D01*
X1135243Y37911D01*
X1135354Y37945D01*
X1135476Y37989D01*
X1135609Y38033D01*
X1135754Y38078D01*
X1136076Y38156D01*
X1136431Y38211D01*
X1136619Y38222D01*
X1136808Y38233D01*
X1136908D01*
X1136986Y38222D01*
X1137075D01*
X1137186Y38211D01*
X1137308Y38189D01*
X1137441Y38167D01*
X1137729Y38111D01*
X1138051Y38022D01*
X1138384Y37900D01*
X1138540Y37822D01*
X1138706Y37734D01*
X1138717Y37723D01*
X1138739Y37712D01*
X1138784Y37678D01*
X1138839Y37645D01*
X1138917Y37589D01*
X1138995Y37523D01*
X1139184Y37367D01*
X1139394Y37168D01*
X1139605Y36923D01*
X1139816Y36646D01*
X1140005Y36324D01*
Y36313D01*
X1140027Y36280D01*
X1140049Y36235D01*
X1140071Y36169D01*
X1140105Y36080D01*
X1140149Y35980D01*
X1140194Y35858D01*
X1140227Y35725D01*
X1140271Y35580D01*
X1140316Y35425D01*
X1140349Y35259D01*
X1140393Y35070D01*
X1140438Y34681D01*
X1140460Y34271D01*
Y34260D01*
Y34215D01*
Y34160D01*
X1140449Y34082D01*
Y33982D01*
X1140438Y33860D01*
X1140427Y33727D01*
X1140405Y33582D01*
X1140349Y33261D01*
X1140271Y32916D01*
X1140160Y32550D01*
X1140005Y32195D01*
X1139994Y32184D01*
X1139983Y32150D01*
X1139960Y32106D01*
X1139916Y32039D01*
X1139872Y31962D01*
X1139816Y31873D01*
X1139661Y31662D01*
X1139483Y31440D01*
X1139250Y31207D01*
X1138995Y30974D01*
X1138695Y30774D01*
X1138684Y30763D01*
X1138651Y30752D01*
X1138606Y30730D01*
X1138540Y30696D01*
X1138462Y30663D01*
X1138373Y30619D01*
X1138262Y30574D01*
X1138140Y30530D01*
X1137996Y30485D01*
X1137851Y30441D01*
X1137530Y30363D01*
X1137175Y30308D01*
X1136986Y30286D01*
X1136686D01*
X1136608Y30297D01*
X1136508D01*
X1136409Y30308D01*
X1136275Y30330D01*
X1136142Y30352D01*
X1135854Y30408D01*
X1135521Y30497D01*
X1135199Y30630D01*
X1135032Y30707D01*
X1134866Y30796D01*
X1134855Y30807D01*
X1134832Y30819D01*
X1134788Y30852D01*
X1134721Y30885D01*
X1134655Y30941D01*
X1134566Y31007D01*
X1134377Y31163D01*
X1134177Y31362D01*
X1133956Y31607D01*
X1133745Y31895D01*
X1133567Y32217D01*
Y32228D01*
X1133545Y32262D01*
X1133523Y32306D01*
X1133500Y32373D01*
X1133456Y32461D01*
X1133423Y32561D01*
X1133378Y32683D01*
X1133334Y32817D01*
X1133301Y32961D01*
X1133256Y33116D01*
X1133212Y33283D01*
X1133178Y33460D01*
X1133134Y33849D01*
X1133112Y34260D01*
Y34271D01*
Y34304D01*
Y34348D01*
Y34415D01*
X1133123Y34504D01*
Y34604D01*
X1133134Y34715D01*
X1133145Y34826D01*
X1133178Y35092D01*
X1133234Y35380D01*
X1133301Y35680D01*
X1133400Y35969D01*
Y35980D01*
X1133412Y36002D01*
X1133434Y36047D01*
X1133456Y36091D01*
X1133489Y36158D01*
X1133523Y36235D01*
X1133611Y36413D01*
X1133734Y36624D01*
X1133889Y36846D01*
X1134066Y37068D01*
X1134266Y37290D01*
X1134255D01*
X1134233Y37312D01*
X1134200Y37334D01*
X1134144Y37367D01*
X1134089Y37412D01*
X1134011Y37456D01*
X1133845Y37556D01*
X1133645Y37678D01*
X1133423Y37800D01*
X1133190Y37900D01*
X1132968Y38000D01*
X1133267Y38699D01*
X1133278D01*
X1133301Y38688D01*
D02*
G37*
%LPC*%
G36*
X680806Y223368D02*
X677365D01*
X680806Y220948D01*
Y223368D01*
D02*
G37*
G36*
X679685Y218329D02*
X679673D01*
X679640D01*
X679596D01*
X679529D01*
X679440Y218318D01*
X679352D01*
X679241Y218306D01*
X679130Y218284D01*
X678874Y218251D01*
X678597Y218195D01*
X678319Y218118D01*
X678053Y218007D01*
X678042D01*
X678020Y217996D01*
X677986Y217973D01*
X677942Y217951D01*
X677809Y217873D01*
X677653Y217774D01*
X677476Y217640D01*
X677298Y217474D01*
X677121Y217285D01*
X676965Y217074D01*
Y217063D01*
X676943Y217052D01*
X676932Y217019D01*
X676898Y216963D01*
X676876Y216908D01*
X676843Y216841D01*
X676765Y216675D01*
X676699Y216475D01*
X676632Y216242D01*
X676588Y215975D01*
X676577Y215698D01*
Y215587D01*
X676588Y215509D01*
X676599Y215409D01*
X676621Y215298D01*
X676643Y215176D01*
X676676Y215043D01*
X676721Y214888D01*
X676765Y214743D01*
X676832Y214588D01*
X676910Y214422D01*
X676998Y214266D01*
X677109Y214111D01*
X677220Y213955D01*
X677365Y213811D01*
X677376Y213800D01*
X677398Y213778D01*
X677442Y213744D01*
X677509Y213700D01*
X677587Y213633D01*
X677687Y213578D01*
X677809Y213511D01*
X677942Y213445D01*
X678097Y213367D01*
X678275Y213300D01*
X678464Y213245D01*
X678674Y213189D01*
X678896Y213134D01*
X679141Y213101D01*
X679407Y213078D01*
X679685Y213067D01*
X679707D01*
X679751D01*
X679829D01*
X679929Y213078D01*
X680051Y213090D01*
X680195Y213112D01*
X680362Y213134D01*
X680528Y213156D01*
X680906Y213245D01*
X681094Y213300D01*
X681283Y213378D01*
X681472Y213456D01*
X681649Y213556D01*
X681827Y213667D01*
X681982Y213800D01*
X681993Y213811D01*
X682016Y213833D01*
X682060Y213878D01*
X682104Y213933D01*
X682171Y214011D01*
X682237Y214100D01*
X682304Y214200D01*
X682382Y214322D01*
X682459Y214444D01*
X682526Y214588D01*
X682593Y214743D01*
X682659Y214910D01*
X682704Y215099D01*
X682748Y215287D01*
X682770Y215487D01*
X682781Y215698D01*
Y215798D01*
X682770Y215898D01*
X682759Y216031D01*
X682737Y216197D01*
X682693Y216364D01*
X682648Y216553D01*
X682582Y216730D01*
X682570Y216708D01*
X682526Y216653D01*
X682471Y216553D01*
X682404Y216431D01*
X682337Y216275D01*
X682260Y216109D01*
X682193Y215920D01*
X682138Y215720D01*
X681405Y215975D01*
Y215987D01*
X681416Y216020D01*
X681427Y216064D01*
X681449Y216120D01*
X681472Y216197D01*
X681505Y216286D01*
X681583Y216486D01*
X681694Y216719D01*
X681816Y216963D01*
X681960Y217196D01*
X682138Y217430D01*
X682126Y217441D01*
X682104Y217474D01*
X682049Y217518D01*
X681982Y217574D01*
X681893Y217640D01*
X681794Y217718D01*
X681671Y217796D01*
X681527Y217885D01*
X681361Y217962D01*
X681172Y218040D01*
X680972Y218118D01*
X680761Y218184D01*
X680517Y218251D01*
X680262Y218295D01*
X679984Y218318D01*
X679685Y218329D01*
D02*
G37*
G36*
X629040Y34319D02*
X628940D01*
X628840Y34308D01*
X628707Y34297D01*
X628540Y34275D01*
X628374Y34231D01*
X628185Y34186D01*
X628008Y34120D01*
X628030Y34109D01*
X628085Y34064D01*
X628185Y34009D01*
X628307Y33942D01*
X628463Y33875D01*
X628629Y33798D01*
X628818Y33731D01*
X629018Y33676D01*
X628763Y32943D01*
X628751D01*
X628718Y32954D01*
X628674Y32965D01*
X628618Y32987D01*
X628540Y33010D01*
X628452Y33043D01*
X628252Y33121D01*
X628019Y33232D01*
X627775Y33354D01*
X627542Y33498D01*
X627308Y33676D01*
X627297Y33665D01*
X627264Y33642D01*
X627220Y33587D01*
X627164Y33520D01*
X627098Y33431D01*
X627020Y33331D01*
X626942Y33209D01*
X626853Y33065D01*
X626776Y32899D01*
X626698Y32710D01*
X626620Y32510D01*
X626554Y32299D01*
X626487Y32055D01*
X626443Y31800D01*
X626420Y31522D01*
X626409Y31223D01*
Y31212D01*
Y31178D01*
Y31134D01*
Y31067D01*
X626420Y30978D01*
Y30890D01*
X626432Y30779D01*
X626454Y30668D01*
X626487Y30412D01*
X626543Y30135D01*
X626620Y29857D01*
X626731Y29591D01*
Y29580D01*
X626742Y29558D01*
X626764Y29524D01*
X626787Y29480D01*
X626864Y29347D01*
X626964Y29191D01*
X627098Y29014D01*
X627264Y28836D01*
X627453Y28658D01*
X627664Y28503D01*
X627675D01*
X627686Y28481D01*
X627719Y28470D01*
X627775Y28437D01*
X627830Y28414D01*
X627897Y28381D01*
X628063Y28303D01*
X628263Y28237D01*
X628496Y28170D01*
X628763Y28126D01*
X629040Y28115D01*
X629151D01*
X629229Y28126D01*
X629329Y28137D01*
X629440Y28159D01*
X629562Y28181D01*
X629695Y28214D01*
X629850Y28259D01*
X629995Y28303D01*
X630150Y28370D01*
X630316Y28448D01*
X630472Y28536D01*
X630627Y28647D01*
X630783Y28758D01*
X630927Y28903D01*
X630938Y28914D01*
X630960Y28936D01*
X630993Y28980D01*
X631038Y29047D01*
X631105Y29125D01*
X631160Y29225D01*
X631227Y29347D01*
X631293Y29480D01*
X631371Y29635D01*
X631437Y29813D01*
X631493Y30002D01*
X631549Y30213D01*
X631604Y30435D01*
X631637Y30679D01*
X631660Y30945D01*
X631671Y31223D01*
Y31245D01*
Y31289D01*
Y31367D01*
X631660Y31467D01*
X631648Y31589D01*
X631626Y31733D01*
X631604Y31900D01*
X631582Y32066D01*
X631493Y32443D01*
X631437Y32632D01*
X631360Y32821D01*
X631282Y33010D01*
X631182Y33187D01*
X631071Y33365D01*
X630938Y33520D01*
X630927Y33531D01*
X630905Y33554D01*
X630860Y33598D01*
X630805Y33642D01*
X630727Y33709D01*
X630638Y33775D01*
X630538Y33842D01*
X630416Y33920D01*
X630294Y33997D01*
X630150Y34064D01*
X629995Y34131D01*
X629828Y34197D01*
X629639Y34242D01*
X629451Y34286D01*
X629251Y34308D01*
X629040Y34319D01*
D02*
G37*
G36*
X914889Y218329D02*
X914877D01*
X914844D01*
X914800D01*
X914733D01*
X914644Y218318D01*
X914556D01*
X914445Y218306D01*
X914334Y218284D01*
X914078Y218251D01*
X913801Y218195D01*
X913523Y218118D01*
X913257Y218007D01*
X913246D01*
X913224Y217996D01*
X913190Y217973D01*
X913146Y217951D01*
X913013Y217873D01*
X912857Y217774D01*
X912680Y217640D01*
X912502Y217474D01*
X912325Y217285D01*
X912169Y217074D01*
Y217063D01*
X912147Y217052D01*
X912136Y217019D01*
X912103Y216963D01*
X912080Y216908D01*
X912047Y216841D01*
X911969Y216675D01*
X911903Y216475D01*
X911836Y216242D01*
X911792Y215975D01*
X911781Y215698D01*
Y215587D01*
X911792Y215509D01*
X911803Y215409D01*
X911825Y215298D01*
X911847Y215176D01*
X911880Y215043D01*
X911925Y214888D01*
X911969Y214743D01*
X912036Y214588D01*
X912114Y214422D01*
X912202Y214266D01*
X912313Y214111D01*
X912424Y213955D01*
X912569Y213811D01*
X912580Y213800D01*
X912602Y213778D01*
X912646Y213744D01*
X912713Y213700D01*
X912791Y213633D01*
X912891Y213578D01*
X913013Y213511D01*
X913146Y213445D01*
X913301Y213367D01*
X913479Y213300D01*
X913668Y213245D01*
X913878Y213189D01*
X914100Y213134D01*
X914345Y213101D01*
X914611Y213078D01*
X914889Y213067D01*
X914911D01*
X914955D01*
X915033D01*
X915133Y213078D01*
X915255Y213090D01*
X915399Y213112D01*
X915566Y213134D01*
X915732Y213156D01*
X916109Y213245D01*
X916298Y213300D01*
X916487Y213378D01*
X916676Y213456D01*
X916853Y213556D01*
X917031Y213667D01*
X917186Y213800D01*
X917197Y213811D01*
X917219Y213833D01*
X917264Y213878D01*
X917308Y213933D01*
X917375Y214011D01*
X917441Y214100D01*
X917508Y214200D01*
X917586Y214322D01*
X917663Y214444D01*
X917730Y214588D01*
X917797Y214743D01*
X917863Y214910D01*
X917908Y215099D01*
X917952Y215287D01*
X917974Y215487D01*
X917985Y215698D01*
Y215798D01*
X917974Y215898D01*
X917963Y216031D01*
X917941Y216197D01*
X917897Y216364D01*
X917852Y216553D01*
X917786Y216730D01*
X917775Y216708D01*
X917730Y216653D01*
X917675Y216553D01*
X917608Y216431D01*
X917541Y216275D01*
X917464Y216109D01*
X917397Y215920D01*
X917342Y215720D01*
X916609Y215975D01*
Y215987D01*
X916620Y216020D01*
X916631Y216064D01*
X916653Y216120D01*
X916676Y216197D01*
X916709Y216286D01*
X916787Y216486D01*
X916898Y216719D01*
X917020Y216963D01*
X917164Y217196D01*
X917342Y217430D01*
X917330Y217441D01*
X917308Y217474D01*
X917253Y217518D01*
X917186Y217574D01*
X917097Y217640D01*
X916998Y217718D01*
X916875Y217796D01*
X916731Y217885D01*
X916565Y217962D01*
X916376Y218040D01*
X916176Y218118D01*
X915965Y218184D01*
X915721Y218251D01*
X915466Y218295D01*
X915188Y218318D01*
X914889Y218329D01*
D02*
G37*
G36*
X1130409Y223218D02*
X1130398D01*
X1130376D01*
X1130331D01*
X1130276Y223207D01*
X1130209D01*
X1130132Y223196D01*
X1129954Y223163D01*
X1129754Y223119D01*
X1129543Y223041D01*
X1129344Y222930D01*
X1129155Y222786D01*
X1129133Y222763D01*
X1129077Y222708D01*
X1129011Y222619D01*
X1128922Y222497D01*
X1128833Y222342D01*
X1128766Y222164D01*
X1128711Y221953D01*
X1128689Y221720D01*
Y221653D01*
X1128700Y221609D01*
X1128711Y221498D01*
X1128744Y221343D01*
X1128800Y221176D01*
X1128888Y220987D01*
X1128999Y220810D01*
X1129155Y220632D01*
X1129177Y220610D01*
X1129233Y220566D01*
X1129333Y220488D01*
X1129477Y220410D01*
X1129643Y220333D01*
X1129854Y220255D01*
X1130087Y220210D01*
X1130354Y220188D01*
X1130376D01*
X1130431D01*
X1130531Y220199D01*
X1130653Y220210D01*
X1130798Y220233D01*
X1130953Y220277D01*
X1131120Y220321D01*
X1131286Y220388D01*
X1131308Y220399D01*
X1131364Y220432D01*
X1131441Y220477D01*
X1131541Y220543D01*
X1131641Y220621D01*
X1131763Y220721D01*
X1131863Y220832D01*
X1131963Y220965D01*
X1131974Y220987D01*
X1131996Y221032D01*
X1132041Y221110D01*
X1132074Y221209D01*
X1132119Y221320D01*
X1132163Y221454D01*
X1132185Y221598D01*
X1132196Y221753D01*
Y221809D01*
X1132185Y221853D01*
X1132174Y221964D01*
X1132141Y222108D01*
X1132074Y222264D01*
X1131996Y222442D01*
X1131874Y222619D01*
X1131808Y222708D01*
X1131719Y222786D01*
X1131708D01*
X1131697Y222808D01*
X1131630Y222852D01*
X1131519Y222919D01*
X1131375Y223008D01*
X1131186Y223085D01*
X1130964Y223152D01*
X1130709Y223196D01*
X1130409Y223218D01*
D02*
G37*
G36*
X1129011Y217125D02*
X1128999D01*
X1128966D01*
X1128922D01*
X1128855D01*
X1128766Y217114D01*
X1128678D01*
X1128567Y217103D01*
X1128456Y217080D01*
X1128200Y217047D01*
X1127923Y216992D01*
X1127645Y216914D01*
X1127379Y216803D01*
X1127368D01*
X1127346Y216792D01*
X1127312Y216770D01*
X1127268Y216747D01*
X1127135Y216670D01*
X1126979Y216570D01*
X1126802Y216437D01*
X1126624Y216270D01*
X1126447Y216081D01*
X1126291Y215870D01*
Y215859D01*
X1126269Y215848D01*
X1126258Y215815D01*
X1126225Y215759D01*
X1126202Y215704D01*
X1126169Y215637D01*
X1126091Y215471D01*
X1126025Y215271D01*
X1125958Y215038D01*
X1125914Y214771D01*
X1125903Y214494D01*
Y214383D01*
X1125914Y214305D01*
X1125925Y214205D01*
X1125947Y214094D01*
X1125969Y213972D01*
X1126003Y213839D01*
X1126047Y213684D01*
X1126091Y213540D01*
X1126158Y213384D01*
X1126236Y213218D01*
X1126324Y213062D01*
X1126435Y212907D01*
X1126546Y212751D01*
X1126691Y212607D01*
X1126702Y212596D01*
X1126724Y212574D01*
X1126768Y212540D01*
X1126835Y212496D01*
X1126913Y212430D01*
X1127013Y212374D01*
X1127135Y212307D01*
X1127268Y212241D01*
X1127423Y212163D01*
X1127601Y212097D01*
X1127790Y212041D01*
X1128000Y211985D01*
X1128223Y211930D01*
X1128467Y211897D01*
X1128733Y211875D01*
X1129011Y211863D01*
X1129033D01*
X1129077D01*
X1129155D01*
X1129255Y211875D01*
X1129377Y211886D01*
X1129521Y211908D01*
X1129688Y211930D01*
X1129854Y211952D01*
X1130231Y212041D01*
X1130420Y212097D01*
X1130609Y212174D01*
X1130798Y212252D01*
X1130975Y212352D01*
X1131153Y212463D01*
X1131308Y212596D01*
X1131319Y212607D01*
X1131341Y212629D01*
X1131386Y212674D01*
X1131430Y212729D01*
X1131497Y212807D01*
X1131563Y212896D01*
X1131630Y212996D01*
X1131708Y213118D01*
X1131786Y213240D01*
X1131852Y213384D01*
X1131919Y213540D01*
X1131985Y213706D01*
X1132030Y213895D01*
X1132074Y214083D01*
X1132096Y214283D01*
X1132107Y214494D01*
Y214594D01*
X1132096Y214694D01*
X1132085Y214827D01*
X1132063Y214993D01*
X1132019Y215160D01*
X1131974Y215349D01*
X1131908Y215526D01*
X1131897Y215504D01*
X1131852Y215449D01*
X1131797Y215349D01*
X1131730Y215227D01*
X1131663Y215071D01*
X1131586Y214905D01*
X1131519Y214716D01*
X1131464Y214516D01*
X1130731Y214771D01*
Y214783D01*
X1130742Y214816D01*
X1130753Y214860D01*
X1130775Y214916D01*
X1130798Y214993D01*
X1130831Y215082D01*
X1130909Y215282D01*
X1131020Y215515D01*
X1131142Y215759D01*
X1131286Y215993D01*
X1131464Y216226D01*
X1131452Y216237D01*
X1131430Y216270D01*
X1131375Y216314D01*
X1131308Y216370D01*
X1131219Y216437D01*
X1131120Y216514D01*
X1130997Y216592D01*
X1130853Y216681D01*
X1130687Y216758D01*
X1130498Y216836D01*
X1130298Y216914D01*
X1130087Y216980D01*
X1129843Y217047D01*
X1129588Y217091D01*
X1129310Y217114D01*
X1129011Y217125D01*
D02*
G37*
G36*
X872372Y34319D02*
X872272D01*
X872172Y34308D01*
X872039Y34297D01*
X871872Y34275D01*
X871706Y34231D01*
X871517Y34186D01*
X871340Y34120D01*
X871362Y34109D01*
X871417Y34064D01*
X871517Y34009D01*
X871639Y33942D01*
X871795Y33875D01*
X871961Y33798D01*
X872150Y33731D01*
X872350Y33676D01*
X872094Y32943D01*
X872083D01*
X872050Y32954D01*
X872006Y32965D01*
X871950Y32987D01*
X871872Y33010D01*
X871784Y33043D01*
X871584Y33121D01*
X871351Y33232D01*
X871107Y33354D01*
X870873Y33498D01*
X870640Y33676D01*
X870629Y33665D01*
X870596Y33642D01*
X870552Y33587D01*
X870496Y33520D01*
X870430Y33431D01*
X870352Y33331D01*
X870274Y33209D01*
X870185Y33065D01*
X870108Y32899D01*
X870030Y32710D01*
X869952Y32510D01*
X869886Y32299D01*
X869819Y32055D01*
X869775Y31800D01*
X869752Y31522D01*
X869741Y31223D01*
Y31212D01*
Y31178D01*
Y31134D01*
Y31067D01*
X869752Y30978D01*
Y30890D01*
X869763Y30779D01*
X869786Y30668D01*
X869819Y30412D01*
X869874Y30135D01*
X869952Y29857D01*
X870063Y29591D01*
Y29580D01*
X870074Y29558D01*
X870097Y29524D01*
X870119Y29480D01*
X870196Y29347D01*
X870296Y29191D01*
X870430Y29014D01*
X870596Y28836D01*
X870785Y28658D01*
X870996Y28503D01*
X871007D01*
X871018Y28481D01*
X871051Y28470D01*
X871107Y28437D01*
X871162Y28414D01*
X871229Y28381D01*
X871395Y28303D01*
X871595Y28237D01*
X871828Y28170D01*
X872094Y28126D01*
X872372Y28115D01*
X872483D01*
X872561Y28126D01*
X872661Y28137D01*
X872772Y28159D01*
X872894Y28181D01*
X873027Y28214D01*
X873182Y28259D01*
X873326Y28303D01*
X873482Y28370D01*
X873648Y28448D01*
X873804Y28536D01*
X873959Y28647D01*
X874115Y28758D01*
X874259Y28903D01*
X874270Y28914D01*
X874292Y28936D01*
X874325Y28980D01*
X874370Y29047D01*
X874436Y29125D01*
X874492Y29225D01*
X874559Y29347D01*
X874625Y29480D01*
X874703Y29635D01*
X874770Y29813D01*
X874825Y30002D01*
X874881Y30213D01*
X874936Y30435D01*
X874969Y30679D01*
X874992Y30945D01*
X875003Y31223D01*
Y31245D01*
Y31289D01*
Y31367D01*
X874992Y31467D01*
X874980Y31589D01*
X874958Y31733D01*
X874936Y31900D01*
X874914Y32066D01*
X874825Y32443D01*
X874770Y32632D01*
X874692Y32821D01*
X874614Y33010D01*
X874514Y33187D01*
X874403Y33365D01*
X874270Y33520D01*
X874259Y33531D01*
X874237Y33554D01*
X874192Y33598D01*
X874137Y33642D01*
X874059Y33709D01*
X873970Y33775D01*
X873870Y33842D01*
X873748Y33920D01*
X873626Y33997D01*
X873482Y34064D01*
X873326Y34131D01*
X873160Y34197D01*
X872971Y34242D01*
X872783Y34286D01*
X872583Y34308D01*
X872372Y34319D01*
D02*
G37*
G36*
X1136786Y37367D02*
X1136686D01*
X1136586Y37356D01*
X1136453Y37345D01*
X1136286Y37323D01*
X1136120Y37279D01*
X1135931Y37234D01*
X1135754Y37168D01*
X1135776Y37157D01*
X1135831Y37112D01*
X1135931Y37057D01*
X1136053Y36990D01*
X1136209Y36923D01*
X1136375Y36846D01*
X1136564Y36779D01*
X1136764Y36724D01*
X1136508Y35991D01*
X1136497D01*
X1136464Y36002D01*
X1136420Y36013D01*
X1136364Y36035D01*
X1136286Y36058D01*
X1136198Y36091D01*
X1135998Y36169D01*
X1135765Y36280D01*
X1135521Y36402D01*
X1135287Y36546D01*
X1135054Y36724D01*
X1135043Y36713D01*
X1135010Y36690D01*
X1134966Y36635D01*
X1134910Y36568D01*
X1134844Y36479D01*
X1134766Y36379D01*
X1134688Y36257D01*
X1134599Y36113D01*
X1134522Y35947D01*
X1134444Y35758D01*
X1134366Y35558D01*
X1134300Y35347D01*
X1134233Y35103D01*
X1134189Y34848D01*
X1134166Y34570D01*
X1134155Y34271D01*
Y34260D01*
Y34226D01*
Y34182D01*
Y34115D01*
X1134166Y34026D01*
Y33938D01*
X1134177Y33827D01*
X1134200Y33716D01*
X1134233Y33460D01*
X1134288Y33183D01*
X1134366Y32905D01*
X1134477Y32639D01*
Y32628D01*
X1134488Y32606D01*
X1134510Y32572D01*
X1134533Y32528D01*
X1134610Y32395D01*
X1134710Y32239D01*
X1134844Y32062D01*
X1135010Y31884D01*
X1135199Y31707D01*
X1135410Y31551D01*
X1135421D01*
X1135432Y31529D01*
X1135465Y31518D01*
X1135521Y31484D01*
X1135576Y31462D01*
X1135643Y31429D01*
X1135809Y31351D01*
X1136009Y31285D01*
X1136242Y31218D01*
X1136508Y31174D01*
X1136786Y31163D01*
X1136897D01*
X1136975Y31174D01*
X1137075Y31185D01*
X1137186Y31207D01*
X1137308Y31229D01*
X1137441Y31263D01*
X1137596Y31307D01*
X1137740Y31351D01*
X1137896Y31418D01*
X1138062Y31496D01*
X1138218Y31584D01*
X1138373Y31695D01*
X1138529Y31806D01*
X1138673Y31951D01*
X1138684Y31962D01*
X1138706Y31984D01*
X1138739Y32028D01*
X1138784Y32095D01*
X1138850Y32173D01*
X1138906Y32273D01*
X1138973Y32395D01*
X1139039Y32528D01*
X1139117Y32683D01*
X1139184Y32861D01*
X1139239Y33050D01*
X1139295Y33261D01*
X1139350Y33482D01*
X1139383Y33727D01*
X1139406Y33993D01*
X1139417Y34271D01*
Y34293D01*
Y34337D01*
Y34415D01*
X1139406Y34515D01*
X1139394Y34637D01*
X1139372Y34781D01*
X1139350Y34948D01*
X1139328Y35114D01*
X1139239Y35491D01*
X1139184Y35680D01*
X1139106Y35869D01*
X1139028Y36058D01*
X1138928Y36235D01*
X1138817Y36413D01*
X1138684Y36568D01*
X1138673Y36579D01*
X1138651Y36602D01*
X1138606Y36646D01*
X1138551Y36690D01*
X1138473Y36757D01*
X1138384Y36823D01*
X1138284Y36890D01*
X1138162Y36968D01*
X1138040Y37046D01*
X1137896Y37112D01*
X1137740Y37179D01*
X1137574Y37245D01*
X1137385Y37290D01*
X1137197Y37334D01*
X1136997Y37356D01*
X1136786Y37367D01*
D02*
G37*
%LPD*%
M02*
