G04*
G04 #@! TF.GenerationSoftware,Altium Limited,Altium Designer,24.5.2 (23)*
G04*
G04 Layer_Physical_Order=1*
G04 Layer_Color=255*
%FSLAX44Y44*%
%MOMM*%
G71*
G04*
G04 #@! TF.SameCoordinates,0473F374-8EFB-4349-BF45-46FBFAAC11BD*
G04*
G04*
G04 #@! TF.FilePolarity,Positive*
G04*
G01*
G75*
%ADD13C,0.5080*%
%ADD42C,1.9900*%
%ADD43R,1.9900X1.9900*%
%ADD46R,1.9900X1.9900*%
%ADD48C,1.2700*%
%ADD49C,0.7620*%
%ADD50C,1.0000*%
%ADD51C,2.0320*%
%ADD52C,1.0160*%
%ADD53C,1.9000*%
%ADD54C,5.0000*%
%ADD55C,2.2800*%
%ADD56R,2.2800X2.2800*%
%ADD57C,1.5000*%
%ADD58R,1.5000X1.5000*%
%ADD59R,1.5000X1.5000*%
%ADD60C,1.4000*%
%ADD61C,1.3180*%
%ADD62R,1.3180X1.3180*%
%ADD63R,1.3180X1.3180*%
%ADD64C,1.2380*%
%ADD65R,1.2380X1.2380*%
%ADD66R,2.4000X2.4000*%
%ADD67C,2.4000*%
%ADD68R,1.8600X1.8600*%
%ADD69C,1.8600*%
%ADD70R,1.1300X1.1300*%
%ADD71C,1.1300*%
%ADD72C,1.4480*%
%ADD73R,1.4480X1.4480*%
%ADD74O,2.2000X3.0000*%
%ADD75C,1.6002*%
%ADD76R,1.6002X1.6002*%
%ADD77C,1.2700*%
G36*
X1513840Y330200D02*
X1479059D01*
X1478087Y332547D01*
X1478280Y332740D01*
Y441960D01*
X1447800D01*
X1442720Y447040D01*
Y1188720D01*
X1319460D01*
X1319411Y1188805D01*
X1317075Y1191141D01*
X1314213Y1192793D01*
X1311022Y1193648D01*
X1307718D01*
X1304527Y1192793D01*
X1301665Y1191141D01*
X1299329Y1188805D01*
X1299280Y1188720D01*
X1102486D01*
X1100971Y1191345D01*
X1098635Y1193681D01*
X1095773Y1195333D01*
X1092582Y1196188D01*
X1089278D01*
X1086087Y1195333D01*
X1083225Y1193681D01*
X1080889Y1191345D01*
X1079374Y1188720D01*
X1028700D01*
Y1214120D01*
X1162802D01*
X1164772Y1212982D01*
X1167163Y1212342D01*
X1169637D01*
X1172028Y1212982D01*
X1172996Y1213542D01*
X1303504D01*
X1304473Y1212982D01*
X1306863Y1212342D01*
X1309337D01*
X1311727Y1212982D01*
X1312696Y1213542D01*
X1382244D01*
X1383212Y1212982D01*
X1385603Y1212342D01*
X1388077D01*
X1390468Y1212982D01*
X1392438Y1214120D01*
X1437640D01*
Y1219200D01*
Y1354354D01*
X1440180Y1356006D01*
X1442084Y1355496D01*
X1445388D01*
X1448579Y1356351D01*
X1451441Y1358003D01*
X1453777Y1360339D01*
X1455429Y1363201D01*
X1456284Y1366392D01*
Y1369696D01*
X1455429Y1372887D01*
X1453777Y1375749D01*
X1451441Y1378085D01*
X1448579Y1379737D01*
X1445388Y1380592D01*
X1442084D01*
X1440180Y1380082D01*
X1437640Y1381734D01*
Y1389796D01*
X1440180Y1391194D01*
X1442592Y1390548D01*
X1445896D01*
X1449087Y1391403D01*
X1451949Y1393055D01*
X1454285Y1395391D01*
X1455937Y1398253D01*
X1456792Y1401444D01*
Y1404748D01*
X1455937Y1407939D01*
X1454285Y1410801D01*
X1451949Y1413137D01*
X1449087Y1414789D01*
X1445896Y1415644D01*
X1442592D01*
X1440180Y1414998D01*
X1437640Y1416396D01*
Y1442720D01*
Y1447800D01*
X1513840D01*
Y330200D01*
D02*
G37*
G36*
X1369253Y1000953D02*
X1362964Y994664D01*
Y457200D01*
X1339342D01*
Y1003300D01*
X1368281D01*
X1369253Y1000953D01*
D02*
G37*
G36*
X1268476Y274320D02*
X1219200D01*
X1216660Y276860D01*
Y812800D01*
Y817880D01*
X1016000D01*
Y863600D01*
X1268476D01*
Y274320D01*
D02*
G37*
G36*
X1432560Y292100D02*
X1511300D01*
Y10160D01*
X1506220Y5080D01*
X760677D01*
X760477Y7620D01*
X760948Y7695D01*
X765147Y9059D01*
X769080Y11063D01*
X772652Y13658D01*
X775774Y16780D01*
X778369Y20352D01*
X780373Y24285D01*
X781737Y28484D01*
X782428Y32845D01*
Y37259D01*
X781737Y41620D01*
X780373Y45819D01*
X778369Y49752D01*
X775774Y53324D01*
X772652Y56446D01*
X769080Y59041D01*
X765147Y61045D01*
X760948Y62409D01*
X756587Y63100D01*
X752173D01*
X747812Y62409D01*
X743613Y61045D01*
X739680Y59041D01*
X736108Y56446D01*
X732986Y53324D01*
X730391Y49752D01*
X728387Y45819D01*
X727023Y41620D01*
X726332Y37259D01*
Y32845D01*
X727023Y28484D01*
X728387Y24285D01*
X730391Y20352D01*
X732986Y16780D01*
X736108Y13658D01*
X739680Y11063D01*
X743613Y9059D01*
X747812Y7695D01*
X748283Y7620D01*
X748083Y5080D01*
X536569D01*
X536369Y7620D01*
X538444Y7949D01*
X542643Y9313D01*
X546576Y11317D01*
X550148Y13912D01*
X553270Y17034D01*
X555865Y20606D01*
X557869Y24539D01*
X559233Y28738D01*
X559924Y33099D01*
Y37513D01*
X559233Y41874D01*
X557869Y46073D01*
X555865Y50006D01*
X553270Y53578D01*
X550148Y56700D01*
X546576Y59295D01*
X542643Y61299D01*
X538444Y62663D01*
X534083Y63354D01*
X529669D01*
X525308Y62663D01*
X521109Y61299D01*
X517176Y59295D01*
X513604Y56700D01*
X510482Y53578D01*
X507887Y50006D01*
X505883Y46073D01*
X504519Y41874D01*
X503828Y37513D01*
Y33099D01*
X504519Y28738D01*
X505883Y24539D01*
X507887Y20606D01*
X510482Y17034D01*
X513604Y13912D01*
X517176Y11317D01*
X521109Y9313D01*
X525308Y7949D01*
X527383Y7620D01*
X527183Y5080D01*
X7620D01*
Y127000D01*
X66743D01*
Y99060D01*
X66979Y97270D01*
X67670Y95601D01*
X68769Y94169D01*
X81983Y80955D01*
Y26694D01*
X81380Y26091D01*
X80142Y23948D01*
X79502Y21557D01*
Y19083D01*
X80142Y16693D01*
X81380Y14549D01*
X83130Y12800D01*
X85273Y11562D01*
X87663Y10922D01*
X90137D01*
X92528Y11562D01*
X94670Y12800D01*
X96420Y14549D01*
X97657Y16693D01*
X98298Y19083D01*
Y21557D01*
X97657Y23948D01*
X96420Y26091D01*
X95817Y26694D01*
Y83820D01*
X95582Y85610D01*
X94890Y87279D01*
X93791Y88711D01*
X80577Y101925D01*
Y127000D01*
X156983D01*
Y123190D01*
X157259Y121089D01*
X157734Y119942D01*
X158070Y119131D01*
X159360Y117450D01*
X173330Y103480D01*
X175011Y102190D01*
X176969Y101379D01*
X179070Y101103D01*
X247320D01*
X248423Y100000D01*
Y86600D01*
X247592Y85162D01*
X246952Y82771D01*
Y80297D01*
X247592Y77906D01*
X248829Y75764D01*
X250579Y74014D01*
X252722Y72776D01*
X255112Y72136D01*
X257587D01*
X259977Y72776D01*
X262120Y74014D01*
X263870Y75764D01*
X265107Y77906D01*
X265748Y80297D01*
Y82771D01*
X265107Y85162D01*
X264657Y85940D01*
Y103362D01*
X264381Y105463D01*
X263906Y106610D01*
X263570Y107421D01*
X262280Y109102D01*
X256422Y114960D01*
X254741Y116250D01*
X253930Y116586D01*
X252783Y117061D01*
X250682Y117337D01*
X182432D01*
X175310Y124460D01*
X176362Y127000D01*
X310583D01*
Y101925D01*
X297827Y89169D01*
X289612D01*
X288107Y90037D01*
X285717Y90678D01*
X283243D01*
X280853Y90037D01*
X278710Y88800D01*
X276960Y87051D01*
X275723Y84908D01*
X275082Y82517D01*
Y80043D01*
X275723Y77653D01*
X276960Y75510D01*
X278710Y73760D01*
X280853Y72523D01*
X283243Y71882D01*
X285717D01*
X288107Y72523D01*
X290250Y73760D01*
X291826Y75335D01*
X300692D01*
X302482Y75571D01*
X304151Y76262D01*
X305583Y77361D01*
X322391Y94169D01*
X323490Y95601D01*
X324182Y97270D01*
X324417Y99060D01*
Y127000D01*
X343603D01*
Y118134D01*
X343000Y117530D01*
X341763Y115387D01*
X341122Y112997D01*
Y110523D01*
X341763Y108132D01*
X343000Y105990D01*
X344749Y104240D01*
X346893Y103003D01*
X349283Y102362D01*
X351757D01*
X354147Y103003D01*
X356291Y104240D01*
X358040Y105990D01*
X359277Y108132D01*
X359918Y110523D01*
Y112997D01*
X359277Y115387D01*
X358040Y117530D01*
X357437Y118134D01*
Y127000D01*
X409643D01*
Y115594D01*
X409040Y114991D01*
X407803Y112847D01*
X407162Y110457D01*
Y107983D01*
X407803Y105592D01*
X409040Y103449D01*
X410789Y101700D01*
X412933Y100463D01*
X415323Y99822D01*
X417797D01*
X420187Y100463D01*
X422331Y101700D01*
X424080Y103449D01*
X425317Y105592D01*
X425958Y107983D01*
Y110457D01*
X425317Y112847D01*
X424080Y114991D01*
X423477Y115594D01*
Y127000D01*
X436987D01*
X437447Y126401D01*
Y123926D01*
X438087Y121536D01*
X439324Y119393D01*
X441074Y117643D01*
X443217Y116406D01*
X445607Y115765D01*
X448082D01*
X450472Y116406D01*
X452615Y117643D01*
X454365Y119393D01*
X455602Y121536D01*
X456242Y123926D01*
Y126401D01*
X456702Y127000D01*
X536867D01*
X537840Y124653D01*
X533016Y119830D01*
X532163D01*
X529772Y119189D01*
X527630Y117952D01*
X525880Y116202D01*
X524642Y114059D01*
X524002Y111669D01*
Y109194D01*
X524642Y106804D01*
X525880Y104661D01*
X527630Y102911D01*
X529772Y101674D01*
X532163Y101033D01*
X534637D01*
X537028Y101674D01*
X539170Y102911D01*
X540920Y104661D01*
X542158Y106804D01*
X542798Y109194D01*
Y110047D01*
X559751Y127000D01*
X683404D01*
Y115340D01*
X681397Y114181D01*
X679061Y111845D01*
X677409Y108983D01*
X676554Y105792D01*
Y102488D01*
X677409Y99297D01*
X679061Y96435D01*
X681397Y94099D01*
X684259Y92447D01*
X687450Y91592D01*
X690754D01*
X693945Y92447D01*
X696807Y94099D01*
X699143Y96435D01*
X700795Y99297D01*
X701650Y102488D01*
Y102670D01*
X704190Y103175D01*
X704235Y103067D01*
X706352Y100308D01*
X709111Y98191D01*
X712324Y96860D01*
X715772Y96406D01*
X719220Y96860D01*
X722433Y98191D01*
X725192Y100308D01*
X727309Y103067D01*
X728640Y106280D01*
X728827Y107696D01*
X739703D01*
X739890Y107619D01*
X741680Y107383D01*
X820420D01*
X822210Y107619D01*
X823879Y108309D01*
X825311Y109409D01*
X842902Y127000D01*
X850499D01*
X851471Y124653D01*
X836044Y109226D01*
X834948Y107798D01*
X834008D01*
X830817Y106943D01*
X827955Y105291D01*
X825619Y102955D01*
X823967Y100093D01*
X823112Y96902D01*
Y93598D01*
X823967Y90407D01*
X825619Y87545D01*
X827955Y85209D01*
X830817Y83557D01*
X834008Y82702D01*
X837312D01*
X840503Y83557D01*
X843365Y85209D01*
X845701Y87545D01*
X847353Y90407D01*
X848208Y93598D01*
Y96902D01*
X847353Y100093D01*
X847091Y100547D01*
X847206Y100824D01*
X873382Y127000D01*
X940503D01*
Y112625D01*
X934406Y106528D01*
X933068D01*
X929877Y105673D01*
X927015Y104021D01*
X924679Y101685D01*
X923027Y98823D01*
X922172Y95632D01*
Y92328D01*
X923027Y89137D01*
X924679Y86275D01*
X927015Y83939D01*
X929877Y82287D01*
X933068Y81432D01*
X936372D01*
X939563Y82287D01*
X942425Y83939D01*
X944761Y86275D01*
X946413Y89137D01*
X947268Y92328D01*
Y95632D01*
X946413Y98823D01*
X946359Y98916D01*
X952311Y104868D01*
X953410Y106301D01*
X954101Y107969D01*
X954337Y109759D01*
Y127000D01*
X1068773D01*
Y105745D01*
X1067985Y105291D01*
X1065649Y102955D01*
X1063997Y100093D01*
X1063142Y96902D01*
Y93598D01*
X1063997Y90407D01*
X1065649Y87545D01*
X1067985Y85209D01*
X1070847Y83557D01*
X1074038Y82702D01*
X1077342D01*
X1080533Y83557D01*
X1083395Y85209D01*
X1085731Y87545D01*
X1087383Y90407D01*
X1088238Y93598D01*
Y96902D01*
X1087383Y100093D01*
X1085731Y102955D01*
X1083395Y105291D01*
X1082607Y105745D01*
Y127000D01*
X1404874D01*
Y812800D01*
X1432560D01*
Y292100D01*
D02*
G37*
%LPC*%
G36*
X1477129Y1415168D02*
X1474351D01*
X1471669Y1414449D01*
X1469263Y1413060D01*
X1467299Y1411097D01*
X1465911Y1408691D01*
X1465192Y1406009D01*
Y1403231D01*
X1465911Y1400549D01*
X1467299Y1398143D01*
X1469263Y1396180D01*
X1471669Y1394791D01*
X1474351Y1394072D01*
X1477129D01*
X1479811Y1394791D01*
X1482217Y1396180D01*
X1484180Y1398143D01*
X1485569Y1400549D01*
X1486288Y1403231D01*
Y1406009D01*
X1485569Y1408691D01*
X1484180Y1411097D01*
X1482217Y1413060D01*
X1479811Y1414449D01*
X1477129Y1415168D01*
D02*
G37*
G36*
Y1389768D02*
X1474351D01*
X1471669Y1389049D01*
X1469263Y1387661D01*
X1467299Y1385697D01*
X1465911Y1383291D01*
X1465192Y1380609D01*
Y1377831D01*
X1465911Y1375149D01*
X1467299Y1372743D01*
X1469263Y1370780D01*
X1471669Y1369391D01*
X1474351Y1368672D01*
X1477129D01*
X1479811Y1369391D01*
X1482217Y1370780D01*
X1484180Y1372743D01*
X1485569Y1375149D01*
X1486288Y1377831D01*
Y1380609D01*
X1485569Y1383291D01*
X1484180Y1385697D01*
X1482217Y1387661D01*
X1479811Y1389049D01*
X1477129Y1389768D01*
D02*
G37*
G36*
Y1364368D02*
X1474351D01*
X1471669Y1363649D01*
X1469263Y1362260D01*
X1467299Y1360297D01*
X1465911Y1357891D01*
X1465192Y1355209D01*
Y1352431D01*
X1465911Y1349749D01*
X1467299Y1347343D01*
X1469263Y1345379D01*
X1471669Y1343991D01*
X1474351Y1343272D01*
X1477129D01*
X1479811Y1343991D01*
X1482217Y1345379D01*
X1484180Y1347343D01*
X1485569Y1349749D01*
X1486288Y1352431D01*
Y1355209D01*
X1485569Y1357891D01*
X1484180Y1360297D01*
X1482217Y1362260D01*
X1479811Y1363649D01*
X1477129Y1364368D01*
D02*
G37*
G36*
Y1288168D02*
X1474351D01*
X1471669Y1287449D01*
X1469263Y1286060D01*
X1467299Y1284097D01*
X1465911Y1281691D01*
X1465192Y1279009D01*
Y1276231D01*
X1465911Y1273549D01*
X1467299Y1271143D01*
X1469263Y1269180D01*
X1471669Y1267791D01*
X1474351Y1267072D01*
X1477129D01*
X1479811Y1267791D01*
X1482217Y1269180D01*
X1484180Y1271143D01*
X1485569Y1273549D01*
X1486288Y1276231D01*
Y1279009D01*
X1485569Y1281691D01*
X1484180Y1284097D01*
X1482217Y1286060D01*
X1479811Y1287449D01*
X1477129Y1288168D01*
D02*
G37*
G36*
Y1262768D02*
X1474351D01*
X1471669Y1262049D01*
X1469263Y1260660D01*
X1467299Y1258697D01*
X1465911Y1256291D01*
X1465192Y1253609D01*
Y1250831D01*
X1465911Y1248149D01*
X1467299Y1245743D01*
X1469263Y1243780D01*
X1471669Y1242391D01*
X1474351Y1241672D01*
X1477129D01*
X1479811Y1242391D01*
X1482217Y1243780D01*
X1484180Y1245743D01*
X1485569Y1248149D01*
X1486288Y1250831D01*
Y1253609D01*
X1485569Y1256291D01*
X1484180Y1258697D01*
X1482217Y1260660D01*
X1479811Y1262049D01*
X1477129Y1262768D01*
D02*
G37*
G36*
Y1237368D02*
X1474351D01*
X1471669Y1236649D01*
X1469263Y1235260D01*
X1467299Y1233297D01*
X1465911Y1230891D01*
X1465192Y1228209D01*
Y1225431D01*
X1465911Y1222749D01*
X1467299Y1220343D01*
X1469263Y1218380D01*
X1471669Y1216991D01*
X1474351Y1216272D01*
X1477129D01*
X1479811Y1216991D01*
X1482217Y1218380D01*
X1484180Y1220343D01*
X1485569Y1222749D01*
X1486288Y1225431D01*
Y1228209D01*
X1485569Y1230891D01*
X1484180Y1233297D01*
X1482217Y1235260D01*
X1479811Y1236649D01*
X1477129Y1237368D01*
D02*
G37*
G36*
X1486288Y993528D02*
X1465192D01*
Y972432D01*
X1486288D01*
Y993528D01*
D02*
G37*
G36*
X1477129Y968128D02*
X1474351D01*
X1471669Y967409D01*
X1469263Y966021D01*
X1467299Y964057D01*
X1465911Y961651D01*
X1465192Y958969D01*
Y956191D01*
X1465911Y953509D01*
X1467299Y951103D01*
X1469263Y949139D01*
X1471669Y947751D01*
X1474351Y947032D01*
X1477129D01*
X1479811Y947751D01*
X1482217Y949139D01*
X1484180Y951103D01*
X1485569Y953509D01*
X1486288Y956191D01*
Y958969D01*
X1485569Y961651D01*
X1484180Y964057D01*
X1482217Y966021D01*
X1479811Y967409D01*
X1477129Y968128D01*
D02*
G37*
G36*
Y942728D02*
X1474351D01*
X1471669Y942009D01*
X1469263Y940620D01*
X1467299Y938657D01*
X1465911Y936251D01*
X1465192Y933569D01*
Y930791D01*
X1465911Y928109D01*
X1467299Y925703D01*
X1469263Y923739D01*
X1471669Y922351D01*
X1474351Y921632D01*
X1477129D01*
X1479811Y922351D01*
X1482217Y923739D01*
X1484180Y925703D01*
X1485569Y928109D01*
X1486288Y930791D01*
Y933569D01*
X1485569Y936251D01*
X1484180Y938657D01*
X1482217Y940620D01*
X1479811Y942009D01*
X1477129Y942728D01*
D02*
G37*
G36*
Y917328D02*
X1474351D01*
X1471669Y916609D01*
X1469263Y915220D01*
X1467299Y913257D01*
X1465911Y910851D01*
X1465192Y908169D01*
Y905391D01*
X1465911Y902709D01*
X1467299Y900303D01*
X1469263Y898339D01*
X1471669Y896951D01*
X1474351Y896232D01*
X1477129D01*
X1479811Y896951D01*
X1482217Y898339D01*
X1484180Y900303D01*
X1485569Y902709D01*
X1486288Y905391D01*
Y908169D01*
X1485569Y910851D01*
X1484180Y913257D01*
X1482217Y915220D01*
X1479811Y916609D01*
X1477129Y917328D01*
D02*
G37*
G36*
X1486288Y808108D02*
X1465192D01*
Y787012D01*
X1486288D01*
Y808108D01*
D02*
G37*
G36*
X1477129Y782708D02*
X1474351D01*
X1471669Y781989D01*
X1469263Y780601D01*
X1467299Y778637D01*
X1465911Y776231D01*
X1465192Y773549D01*
Y770771D01*
X1465911Y768089D01*
X1467299Y765683D01*
X1469263Y763719D01*
X1471669Y762331D01*
X1474351Y761612D01*
X1477129D01*
X1479811Y762331D01*
X1482217Y763719D01*
X1484180Y765683D01*
X1485569Y768089D01*
X1486288Y770771D01*
Y773549D01*
X1485569Y776231D01*
X1484180Y778637D01*
X1482217Y780601D01*
X1479811Y781989D01*
X1477129Y782708D01*
D02*
G37*
G36*
Y757308D02*
X1474351D01*
X1471669Y756589D01*
X1469263Y755201D01*
X1467299Y753237D01*
X1465911Y750831D01*
X1465192Y748149D01*
Y745371D01*
X1465911Y742689D01*
X1467299Y740283D01*
X1469263Y738319D01*
X1471669Y736931D01*
X1474351Y736212D01*
X1477129D01*
X1479811Y736931D01*
X1482217Y738319D01*
X1484180Y740283D01*
X1485569Y742689D01*
X1486288Y745371D01*
Y748149D01*
X1485569Y750831D01*
X1484180Y753237D01*
X1482217Y755201D01*
X1479811Y756589D01*
X1477129Y757308D01*
D02*
G37*
G36*
X1486288Y693808D02*
X1465192D01*
Y672712D01*
X1486288D01*
Y693808D01*
D02*
G37*
G36*
X1477129Y668408D02*
X1474351D01*
X1471669Y667689D01*
X1469263Y666301D01*
X1467299Y664337D01*
X1465911Y661931D01*
X1465192Y659249D01*
Y656471D01*
X1465911Y653789D01*
X1467299Y651383D01*
X1469263Y649419D01*
X1471669Y648031D01*
X1474351Y647312D01*
X1477129D01*
X1479811Y648031D01*
X1482217Y649419D01*
X1484180Y651383D01*
X1485569Y653789D01*
X1486288Y656471D01*
Y659249D01*
X1485569Y661931D01*
X1484180Y664337D01*
X1482217Y666301D01*
X1479811Y667689D01*
X1477129Y668408D01*
D02*
G37*
G36*
Y643008D02*
X1474351D01*
X1471669Y642289D01*
X1469263Y640900D01*
X1467299Y638937D01*
X1465911Y636531D01*
X1465192Y633849D01*
Y631071D01*
X1465911Y628389D01*
X1467299Y625983D01*
X1469263Y624020D01*
X1471669Y622631D01*
X1474351Y621912D01*
X1477129D01*
X1479811Y622631D01*
X1482217Y624020D01*
X1484180Y625983D01*
X1485569Y628389D01*
X1486288Y631071D01*
Y633849D01*
X1485569Y636531D01*
X1484180Y638937D01*
X1482217Y640900D01*
X1479811Y642289D01*
X1477129Y643008D01*
D02*
G37*
G36*
X1475388Y533048D02*
X1450692D01*
Y508352D01*
X1455871D01*
X1456551Y505812D01*
X1455458Y505181D01*
X1453159Y502882D01*
X1451534Y500066D01*
X1450692Y496926D01*
Y493674D01*
X1451534Y490534D01*
X1453159Y487718D01*
X1455458Y485419D01*
X1458274Y483793D01*
X1461414Y482952D01*
X1464666D01*
X1467806Y483793D01*
X1470622Y485419D01*
X1472921Y487718D01*
X1474547Y490534D01*
X1475388Y493674D01*
Y496926D01*
X1474547Y500066D01*
X1472921Y502882D01*
X1470622Y505181D01*
X1469529Y505812D01*
X1470209Y508352D01*
X1475388D01*
Y533048D01*
D02*
G37*
G36*
X1424302Y197074D02*
X1420498D01*
X1416823Y196089D01*
X1413529Y194187D01*
X1410839Y191497D01*
X1408937Y188203D01*
X1407952Y184528D01*
Y180724D01*
X1408937Y177049D01*
X1410839Y173755D01*
X1413529Y171065D01*
X1416823Y169163D01*
X1420498Y168178D01*
X1424302D01*
X1427977Y169163D01*
X1431271Y171065D01*
X1433961Y173755D01*
X1435863Y177049D01*
X1436848Y180724D01*
Y184528D01*
X1435863Y188203D01*
X1433961Y191497D01*
X1431271Y194187D01*
X1427977Y196089D01*
X1424302Y197074D01*
D02*
G37*
G36*
X591694Y117958D02*
X588390D01*
X585199Y117103D01*
X582337Y115451D01*
X580001Y113115D01*
X578349Y110253D01*
X577494Y107062D01*
Y103758D01*
X578349Y100567D01*
X580001Y97705D01*
X582337Y95369D01*
X585199Y93717D01*
X588390Y92862D01*
X591694D01*
X594885Y93717D01*
X597747Y95369D01*
X600083Y97705D01*
X601735Y100567D01*
X602590Y103758D01*
Y107062D01*
X601735Y110253D01*
X600083Y113115D01*
X597747Y115451D01*
X594885Y117103D01*
X591694Y117958D01*
D02*
G37*
G36*
X1176402Y106528D02*
X1173098D01*
X1169907Y105673D01*
X1167045Y104021D01*
X1164709Y101685D01*
X1163057Y98823D01*
X1162202Y95632D01*
Y92328D01*
X1163057Y89137D01*
X1164709Y86275D01*
X1167045Y83939D01*
X1169907Y82287D01*
X1173098Y81432D01*
X1176402D01*
X1179593Y82287D01*
X1182455Y83939D01*
X1184791Y86275D01*
X1186443Y89137D01*
X1187298Y92328D01*
Y95632D01*
X1186443Y98823D01*
X1184791Y101685D01*
X1182455Y104021D01*
X1179593Y105673D01*
X1176402Y106528D01*
D02*
G37*
G36*
X52922Y63818D02*
X49618D01*
X46427Y62963D01*
X43565Y61311D01*
X41229Y58975D01*
X39577Y56113D01*
X38722Y52922D01*
Y49618D01*
X39577Y46427D01*
X41229Y43565D01*
X43565Y41229D01*
X46427Y39577D01*
X49618Y38722D01*
X52922D01*
X56113Y39577D01*
X58975Y41229D01*
X61311Y43565D01*
X62963Y46427D01*
X63818Y49618D01*
Y52922D01*
X62963Y56113D01*
X61311Y58975D01*
X58975Y61311D01*
X56113Y62963D01*
X52922Y63818D01*
D02*
G37*
G36*
X1344422Y66175D02*
X1340755Y65692D01*
X1337337Y64277D01*
X1334403Y62025D01*
X1332151Y59091D01*
X1330736Y55673D01*
X1330253Y52006D01*
Y44006D01*
X1330736Y40339D01*
X1332151Y36921D01*
X1334403Y33987D01*
X1337337Y31735D01*
X1340755Y30320D01*
X1344422Y29837D01*
X1348089Y30320D01*
X1351507Y31735D01*
X1354441Y33987D01*
X1356693Y36921D01*
X1358108Y40339D01*
X1358591Y44006D01*
Y52006D01*
X1358108Y55673D01*
X1356693Y59091D01*
X1354441Y62025D01*
X1351507Y64277D01*
X1348089Y65692D01*
X1344422Y66175D01*
D02*
G37*
G36*
X1476376Y53950D02*
X1473072D01*
X1469881Y53095D01*
X1467019Y51443D01*
X1464683Y49107D01*
X1463031Y46245D01*
X1462176Y43054D01*
Y39750D01*
X1463031Y36559D01*
X1464683Y33697D01*
X1467019Y31361D01*
X1469881Y29709D01*
X1473072Y28854D01*
X1476376D01*
X1479567Y29709D01*
X1482429Y31361D01*
X1484765Y33697D01*
X1486417Y36559D01*
X1487272Y39750D01*
Y43054D01*
X1486417Y46245D01*
X1484765Y49107D01*
X1482429Y51443D01*
X1479567Y53095D01*
X1476376Y53950D01*
D02*
G37*
G36*
X1178858Y51098D02*
X1152862D01*
Y25102D01*
X1178858D01*
Y51098D01*
D02*
G37*
G36*
X1116771D02*
X1113349D01*
X1110043Y50212D01*
X1107079Y48501D01*
X1104659Y46081D01*
X1102948Y43117D01*
X1102062Y39811D01*
Y36389D01*
X1102948Y33083D01*
X1104659Y30119D01*
X1107079Y27699D01*
X1110043Y25988D01*
X1113349Y25102D01*
X1116771D01*
X1120077Y25988D01*
X1123041Y27699D01*
X1125461Y30119D01*
X1127172Y33083D01*
X1128058Y36389D01*
Y39811D01*
X1127172Y43117D01*
X1125461Y46081D01*
X1123041Y48501D01*
X1120077Y50212D01*
X1116771Y51098D01*
D02*
G37*
G36*
X914444Y48050D02*
X888448D01*
Y22054D01*
X914444D01*
Y48050D01*
D02*
G37*
G36*
X852357D02*
X848935D01*
X845629Y47164D01*
X842665Y45453D01*
X840245Y43033D01*
X838534Y40069D01*
X837648Y36763D01*
Y33341D01*
X838534Y30035D01*
X840245Y27071D01*
X842665Y24651D01*
X845629Y22940D01*
X848935Y22054D01*
X852357D01*
X855663Y22940D01*
X858627Y24651D01*
X861047Y27071D01*
X862758Y30035D01*
X863644Y33341D01*
Y36763D01*
X862758Y40069D01*
X861047Y43033D01*
X858627Y45453D01*
X855663Y47164D01*
X852357Y48050D01*
D02*
G37*
G36*
X671112D02*
X645116D01*
Y22054D01*
X671112D01*
Y48050D01*
D02*
G37*
G36*
X609025D02*
X605603D01*
X602297Y47164D01*
X599333Y45453D01*
X596913Y43033D01*
X595202Y40069D01*
X594316Y36763D01*
Y33341D01*
X595202Y30035D01*
X596913Y27071D01*
X599333Y24651D01*
X602297Y22940D01*
X605603Y22054D01*
X609025D01*
X612331Y22940D01*
X615295Y24651D01*
X617715Y27071D01*
X619426Y30035D01*
X620312Y33341D01*
Y36763D01*
X619426Y40069D01*
X617715Y43033D01*
X615295Y45453D01*
X612331Y47164D01*
X609025Y48050D01*
D02*
G37*
G36*
X283075Y42552D02*
X280297D01*
X277615Y41833D01*
X275209Y40444D01*
X273246Y38481D01*
X271857Y36075D01*
X271138Y33393D01*
Y30615D01*
X271857Y27933D01*
X273246Y25527D01*
X275209Y23563D01*
X277615Y22175D01*
X280297Y21456D01*
X283075D01*
X285757Y22175D01*
X288163Y23563D01*
X290126Y25527D01*
X291515Y27933D01*
X292234Y30615D01*
Y33393D01*
X291515Y36075D01*
X290126Y38481D01*
X288163Y40444D01*
X285757Y41833D01*
X283075Y42552D01*
D02*
G37*
G36*
X257675D02*
X254897D01*
X252215Y41833D01*
X249809Y40444D01*
X247845Y38481D01*
X246457Y36075D01*
X245738Y33393D01*
Y30615D01*
X246457Y27933D01*
X247845Y25527D01*
X249809Y23563D01*
X252215Y22175D01*
X254897Y21456D01*
X257675D01*
X260357Y22175D01*
X262763Y23563D01*
X264727Y25527D01*
X266115Y27933D01*
X266834Y30615D01*
Y33393D01*
X266115Y36075D01*
X264727Y38481D01*
X262763Y40444D01*
X260357Y41833D01*
X257675Y42552D01*
D02*
G37*
G36*
X232275D02*
X229497D01*
X226815Y41833D01*
X224409Y40444D01*
X222446Y38481D01*
X221057Y36075D01*
X220338Y33393D01*
Y30615D01*
X221057Y27933D01*
X222446Y25527D01*
X224409Y23563D01*
X226815Y22175D01*
X229497Y21456D01*
X232275D01*
X234957Y22175D01*
X237363Y23563D01*
X239326Y25527D01*
X240715Y27933D01*
X241434Y30615D01*
Y33393D01*
X240715Y36075D01*
X239326Y38481D01*
X237363Y40444D01*
X234957Y41833D01*
X232275Y42552D01*
D02*
G37*
G36*
X206875D02*
X204097D01*
X201415Y41833D01*
X199009Y40444D01*
X197045Y38481D01*
X195657Y36075D01*
X194938Y33393D01*
Y30615D01*
X195657Y27933D01*
X197045Y25527D01*
X199009Y23563D01*
X201415Y22175D01*
X204097Y21456D01*
X206875D01*
X209557Y22175D01*
X211963Y23563D01*
X213927Y25527D01*
X215315Y27933D01*
X216034Y30615D01*
Y33393D01*
X215315Y36075D01*
X213927Y38481D01*
X211963Y40444D01*
X209557Y41833D01*
X206875Y42552D01*
D02*
G37*
G36*
X181475D02*
X178697D01*
X176015Y41833D01*
X173609Y40444D01*
X171646Y38481D01*
X170257Y36075D01*
X169538Y33393D01*
Y30615D01*
X170257Y27933D01*
X171646Y25527D01*
X173609Y23563D01*
X176015Y22175D01*
X178697Y21456D01*
X181475D01*
X184157Y22175D01*
X186563Y23563D01*
X188526Y25527D01*
X189915Y27933D01*
X190634Y30615D01*
Y33393D01*
X189915Y36075D01*
X188526Y38481D01*
X186563Y40444D01*
X184157Y41833D01*
X181475Y42552D01*
D02*
G37*
G36*
X165234D02*
X144138D01*
Y21456D01*
X165234D01*
Y42552D01*
D02*
G37*
G36*
X1034971Y65132D02*
X1030557D01*
X1026196Y64441D01*
X1021997Y63077D01*
X1018064Y61073D01*
X1014492Y58478D01*
X1011370Y55356D01*
X1008775Y51784D01*
X1006771Y47851D01*
X1005407Y43652D01*
X1004716Y39291D01*
Y34877D01*
X1005407Y30516D01*
X1006771Y26317D01*
X1008775Y22384D01*
X1011370Y18812D01*
X1014492Y15690D01*
X1018064Y13095D01*
X1021997Y11091D01*
X1026196Y9727D01*
X1030557Y9036D01*
X1034971D01*
X1039332Y9727D01*
X1043531Y11091D01*
X1047464Y13095D01*
X1051036Y15690D01*
X1054158Y18812D01*
X1056753Y22384D01*
X1058757Y26317D01*
X1060121Y30516D01*
X1060812Y34877D01*
Y39291D01*
X1060121Y43652D01*
X1058757Y47851D01*
X1056753Y51784D01*
X1054158Y55356D01*
X1051036Y58478D01*
X1047464Y61073D01*
X1043531Y63077D01*
X1039332Y64441D01*
X1034971Y65132D01*
D02*
G37*
%LPD*%
D13*
X689102Y104140D02*
Y136398D01*
X657860Y167640D02*
Y309372D01*
Y167640D02*
X689102Y136398D01*
X1026668Y1107440D02*
X1109980D01*
X1009904Y1124204D02*
Y1231392D01*
Y1124204D02*
X1026668Y1107440D01*
X1020572Y1242060D02*
X1351280D01*
X1009904Y1231392D02*
X1020572Y1242060D01*
X916940Y345440D02*
Y345440D01*
Y302260D02*
Y345440D01*
X899668Y362712D02*
X916940Y345440D01*
X899668Y396240D02*
X899668Y362712D01*
X657860Y309372D02*
X658368Y309880D01*
X1109980Y1107440D02*
X1120140Y1097280D01*
D42*
X683514Y237424D02*
D03*
Y212024D02*
D03*
X632714Y35052D02*
D03*
X607314D02*
D03*
X918718Y212024D02*
D03*
Y237424D02*
D03*
X1132840Y236220D02*
D03*
Y210820D02*
D03*
X876046Y35052D02*
D03*
X850646D02*
D03*
X1115060Y38100D02*
D03*
X1140460D02*
D03*
D43*
X683514Y186624D02*
D03*
X918718D02*
D03*
X1132840Y185420D02*
D03*
D46*
X658114Y35052D02*
D03*
X901446D02*
D03*
X1165860Y38100D02*
D03*
D48*
X1384808Y952500D02*
X1389634Y957326D01*
X1384808Y530352D02*
Y952500D01*
Y530352D02*
X1389380Y525780D01*
X560832Y207090D02*
Y539750D01*
X711962Y690880D02*
Y737108D01*
X560832Y539750D02*
X711962Y690880D01*
X99060Y699770D02*
Y751332D01*
X48260Y535940D02*
Y648970D01*
X99060Y699770D01*
Y751332D02*
X99314Y751586D01*
X709902Y533160D02*
X721120D01*
X721360Y533400D01*
X702462Y525720D02*
X709902Y533160D01*
X702462Y466644D02*
Y525720D01*
X795020Y167640D02*
X812800Y149860D01*
X795020Y167640D02*
Y332740D01*
X375920Y243840D02*
Y401501D01*
X383359Y408940D02*
X399888D01*
X375920Y401501D02*
X383359Y408940D01*
X715772Y109728D02*
X716280Y109220D01*
X715772Y178191D02*
X716280Y178699D01*
X560832Y207090D02*
X562182Y205740D01*
X375920Y243840D02*
X391160Y228600D01*
Y180340D02*
Y228600D01*
X744220Y289560D02*
Y317500D01*
X716280Y261620D02*
X744220Y289560D01*
X716280Y213360D02*
Y261620D01*
X1043940Y1203960D02*
X1313236D01*
X1318316Y1198880D01*
X1379220D01*
X960120Y1229360D02*
Y1409700D01*
X1381760Y1201420D02*
X1475740D01*
X1379220Y1198880D02*
X1381760Y1201420D01*
X261620Y617220D02*
X265430Y621030D01*
X261620Y535940D02*
Y617220D01*
X265430Y621030D02*
Y651510D01*
X264160Y652780D02*
X265430Y651510D01*
X1310640Y657860D02*
Y777240D01*
X48260Y322580D02*
Y396240D01*
Y157480D02*
Y322580D01*
X704088Y401828D02*
Y465018D01*
X702462Y466644D02*
X704088Y465018D01*
X668020Y365760D02*
X704088Y401828D01*
X668020Y332740D02*
Y365760D01*
X48260Y396240D02*
Y467360D01*
Y535940D01*
D49*
X908050Y1168400D02*
X932180D01*
X881380Y1141730D02*
X908050Y1168400D01*
X881380Y970280D02*
Y1141730D01*
X429260Y502337D02*
Y612394D01*
X460756Y643890D01*
Y655828D01*
X575818Y576580D02*
X694690Y695452D01*
X513080Y576580D02*
X575818D01*
X694690Y695452D02*
Y1290320D01*
X731520Y686816D02*
Y974927D01*
X576580Y531876D02*
X731520Y686816D01*
X576580Y294640D02*
Y531876D01*
X628904Y565404D02*
X752602Y689102D01*
X628904Y378565D02*
Y565404D01*
X752602Y689102D02*
Y1339342D01*
X502920Y596900D02*
X576072D01*
X668274Y689102D02*
Y1258824D01*
X576072Y596900D02*
X668274Y689102D01*
X573532Y614680D02*
X643382Y684530D01*
X487680Y614680D02*
X573532D01*
X643382Y684530D02*
Y1322324D01*
X615696Y401171D02*
Y510286D01*
X615188Y510794D02*
X615696Y510286D01*
X612096Y397571D02*
X615696Y401171D01*
X602996Y445262D02*
Y485902D01*
X602488Y486410D02*
X602996Y485902D01*
X856996Y535940D02*
X904240D01*
X843280Y302260D02*
Y522224D01*
X856996Y535940D01*
X950468Y515112D02*
X1000760Y464820D01*
X912289Y515112D02*
X950468D01*
X1000760Y276860D02*
Y464820D01*
X1285240Y638302D02*
X1295400Y628142D01*
X1285240Y638302D02*
Y746760D01*
X1295400Y289560D02*
Y628142D01*
X722122Y984325D02*
X731520Y974927D01*
X722122Y984325D02*
Y1274572D01*
X798830Y1245108D02*
X798957Y1244981D01*
Y974471D02*
X799084Y974344D01*
X798957Y974471D02*
Y1244981D01*
X143510Y775970D02*
X218440Y850900D01*
X143510Y585470D02*
Y775970D01*
X303530Y755650D02*
X314960Y767080D01*
X210566Y740664D02*
X225552Y755650D01*
X303530D01*
X210566Y628600D02*
Y740664D01*
X197612Y755904D02*
X216408Y774700D01*
X233680D01*
X197612Y637794D02*
Y755904D01*
X934847Y603123D02*
Y813181D01*
X933958Y602234D02*
X934847Y603123D01*
X1082548Y790702D02*
X1094740Y778510D01*
X958342Y790702D02*
X1082548D01*
X1094740Y538480D02*
Y778510D01*
X460052Y187257D02*
X474980Y202184D01*
X460052Y139700D02*
Y187257D01*
X474980Y202184D02*
Y231140D01*
X752348Y1339596D02*
X752602Y1339342D01*
X642874Y1322832D02*
X643382Y1322324D01*
X619760Y680720D02*
Y1389888D01*
X571500Y632460D02*
X619760Y680720D01*
X822960Y289813D02*
Y1118108D01*
X872788Y1167936D02*
Y1200448D01*
X822960Y1118108D02*
X872788Y1167936D01*
X947420Y553720D02*
X958342Y564642D01*
Y790702D01*
X355854Y282194D02*
Y449681D01*
X359092Y452919D01*
X907825Y510648D02*
X912289Y515112D01*
X907825Y497340D02*
Y510648D01*
X1021080Y270764D02*
Y568198D01*
X1041908Y438550D02*
X1046372Y434086D01*
X1063752D01*
X1041908Y438550D02*
Y602742D01*
X197358Y637540D02*
X197612Y637794D01*
X210566Y628600D02*
X216662Y622504D01*
X158750Y770890D02*
X241300Y853440D01*
X158750Y613664D02*
X190500Y581914D01*
X158750Y613664D02*
Y770890D01*
X203454Y499227D02*
Y596900D01*
X175768Y624586D02*
Y765048D01*
Y624586D02*
X203454Y596900D01*
X190500Y480060D02*
Y581914D01*
X175768Y765048D02*
X264160Y853440D01*
X190500Y480060D02*
X196342Y474218D01*
X216662Y510540D02*
Y622504D01*
X196342Y157734D02*
Y474218D01*
X203454Y499227D02*
X213360Y489321D01*
X196342Y157734D02*
X211582Y142494D01*
X1195070Y293370D02*
Y618236D01*
X1170940Y269240D02*
X1195070Y293370D01*
X772160Y150167D02*
Y320040D01*
X756517Y136652D02*
X764643Y144779D01*
X766772D02*
X772160Y150167D01*
X755142Y136652D02*
X756517D01*
X764643Y144779D02*
X766772D01*
X735315Y120665D02*
Y163766D01*
Y120665D02*
X741680Y114300D01*
X820420D01*
X735315Y163766D02*
X736600Y165051D01*
Y175260D01*
X106299Y210947D02*
Y622173D01*
Y210947D02*
X106426Y210820D01*
X106172Y622300D02*
X106299Y622173D01*
X121158Y229870D02*
X121920Y230632D01*
Y728980D01*
X934720Y881634D02*
X934974Y881888D01*
Y916686D01*
X625856Y375517D02*
X628904Y378565D01*
X625856Y374142D02*
Y375517D01*
X640080Y231140D02*
Y232515D01*
X643128Y235563D02*
Y561848D01*
X774700Y693420D01*
X640080Y232515D02*
X643128Y235563D01*
X601472Y407924D02*
Y443738D01*
X602996Y445262D01*
X611124Y390398D02*
X612096Y391370D01*
Y397571D01*
X1065022Y323206D02*
Y325882D01*
X1051560Y309744D02*
X1065022Y323206D01*
X947420Y534924D02*
Y553720D01*
X945134Y532638D02*
X947420Y534924D01*
X883920Y147320D02*
Y452120D01*
X835660Y98329D02*
X840935Y103604D01*
Y104335D01*
X835660Y95250D02*
Y98329D01*
X840935Y104335D02*
X883920Y147320D01*
X562668Y139700D02*
X612140D01*
X533400Y110431D02*
X562668Y139700D01*
X612140D02*
X624840Y152400D01*
X947420Y297180D02*
X960120Y309880D01*
X947420Y109759D02*
Y297180D01*
X934720Y97059D02*
X947420Y109759D01*
X934720Y93980D02*
Y97059D01*
X960120Y309880D02*
Y439420D01*
X947420Y452120D02*
X960120Y439420D01*
X944372Y350520D02*
Y403460D01*
X925830Y407924D02*
X939908D01*
X944372Y403460D01*
X932180Y338328D02*
X944372Y350520D01*
X932180Y317500D02*
Y338328D01*
X1007872Y257556D02*
X1021080Y270764D01*
X820420Y114300D02*
X863600Y157480D01*
Y281940D01*
X71120Y426720D02*
X83820D01*
X88900Y421640D01*
Y238760D02*
Y421640D01*
X835152Y276860D02*
Y277621D01*
X822960Y289813D02*
X835152Y277621D01*
X1051560Y236220D02*
Y309744D01*
X1170940Y185420D02*
Y269240D01*
X883920Y452120D02*
X896426Y464626D01*
X843280Y302260D02*
X863600Y281940D01*
X1074420Y497840D02*
Y518160D01*
Y497840D02*
X1099820Y472440D01*
Y287020D02*
Y472440D01*
X1075690Y95250D02*
Y262890D01*
X1074420Y518160D02*
X1094740Y538480D01*
X1075690Y262890D02*
X1099820Y287020D01*
X495300Y558800D02*
X513080Y576580D01*
X495300Y453761D02*
Y558800D01*
X482600Y576580D02*
X502920Y596900D01*
X468884Y595884D02*
X487680Y614680D01*
X468884Y454269D02*
Y595884D01*
X452120Y609600D02*
X474980Y632460D01*
X571500D01*
X452120Y304800D02*
Y609600D01*
X307340Y165100D02*
X317500Y154940D01*
Y99060D02*
Y154940D01*
X300692Y82252D02*
X317500Y99060D01*
X285452Y82252D02*
X300692D01*
X307340Y165100D02*
Y180340D01*
X73660Y99060D02*
X88900Y83820D01*
Y20320D02*
Y83820D01*
X73660Y223520D02*
X88900Y238760D01*
X73660Y99060D02*
Y223520D01*
X218440Y850900D02*
Y975360D01*
X241300Y853440D02*
Y995680D01*
X264160Y853440D02*
Y1064260D01*
X478536Y281940D02*
Y426837D01*
X446844Y253804D02*
X465328Y272288D01*
X477520Y427853D02*
X478536Y426837D01*
X465328Y272288D02*
Y434340D01*
X624840Y152400D02*
Y337820D01*
X744220Y347980D02*
X772160Y320040D01*
X774700Y693420D02*
Y1305560D01*
X587248Y415619D02*
X589788Y418159D01*
Y459740D01*
X587248Y375412D02*
Y415619D01*
Y375412D02*
X624840Y337820D01*
X58420Y749300D02*
Y789940D01*
X15240Y706120D02*
X58420Y749300D01*
X314960Y767080D02*
Y889000D01*
X15240Y353060D02*
Y706120D01*
X211582Y142494D02*
X274066D01*
X274320Y142240D01*
X294640D01*
X907094Y464626D02*
X908812Y466344D01*
X896426Y464626D02*
X907094D01*
X744220Y347980D02*
Y459740D01*
X446844Y125163D02*
Y253804D01*
X416560Y109220D02*
Y283134D01*
X402260Y297434D02*
X416560Y283134D01*
X402260Y297434D02*
Y376555D01*
X418592Y330708D02*
Y495375D01*
X434340Y358140D02*
Y497257D01*
X478536Y428869D02*
Y444617D01*
X468884Y454269D02*
X478536Y444617D01*
X477520Y427853D02*
X478536Y428869D01*
X340360Y474980D02*
Y577850D01*
X388620Y495300D02*
Y563880D01*
X381000Y487680D02*
X388620Y495300D01*
X370840Y553720D02*
Y625348D01*
X340360Y577850D02*
X345440Y582930D01*
Y612140D01*
X359092Y452919D02*
Y541972D01*
X370840Y553720D01*
X741680Y492760D02*
Y617220D01*
X754888Y475488D02*
Y588772D01*
X754380Y474980D02*
X754888Y475488D01*
X418592Y330708D02*
X419100Y330200D01*
X408940Y505027D02*
X418592Y495375D01*
X429260Y502337D02*
X434340Y497257D01*
X408940Y505027D02*
Y653288D01*
X872788Y1200448D02*
X873760Y1201420D01*
X881380Y970280D02*
X934974Y916686D01*
X815848Y180340D02*
Y259080D01*
X284480Y81280D02*
X285452Y82252D01*
X337820Y226060D02*
X350520Y213360D01*
Y111760D02*
Y213360D01*
X337820Y226060D02*
Y436880D01*
X320040Y314960D02*
Y451729D01*
X323088Y454777D02*
Y639379D01*
X320040Y451729D02*
X323088Y454777D01*
X482092Y459740D02*
X482600Y460248D01*
X492760Y451221D02*
X495300Y453761D01*
X482600Y460248D02*
Y576580D01*
X213360Y358140D02*
Y489321D01*
X688340Y458252D02*
Y567182D01*
X690880Y569722D01*
Y588772D01*
X675640Y436880D02*
Y452273D01*
X675132Y452781D02*
Y571500D01*
Y452781D02*
X675640Y452273D01*
X660400Y421640D02*
Y556260D01*
X289560Y567690D02*
Y586740D01*
Y567690D02*
X292100Y565150D01*
Y513080D02*
Y565150D01*
X1203960Y919480D02*
Y1064260D01*
X309626Y460755D02*
Y583946D01*
X309880Y584200D01*
X309372Y460501D02*
X309626Y460755D01*
X492760Y408940D02*
Y451221D01*
D50*
X79257Y726449D02*
Y771643D01*
X30734Y566420D02*
Y677926D01*
X79257Y726449D01*
X165100Y123190D02*
Y180340D01*
X179070Y109220D02*
X250682D01*
X165100Y123190D02*
X179070Y109220D01*
X17780Y314960D02*
X30734Y327914D01*
Y566420D01*
X256350Y82591D02*
X256540Y82781D01*
Y103362D01*
X256350Y81534D02*
Y82591D01*
X1351280Y515620D02*
Y980471D01*
X1349756Y981995D02*
Y982726D01*
Y981995D02*
X1351280Y980471D01*
Y515620D02*
X1366520Y500380D01*
X1389380D01*
X576580Y180340D02*
Y271780D01*
X594360Y289560D01*
X17780Y254000D02*
Y314960D01*
X78740Y772160D02*
X79257Y771643D01*
X594360Y289560D02*
Y332740D01*
X1386840Y1221740D02*
Y1414780D01*
X1320800Y1480820D02*
X1386840Y1414780D01*
X250682Y109220D02*
X256540Y103362D01*
X17780Y180340D02*
Y254000D01*
D51*
X715772Y109728D02*
Y178191D01*
X791451Y73260D02*
X792169Y72542D01*
X845066D01*
X736414Y71120D02*
X738554Y73260D01*
X845066Y72542D02*
X845676Y73152D01*
X738554Y73260D02*
X791451D01*
X869188Y73152D02*
X876300Y66040D01*
X845676Y73152D02*
X869188D01*
X347980Y78740D02*
X624747D01*
X632367Y71120D01*
X327660Y58420D02*
X347980Y78740D01*
X972820Y121920D02*
X988060Y106680D01*
X972820Y121920D02*
Y279400D01*
X981295Y287875D01*
X121920Y75403D02*
Y185420D01*
X142240Y205740D02*
Y497840D01*
X121920Y185420D02*
X142240Y205740D01*
X632367Y71120D02*
X736414D01*
X876300Y66040D02*
X878840Y68580D01*
X952500D02*
X962152Y78232D01*
X876300Y66040D02*
X876300D01*
X878840Y68580D02*
X952500D01*
X716280Y178699D02*
Y213360D01*
X1419860Y289560D02*
Y797560D01*
Y289560D02*
X1463040Y246380D01*
X1236980Y736600D02*
Y828837D01*
Y360680D02*
Y736600D01*
X981295Y287875D02*
Y433324D01*
X988060Y78232D02*
Y106680D01*
Y78232D02*
X1050798D01*
X962152D02*
X988060D01*
X138903Y58420D02*
X327660D01*
X121920Y75403D02*
X138903Y58420D01*
X1026160Y840740D02*
X1225077D01*
X1236980Y828837D01*
X1050798Y78232D02*
X1060450Y68580D01*
X1143000D01*
X1239520D01*
X1262380Y91440D02*
X1293622D01*
X1239520Y68580D02*
X1262380Y91440D01*
X1498600Y721360D02*
Y1430020D01*
Y607060D02*
Y721360D01*
X1463040Y78740D02*
Y246380D01*
X1498600Y469900D02*
Y607060D01*
Y360680D02*
Y469900D01*
D52*
X1308100Y1221740D02*
X1386840D01*
X1168400D02*
X1308100D01*
D53*
X51270Y51270D02*
D03*
X1474724Y41402D02*
D03*
X119126Y814578D02*
D03*
X144526D02*
D03*
X119126Y839978D02*
D03*
X144526D02*
D03*
X119126Y865378D02*
D03*
X144526D02*
D03*
X119126Y890778D02*
D03*
X144526D02*
D03*
X119126Y916178D02*
D03*
X144526D02*
D03*
X119126Y941578D02*
D03*
X144526D02*
D03*
X119126Y966978D02*
D03*
X144526D02*
D03*
X119126Y992378D02*
D03*
X144526D02*
D03*
X119126Y1017778D02*
D03*
X144526D02*
D03*
X119126Y1043178D02*
D03*
X144526D02*
D03*
X119126Y1068578D02*
D03*
X144526D02*
D03*
X119126Y1093978D02*
D03*
X144526D02*
D03*
X119126Y1119378D02*
D03*
X144526D02*
D03*
X119126Y1144778D02*
D03*
X144526D02*
D03*
X119126Y1170178D02*
D03*
X144526D02*
D03*
X229616Y704850D02*
D03*
Y679450D02*
D03*
X255016Y704850D02*
D03*
Y679450D02*
D03*
X280416Y704850D02*
D03*
Y679450D02*
D03*
X305816Y704850D02*
D03*
Y679450D02*
D03*
X331216Y704850D02*
D03*
Y679450D02*
D03*
X356616Y704850D02*
D03*
Y679450D02*
D03*
X382016Y704850D02*
D03*
Y679450D02*
D03*
X407416Y704850D02*
D03*
Y679450D02*
D03*
X432816Y704850D02*
D03*
Y679450D02*
D03*
X458216Y704850D02*
D03*
Y679450D02*
D03*
X483616Y704850D02*
D03*
Y679450D02*
D03*
X509016Y704850D02*
D03*
Y679450D02*
D03*
X534416Y704850D02*
D03*
Y679450D02*
D03*
X559816Y704850D02*
D03*
Y679450D02*
D03*
X585216Y704850D02*
D03*
Y679450D02*
D03*
X1386586Y1175258D02*
D03*
X1385316Y1076198D02*
D03*
X1427734Y1174750D02*
D03*
X1426464Y1075690D02*
D03*
X1444244Y1403096D02*
D03*
X1345184Y1404366D02*
D03*
X1443736Y1368044D02*
D03*
X1344676Y1369314D02*
D03*
X1131570Y955040D02*
D03*
X1132840Y1054100D02*
D03*
X1163574Y1053846D02*
D03*
X1162304Y954786D02*
D03*
X1089660Y1084580D02*
D03*
X1090930Y1183640D02*
D03*
X1089660Y1056640D02*
D03*
X1088390Y957580D02*
D03*
X1266190Y1170940D02*
D03*
X1264920Y1071880D02*
D03*
X1349502Y1076452D02*
D03*
X1350772Y1175512D02*
D03*
X1308100Y1082040D02*
D03*
X1309370Y1181100D02*
D03*
X720090Y375412D02*
D03*
X721360Y474472D02*
D03*
X1209040Y254000D02*
D03*
X1207770Y154940D02*
D03*
X1006602Y158496D02*
D03*
X1007872Y257556D02*
D03*
X601726Y171196D02*
D03*
X602996Y270256D02*
D03*
X1065022Y325882D02*
D03*
X1164082Y324612D02*
D03*
X1174750Y93980D02*
D03*
X1075690Y95250D02*
D03*
X934720Y93980D02*
D03*
X835660Y95250D02*
D03*
X689102Y104140D02*
D03*
X590042Y105410D02*
D03*
X1163320Y472440D02*
D03*
X1064260Y473710D02*
D03*
X1064768Y364490D02*
D03*
X1163828Y363220D02*
D03*
X1163066Y397002D02*
D03*
X1064006Y398272D02*
D03*
X1063752Y434086D02*
D03*
X1162812Y432816D02*
D03*
X1166876Y548132D02*
D03*
X1067816Y549402D02*
D03*
X515620Y535940D02*
D03*
X541020Y180340D02*
D03*
X515620D02*
D03*
X541020Y205740D02*
D03*
X515620D02*
D03*
X541020Y231140D02*
D03*
X515620D02*
D03*
X541020Y256540D02*
D03*
X515620D02*
D03*
X541020Y281940D02*
D03*
X515620D02*
D03*
X541020Y307340D02*
D03*
X515620D02*
D03*
X541020Y332740D02*
D03*
X515620D02*
D03*
X541020Y358140D02*
D03*
X515620D02*
D03*
X541020Y383540D02*
D03*
X515620D02*
D03*
X541020Y408940D02*
D03*
X515620D02*
D03*
X541020Y434340D02*
D03*
X515620D02*
D03*
X541020Y459740D02*
D03*
X515620D02*
D03*
X541020Y485140D02*
D03*
X515620D02*
D03*
X541020Y510540D02*
D03*
X515620D02*
D03*
X541020Y535940D02*
D03*
X261620Y180340D02*
D03*
Y205740D02*
D03*
X236220Y180340D02*
D03*
Y205740D02*
D03*
X261620Y231140D02*
D03*
X236220D02*
D03*
X261620Y256540D02*
D03*
X236220D02*
D03*
X261620Y281940D02*
D03*
X236220D02*
D03*
X261620Y307340D02*
D03*
X236220D02*
D03*
X261620Y332740D02*
D03*
X236220D02*
D03*
X261620Y358140D02*
D03*
X236220D02*
D03*
X261620Y383540D02*
D03*
X236220D02*
D03*
X261620Y408940D02*
D03*
X236220D02*
D03*
X261620Y434340D02*
D03*
X236220D02*
D03*
X261620Y459740D02*
D03*
X236220D02*
D03*
X261620Y485140D02*
D03*
X236220D02*
D03*
X261620Y510540D02*
D03*
X236220D02*
D03*
X261620Y535940D02*
D03*
X236220D02*
D03*
D54*
X531876Y35306D02*
D03*
X754380Y35052D02*
D03*
X1032764Y37084D02*
D03*
D55*
X1422400Y182626D02*
D03*
D56*
Y28956D02*
D03*
D57*
X1475740Y1277620D02*
D03*
Y1252220D02*
D03*
Y1226820D02*
D03*
Y1404620D02*
D03*
Y1379220D02*
D03*
Y1353820D02*
D03*
Y721360D02*
D03*
Y746760D02*
D03*
Y772160D02*
D03*
Y657860D02*
D03*
Y632460D02*
D03*
Y607060D02*
D03*
Y957580D02*
D03*
Y932180D02*
D03*
Y906780D02*
D03*
X180086Y32004D02*
D03*
X205486D02*
D03*
X230886D02*
D03*
X256286D02*
D03*
X281686D02*
D03*
D58*
X1475740Y1201420D02*
D03*
Y1430020D02*
D03*
Y797560D02*
D03*
Y683260D02*
D03*
Y982980D02*
D03*
D59*
X154686Y32004D02*
D03*
D60*
X70180Y536575D02*
D03*
X170180Y535940D02*
D03*
X70180Y285115D02*
D03*
X170180Y284480D02*
D03*
Y566420D02*
D03*
X70180Y567055D02*
D03*
X168326Y253873D02*
D03*
X68326Y254508D02*
D03*
X302260Y375920D02*
D03*
X402260Y376555D02*
D03*
X71120Y322453D02*
D03*
X171120Y321818D02*
D03*
X838962Y258026D02*
D03*
X838327Y158026D02*
D03*
X171120Y467106D02*
D03*
X71120Y467741D02*
D03*
Y395986D02*
D03*
X171120Y395351D02*
D03*
X749808Y258026D02*
D03*
X749173Y158026D02*
D03*
X71120Y497840D02*
D03*
X171120Y497205D02*
D03*
X71120Y353060D02*
D03*
X171120Y352425D02*
D03*
X302260Y408940D02*
D03*
X402260Y409575D02*
D03*
X71120Y426720D02*
D03*
X171120Y426085D02*
D03*
D61*
X1382522Y1463802D02*
D03*
X1351280Y1270000D02*
D03*
X970534Y532638D02*
D03*
X721360Y508000D02*
D03*
X934212Y466344D02*
D03*
X721360Y332740D02*
D03*
X925830Y382524D02*
D03*
X1389380Y500380D02*
D03*
X1353820Y360680D02*
D03*
X1100582Y510540D02*
D03*
D62*
X1407922Y1463802D02*
D03*
X1325880Y1270000D02*
D03*
X945134Y532638D02*
D03*
X908812Y466344D02*
D03*
X695960Y332740D02*
D03*
X1125982Y510540D02*
D03*
D63*
X721360Y533400D02*
D03*
X925830Y407924D02*
D03*
X1389380Y525780D02*
D03*
X1353820Y335280D02*
D03*
D64*
X1002631Y495046D02*
D03*
X981295Y433324D02*
D03*
X787561Y355600D02*
D03*
D65*
X927261Y495046D02*
D03*
X905925Y433324D02*
D03*
X862931Y355600D02*
D03*
D66*
X1300760Y142240D02*
D03*
D67*
X1335760D02*
D03*
D68*
X1463040Y520700D02*
D03*
D69*
Y495300D02*
D03*
Y469900D02*
D03*
D70*
X1151890Y1085012D02*
D03*
D71*
X1177290D02*
D03*
X1202690D02*
D03*
X1228090D02*
D03*
Y1164412D02*
D03*
X1202690D02*
D03*
X1177290D02*
D03*
X1151890D02*
D03*
D72*
X1463040Y360680D02*
D03*
Y335280D02*
D03*
D73*
Y309880D02*
D03*
D74*
X1221486Y1474216D02*
D03*
X1272286D02*
D03*
X1103376Y1473962D02*
D03*
X1154176D02*
D03*
X1293622Y48006D02*
D03*
X1344422D02*
D03*
D75*
X908812Y1480820D02*
D03*
X934212D02*
D03*
X959612D02*
D03*
X985012D02*
D03*
X908812Y1201420D02*
D03*
X934212D02*
D03*
X959612D02*
D03*
X960374Y841756D02*
D03*
X934974D02*
D03*
X909574D02*
D03*
X985774Y1121156D02*
D03*
X960374D02*
D03*
X934974D02*
D03*
X909574D02*
D03*
D76*
X985012Y1201420D02*
D03*
X985774Y841756D02*
D03*
D77*
X615188Y510794D02*
D03*
X602488Y486410D02*
D03*
X1389634Y957326D02*
D03*
X722122Y1274572D02*
D03*
X798830Y1245108D02*
D03*
X460756Y655828D02*
D03*
X143510Y585470D02*
D03*
X933958Y602234D02*
D03*
X752348Y1339596D02*
D03*
X642874Y1322832D02*
D03*
X711962Y737108D02*
D03*
X694690Y1290320D02*
D03*
X668274Y1258824D02*
D03*
X619760Y1389888D02*
D03*
X256350Y81534D02*
D03*
X460052Y139700D02*
D03*
X355854Y282194D02*
D03*
X1349756Y982726D02*
D03*
X99314Y751586D02*
D03*
X30734Y566420D02*
D03*
X1021080Y568198D02*
D03*
X1041908Y602742D02*
D03*
X799084Y974344D02*
D03*
X197358Y637540D02*
D03*
X216662Y510540D02*
D03*
X1195070Y618236D02*
D03*
X755142Y136652D02*
D03*
X106426Y210820D02*
D03*
X121158Y229870D02*
D03*
X934720Y881634D02*
D03*
X934847Y813181D02*
D03*
X958342Y790702D02*
D03*
X601472Y407924D02*
D03*
X611124Y390398D02*
D03*
X625856Y374142D02*
D03*
X932180Y317500D02*
D03*
X1000760Y276860D02*
D03*
X106172Y622300D02*
D03*
X632367Y71120D02*
D03*
X876300Y66040D02*
D03*
X736600Y175260D02*
D03*
X576580Y180340D02*
D03*
X562182Y205740D02*
D03*
X1285240Y746760D02*
D03*
X1295400Y289560D02*
D03*
X1419860Y683260D02*
D03*
Y797560D02*
D03*
X835152Y276860D02*
D03*
X899668Y396240D02*
D03*
X478536Y281940D02*
D03*
X1236980Y736600D02*
D03*
X658368Y309880D02*
D03*
X589788Y459740D02*
D03*
X576580Y294640D02*
D03*
X121920Y728980D02*
D03*
X233680Y774700D02*
D03*
X78740Y772160D02*
D03*
X58420Y789940D02*
D03*
X314960Y889000D02*
D03*
X218440Y975360D02*
D03*
X241300Y995680D02*
D03*
X294640Y142240D02*
D03*
X533400Y110431D02*
D03*
X446844Y125163D02*
D03*
X416560Y109220D02*
D03*
X716280D02*
D03*
X465328Y434340D02*
D03*
X391160Y180340D02*
D03*
X340360Y474980D02*
D03*
X381000Y487680D02*
D03*
X388620Y563880D02*
D03*
X370840Y625348D02*
D03*
X345440Y612140D02*
D03*
X741680Y617220D02*
D03*
X754888Y588772D02*
D03*
X754380Y474980D02*
D03*
X744220Y317500D02*
D03*
X795020Y332740D02*
D03*
X916940Y302260D02*
D03*
X815848Y180340D02*
D03*
Y259080D02*
D03*
X284480Y81280D02*
D03*
X1026160Y840740D02*
D03*
X1236980Y360680D02*
D03*
X904240Y535940D02*
D03*
X907825Y497340D02*
D03*
X452120Y304800D02*
D03*
X947420Y452120D02*
D03*
X1170940Y185420D02*
D03*
X1351280Y815340D02*
D03*
X1051560Y236220D02*
D03*
X419100Y330200D02*
D03*
X434340Y358140D02*
D03*
X408940Y653288D02*
D03*
X337820Y436880D02*
D03*
X320040Y314960D02*
D03*
X1120140Y1097280D02*
D03*
X1351280Y1242060D02*
D03*
X1320800Y1480820D02*
D03*
X1043940Y1203960D02*
D03*
X960120Y1229360D02*
D03*
X932180Y1168400D02*
D03*
X1168400Y1221740D02*
D03*
X1386840D02*
D03*
X1308100D02*
D03*
X482092Y459740D02*
D03*
X165100Y180340D02*
D03*
X142240Y497840D02*
D03*
X1143000Y68580D02*
D03*
X1293622Y91440D02*
D03*
X690880Y588772D02*
D03*
X675132Y571500D02*
D03*
X688340Y458252D02*
D03*
X660400Y556260D02*
D03*
X264160Y652780D02*
D03*
X322580Y637540D02*
D03*
X289560Y586740D02*
D03*
X1310640Y777240D02*
D03*
Y657860D02*
D03*
X1203960Y919480D02*
D03*
X292100Y513080D02*
D03*
X309880Y584200D02*
D03*
X309372Y459740D02*
D03*
X744220D02*
D03*
X307340Y180340D02*
D03*
X213360Y358140D02*
D03*
X812800Y149860D02*
D03*
X350520Y111760D02*
D03*
X48260Y157480D02*
D03*
X873760Y1201420D02*
D03*
X960120Y1409700D02*
D03*
X1203960Y1064260D02*
D03*
X264160D02*
D03*
X660400Y421640D02*
D03*
X675640Y436880D02*
D03*
X668020Y332740D02*
D03*
X594360D02*
D03*
X88900Y20320D02*
D03*
X17780Y180340D02*
D03*
X48260Y322580D02*
D03*
Y396240D02*
D03*
Y467360D02*
D03*
Y535940D02*
D03*
X15240Y353060D02*
D03*
X17780Y254000D02*
D03*
X492760Y408940D02*
D03*
X640080Y231140D02*
D03*
X716280Y213360D02*
D03*
X1463040Y78740D02*
D03*
Y246380D02*
D03*
X741680Y492760D02*
D03*
X474980Y231140D02*
D03*
X1498600Y360680D02*
D03*
Y469900D02*
D03*
Y607060D02*
D03*
Y721360D02*
D03*
Y1430020D02*
D03*
X774700Y1305560D02*
D03*
M02*
