G04*
G04 #@! TF.GenerationSoftware,Altium Limited,Altium Designer,24.5.2 (23)*
G04*
G04 Layer_Color=16711935*
%FSLAX44Y44*%
%MOMM*%
G71*
G04*
G04 #@! TF.SameCoordinates,0473F374-8EFB-4349-BF45-46FBFAAC11BD*
G04*
G04*
G04 #@! TF.FilePolarity,Negative*
G04*
G01*
G75*
%ADD20C,2.1032*%
%ADD21C,5.2032*%
%ADD22C,2.4832*%
%ADD23R,2.4832X2.4832*%
%ADD24C,1.7032*%
%ADD25R,1.7032X1.7032*%
%ADD26R,1.7032X1.7032*%
%ADD27C,1.6032*%
%ADD28C,1.5212*%
%ADD29R,1.5212X1.5212*%
%ADD30R,1.5212X1.5212*%
%ADD31C,1.4412*%
%ADD32R,1.4412X1.4412*%
%ADD33R,2.6032X2.6032*%
%ADD34C,2.6032*%
%ADD35R,2.0632X2.0632*%
%ADD36C,2.0632*%
%ADD37R,1.3332X1.3332*%
%ADD38C,1.3332*%
%ADD39C,1.6512*%
%ADD40R,1.6512X1.6512*%
%ADD41O,2.4032X3.2032*%
%ADD42C,1.9900*%
%ADD43R,1.9900X1.9900*%
%ADD44C,1.8034*%
%ADD45R,1.8034X1.8034*%
%ADD46R,1.9900X1.9900*%
%ADD47C,1.4732*%
G04:AMPARAMS|DCode=81|XSize=2.1732mm|YSize=0.8032mm|CornerRadius=0.1766mm|HoleSize=0mm|Usage=FLASHONLY|Rotation=0.000|XOffset=0mm|YOffset=0mm|HoleType=Round|Shape=RoundedRectangle|*
%AMROUNDEDRECTD81*
21,1,2.1732,0.4500,0,0,0.0*
21,1,1.8200,0.8032,0,0,0.0*
1,1,0.3532,0.9100,-0.2250*
1,1,0.3532,-0.9100,-0.2250*
1,1,0.3532,-0.9100,0.2250*
1,1,0.3532,0.9100,0.2250*
%
%ADD81ROUNDEDRECTD81*%
G04:AMPARAMS|DCode=82|XSize=2.174mm|YSize=0.794mm|CornerRadius=0.1758mm|HoleSize=0mm|Usage=FLASHONLY|Rotation=270.000|XOffset=0mm|YOffset=0mm|HoleType=Round|Shape=RoundedRectangle|*
%AMROUNDEDRECTD82*
21,1,2.1740,0.4425,0,0,270.0*
21,1,1.8225,0.7940,0,0,270.0*
1,1,0.3515,-0.2213,-0.9113*
1,1,0.3515,-0.2213,0.9113*
1,1,0.3515,0.2213,0.9113*
1,1,0.3515,0.2213,-0.9113*
%
%ADD82ROUNDEDRECTD82*%
%ADD83R,1.8732X0.8532*%
D20*
X51270Y51270D02*
D03*
X1474724Y41402D02*
D03*
X119126Y814578D02*
D03*
X144526D02*
D03*
X119126Y839978D02*
D03*
X144526D02*
D03*
X119126Y865378D02*
D03*
X144526D02*
D03*
X119126Y890778D02*
D03*
X144526D02*
D03*
X119126Y916178D02*
D03*
X144526D02*
D03*
X119126Y941578D02*
D03*
X144526D02*
D03*
X119126Y966978D02*
D03*
X144526D02*
D03*
X119126Y992378D02*
D03*
X144526D02*
D03*
X119126Y1017778D02*
D03*
X144526D02*
D03*
X119126Y1043178D02*
D03*
X144526D02*
D03*
X119126Y1068578D02*
D03*
X144526D02*
D03*
X119126Y1093978D02*
D03*
X144526D02*
D03*
X119126Y1119378D02*
D03*
X144526D02*
D03*
X119126Y1144778D02*
D03*
X144526D02*
D03*
X119126Y1170178D02*
D03*
X144526D02*
D03*
X229616Y704850D02*
D03*
Y679450D02*
D03*
X255016Y704850D02*
D03*
Y679450D02*
D03*
X280416Y704850D02*
D03*
Y679450D02*
D03*
X305816Y704850D02*
D03*
Y679450D02*
D03*
X331216Y704850D02*
D03*
Y679450D02*
D03*
X356616Y704850D02*
D03*
Y679450D02*
D03*
X382016Y704850D02*
D03*
Y679450D02*
D03*
X407416Y704850D02*
D03*
Y679450D02*
D03*
X432816Y704850D02*
D03*
Y679450D02*
D03*
X458216Y704850D02*
D03*
Y679450D02*
D03*
X483616Y704850D02*
D03*
Y679450D02*
D03*
X509016Y704850D02*
D03*
Y679450D02*
D03*
X534416Y704850D02*
D03*
Y679450D02*
D03*
X559816Y704850D02*
D03*
Y679450D02*
D03*
X585216Y704850D02*
D03*
Y679450D02*
D03*
X1386586Y1175258D02*
D03*
X1385316Y1076198D02*
D03*
X1427734Y1174750D02*
D03*
X1426464Y1075690D02*
D03*
X1444244Y1403096D02*
D03*
X1345184Y1404366D02*
D03*
X1443736Y1368044D02*
D03*
X1344676Y1369314D02*
D03*
X1131570Y955040D02*
D03*
X1132840Y1054100D02*
D03*
X1163574Y1053846D02*
D03*
X1162304Y954786D02*
D03*
X1089660Y1084580D02*
D03*
X1090930Y1183640D02*
D03*
X1089660Y1056640D02*
D03*
X1088390Y957580D02*
D03*
X1266190Y1170940D02*
D03*
X1264920Y1071880D02*
D03*
X1349502Y1076452D02*
D03*
X1350772Y1175512D02*
D03*
X1308100Y1082040D02*
D03*
X1309370Y1181100D02*
D03*
X720090Y375412D02*
D03*
X721360Y474472D02*
D03*
X1209040Y254000D02*
D03*
X1207770Y154940D02*
D03*
X1006602Y158496D02*
D03*
X1007872Y257556D02*
D03*
X601726Y171196D02*
D03*
X602996Y270256D02*
D03*
X1065022Y325882D02*
D03*
X1164082Y324612D02*
D03*
X1174750Y93980D02*
D03*
X1075690Y95250D02*
D03*
X934720Y93980D02*
D03*
X835660Y95250D02*
D03*
X689102Y104140D02*
D03*
X590042Y105410D02*
D03*
X1163320Y472440D02*
D03*
X1064260Y473710D02*
D03*
X1064768Y364490D02*
D03*
X1163828Y363220D02*
D03*
X1163066Y397002D02*
D03*
X1064006Y398272D02*
D03*
X1063752Y434086D02*
D03*
X1162812Y432816D02*
D03*
X1166876Y548132D02*
D03*
X1067816Y549402D02*
D03*
X515620Y535940D02*
D03*
X541020Y180340D02*
D03*
X515620D02*
D03*
X541020Y205740D02*
D03*
X515620D02*
D03*
X541020Y231140D02*
D03*
X515620D02*
D03*
X541020Y256540D02*
D03*
X515620D02*
D03*
X541020Y281940D02*
D03*
X515620D02*
D03*
X541020Y307340D02*
D03*
X515620D02*
D03*
X541020Y332740D02*
D03*
X515620D02*
D03*
X541020Y358140D02*
D03*
X515620D02*
D03*
X541020Y383540D02*
D03*
X515620D02*
D03*
X541020Y408940D02*
D03*
X515620D02*
D03*
X541020Y434340D02*
D03*
X515620D02*
D03*
X541020Y459740D02*
D03*
X515620D02*
D03*
X541020Y485140D02*
D03*
X515620D02*
D03*
X541020Y510540D02*
D03*
X515620D02*
D03*
X541020Y535940D02*
D03*
X261620Y180340D02*
D03*
Y205740D02*
D03*
X236220Y180340D02*
D03*
Y205740D02*
D03*
X261620Y231140D02*
D03*
X236220D02*
D03*
X261620Y256540D02*
D03*
X236220D02*
D03*
X261620Y281940D02*
D03*
X236220D02*
D03*
X261620Y307340D02*
D03*
X236220D02*
D03*
X261620Y332740D02*
D03*
X236220D02*
D03*
X261620Y358140D02*
D03*
X236220D02*
D03*
X261620Y383540D02*
D03*
X236220D02*
D03*
X261620Y408940D02*
D03*
X236220D02*
D03*
X261620Y434340D02*
D03*
X236220D02*
D03*
X261620Y459740D02*
D03*
X236220D02*
D03*
X261620Y485140D02*
D03*
X236220D02*
D03*
X261620Y510540D02*
D03*
X236220D02*
D03*
X261620Y535940D02*
D03*
X236220D02*
D03*
D21*
X531876Y35306D02*
D03*
X754380Y35052D02*
D03*
X1032764Y37084D02*
D03*
D22*
X1422400Y182626D02*
D03*
D23*
Y28956D02*
D03*
D24*
X1475740Y1277620D02*
D03*
Y1252220D02*
D03*
Y1226820D02*
D03*
Y1404620D02*
D03*
Y1379220D02*
D03*
Y1353820D02*
D03*
Y721360D02*
D03*
Y746760D02*
D03*
Y772160D02*
D03*
Y657860D02*
D03*
Y632460D02*
D03*
Y607060D02*
D03*
Y957580D02*
D03*
Y932180D02*
D03*
Y906780D02*
D03*
X180086Y32004D02*
D03*
X205486D02*
D03*
X230886D02*
D03*
X256286D02*
D03*
X281686D02*
D03*
D25*
X1475740Y1201420D02*
D03*
Y1430020D02*
D03*
Y797560D02*
D03*
Y683260D02*
D03*
Y982980D02*
D03*
D26*
X154686Y32004D02*
D03*
D27*
X70180Y536575D02*
D03*
X170180Y535940D02*
D03*
X70180Y285115D02*
D03*
X170180Y284480D02*
D03*
Y566420D02*
D03*
X70180Y567055D02*
D03*
X168326Y253873D02*
D03*
X68326Y254508D02*
D03*
X302260Y375920D02*
D03*
X402260Y376555D02*
D03*
X71120Y322453D02*
D03*
X171120Y321818D02*
D03*
X838962Y258026D02*
D03*
X838327Y158026D02*
D03*
X171120Y467106D02*
D03*
X71120Y467741D02*
D03*
Y395986D02*
D03*
X171120Y395351D02*
D03*
X749808Y258026D02*
D03*
X749173Y158026D02*
D03*
X71120Y497840D02*
D03*
X171120Y497205D02*
D03*
X71120Y353060D02*
D03*
X171120Y352425D02*
D03*
X302260Y408940D02*
D03*
X402260Y409575D02*
D03*
X71120Y426720D02*
D03*
X171120Y426085D02*
D03*
D28*
X1382522Y1463802D02*
D03*
X1351280Y1270000D02*
D03*
X970534Y532638D02*
D03*
X721360Y508000D02*
D03*
X934212Y466344D02*
D03*
X721360Y332740D02*
D03*
X925830Y382524D02*
D03*
X1389380Y500380D02*
D03*
X1353820Y360680D02*
D03*
X1100582Y510540D02*
D03*
D29*
X1407922Y1463802D02*
D03*
X1325880Y1270000D02*
D03*
X945134Y532638D02*
D03*
X908812Y466344D02*
D03*
X695960Y332740D02*
D03*
X1125982Y510540D02*
D03*
D30*
X721360Y533400D02*
D03*
X925830Y407924D02*
D03*
X1389380Y525780D02*
D03*
X1353820Y335280D02*
D03*
D31*
X1002631Y495046D02*
D03*
X981295Y433324D02*
D03*
X787561Y355600D02*
D03*
D32*
X927261Y495046D02*
D03*
X905925Y433324D02*
D03*
X862931Y355600D02*
D03*
D33*
X1300760Y142240D02*
D03*
D34*
X1335760D02*
D03*
D35*
X1463040Y520700D02*
D03*
D36*
Y495300D02*
D03*
Y469900D02*
D03*
D37*
X1151890Y1085012D02*
D03*
D38*
X1177290D02*
D03*
X1202690D02*
D03*
X1228090D02*
D03*
Y1164412D02*
D03*
X1202690D02*
D03*
X1177290D02*
D03*
X1151890D02*
D03*
D39*
X1463040Y360680D02*
D03*
Y335280D02*
D03*
D40*
Y309880D02*
D03*
D41*
X1221486Y1474216D02*
D03*
X1272286D02*
D03*
X1103376Y1473962D02*
D03*
X1154176D02*
D03*
X1293622Y48006D02*
D03*
X1344422D02*
D03*
D42*
X683514Y237424D02*
D03*
Y212024D02*
D03*
X632714Y35052D02*
D03*
X607314D02*
D03*
X918718Y212024D02*
D03*
Y237424D02*
D03*
X1132840Y236220D02*
D03*
Y210820D02*
D03*
X876046Y35052D02*
D03*
X850646D02*
D03*
X1115060Y38100D02*
D03*
X1140460D02*
D03*
D43*
X683514Y186624D02*
D03*
X918718D02*
D03*
X1132840Y185420D02*
D03*
D44*
X908812Y1480820D02*
D03*
X934212D02*
D03*
X959612D02*
D03*
X985012D02*
D03*
X908812Y1201420D02*
D03*
X934212D02*
D03*
X959612D02*
D03*
X960374Y841756D02*
D03*
X934974D02*
D03*
X909574D02*
D03*
X985774Y1121156D02*
D03*
X960374D02*
D03*
X934974D02*
D03*
X909574D02*
D03*
D45*
X985012Y1201420D02*
D03*
X985774Y841756D02*
D03*
D46*
X658114Y35052D02*
D03*
X901446D02*
D03*
X1165860Y38100D02*
D03*
D47*
X615188Y510794D02*
D03*
X602488Y486410D02*
D03*
X1389634Y957326D02*
D03*
X722122Y1274572D02*
D03*
X798830Y1245108D02*
D03*
X460756Y655828D02*
D03*
X143510Y585470D02*
D03*
X933958Y602234D02*
D03*
X752348Y1339596D02*
D03*
X642874Y1322832D02*
D03*
X711962Y737108D02*
D03*
X694690Y1290320D02*
D03*
X668274Y1258824D02*
D03*
X619760Y1389888D02*
D03*
X256350Y81534D02*
D03*
X460052Y139700D02*
D03*
X355854Y282194D02*
D03*
X1349756Y982726D02*
D03*
X99314Y751586D02*
D03*
X30734Y566420D02*
D03*
X1021080Y568198D02*
D03*
X1041908Y602742D02*
D03*
X799084Y974344D02*
D03*
X197358Y637540D02*
D03*
X216662Y510540D02*
D03*
X1195070Y618236D02*
D03*
X755142Y136652D02*
D03*
X106426Y210820D02*
D03*
X121158Y229870D02*
D03*
X934720Y881634D02*
D03*
X934847Y813181D02*
D03*
X958342Y790702D02*
D03*
X601472Y407924D02*
D03*
X611124Y390398D02*
D03*
X625856Y374142D02*
D03*
X932180Y317500D02*
D03*
X1000760Y276860D02*
D03*
X106172Y622300D02*
D03*
X632367Y71120D02*
D03*
X876300Y66040D02*
D03*
X736600Y175260D02*
D03*
X576580Y180340D02*
D03*
X562182Y205740D02*
D03*
X1285240Y746760D02*
D03*
X1295400Y289560D02*
D03*
X1419860Y683260D02*
D03*
Y797560D02*
D03*
X835152Y276860D02*
D03*
X899668Y396240D02*
D03*
X478536Y281940D02*
D03*
X1236980Y736600D02*
D03*
X658368Y309880D02*
D03*
X589788Y459740D02*
D03*
X576580Y294640D02*
D03*
X121920Y728980D02*
D03*
X233680Y774700D02*
D03*
X78740Y772160D02*
D03*
X58420Y789940D02*
D03*
X314960Y889000D02*
D03*
X218440Y975360D02*
D03*
X241300Y995680D02*
D03*
X294640Y142240D02*
D03*
X533400Y110431D02*
D03*
X446844Y125163D02*
D03*
X416560Y109220D02*
D03*
X716280D02*
D03*
X465328Y434340D02*
D03*
X391160Y180340D02*
D03*
X340360Y474980D02*
D03*
X381000Y487680D02*
D03*
X388620Y563880D02*
D03*
X370840Y625348D02*
D03*
X345440Y612140D02*
D03*
X741680Y617220D02*
D03*
X754888Y588772D02*
D03*
X754380Y474980D02*
D03*
X744220Y317500D02*
D03*
X795020Y332740D02*
D03*
X916940Y302260D02*
D03*
X815848Y180340D02*
D03*
Y259080D02*
D03*
X284480Y81280D02*
D03*
X1026160Y840740D02*
D03*
X1236980Y360680D02*
D03*
X904240Y535940D02*
D03*
X907825Y497340D02*
D03*
X452120Y304800D02*
D03*
X947420Y452120D02*
D03*
X1170940Y185420D02*
D03*
X1351280Y815340D02*
D03*
X1051560Y236220D02*
D03*
X419100Y330200D02*
D03*
X434340Y358140D02*
D03*
X408940Y653288D02*
D03*
X337820Y436880D02*
D03*
X320040Y314960D02*
D03*
X1120140Y1097280D02*
D03*
X1351280Y1242060D02*
D03*
X1320800Y1480820D02*
D03*
X1043940Y1203960D02*
D03*
X960120Y1229360D02*
D03*
X932180Y1168400D02*
D03*
X1168400Y1221740D02*
D03*
X1386840D02*
D03*
X1308100D02*
D03*
X482092Y459740D02*
D03*
X165100Y180340D02*
D03*
X142240Y497840D02*
D03*
X1143000Y68580D02*
D03*
X1293622Y91440D02*
D03*
X690880Y588772D02*
D03*
X675132Y571500D02*
D03*
X688340Y458252D02*
D03*
X660400Y556260D02*
D03*
X264160Y652780D02*
D03*
X322580Y637540D02*
D03*
X289560Y586740D02*
D03*
X1310640Y777240D02*
D03*
Y657860D02*
D03*
X1203960Y919480D02*
D03*
X292100Y513080D02*
D03*
X309880Y584200D02*
D03*
X309372Y459740D02*
D03*
X744220D02*
D03*
X307340Y180340D02*
D03*
X213360Y358140D02*
D03*
X812800Y149860D02*
D03*
X350520Y111760D02*
D03*
X48260Y157480D02*
D03*
X873760Y1201420D02*
D03*
X960120Y1409700D02*
D03*
X1203960Y1064260D02*
D03*
X264160D02*
D03*
X660400Y421640D02*
D03*
X675640Y436880D02*
D03*
X668020Y332740D02*
D03*
X594360D02*
D03*
X88900Y20320D02*
D03*
X17780Y180340D02*
D03*
X48260Y322580D02*
D03*
Y396240D02*
D03*
Y467360D02*
D03*
Y535940D02*
D03*
X15240Y353060D02*
D03*
X17780Y254000D02*
D03*
X492760Y408940D02*
D03*
X640080Y231140D02*
D03*
X716280Y213360D02*
D03*
X1463040Y78740D02*
D03*
Y246380D02*
D03*
X741680Y492760D02*
D03*
X474980Y231140D02*
D03*
X1498600Y360680D02*
D03*
Y469900D02*
D03*
Y607060D02*
D03*
Y721360D02*
D03*
Y1430020D02*
D03*
X774700Y1305560D02*
D03*
D81*
X1300418Y1112266D02*
D03*
Y1124966D02*
D03*
Y1137666D02*
D03*
Y1150366D02*
D03*
X1349818D02*
D03*
Y1137666D02*
D03*
Y1124966D02*
D03*
Y1112266D02*
D03*
D82*
X1106678Y1416670D02*
D03*
X1119378D02*
D03*
X1132078D02*
D03*
X1144778D02*
D03*
Y1367170D02*
D03*
X1132078D02*
D03*
X1119378D02*
D03*
X1106678D02*
D03*
X1228598Y1410828D02*
D03*
X1241298D02*
D03*
X1253998D02*
D03*
X1266698D02*
D03*
Y1361328D02*
D03*
X1253998D02*
D03*
X1241298D02*
D03*
X1228598D02*
D03*
D83*
X876690Y382270D02*
D03*
Y394970D02*
D03*
Y407670D02*
D03*
Y420370D02*
D03*
Y433070D02*
D03*
Y445770D02*
D03*
Y458470D02*
D03*
Y471170D02*
D03*
Y483870D02*
D03*
Y496570D02*
D03*
Y509270D02*
D03*
Y521970D02*
D03*
Y534670D02*
D03*
Y547370D02*
D03*
X779390D02*
D03*
Y534670D02*
D03*
Y521970D02*
D03*
Y509270D02*
D03*
Y496570D02*
D03*
Y483870D02*
D03*
Y471170D02*
D03*
Y458470D02*
D03*
Y445770D02*
D03*
Y433070D02*
D03*
Y420370D02*
D03*
Y407670D02*
D03*
Y394970D02*
D03*
Y382270D02*
D03*
M02*
