G04*
G04 #@! TF.GenerationSoftware,Altium Limited,Altium Designer,24.5.2 (23)*
G04*
G04 Layer_Color=16711935*
%FSLAX44Y44*%
%MOMM*%
G71*
G04*
G04 #@! TF.SameCoordinates,0473F374-8EFB-4349-BF45-46FBFAAC11BD*
G04*
G04*
G04 #@! TF.FilePolarity,Positive*
G04*
G01*
G75*
%ADD10C,0.2000*%
%ADD11C,0.1270*%
%ADD16C,0.1524*%
%ADD84C,0.1000*%
D10*
X1423400Y12696D02*
X1421400D01*
X1423400D01*
X915946Y495046D02*
X913946D01*
X915946D01*
X894610Y433324D02*
X892610D01*
X894610D01*
X876246Y355600D02*
X874246D01*
X876246D01*
X1271760Y142240D02*
X1269760D01*
X1271760D01*
X1285718Y1108266D02*
X1283718D01*
X1285718D01*
X1464040Y553700D02*
X1462040D01*
X1464040D01*
X1152890Y1074362D02*
X1150890D01*
X1152890D01*
X1509940Y309880D02*
X1507940D01*
X1509940D01*
X1101778Y1436370D02*
X1099778D01*
X1101778D01*
X1223698Y1430528D02*
X1221698D01*
X1223698D01*
X762040Y382270D02*
X760040D01*
X762040D01*
D11*
X1358260Y142240D02*
X1358179Y144777D01*
X1357938Y147304D01*
X1357537Y149810D01*
X1356978Y152286D01*
X1356263Y154721D01*
X1355395Y157107D01*
X1354377Y159432D01*
X1353214Y161688D01*
X1351910Y163866D01*
X1350471Y165956D01*
X1348902Y167952D01*
X1347209Y169843D01*
X1345400Y171624D01*
X1343482Y173286D01*
X1341462Y174823D01*
X1339349Y176229D01*
X1337151Y177498D01*
X1334877Y178625D01*
X1332536Y179606D01*
X1330137Y180436D01*
X1327690Y181112D01*
X1325206Y181632D01*
X1322693Y181994D01*
X1320163Y182195D01*
X1317625Y182235D01*
X1315090Y182114D01*
X1312567Y181833D01*
X1310068Y181392D01*
X1307601Y180794D01*
X1305177Y180040D01*
X1302806Y179134D01*
X1300497Y178080D01*
X1298260Y176881D01*
X1296103Y175543D01*
X1294036Y174070D01*
X1292066Y172470D01*
X1290201Y170748D01*
X1288449Y168911D01*
X1286818Y166966D01*
X1285313Y164922D01*
X1283941Y162787D01*
X1282707Y160569D01*
X1281616Y158277D01*
X1280672Y155921D01*
X1279880Y153509D01*
X1279243Y151052D01*
X1278762Y148560D01*
X1278441Y146042D01*
X1278280Y143509D01*
Y140971D01*
X1278441Y138438D01*
X1278762Y135920D01*
X1279243Y133428D01*
X1279880Y130971D01*
X1280672Y128559D01*
X1281616Y126203D01*
X1282707Y123911D01*
X1283941Y121693D01*
X1285313Y119558D01*
X1286818Y117514D01*
X1288449Y115569D01*
X1290201Y113732D01*
X1292066Y112010D01*
X1294036Y110409D01*
X1296103Y108937D01*
X1298260Y107599D01*
X1300497Y106400D01*
X1302806Y105346D01*
X1305177Y104440D01*
X1307601Y103686D01*
X1310068Y103088D01*
X1312567Y102647D01*
X1315090Y102366D01*
X1317625Y102245D01*
X1320163Y102285D01*
X1322693Y102486D01*
X1325206Y102848D01*
X1327690Y103368D01*
X1330137Y104044D01*
X1332535Y104874D01*
X1334877Y105855D01*
X1337151Y106982D01*
X1339349Y108251D01*
X1341462Y109657D01*
X1343482Y111194D01*
X1345400Y112856D01*
X1347209Y114637D01*
X1348902Y116528D01*
X1350471Y118524D01*
X1351910Y120614D01*
X1353214Y122792D01*
X1354377Y125048D01*
X1355395Y127373D01*
X1356263Y129759D01*
X1356978Y132194D01*
X1357537Y134670D01*
X1357938Y137176D01*
X1358179Y139703D01*
X1358260Y142240D01*
X1422400Y149446D02*
Y162696D01*
Y47696D02*
Y65946D01*
X1397150D02*
X1422400D01*
X1447650D01*
X1422400Y149446D02*
X1447650D01*
X1397150D02*
X1422400D01*
X1447650Y65946D02*
Y149446D01*
X1397150Y65946D02*
Y149446D01*
X1376172Y1451102D02*
X1414272D01*
X1376172D02*
Y1476502D01*
X1414272D01*
Y1451102D02*
Y1476502D01*
X1319530Y1282700D02*
X1357630D01*
Y1257300D02*
Y1282700D01*
X1319530Y1257300D02*
X1357630D01*
X1319530D02*
Y1282700D01*
X938784Y519938D02*
Y545338D01*
Y519938D02*
X976884D01*
Y545338D01*
X938784D02*
X976884D01*
X734060Y501650D02*
Y539750D01*
X708660Y501650D02*
X734060D01*
X708660D02*
Y539750D01*
X734060D01*
X902462Y453644D02*
Y479044D01*
Y453644D02*
X940562D01*
Y479044D01*
X902462D02*
X940562D01*
X689610Y320040D02*
Y345440D01*
Y320040D02*
X727710D01*
Y345440D01*
X689610D02*
X727710D01*
X913130Y414274D02*
X938530D01*
X913130Y376174D02*
Y414274D01*
Y376174D02*
X938530D01*
Y414274D01*
X1402080Y494030D02*
Y532130D01*
X1376680Y494030D02*
X1402080D01*
X1376680D02*
Y532130D01*
X1402080D01*
X1341120Y328930D02*
X1366520D01*
Y367030D01*
X1341120D02*
X1366520D01*
X1341120Y328930D02*
Y367030D01*
X1132332Y497840D02*
Y523240D01*
X1094232D02*
X1132332D01*
X1094232Y497840D02*
Y523240D01*
Y497840D02*
X1132332D01*
X945921Y503646D02*
X983971D01*
Y486446D02*
Y503646D01*
X945921Y486446D02*
X983971D01*
X945921D02*
Y503646D01*
X924585Y441924D02*
X962635D01*
Y424724D02*
Y441924D01*
X924585Y424724D02*
X962635D01*
X924585D02*
Y441924D01*
X806221Y347000D02*
X844271D01*
X806221D02*
Y364200D01*
X844271D01*
Y347000D02*
Y364200D01*
X1305618Y1106791D02*
X1344618D01*
X1305618Y1155841D02*
X1344618D01*
X1305618Y1106791D02*
Y1155841D01*
X1344618Y1106791D02*
Y1155841D01*
X1444640Y548000D02*
X1491640D01*
X1444640Y442600D02*
Y548000D01*
Y442600D02*
X1491640D01*
Y548000D01*
X1142040Y1092962D02*
Y1156462D01*
X1237940Y1092962D02*
Y1156462D01*
X1142040Y1092962D02*
X1237940D01*
X1142040Y1156462D02*
X1237940D01*
X1426940Y265280D02*
Y405280D01*
X1501940Y265280D02*
Y405280D01*
X1426940Y265280D02*
X1501940D01*
X1426940Y405280D02*
X1501940D01*
X1100728Y1371920D02*
Y1411920D01*
X1150728Y1371920D02*
Y1411920D01*
X1100728D02*
X1150728D01*
X1100728Y1371920D02*
X1150728D01*
X1222648Y1366078D02*
Y1406078D01*
X1272648Y1366078D02*
Y1406078D01*
X1222648D02*
X1272648D01*
X1222648Y1366078D02*
X1272648D01*
X790540Y375320D02*
X865540D01*
Y554320D01*
X790540D02*
X865540D01*
X790540Y375320D02*
Y554320D01*
D16*
X1063752Y1178560D02*
Y1498560D01*
X844042Y1178560D02*
X1063752D01*
X844042D02*
Y1498600D01*
X1063752D01*
X844804Y1138936D02*
X1064514D01*
X844804Y818896D02*
Y1138936D01*
Y818896D02*
X1064514D01*
Y1138896D01*
D84*
X688514Y172908D02*
X687844Y175408D01*
X686014Y177238D01*
X683514Y177908D01*
X681014Y177238D01*
X679184Y175408D01*
X678514Y172908D01*
X679184Y170408D01*
X681014Y168578D01*
X683514Y167908D01*
X686014Y168578D01*
X687844Y170408D01*
X688514Y172908D01*
X676830Y35052D02*
X676160Y37552D01*
X674330Y39382D01*
X671830Y40052D01*
X669330Y39382D01*
X667500Y37552D01*
X666830Y35052D01*
X667500Y32552D01*
X669330Y30722D01*
X671830Y30052D01*
X674330Y30722D01*
X676160Y32552D01*
X676830Y35052D01*
X923718Y172908D02*
X923048Y175408D01*
X921218Y177238D01*
X918718Y177908D01*
X916218Y177238D01*
X914388Y175408D01*
X913718Y172908D01*
X914388Y170408D01*
X916218Y168578D01*
X918718Y167908D01*
X921218Y168578D01*
X923048Y170408D01*
X923718Y172908D01*
X1137840Y171704D02*
X1137170Y174204D01*
X1135340Y176034D01*
X1132840Y176704D01*
X1130340Y176034D01*
X1128510Y174204D01*
X1127840Y171704D01*
X1128510Y169204D01*
X1130340Y167374D01*
X1132840Y166704D01*
X1135340Y167374D01*
X1137170Y169204D01*
X1137840Y171704D01*
X920162Y35052D02*
X919492Y37552D01*
X917662Y39382D01*
X915162Y40052D01*
X912662Y39382D01*
X910832Y37552D01*
X910162Y35052D01*
X910832Y32552D01*
X912662Y30722D01*
X915162Y30052D01*
X917662Y30722D01*
X919492Y32552D01*
X920162Y35052D01*
X1184576Y38100D02*
X1183906Y40600D01*
X1182076Y42430D01*
X1179576Y43100D01*
X1177076Y42430D01*
X1175246Y40600D01*
X1174576Y38100D01*
X1175246Y35600D01*
X1177076Y33770D01*
X1179576Y33100D01*
X1182076Y33770D01*
X1183906Y35600D01*
X1184576Y38100D01*
X700614Y161224D02*
Y262824D01*
X654914Y161224D02*
X700614D01*
X654914D02*
Y262824D01*
X700614D01*
X581914Y6452D02*
Y52152D01*
Y6452D02*
X683514D01*
Y52152D01*
X581914D02*
X683514D01*
X890118Y262824D02*
X935818D01*
X890118Y161224D02*
Y262824D01*
Y161224D02*
X935818D01*
Y262824D01*
X1149940Y160020D02*
Y261620D01*
X1104240Y160020D02*
X1149940D01*
X1104240D02*
Y261620D01*
X1149940D01*
X825246Y6452D02*
Y52152D01*
Y6452D02*
X926846D01*
Y52152D01*
X825246D02*
X926846D01*
X1089660Y55200D02*
X1191260D01*
Y9500D02*
Y55200D01*
X1089660Y9500D02*
X1191260D01*
X1089660D02*
Y55200D01*
M02*
