G04*
G04 #@! TF.GenerationSoftware,Altium Limited,Altium Designer,25.8.1 (18)*
G04*
G04 Layer_Physical_Order=1*
G04 Layer_Color=255*
%FSLAX44Y44*%
%MOMM*%
G71*
G04*
G04 #@! TF.SameCoordinates,615BD6FC-8C97-45DB-998E-DFA11581AE0A*
G04*
G04*
G04 #@! TF.FilePolarity,Positive*
G04*
G01*
G75*
%ADD18C,0.8000*%
%ADD20R,1.6000X1.6000*%
%ADD21C,2.0000*%
%ADD22R,2.0000X2.0000*%
%ADD25R,2.0000X2.0000*%
%ADD31C,2.5000*%
%ADD37R,2.5000X2.5000*%
%ADD43C,1.2700*%
%ADD44C,1.4000*%
%ADD45C,1.0000*%
%ADD46C,1.2000*%
%ADD47C,0.7620*%
%ADD48C,1.7000*%
%ADD49C,1.5000*%
%ADD50C,2.4000*%
%ADD51O,2.2000X3.0000*%
%ADD52O,2.0000X2.0000*%
%ADD53C,1.9000*%
%ADD54R,1.5000X1.5000*%
G04:AMPARAMS|DCode=55|XSize=1.3mm|YSize=1.3mm|CornerRadius=0.325mm|HoleSize=0mm|Usage=FLASHONLY|Rotation=0.000|XOffset=0mm|YOffset=0mm|HoleType=Round|Shape=RoundedRectangle|*
%AMROUNDEDRECTD55*
21,1,1.3000,0.6500,0,0,0.0*
21,1,0.6500,1.3000,0,0,0.0*
1,1,0.6500,0.3250,-0.3250*
1,1,0.6500,-0.3250,-0.3250*
1,1,0.6500,-0.3250,0.3250*
1,1,0.6500,0.3250,0.3250*
%
%ADD55ROUNDEDRECTD55*%
%ADD56C,1.3000*%
%ADD57R,2.2800X2.2800*%
%ADD58R,2.4000X2.4000*%
%ADD59C,2.2800*%
%ADD60O,3.0000X2.2000*%
%ADD61C,1.2700*%
%ADD62C,3.2000*%
D18*
X1225550Y606298D02*
X1322375D01*
X1203706Y466090D02*
Y584454D01*
Y804672D01*
Y584454D02*
X1225550Y606298D01*
X1188212Y846836D02*
X1218946Y877570D01*
X1188212Y846836D02*
Y847344D01*
X1218946Y877570D02*
X1387223D01*
X1402717Y893064D01*
X1402842D01*
X1322375Y606298D02*
X1368171Y652094D01*
X1422908Y411772D02*
Y433070D01*
X1380744Y369608D02*
X1422908Y411772D01*
D20*
X930402Y859390D02*
D03*
D21*
Y809390D02*
D03*
X1400302Y466217D02*
D03*
X1471784Y857758D02*
D03*
X1358646Y963422D02*
D03*
X1304138Y782574D02*
D03*
X1331614Y541020D02*
D03*
X1433449Y285242D02*
D03*
X1380744Y369608D02*
D03*
X1338688Y368554D02*
D03*
X1300226Y295402D02*
D03*
X1203198Y317900D02*
D03*
X1157732Y317862D02*
D03*
X1074166Y153670D02*
D03*
X1019302D02*
D03*
X964438D02*
D03*
X909574D02*
D03*
X1383538Y858774D02*
D03*
X1274826Y295402D02*
D03*
X1465199Y385242D02*
D03*
X1434084D02*
D03*
X1267079Y902894D02*
D03*
X1303604Y924433D02*
D03*
X1236091Y802894D02*
D03*
X1304138Y833374D02*
D03*
X1383538D02*
D03*
Y807974D02*
D03*
Y782574D02*
D03*
X1304138Y807974D02*
D03*
X1329865Y752061D02*
D03*
X1368806Y752094D02*
D03*
X1402842Y893064D02*
D03*
X1325626Y295402D02*
D03*
X1464564Y285242D02*
D03*
X1236091Y773862D02*
D03*
X1400302Y498348D02*
D03*
X1300302Y498983D02*
D03*
Y466852D02*
D03*
X1267968Y773176D02*
D03*
X1384046Y963422D02*
D03*
X1409446D02*
D03*
D22*
X1381614Y541020D02*
D03*
X1333246Y963422D02*
D03*
X1421784Y857758D02*
D03*
X1288688Y368554D02*
D03*
X1304138Y858774D02*
D03*
D25*
X1157732Y267862D02*
D03*
X1203198Y367900D02*
D03*
X1380744Y419608D02*
D03*
X909574Y179070D02*
D03*
X1074166D02*
D03*
X1019302D02*
D03*
X964438D02*
D03*
D31*
X1097788Y84582D02*
D03*
X1032002D02*
D03*
X965200D02*
D03*
X893826D02*
D03*
D37*
X1097788Y33782D02*
D03*
X1032002D02*
D03*
X965200D02*
D03*
X893826D02*
D03*
D43*
X1203706Y466090D02*
X1278636Y541020D01*
X1175512Y437896D02*
X1203706Y466090D01*
X1278636Y541020D02*
X1331614D01*
X973328Y437896D02*
X1175512D01*
X944118Y467106D02*
X973328Y437896D01*
X971188Y317862D02*
X1157732D01*
X944118Y344932D02*
X971188Y317862D01*
X944118Y344932D02*
Y467106D01*
D44*
X919350Y858390D02*
X929402D01*
X876808Y815848D02*
X919350Y858390D01*
X929402D02*
X930402Y859390D01*
X948036Y267862D02*
X1157732D01*
X876808Y339090D02*
Y815848D01*
Y339090D02*
X948036Y267862D01*
D45*
X930402Y767232D02*
Y809390D01*
X1250188Y310642D02*
Y407162D01*
X1276477Y433451D02*
X1330071D01*
X1250188Y407162D02*
X1276477Y433451D01*
X1362837Y466217D02*
X1400302D01*
X1330071Y433451D02*
X1362837Y466217D01*
X1207408Y267862D02*
X1250188Y310642D01*
X1157732Y267862D02*
X1207408D01*
X928095Y764925D02*
X930402Y767232D01*
X928095Y764194D02*
Y764925D01*
D46*
X989627Y367900D02*
X1203198D01*
X989011Y367284D02*
X989627Y367900D01*
X988822Y367284D02*
X989011D01*
D47*
X1414929Y568960D02*
X1417977Y572008D01*
X1223772Y568960D02*
X1414929D01*
X1417977Y572008D02*
X1419352D01*
D48*
X1368171Y652094D02*
D03*
X1267333Y673176D02*
D03*
X1329230Y652061D02*
D03*
X1235456Y673862D02*
D03*
X1266444Y802894D02*
D03*
X1236726Y902894D02*
D03*
X1403604Y923798D02*
D03*
X1302842Y893699D02*
D03*
D49*
X1448308Y608076D02*
D03*
X1447546Y472948D02*
D03*
X1448308Y557276D02*
D03*
Y582676D02*
D03*
X1447546Y498348D02*
D03*
Y523748D02*
D03*
D50*
X1320344Y176276D02*
D03*
D51*
X1304544Y80804D02*
D03*
X908558Y935736D02*
D03*
X857758D02*
D03*
X1355344Y80804D02*
D03*
D52*
X1152144Y949706D02*
D03*
Y924306D02*
D03*
X999998Y492397D02*
D03*
Y543198D02*
D03*
Y466997D02*
D03*
Y568597D02*
D03*
Y593997D02*
D03*
X1152144Y848106D02*
D03*
Y873506D02*
D03*
Y898906D02*
D03*
Y822706D02*
D03*
Y797306D02*
D03*
Y746506D02*
D03*
Y721106D02*
D03*
Y695706D02*
D03*
Y771906D02*
D03*
Y670306D02*
D03*
Y619506D02*
D03*
Y467106D02*
D03*
Y492506D02*
D03*
Y517906D02*
D03*
Y543306D02*
D03*
Y644906D02*
D03*
Y568706D02*
D03*
Y594106D02*
D03*
X999998Y873398D02*
D03*
Y924197D02*
D03*
Y695598D02*
D03*
Y619398D02*
D03*
Y644798D02*
D03*
Y670198D02*
D03*
Y720997D02*
D03*
Y746397D02*
D03*
Y949852D02*
D03*
Y898798D02*
D03*
Y847998D02*
D03*
Y797197D02*
D03*
Y771797D02*
D03*
Y822598D02*
D03*
Y517798D02*
D03*
D53*
X280416Y155956D02*
D03*
X483616Y130556D02*
D03*
X432816D02*
D03*
X509016D02*
D03*
X534416D02*
D03*
X756374Y912152D02*
D03*
X89624Y912660D02*
D03*
X229616Y155956D02*
D03*
Y130556D02*
D03*
X255016Y155956D02*
D03*
Y130556D02*
D03*
X280416D02*
D03*
X305816Y155956D02*
D03*
Y130556D02*
D03*
X331216Y155956D02*
D03*
Y130556D02*
D03*
X356616Y155956D02*
D03*
Y130556D02*
D03*
X382016Y155956D02*
D03*
Y130556D02*
D03*
X407416Y155956D02*
D03*
Y130556D02*
D03*
X432816Y155956D02*
D03*
X458216D02*
D03*
Y130556D02*
D03*
X483616Y155956D02*
D03*
X509016D02*
D03*
X534416D02*
D03*
X559816D02*
D03*
Y130556D02*
D03*
X585216Y155956D02*
D03*
Y130556D02*
D03*
X144526Y621284D02*
D03*
X119126D02*
D03*
X144526Y595884D02*
D03*
X119126D02*
D03*
X144526Y570484D02*
D03*
X119126D02*
D03*
X144526Y545084D02*
D03*
X119126D02*
D03*
X144526Y519684D02*
D03*
X119126D02*
D03*
X144526Y494284D02*
D03*
X119126D02*
D03*
X144526Y468884D02*
D03*
X119126D02*
D03*
X144526Y443484D02*
D03*
X119126D02*
D03*
X144526Y418084D02*
D03*
X119126D02*
D03*
X144526Y392684D02*
D03*
X119126D02*
D03*
X144526Y367284D02*
D03*
X119126D02*
D03*
X144526Y341884D02*
D03*
X119126D02*
D03*
X144526Y316484D02*
D03*
X119126D02*
D03*
X144526Y291084D02*
D03*
X119126D02*
D03*
X144526Y265684D02*
D03*
X119126D02*
D03*
D54*
X1448308Y633476D02*
D03*
X1447546Y447548D02*
D03*
D55*
X1257300Y945134D02*
D03*
D56*
X1237300D02*
D03*
D57*
X1419352Y72136D02*
D03*
D58*
X1355344Y176276D02*
D03*
D59*
X1419352Y225806D02*
D03*
D60*
X1438910Y739394D02*
D03*
Y688594D02*
D03*
D61*
X1203706Y804672D02*
D03*
X1188212Y847344D02*
D03*
X1422908Y433070D02*
D03*
X944118Y467106D02*
D03*
X928095Y764194D02*
D03*
X988822Y367284D02*
D03*
X1223772Y568960D02*
D03*
X1419352Y572008D02*
D03*
D62*
X30000Y970000D02*
D03*
X1470000D02*
D03*
Y30000D02*
D03*
X30000D02*
D03*
M02*
