G04*
G04 #@! TF.GenerationSoftware,Altium Limited,Altium Designer,25.8.1 (18)*
G04*
G04 Layer_Color=32768*
%FSLAX44Y44*%
%MOMM*%
G71*
G04*
G04 #@! TF.SameCoordinates,615BD6FC-8C97-45DB-998E-DFA11581AE0A*
G04*
G04*
G04 #@! TF.FilePolarity,Positive*
G04*
G01*
G75*
%ADD73C,0.1000*%
G36*
X1224250Y935453D02*
X1230616Y938116D01*
X1230611Y938127D01*
X1229998Y939817D01*
X1229289Y943338D01*
Y946930D01*
X1229998Y950451D01*
X1230611Y952141D01*
X1230611D01*
X1230616Y952152D01*
X1224250Y954815D01*
X1223285Y952516D01*
X1222300Y947627D01*
Y942641D01*
X1223285Y937752D01*
X1224250Y935453D01*
D01*
D02*
G37*
D73*
X1265400Y945134D02*
X1265224Y947653D01*
X1264699Y950123D01*
X1263835Y952496D01*
X1262650Y954725D01*
X1261165Y956768D01*
X1259411Y958585D01*
X1257421Y960140D01*
X1255235Y961402D01*
X1252893Y962348D01*
X1250443Y962959D01*
X1247932Y963223D01*
X1245408Y963135D01*
X1242921Y962696D01*
X1240520Y961916D01*
X1238250Y960809D01*
X1236156Y959397D01*
X1234280Y957707D01*
X1232657Y955773D01*
X1231319Y953631D01*
X1230292Y951325D01*
X1229595Y948897D01*
X1229244Y946397D01*
Y943871D01*
X1229595Y941371D01*
X1230292Y938943D01*
X1231319Y936637D01*
X1232657Y934495D01*
X1234280Y932561D01*
X1236156Y930871D01*
X1238250Y929459D01*
X1240520Y928352D01*
X1242921Y927572D01*
X1245408Y927133D01*
X1247932Y927045D01*
X1250443Y927309D01*
X1252893Y927920D01*
X1255235Y928866D01*
X1257421Y930128D01*
X1259411Y931683D01*
X1261165Y933500D01*
X1262650Y935543D01*
X1263835Y937772D01*
X1264699Y940145D01*
X1265224Y942615D01*
X1265400Y945134D01*
X1272300D02*
X1272172Y947663D01*
X1271788Y950166D01*
X1271153Y952618D01*
X1270274Y954993D01*
X1269159Y957266D01*
X1267819Y959416D01*
X1266269Y961418D01*
X1264524Y963254D01*
X1262603Y964903D01*
X1260524Y966350D01*
X1258310Y967579D01*
X1255983Y968578D01*
X1253566Y969336D01*
X1251086Y969846D01*
X1248566Y970102D01*
X1246034D01*
X1243514Y969846D01*
X1241034Y969336D01*
X1238617Y968578D01*
X1236290Y967579D01*
X1234076Y966350D01*
X1231997Y964903D01*
X1230076Y963254D01*
X1228331Y961418D01*
X1226781Y959416D01*
X1225441Y957266D01*
X1224326Y954993D01*
X1223447Y952618D01*
X1222812Y950166D01*
X1222428Y947663D01*
X1222300Y945134D01*
X1222428Y942605D01*
X1222812Y940101D01*
X1223447Y937650D01*
X1224326Y935275D01*
X1225441Y933001D01*
X1226781Y930852D01*
X1228331Y928850D01*
X1230076Y927014D01*
X1231997Y925365D01*
X1234076Y923918D01*
X1236290Y922689D01*
X1238617Y921690D01*
X1241034Y920932D01*
X1243514Y920422D01*
X1246034Y920166D01*
X1248566D01*
X1251086Y920422D01*
X1253566Y920932D01*
X1255983Y921690D01*
X1258310Y922689D01*
X1260524Y923918D01*
X1262603Y925365D01*
X1264524Y927014D01*
X1266269Y928850D01*
X1267819Y930852D01*
X1269159Y933001D01*
X1270274Y935275D01*
X1271153Y937650D01*
X1271788Y940102D01*
X1272172Y942605D01*
X1272300Y945134D01*
M02*
