G04*
G04 #@! TF.GenerationSoftware,Altium Limited,Altium Designer,25.8.1 (18)*
G04*
G04 Layer_Color=2752767*
%FSLAX44Y44*%
%MOMM*%
G71*
G04*
G04 #@! TF.SameCoordinates,615BD6FC-8C97-45DB-998E-DFA11581AE0A*
G04*
G04*
G04 #@! TF.FilePolarity,Positive*
G04*
G01*
G75*
%ADD12C,0.1270*%
%ADD75C,0.1693*%
%ADD76C,0.1016*%
D12*
X925322Y854310D02*
Y864470D01*
X935482D01*
Y854310D01*
X925322D01*
X927354Y856342D02*
Y862438D01*
X933450D01*
Y856342D01*
X927354D01*
X925322Y804310D02*
Y814470D01*
X935482D01*
Y804310D01*
X925322D01*
X927354Y806342D02*
Y812438D01*
X933450D01*
Y806342D01*
X927354D01*
X1376534Y535940D02*
Y546100D01*
X1386694D01*
Y535940D01*
X1376534D01*
X1328166Y958342D02*
Y968502D01*
X1338326D01*
Y958342D01*
X1328166D01*
X1400302Y466217D02*
Y474681D01*
X1404534Y478913D01*
X1408766Y474681D01*
Y466217D01*
Y472565D01*
X1400302D01*
X1152652Y262782D02*
Y272942D01*
X1162812D01*
Y262782D01*
X1152652D01*
X1466704Y852678D02*
Y862838D01*
X1476864D01*
Y852678D01*
X1466704D01*
X1368171Y652094D02*
Y660558D01*
X1372403Y664790D01*
X1376635Y660558D01*
Y652094D01*
Y658442D01*
X1368171D01*
X1448308Y602996D02*
X1443228Y613156D01*
X1453388D01*
X1448308Y602996D01*
X1353566Y958342D02*
Y968502D01*
X1363726D01*
Y958342D01*
X1353566D01*
X1299058Y777494D02*
Y787654D01*
X1309218D01*
Y777494D01*
X1299058D01*
X1267333Y673176D02*
Y681640D01*
X1271565Y685872D01*
X1275797Y681640D01*
Y673176D01*
Y679524D01*
X1267333D01*
X1326534Y535940D02*
Y546100D01*
X1336694D01*
Y535940D01*
X1326534D01*
X1447546Y467868D02*
X1442466Y478028D01*
X1452626D01*
X1447546Y467868D01*
X1433449Y285242D02*
Y293706D01*
X1437681Y297938D01*
X1441913Y293706D01*
Y285242D01*
Y291590D01*
X1433449D01*
X1375664Y364528D02*
Y374688D01*
X1385824D01*
Y364528D01*
X1375664D01*
X1333608Y363474D02*
Y373634D01*
X1343768D01*
Y363474D01*
X1333608D01*
X1295146Y290322D02*
Y300482D01*
X1305306D01*
Y290322D01*
X1295146D01*
X1317804Y173736D02*
Y171196D01*
X1322884D01*
Y173736D01*
X1325424D01*
Y178816D01*
X1322884D01*
Y181356D01*
X1317804D01*
Y178816D01*
X1315264D01*
Y173736D01*
X1317804D01*
X1302004Y78264D02*
Y75724D01*
X1307084D01*
Y78264D01*
X1309624D01*
Y83344D01*
X1307084D01*
Y85884D01*
X1302004D01*
Y83344D01*
X1299464D01*
Y78264D01*
X1302004D01*
X1147064Y944626D02*
Y954786D01*
X1157224D01*
Y944626D01*
X1147064D01*
Y919226D02*
Y929386D01*
X1157224D01*
Y919226D01*
X1147064D01*
X994918Y487318D02*
Y497477D01*
X1005078D01*
Y487318D01*
X994918D01*
X1198118Y312820D02*
Y322980D01*
X1208278D01*
Y312820D01*
X1198118D01*
X1152652Y312782D02*
Y322942D01*
X1162812D01*
Y312782D01*
X1152652D01*
X1092708Y84582D02*
X1097788Y89662D01*
X1102868Y84582D01*
X1097788Y79502D01*
X1092708Y84582D01*
X1026922D02*
X1032002Y89662D01*
X1037082Y84582D01*
X1032002Y79502D01*
X1026922Y84582D01*
X960120D02*
X965200Y89662D01*
X970280Y84582D01*
X965200Y79502D01*
X960120Y84582D01*
X888746D02*
X893826Y89662D01*
X898906Y84582D01*
X893826Y79502D01*
X888746Y84582D01*
X275336Y150876D02*
Y161036D01*
X285496D01*
Y150876D01*
X275336D01*
X994918Y538117D02*
Y548278D01*
X1005078D01*
Y538117D01*
X994918D01*
Y461917D02*
Y472077D01*
X1005078D01*
Y461917D01*
X994918D01*
Y563517D02*
Y573677D01*
X1005078D01*
Y563517D01*
X994918D01*
Y588918D02*
Y599077D01*
X1005078D01*
Y588918D01*
X994918D01*
X1147064Y843026D02*
Y853186D01*
X1157224D01*
Y843026D01*
X1147064D01*
Y868426D02*
Y878586D01*
X1157224D01*
Y868426D01*
X1147064D01*
Y893826D02*
Y903986D01*
X1157224D01*
Y893826D01*
X1147064D01*
Y817626D02*
Y827786D01*
X1157224D01*
Y817626D01*
X1147064D01*
Y792226D02*
Y802386D01*
X1157224D01*
Y792226D01*
X1147064D01*
Y741426D02*
Y751586D01*
X1157224D01*
Y741426D01*
X1147064D01*
Y716026D02*
Y726186D01*
X1157224D01*
Y716026D01*
X1147064D01*
Y690626D02*
Y700786D01*
X1157224D01*
Y690626D01*
X1147064D01*
Y766826D02*
Y776986D01*
X1157224D01*
Y766826D01*
X1147064D01*
Y665226D02*
Y675386D01*
X1157224D01*
Y665226D01*
X1147064D01*
Y614426D02*
Y624586D01*
X1157224D01*
Y614426D01*
X1147064D01*
Y462026D02*
Y472186D01*
X1157224D01*
Y462026D01*
X1147064D01*
Y487426D02*
Y497586D01*
X1157224D01*
Y487426D01*
X1147064D01*
Y512826D02*
Y522986D01*
X1157224D01*
Y512826D01*
X1147064D01*
Y538226D02*
Y548386D01*
X1157224D01*
Y538226D01*
X1147064D01*
Y639826D02*
Y649986D01*
X1157224D01*
Y639826D01*
X1147064D01*
Y563626D02*
Y573786D01*
X1157224D01*
Y563626D01*
X1147064D01*
Y589026D02*
Y599186D01*
X1157224D01*
Y589026D01*
X1147064D01*
X994918Y868317D02*
Y878477D01*
X1005078D01*
Y868317D01*
X994918D01*
Y919118D02*
Y929277D01*
X1005078D01*
Y919118D01*
X994918D01*
Y690518D02*
Y700677D01*
X1005078D01*
Y690518D01*
X994918D01*
Y614318D02*
Y624478D01*
X1005078D01*
Y614318D01*
X994918D01*
Y639717D02*
Y649877D01*
X1005078D01*
Y639717D01*
X994918D01*
Y665117D02*
Y675277D01*
X1005078D01*
Y665117D01*
X994918D01*
Y715918D02*
Y726077D01*
X1005078D01*
Y715918D01*
X994918D01*
Y741318D02*
Y751478D01*
X1005078D01*
Y741318D01*
X994918D01*
Y944771D02*
Y954931D01*
X1005078D01*
Y944771D01*
X994918D01*
Y893717D02*
Y903877D01*
X1005078D01*
Y893717D01*
X994918D01*
Y842917D02*
Y853077D01*
X1005078D01*
Y842917D01*
X994918D01*
Y792117D02*
Y802278D01*
X1005078D01*
Y792117D01*
X994918D01*
Y766718D02*
Y776878D01*
X1005078D01*
Y766718D01*
X994918D01*
Y817517D02*
Y827678D01*
X1005078D01*
Y817517D01*
X994918D01*
Y512718D02*
Y522878D01*
X1005078D01*
Y512718D01*
X994918D01*
X1448308Y628396D02*
X1443228Y638556D01*
X1453388D01*
X1448308Y628396D01*
X1416704Y852678D02*
Y862838D01*
X1426864D01*
Y852678D01*
X1416704D01*
X1447546Y442468D02*
X1442466Y452628D01*
X1452626D01*
X1447546Y442468D01*
X1378458Y853694D02*
Y863854D01*
X1388618D01*
Y853694D01*
X1378458D01*
X1329230Y652061D02*
Y660525D01*
X1333462Y664757D01*
X1337694Y660525D01*
Y652061D01*
Y658409D01*
X1329230D01*
X1235456Y673862D02*
Y682326D01*
X1239688Y686558D01*
X1243920Y682326D01*
Y673862D01*
Y680210D01*
X1235456D01*
X1283608Y363474D02*
Y373634D01*
X1293768D01*
Y363474D01*
X1283608D01*
X1198118Y362820D02*
Y372980D01*
X1208278D01*
Y362820D01*
X1198118D01*
X1269746Y290322D02*
Y300482D01*
X1279906D01*
Y290322D01*
X1269746D01*
X1465199Y385242D02*
Y393706D01*
X1469431Y397938D01*
X1473663Y393706D01*
Y385242D01*
Y391590D01*
X1465199D01*
X1434084Y385242D02*
Y393706D01*
X1438316Y397938D01*
X1442548Y393706D01*
Y385242D01*
Y391590D01*
X1434084D01*
X1375664Y414528D02*
Y424688D01*
X1385824D01*
Y414528D01*
X1375664D01*
X478536Y125476D02*
Y135636D01*
X488696D01*
Y125476D01*
X478536D01*
X427736D02*
Y135636D01*
X437896D01*
Y125476D01*
X427736D01*
X1267079Y902894D02*
Y911358D01*
X1271311Y915590D01*
X1275543Y911358D01*
Y902894D01*
Y909242D01*
X1267079D01*
X1266444Y802894D02*
Y811358D01*
X1270676Y815590D01*
X1274908Y811358D01*
Y802894D01*
Y809242D01*
X1266444D01*
X1303604Y924433D02*
Y932897D01*
X1307836Y937129D01*
X1312068Y932897D01*
Y924433D01*
Y930781D01*
X1303604D01*
X1299058Y853694D02*
Y863854D01*
X1309218D01*
Y853694D01*
X1299058D01*
X1236091Y802894D02*
Y811358D01*
X1240323Y815590D01*
X1244555Y811358D01*
Y802894D01*
Y809242D01*
X1236091D01*
X1299058Y828294D02*
Y838454D01*
X1309218D01*
Y828294D01*
X1299058D01*
X1378458D02*
Y838454D01*
X1388618D01*
Y828294D01*
X1378458D01*
Y802894D02*
Y813054D01*
X1388618D01*
Y802894D01*
X1378458D01*
Y777494D02*
Y787654D01*
X1388618D01*
Y777494D01*
X1378458D01*
X1299058Y802894D02*
Y813054D01*
X1309218D01*
Y802894D01*
X1299058D01*
X1236726Y902894D02*
Y911358D01*
X1240958Y915590D01*
X1245190Y911358D01*
Y902894D01*
Y909242D01*
X1236726D01*
X1252220Y940054D02*
X1254760D01*
X1257300Y942594D01*
X1259840Y940054D01*
X1262380D01*
Y942594D01*
X1259840Y945134D01*
X1262380Y947674D01*
Y950214D01*
X1259840D01*
X1257300Y947674D01*
X1254760Y950214D01*
X1252220D01*
Y947674D01*
X1254760Y945134D01*
X1252220Y942594D01*
Y940054D01*
X1232220D02*
X1234760D01*
X1237300Y942594D01*
X1239840Y940054D01*
X1242380D01*
Y942594D01*
X1239840Y945134D01*
X1242380Y947674D01*
Y950214D01*
X1239840D01*
X1237300Y947674D01*
X1234760Y950214D01*
X1232220D01*
Y947674D01*
X1234760Y945134D01*
X1232220Y942594D01*
Y940054D01*
X1329865Y752061D02*
Y760525D01*
X1334097Y764757D01*
X1338329Y760525D01*
Y752061D01*
Y758409D01*
X1329865D01*
X1368806Y752094D02*
Y760558D01*
X1373038Y764790D01*
X1377270Y760558D01*
Y752094D01*
Y758442D01*
X1368806D01*
X1403604Y923798D02*
Y932262D01*
X1407836Y936494D01*
X1412068Y932262D01*
Y923798D01*
Y930146D01*
X1403604D01*
X1402842Y893064D02*
Y901528D01*
X1407074Y905760D01*
X1411306Y901528D01*
Y893064D01*
Y899412D01*
X1402842D01*
X1302842Y893699D02*
Y902163D01*
X1307074Y906395D01*
X1311306Y902163D01*
Y893699D01*
Y900047D01*
X1302842D01*
X1320546Y290322D02*
Y300482D01*
X1330706D01*
Y290322D01*
X1320546D01*
X1464564Y285242D02*
Y293706D01*
X1468796Y297938D01*
X1473028Y293706D01*
Y285242D01*
Y291590D01*
X1464564D01*
X1414272Y67056D02*
X1416812Y72136D01*
X1414272Y77216D01*
X1419352Y74676D01*
X1424432Y77216D01*
X1421892Y72136D01*
X1424432Y67056D01*
X1419352Y69596D01*
X1414272Y67056D01*
X1092708Y33782D02*
X1097788Y38862D01*
X1102868Y33782D01*
X1097788Y28702D01*
X1092708Y33782D01*
X1026922D02*
X1032002Y38862D01*
X1037082Y33782D01*
X1032002Y28702D01*
X1026922Y33782D01*
X960120D02*
X965200Y38862D01*
X970280Y33782D01*
X965200Y28702D01*
X960120Y33782D01*
X888746D02*
X893826Y38862D01*
X898906Y33782D01*
X893826Y28702D01*
X888746Y33782D01*
X503936Y125476D02*
Y135636D01*
X514096D01*
Y125476D01*
X503936D01*
X529336D02*
Y135636D01*
X539496D01*
Y125476D01*
X529336D01*
X906018Y933196D02*
Y930656D01*
X911098D01*
Y933196D01*
X913638D01*
Y938276D01*
X911098D01*
Y940816D01*
X906018D01*
Y938276D01*
X903478D01*
Y933196D01*
X906018D01*
X855218D02*
Y930656D01*
X860298D01*
Y933196D01*
X862838D01*
Y938276D01*
X860298D01*
Y940816D01*
X855218D01*
Y938276D01*
X852678D01*
Y933196D01*
X855218D01*
X1352804Y78264D02*
Y75724D01*
X1357884D01*
Y78264D01*
X1360424D01*
Y83344D01*
X1357884D01*
Y85884D01*
X1352804D01*
Y83344D01*
X1350264D01*
Y78264D01*
X1352804D01*
X1236091Y773862D02*
Y782326D01*
X1240323Y786558D01*
X1244555Y782326D01*
Y773862D01*
Y780210D01*
X1236091D01*
X1400302Y498348D02*
Y506812D01*
X1404534Y511044D01*
X1408766Y506812D01*
Y498348D01*
Y504696D01*
X1400302D01*
X1300302Y498983D02*
Y507447D01*
X1304534Y511679D01*
X1308766Y507447D01*
Y498983D01*
Y505331D01*
X1300302D01*
Y466852D02*
Y475316D01*
X1304534Y479548D01*
X1308766Y475316D01*
Y466852D01*
Y473200D01*
X1300302D01*
X1352804Y173736D02*
Y171196D01*
X1357884D01*
Y173736D01*
X1360424D01*
Y178816D01*
X1357884D01*
Y181356D01*
X1352804D01*
Y178816D01*
X1350264D01*
Y173736D01*
X1352804D01*
X1414272Y220726D02*
X1416812Y225806D01*
X1414272Y230886D01*
X1419352Y228346D01*
X1424432Y230886D01*
X1421892Y225806D01*
X1424432Y220726D01*
X1419352Y223266D01*
X1414272Y220726D01*
X1448308Y552196D02*
X1443228Y562356D01*
X1453388D01*
X1448308Y552196D01*
Y577596D02*
X1443228Y587756D01*
X1453388D01*
X1448308Y577596D01*
X1267968Y773176D02*
Y781640D01*
X1272200Y785872D01*
X1276432Y781640D01*
Y773176D01*
Y779524D01*
X1267968D01*
X1436370Y736854D02*
Y734314D01*
X1441450D01*
Y736854D01*
X1443990D01*
Y741934D01*
X1441450D01*
Y744474D01*
X1436370D01*
Y741934D01*
X1433830D01*
Y736854D01*
X1436370D01*
Y686054D02*
Y683514D01*
X1441450D01*
Y686054D01*
X1443990D01*
Y691134D01*
X1441450D01*
Y693674D01*
X1436370D01*
Y691134D01*
X1433830D01*
Y686054D01*
X1436370D01*
X1378966Y958342D02*
Y968502D01*
X1389126D01*
Y958342D01*
X1378966D01*
X1404366D02*
Y968502D01*
X1414526D01*
Y958342D01*
X1404366D01*
X1447546Y493268D02*
X1442466Y503428D01*
X1452626D01*
X1447546Y493268D01*
Y518668D02*
X1442466Y528828D01*
X1452626D01*
X1447546Y518668D01*
X756374Y907072D02*
X758914Y909612D01*
X761454D01*
X758914Y912152D01*
X761454Y914692D01*
X758914D01*
X756374Y917232D01*
X753834Y914692D01*
X751294D01*
X753834Y912152D01*
X751294Y909612D01*
X753834D01*
X756374Y907072D01*
Y909104D02*
X757898Y910628D01*
X759422D01*
X757898Y912152D01*
X759422Y913676D01*
X757898D01*
X756374Y915200D01*
X754850Y913676D01*
X753326D01*
X754850Y912152D01*
X753326Y910628D01*
X754850D01*
X756374Y909104D01*
X89624Y907580D02*
X92164Y910120D01*
X94704D01*
X92164Y912660D01*
X94704Y915200D01*
X92164D01*
X89624Y917740D01*
X87084Y915200D01*
X84544D01*
X87084Y912660D01*
X84544Y910120D01*
X87084D01*
X89624Y907580D01*
Y909612D02*
X91148Y911136D01*
X92672D01*
X91148Y912660D01*
X92672Y914184D01*
X91148D01*
X89624Y915708D01*
X88100Y914184D01*
X86576D01*
X88100Y912660D01*
X86576Y911136D01*
X88100D01*
X89624Y909612D01*
X224536Y150876D02*
Y161036D01*
X234696D01*
Y150876D01*
X224536D01*
Y125476D02*
Y135636D01*
X234696D01*
Y125476D01*
X224536D01*
X249936Y150876D02*
Y161036D01*
X260096D01*
Y150876D01*
X249936D01*
Y125476D02*
Y135636D01*
X260096D01*
Y125476D01*
X249936D01*
X275336D02*
Y135636D01*
X285496D01*
Y125476D01*
X275336D01*
X300736Y150876D02*
Y161036D01*
X310896D01*
Y150876D01*
X300736D01*
Y125476D02*
Y135636D01*
X310896D01*
Y125476D01*
X300736D01*
X326136Y150876D02*
Y161036D01*
X336296D01*
Y150876D01*
X326136D01*
Y125476D02*
Y135636D01*
X336296D01*
Y125476D01*
X326136D01*
X351536Y150876D02*
Y161036D01*
X361696D01*
Y150876D01*
X351536D01*
Y125476D02*
Y135636D01*
X361696D01*
Y125476D01*
X351536D01*
X376936Y150876D02*
Y161036D01*
X387096D01*
Y150876D01*
X376936D01*
Y125476D02*
Y135636D01*
X387096D01*
Y125476D01*
X376936D01*
X402336Y150876D02*
Y161036D01*
X412496D01*
Y150876D01*
X402336D01*
Y125476D02*
Y135636D01*
X412496D01*
Y125476D01*
X402336D01*
X427736Y150876D02*
Y161036D01*
X437896D01*
Y150876D01*
X427736D01*
X453136D02*
Y161036D01*
X463296D01*
Y150876D01*
X453136D01*
Y125476D02*
Y135636D01*
X463296D01*
Y125476D01*
X453136D01*
X478536Y150876D02*
Y161036D01*
X488696D01*
Y150876D01*
X478536D01*
X503936D02*
Y161036D01*
X514096D01*
Y150876D01*
X503936D01*
X529336D02*
Y161036D01*
X539496D01*
Y150876D01*
X529336D01*
X554736D02*
Y161036D01*
X564896D01*
Y150876D01*
X554736D01*
Y125476D02*
Y135636D01*
X564896D01*
Y125476D01*
X554736D01*
X580136Y150876D02*
Y161036D01*
X590296D01*
Y150876D01*
X580136D01*
Y125476D02*
Y135636D01*
X590296D01*
Y125476D01*
X580136D01*
X139446Y616204D02*
Y626364D01*
X149606D01*
Y616204D01*
X139446D01*
X114046D02*
Y626364D01*
X124206D01*
Y616204D01*
X114046D01*
X139446Y590804D02*
Y600964D01*
X149606D01*
Y590804D01*
X139446D01*
X114046D02*
Y600964D01*
X124206D01*
Y590804D01*
X114046D01*
X139446Y565404D02*
Y575564D01*
X149606D01*
Y565404D01*
X139446D01*
X114046D02*
Y575564D01*
X124206D01*
Y565404D01*
X114046D01*
X139446Y540004D02*
Y550164D01*
X149606D01*
Y540004D01*
X139446D01*
X114046D02*
Y550164D01*
X124206D01*
Y540004D01*
X114046D01*
X139446Y514604D02*
Y524764D01*
X149606D01*
Y514604D01*
X139446D01*
X114046D02*
Y524764D01*
X124206D01*
Y514604D01*
X114046D01*
X139446Y489204D02*
Y499364D01*
X149606D01*
Y489204D01*
X139446D01*
X114046D02*
Y499364D01*
X124206D01*
Y489204D01*
X114046D01*
X139446Y463804D02*
Y473964D01*
X149606D01*
Y463804D01*
X139446D01*
X114046D02*
Y473964D01*
X124206D01*
Y463804D01*
X114046D01*
X139446Y438404D02*
Y448564D01*
X149606D01*
Y438404D01*
X139446D01*
X114046D02*
Y448564D01*
X124206D01*
Y438404D01*
X114046D01*
X139446Y413004D02*
Y423164D01*
X149606D01*
Y413004D01*
X139446D01*
X114046D02*
Y423164D01*
X124206D01*
Y413004D01*
X114046D01*
X139446Y387604D02*
Y397764D01*
X149606D01*
Y387604D01*
X139446D01*
X114046D02*
Y397764D01*
X124206D01*
Y387604D01*
X114046D01*
X139446Y362204D02*
Y372364D01*
X149606D01*
Y362204D01*
X139446D01*
X114046D02*
Y372364D01*
X124206D01*
Y362204D01*
X114046D01*
X139446Y336804D02*
Y346964D01*
X149606D01*
Y336804D01*
X139446D01*
X114046D02*
Y346964D01*
X124206D01*
Y336804D01*
X114046D01*
X139446Y311404D02*
Y321564D01*
X149606D01*
Y311404D01*
X139446D01*
X114046D02*
Y321564D01*
X124206D01*
Y311404D01*
X114046D01*
X139446Y286004D02*
Y296164D01*
X149606D01*
Y286004D01*
X139446D01*
X114046D02*
Y296164D01*
X124206D01*
Y286004D01*
X114046D01*
X139446Y260604D02*
Y270764D01*
X149606D01*
Y260604D01*
X139446D01*
X114046D02*
Y270764D01*
X124206D01*
Y260604D01*
X114046D01*
X1198626Y799592D02*
Y809752D01*
X1208786D01*
Y799592D01*
X1198626D01*
X1417828Y427990D02*
Y438150D01*
X1427988D01*
Y427990D01*
X1417828D01*
X939038Y462026D02*
Y472186D01*
X949198D01*
Y462026D01*
X939038D01*
X923015Y759114D02*
Y769274D01*
X933175D01*
Y759114D01*
X923015D01*
X983742Y362204D02*
Y372364D01*
X993902D01*
Y362204D01*
X983742D01*
X1218692Y563880D02*
Y574040D01*
X1228852D01*
Y563880D01*
X1218692D01*
X1414272Y566928D02*
Y577088D01*
X1424432D01*
Y566928D01*
X1414272D01*
X30000Y964920D02*
X32540Y967460D01*
X35080D01*
X32540Y970000D01*
X35080Y972540D01*
X32540D01*
X30000Y975080D01*
X27460Y972540D01*
X24920D01*
X27460Y970000D01*
X24920Y967460D01*
X27460D01*
X30000Y964920D01*
X1470000D02*
X1472540Y967460D01*
X1475080D01*
X1472540Y970000D01*
X1475080Y972540D01*
X1472540D01*
X1470000Y975080D01*
X1467460Y972540D01*
X1464920D01*
X1467460Y970000D01*
X1464920Y967460D01*
X1467460D01*
X1470000Y964920D01*
Y24920D02*
X1472540Y27460D01*
X1475080D01*
X1472540Y30000D01*
X1475080Y32540D01*
X1472540D01*
X1470000Y35080D01*
X1467460Y32540D01*
X1464920D01*
X1467460Y30000D01*
X1464920Y27460D01*
X1467460D01*
X1470000Y24920D01*
X30000D02*
X32540Y27460D01*
X35080D01*
X32540Y30000D01*
X35080Y32540D01*
X32540D01*
X30000Y35080D01*
X27460Y32540D01*
X24920D01*
X27460Y30000D01*
X24920Y27460D01*
X27460D01*
X30000Y24920D01*
D75*
X1079246Y153670D02*
X1078664Y156031D01*
X1077052Y157851D01*
X1074778Y158713D01*
X1072365Y158420D01*
X1070364Y157039D01*
X1069234Y154886D01*
Y152454D01*
X1070364Y150301D01*
X1072365Y148920D01*
X1074778Y148627D01*
X1077052Y149489D01*
X1078664Y151309D01*
X1079246Y153670D01*
X1024382D02*
X1023800Y156031D01*
X1022188Y157851D01*
X1019914Y158713D01*
X1017501Y158420D01*
X1015500Y157039D01*
X1014370Y154886D01*
Y152454D01*
X1015500Y150301D01*
X1017501Y148920D01*
X1019914Y148627D01*
X1022188Y149489D01*
X1023800Y151309D01*
X1024382Y153670D01*
X969518D02*
X968936Y156031D01*
X967324Y157851D01*
X965050Y158713D01*
X962637Y158420D01*
X960636Y157039D01*
X959506Y154886D01*
Y152454D01*
X960636Y150301D01*
X962637Y148920D01*
X965050Y148627D01*
X967324Y149489D01*
X968936Y151309D01*
X969518Y153670D01*
X914654D02*
X914072Y156031D01*
X912460Y157851D01*
X910186Y158713D01*
X907773Y158420D01*
X905772Y157039D01*
X904642Y154886D01*
Y152454D01*
X905772Y150301D01*
X907773Y148920D01*
X910186Y148627D01*
X912460Y149489D01*
X914072Y151309D01*
X914654Y153670D01*
Y179070D02*
X914072Y181431D01*
X912460Y183251D01*
X910186Y184113D01*
X907773Y183820D01*
X905772Y182439D01*
X904642Y180286D01*
Y177854D01*
X905772Y175701D01*
X907773Y174320D01*
X910186Y174027D01*
X912460Y174889D01*
X914072Y176709D01*
X914654Y179070D01*
X1079246D02*
X1078664Y181431D01*
X1077052Y183251D01*
X1074778Y184113D01*
X1072365Y183820D01*
X1070364Y182439D01*
X1069234Y180286D01*
Y177854D01*
X1070364Y175701D01*
X1072365Y174320D01*
X1074778Y174027D01*
X1077052Y174889D01*
X1078664Y176709D01*
X1079246Y179070D01*
X1024382D02*
X1023800Y181431D01*
X1022188Y183251D01*
X1019914Y184113D01*
X1017501Y183820D01*
X1015500Y182439D01*
X1014370Y180286D01*
Y177854D01*
X1015500Y175701D01*
X1017501Y174320D01*
X1019914Y174027D01*
X1022188Y174889D01*
X1023800Y176709D01*
X1024382Y179070D01*
X969518D02*
X968936Y181431D01*
X967324Y183251D01*
X965050Y184113D01*
X962637Y183820D01*
X960636Y182439D01*
X959506Y180286D01*
Y177854D01*
X960636Y175701D01*
X962637Y174320D01*
X965050Y174027D01*
X967324Y174889D01*
X968936Y176709D01*
X969518Y179070D01*
X1193292Y847344D02*
X1192710Y849705D01*
X1191098Y851525D01*
X1188824Y852387D01*
X1186411Y852094D01*
X1184410Y850713D01*
X1183280Y848560D01*
Y846128D01*
X1184410Y843975D01*
X1186411Y842594D01*
X1188824Y842301D01*
X1191098Y843163D01*
X1192710Y844983D01*
X1193292Y847344D01*
D76*
X1191260D02*
X1190367Y849499D01*
X1188212Y850392D01*
X1186057Y849499D01*
X1185164Y847344D01*
X1186057Y845189D01*
X1188212Y844296D01*
X1190367Y845189D01*
X1191260Y847344D01*
M02*
