G04*
G04 #@! TF.GenerationSoftware,Altium Limited,Altium Designer,25.8.1 (18)*
G04*
G04 Layer_Color=32896*
%FSLAX44Y44*%
%MOMM*%
G71*
G04*
G04 #@! TF.SameCoordinates,615BD6FC-8C97-45DB-998E-DFA11581AE0A*
G04*
G04*
G04 #@! TF.FilePolarity,Positive*
G04*
G01*
G75*
%ADD10C,0.2000*%
%ADD12C,0.1270*%
%ADD13C,0.2540*%
%ADD15C,0.1500*%
D10*
X857430Y878840D02*
X855430D01*
X857430D01*
X1173758Y159296D02*
X1171758D01*
X1173758D01*
X1402064Y615754D02*
X1400064D01*
X1402064D01*
D12*
X856180Y814390D02*
Y854390D01*
X906580Y814390D02*
Y854390D01*
X1182383Y191771D02*
Y226821D01*
X1117333D02*
X1182383D01*
X1117333Y191771D02*
Y226821D01*
Y191771D02*
X1182383D01*
X1336614Y565604D02*
X1376614D01*
X1336614Y616004D02*
X1376614D01*
D13*
X842522Y769114D02*
Y781810D01*
X845061Y784350D01*
X850140D01*
X852679Y781810D01*
Y769114D01*
X867914D02*
X857757D01*
Y776732D01*
X862835Y774193D01*
X865375D01*
X867914Y776732D01*
Y781810D01*
X865375Y784350D01*
X860296D01*
X857757Y781810D01*
X1308350Y592834D02*
Y580138D01*
X1305811Y577598D01*
X1300732D01*
X1298193Y580138D01*
Y592834D01*
X1285497Y577598D02*
Y592834D01*
X1293115Y585216D01*
X1282958D01*
D15*
X1099394Y217119D02*
X1107724D01*
X1109390Y215452D01*
Y212120D01*
X1107724Y210454D01*
X1099394D01*
Y207122D02*
Y200457D01*
X1101060D01*
X1107724Y207122D01*
X1109390D01*
M02*
