G04*
G04 #@! TF.GenerationSoftware,Altium Limited,Altium Designer,25.8.1 (18)*
G04*
G04 Layer_Color=32768*
%FSLAX44Y44*%
%MOMM*%
G71*
G04*
G04 #@! TF.SameCoordinates,615BD6FC-8C97-45DB-998E-DFA11581AE0A*
G04*
G04*
G04 #@! TF.FilePolarity,Positive*
G04*
G01*
G75*
%ADD14C,0.1524*%
%ADD72C,0.0500*%
G36*
X1227286Y336842D02*
X1377400D01*
Y251752D01*
X1227286D01*
Y336842D01*
D02*
G37*
D14*
X1377400Y251752D02*
Y336842D01*
X1227286Y251752D02*
X1377400D01*
X1227286D02*
Y336842D01*
X1377400D01*
D72*
X1380344Y176276D02*
X1380268Y178818D01*
X1380040Y181350D01*
X1379661Y183865D01*
X1379132Y186352D01*
X1378456Y188803D01*
X1377634Y191209D01*
X1376670Y193562D01*
X1375566Y195853D01*
X1374328Y198074D01*
X1372959Y200217D01*
X1371464Y202274D01*
X1369849Y204238D01*
X1368120Y206102D01*
X1366282Y207860D01*
X1364342Y209504D01*
X1362308Y211029D01*
X1360186Y212430D01*
X1357983Y213701D01*
X1355709Y214839D01*
X1353371Y215838D01*
X1350977Y216696D01*
X1348536Y217409D01*
X1346057Y217975D01*
X1343549Y218391D01*
X1341020Y218657D01*
X1338480Y218771D01*
X1335937Y218733D01*
X1333401Y218543D01*
X1330882Y218202D01*
X1328387Y217710D01*
X1325926Y217071D01*
X1323507Y216285D01*
X1321140Y215356D01*
X1318833Y214287D01*
X1316594Y213082D01*
X1314431Y211745D01*
X1312352Y210282D01*
X1310363Y208696D01*
X1308474Y206995D01*
X1306689Y205183D01*
X1305016Y203268D01*
X1303461Y201257D01*
X1302028Y199156D01*
X1300724Y196973D01*
X1299553Y194716D01*
X1298519Y192393D01*
X1297625Y190012D01*
X1296875Y187582D01*
X1296273Y185112D01*
X1295819Y182610D01*
X1295515Y180086D01*
X1295363Y177547D01*
Y175005D01*
X1295515Y172466D01*
X1295819Y169942D01*
X1296273Y167440D01*
X1296875Y164969D01*
X1297625Y162540D01*
X1298519Y160159D01*
X1299553Y157836D01*
X1300724Y155579D01*
X1302028Y153396D01*
X1303461Y151295D01*
X1305016Y149284D01*
X1306689Y147369D01*
X1308474Y145557D01*
X1310363Y143856D01*
X1312352Y142270D01*
X1314431Y140807D01*
X1316594Y139470D01*
X1318833Y138265D01*
X1321140Y137196D01*
X1323508Y136267D01*
X1325926Y135481D01*
X1328387Y134842D01*
X1330882Y134350D01*
X1333401Y134009D01*
X1335937Y133819D01*
X1338480Y133781D01*
X1341020Y133895D01*
X1343549Y134161D01*
X1346057Y134577D01*
X1348536Y135143D01*
X1350977Y135856D01*
X1353371Y136714D01*
X1355709Y137713D01*
X1357983Y138851D01*
X1360185Y140122D01*
X1362308Y141523D01*
X1364342Y143048D01*
X1366282Y144692D01*
X1368120Y146449D01*
X1369849Y148314D01*
X1371464Y150278D01*
X1372959Y152335D01*
X1374328Y154478D01*
X1375566Y156699D01*
X1376669Y158989D01*
X1377634Y161342D01*
X1378456Y163749D01*
X1379132Y166200D01*
X1379661Y168687D01*
X1380040Y171201D01*
X1380268Y173734D01*
X1380344Y176276D01*
X1295988Y770224D02*
Y871124D01*
X1391688Y770224D02*
Y871124D01*
X1295988Y770224D02*
X1391688D01*
X1295988Y871124D02*
X1391688D01*
X853880Y797290D02*
Y871490D01*
X908880Y797290D02*
Y871490D01*
X853880D02*
X908880D01*
X853880Y797290D02*
X908880D01*
X1184883Y166796D02*
Y251796D01*
X1114833Y166796D02*
X1184883D01*
X1114833D02*
Y251796D01*
X1184883D01*
X1319514Y563304D02*
Y618304D01*
X1393714Y563304D02*
Y618304D01*
X1319514Y563304D02*
X1393714D01*
X1319514Y618304D02*
X1393714D01*
X1447102Y60876D02*
Y235876D01*
X1391602D02*
X1447102D01*
X1391602Y60876D02*
Y235876D01*
Y60876D02*
X1447102D01*
M02*
